# Made using Asset Forge (www.assetforge.io) version 1.0 

mtllib alienBones.mtl 

g alienBones

v -2.6632 0 7.079 
v -1.554402 0 7.079 
v -2.671916 1.425604 7.228692 
v -1.862492 1.425604 7.228692 
v -1.554402 0 8.187799 
v -2.6632 0 8.187799 
v -2.972897 2.4816 7.350104 
v -2.671916 1.425604 8.038116 
v -2.972897 2.4816 7.916694 
v -2.406297 2.4816 7.916694 
v -3.41439 3.537596 7.806216 
v -3.760016 3.537596 7.806216 
v -3.41439 3.537596 7.46059 
v -3.760016 3.537596 7.46059 
v -2.406297 2.4816 7.350104 
v -1.862492 1.425604 8.038116 
v -7.3368 0 1.812201 
v -7.3368 0 2.921 
v -7.328092 1.425604 1.961892 
v -7.328092 1.425604 2.771308 
v -7.027102 2.4816 2.649895 
v -7.593702 2.4816 2.649895 
v -6.239984 3.537596 2.539409 
v -6.585609 3.537596 2.539409 
v -8.137517 1.425604 1.961892 
v -7.593702 2.4816 2.083305 
v -7.027102 2.4816 2.083305 
v -6.585609 3.537596 2.193792 
v -8.137517 1.425604 2.771308 
v -1.554402 0 2.921 
v -2.6632 0 2.921 
v -1.862492 1.425604 2.771308 
v -2.671916 1.425604 2.771308 
v -6.239984 3.537596 2.193792 
v -1.862492 1.425604 1.961892 
v -2.406297 2.4816 2.083305 
v -2.406297 2.4816 2.649895 
v -8.445598 0 2.921 
v -8.445598 0 1.812201 
v -2.972897 2.4816 2.083305 
v -3.760016 3.537596 2.193792 
v -3.41439 3.537596 2.193792 
v -3.41439 3.537596 2.539409 
v -1.554402 0 1.812201 
v -2.6632 0 1.812201 
v -3.760016 3.537596 2.539409 
v -2.972897 2.4816 2.649895 
v -2.671916 1.425604 1.961892 
v -0.6930001 0 5.693 
v -2.079 0 5.693 
v -0.6930001 0 4.307 
v -2.079 0 4.307 
v -2.466121 3.101996 4.64588 
v -3.450018 4.422004 4.783988 
v -2.466121 3.101996 5.354119 
v -3.450018 4.422004 5.216012 
v -1.757881 3.101996 4.64588 
v -3.017986 4.422004 4.783988 
v -2.089891 1.781996 4.494112 
v -2.089891 1.781996 5.505888 
v -1.078106 1.781996 4.494112 
v -1.078106 1.781996 5.505888 
v -1.757881 3.101996 5.354119 
v -3.017986 4.422004 5.216012 
v -8.921894 1.781996 4.494112 
v -8.242119 3.101996 4.64588 
v -8.921894 1.781996 5.505888 
v -8.242119 3.101996 5.354119 
v -7.533879 3.101996 5.354119 
v -6.549981 4.422004 5.216012 
v -6.982014 4.422004 5.216012 
v -9.306999 0 4.307 
v -9.306999 0 5.693 
v -7.533879 3.101996 4.64588 
v -6.549981 4.422004 4.783988 
v -7.920999 0 4.307 
v -7.920999 0 5.693 
v -7.910109 1.781996 4.494112 
v -7.910109 1.781996 5.505888 
v -6.982014 4.422004 4.783988 
v -8.445598 0 7.079 
v -7.3368 0 7.079 
v -8.137517 1.425604 7.228692 
v -7.328092 1.425604 7.228692 
v -7.593702 2.4816 7.350104 
v -8.137517 1.425604 8.038116 
v -7.593702 2.4816 7.916694 
v -7.027102 2.4816 7.916694 
v -6.239984 3.537596 7.806216 
v -6.585609 3.537596 7.806216 
v -8.445598 0 8.187799 
v -7.027102 2.4816 7.350104 
v -6.239984 3.537596 7.46059 
v -6.585609 3.537596 7.46059 
v -7.328092 1.425604 8.038116 
v -7.3368 0 8.187799 

vn 0.003912234 0.1058907 -0.9943701
vn 0.003912204 0.9999924 0
vn -0.9916017 -0.1293288 0
vn -0.9607847 -0.2705764 -0.06067288
vn 0.003912234 0.1137337 0.9935036
vn 0.003912234 0.1058907 0.9943701
vn -0.8014129 -0.5981115 0
vn -0.9999924 -0.003912204 0
vn 0.003912234 0.1137337 -0.9935036
vn 0.9764522 0.2078505 -0.05778585
vn 0.94508 0.3254965 -0.02959481
vn 0.8179354 0.5753101 0
vn 0.722548 0.6913208 0
vn 0.9999814 -0.003912234 -0.004678432
vn 0.9916014 -0.1293312 0
vn -0.8179415 0.5753013 0
vn -0.7225568 0.6913115 0
vn 0.9607661 -0.2705764 -0.06096688
vn 0.8014063 -0.5981204 0
vn -0.9764708 0.2078505 -0.05747091
vn -0.9450986 0.3254965 -0.02899562

vt 10.48505 2.910356
vt 6.119692 2.910356
vt 10.51934 8.553814
vt 7.332634 8.553814
vt 6.119692 32.23544
vt 10.48505 32.23544
vt 6.119692 27.87008
vt 10.48505 27.87008
vt 28.45941 8.281075
vt 28.93741 12.60413
vt 31.64611 8.281075
vt 31.16811 12.60413
vt -9.473626 6.473712
vt -11.70432 6.473712
vt -13.44247 10.65389
vt -14.8032 10.65389
vt 13.44248 30.73312
vt 14.8032 30.73312
vt 13.44248 29.37239
vt 14.8032 29.37239
vt 28.93741 14.82821
vt 29.37239 20.01353
vt 31.16811 14.82821
vt 30.73312 20.01353
vt 27.87008 0.06407471
vt 28.45941 5.676782
vt 32.23544 0.06407471
vt 31.64611 5.676782
vt 11.70433 12.72824
vt 9.473635 12.72824
vt 14.8032 16.90842
vt 13.44248 16.90842
vt -6.119683 -3.366213
vt -10.48504 -3.366213
vt -7.332634 2.277236
vt -10.51933 2.277236
vt -27.87008 1.292689
vt -32.23543 1.292689
vt -28.45941 7.034865
vt -31.64611 7.034865
vt -28.93741 13.60856
vt -31.1681 13.60856
vt -29.37239 19.35629
vt -30.73312 19.35629
vt -7.332634 1.961165
vt -10.51933 1.961165
vt -9.473626 6.146039
vt -11.70432 6.146039
vt 10.51934 8.826571
vt 7.332634 8.826571
vt 11.70433 13.01144
vt 9.473635 13.01144
vt -28.45941 8.346935
vt -31.64611 8.346935
vt -28.93741 13.02332
vt -31.1681 13.02332
vt -7.134648 -0.1765167
vt -11.5 -0.1765167
vt -7.723966 5.43619
vt -10.91068 5.43619
vt -27.66575 8.631426
vt -29.89644 8.631426
vt -24.56688 12.8116
vt -25.9276 12.8116
vt 32.03746 6.458118
vt 28.85074 6.458118
vt 29.89644 10.64299
vt 27.66576 10.64299
vt 8.201978 -13.57675
vt 8.636964 -7.829018
vt 10.43267 -13.57675
vt 9.997685 -7.829018
vt -28.85074 4.329627
vt -32.03745 4.329627
vt -27.66575 8.514493
vt -29.89644 8.514493
vt -6.119683 -1.2009
vt -10.48504 -1.2009
vt -7.332634 4.442558
vt -10.51933 4.442558
vt -7.723966 -2.510594
vt -10.91068 -2.510594
vt -8.201978 1.812468
vt -10.43267 1.812468
vt -8.201978 -8.700266
vt -10.43267 -8.700266
vt -8.636964 -3.514927
vt -9.997685 -3.514927
vt -7.723966 8.346935
vt -10.91068 8.346935
vt -8.201978 13.02332
vt -10.43267 13.02332
vt 28.88504 11.5
vt 33.25039 11.5
vt 28.88504 7.134648
vt 33.25039 7.134648
vt 33.25039 0.7450427
vt 28.88504 0.7450427
vt 32.03746 6.388501
vt 28.85074 6.388501
vt 7.134648 -7.023639
vt 7.723975 -1.281464
vt 11.5 -7.023639
vt 10.91068 -1.281464
vt 7.723975 -9.677972
vt 8.201978 -5.001588
vt 10.91068 -9.677972
vt 10.43267 -5.001588
vt 11.70433 10.57054
vt 9.473635 10.57054
vt 14.8032 14.7507
vt 13.44248 14.7507
vt -28.88504 -1.2009
vt -33.25039 -1.2009
vt -28.85074 4.442558
vt -32.03745 4.442558
vt 24.56688 9.997685
vt 25.9276 9.997685
vt 24.56688 8.636964
vt 25.9276 8.636964
vt 29.89644 10.57054
vt 27.66576 10.57054
vt 25.9276 14.7507
vt 24.56688 14.7507
vt -8.201978 13.60856
vt -10.43267 13.60856
vt -8.636964 19.35629
vt -9.997685 19.35629
vt 6.119692 7.134648
vt 6.119692 11.5
vt 10.48505 7.134648
vt 10.48505 11.5
vt 13.44248 8.636964
vt 13.44248 9.997685
vt 14.8032 8.636964
vt 14.8032 9.997685
vt -9.473626 8.631426
vt -11.70432 8.631426
vt -13.44247 12.8116
vt -14.8032 12.8116
vt 10.51934 6.458118
vt 7.332634 6.458118
vt 11.70433 10.64299
vt 9.473635 10.64299
vt -7.134648 1.292689
vt -11.5 1.292689
vt -7.723966 7.034865
vt -10.91068 7.034865
vt 7.723975 8.281075
vt 8.201978 12.60413
vt 10.91068 8.281075
vt 10.43267 12.60413
vt -7.332634 4.329627
vt -10.51933 4.329627
vt -9.473626 8.514493
vt -11.70432 8.514493
vt 8.201978 14.82821
vt 8.636964 20.01353
vt 10.43267 14.82821
vt 9.997685 20.01353
vt 10.48505 0.7450427
vt 6.119692 0.7450427
vt 10.51934 6.388501
vt 7.332634 6.388501
vt 7.134648 0.06407471
vt 7.723975 5.676782
vt 11.5 0.06407471
vt 10.91068 5.676782
vt 2.728349 22.41338
vt 8.185039 22.41338
vt 2.728349 16.9567
vt 8.185039 16.9567
vt 18.29086 15.5942
vt 18.83459 22.07585
vt 21.07923 15.5942
vt 20.53549 22.07585
vt 9.709151 14.04963
vt 6.920781 14.04963
vt 13.58274 19.27485
vt 11.88183 19.27485
vt 16.9567 0.05001837
vt 17.69335 7.065904
vt 22.41338 0.05001837
vt 21.67674 7.065904
vt -16.95669 0.5763229
vt -22.41339 0.5763229
vt -17.69334 7.754036
vt -21.67673 7.754036
vt -18.29086 13.61254
vt -21.07923 13.61254
vt -18.83459 20.79719
vt -20.53549 20.79719
vt -17.69334 8.180557
vt -21.67673 8.180557
vt -18.29086 14.02603
vt -21.07923 14.02603
vt 17.69335 -9.84435
vt 18.29086 -3.998879
vt 21.67674 -9.84435
vt 21.07923 -3.998879
vt -29.66093 9.952808
vt -32.4493 9.952808
vt -25.78734 15.17804
vt -27.48825 15.17804
vt -6.920781 9.952808
vt -9.709142 9.952808
vt -11.88183 15.17804
vt -13.58273 15.17804
vt 16.9567 -7.740005
vt 17.69335 -0.5622928
vt 22.41338 -7.740005
vt 21.67674 -0.5622928
vt -18.29086 -7.934269
vt -21.07923 -7.934269
vt -18.83459 -1.452603
vt -20.53549 -1.452603
vt -16.95669 -0.190573
vt -22.41339 -0.190573
vt -17.69334 6.825313
vt -21.67673 6.825313
vt -2.728349 -2.340538
vt -8.185039 -2.340538
vt -4.244529 4.713778
vt -8.227915 4.713778
vt 8.227915 8.99081
vt 4.244529 8.99081
vt 9.709151 14.2219
vt 6.920781 14.2219
vt 11.88183 20.53549
vt 13.58274 20.53549
vt 11.88183 18.83459
vt 13.58274 18.83459
vt 17.69335 9.002377
vt 18.29086 14.4062
vt 21.67674 9.002377
vt 21.07923 14.4062
vt -4.244529 4.493865
vt -8.227915 4.493865
vt -6.920781 9.724946
vt -9.709142 9.724946
vt 36.64173 1.770718
vt 31.18503 1.770718
vt 35.12555 8.825034
vt 31.14217 8.825034
vt 35.12555 8.99081
vt 31.14217 8.99081
vt 32.4493 14.2219
vt 29.66094 14.2219
vt 18.29086 -13.57277
vt 18.83459 -6.388116
vt 21.07923 -13.57277
vt 20.53549 -6.388116
vt 32.4493 14.04963
vt 29.66094 14.04963
vt 27.48825 19.27485
vt 25.78734 19.27485
vt -17.69334 -1.789283
vt -21.67673 -1.789283
vt -18.29086 3.614536
vt -21.07923 3.614536
vt 8.185039 1.770718
vt 2.728349 1.770718
vt 8.227915 8.825034
vt 4.244529 8.825034
vt -31.18504 -2.340538
vt -36.64173 -2.340538
vt -31.14217 4.713778
vt -35.12555 4.713778
vt 31.18503 16.9567
vt 31.18503 22.41338
vt 36.64173 16.9567
vt 36.64173 22.41338
vt -31.14217 4.493865
vt -35.12555 4.493865
vt -29.66093 9.724946
vt -32.4493 9.724946
vt 25.78734 18.83459
vt 25.78734 20.53549
vt 27.48825 18.83459
vt 27.48825 20.53549
vt 33.25039 2.910356
vt 28.88504 2.910356
vt 32.03746 8.553814
vt 28.85074 8.553814
vt 28.45941 -9.677972
vt 28.93741 -5.001588
vt 31.64611 -9.677972
vt 31.16811 -5.001588
vt -27.66575 6.473712
vt -29.89644 6.473712
vt -24.56688 10.65389
vt -25.9276 10.65389
vt 27.87008 -7.023639
vt 28.45941 -1.281464
vt 32.23544 -7.023639
vt 31.64611 -1.281464
vt 32.03746 8.826571
vt 28.85074 8.826571
vt 29.89644 13.01144
vt 27.66576 13.01144
vt -28.93741 -8.700266
vt -31.1681 -8.700266
vt -29.37239 -3.514927
vt -30.73312 -3.514927
vt 28.93741 -13.57675
vt 29.37239 -7.829018
vt 31.16811 -13.57675
vt 30.73312 -7.829018
vt 29.89644 12.72824
vt 27.66576 12.72824
vt 25.9276 16.90842
vt 24.56688 16.90842
vt -28.45941 -2.510594
vt -31.64611 -2.510594
vt -28.93741 1.812468
vt -31.1681 1.812468
vt -27.87008 -0.1765167
vt -32.23543 -0.1765167
vt -28.45941 5.43619
vt -31.64611 5.43619
vt 28.88504 27.87008
vt 28.88504 32.23544
vt 33.25039 27.87008
vt 33.25039 32.23544
vt -28.88504 -3.366213
vt -33.25039 -3.366213
vt -28.85074 2.277236
vt -32.03745 2.277236
vt -28.85074 1.961165
vt -32.03745 1.961165
vt -27.66575 6.146039
vt -29.89644 6.146039
vt 24.56688 29.37239
vt 24.56688 30.73312
vt 25.9276 29.37239
vt 25.9276 30.73312

usemtl alienBone
usemap alienBone

f 2/2/1 1/1/1 3/3/1
f 3/3/1 4/4/1 2/2/1
f 6/6/2 5/5/2 2/7/2
f 2/7/2 1/8/2 6/6/2
f 7/10/4 3/9/3 8/11/3
f 8/11/3 9/12/4 7/10/4
f 9/14/6 10/13/5 11/15/6
f 11/15/6 12/16/6 9/14/6
f 12/18/2 11/17/2 13/19/2
f 13/19/2 14/20/2 12/18/2
f 14/22/7 7/21/7 9/23/7
f 9/23/7 12/24/7 14/22/7
f 3/26/3 1/25/8 6/27/8
f 6/27/8 8/28/3 3/26/3
f 15/30/9 7/29/1 14/31/1
f 14/31/1 13/32/1 15/30/9
f 6/34/6 5/33/6 16/35/6
f 16/35/6 8/36/6 6/34/6
f 5/38/10 2/37/10 4/39/11
f 4/39/11 16/40/11 5/38/10
f 10/42/12 15/41/12 13/43/13
f 13/43/13 11/44/13 10/42/12
f 8/46/6 16/45/6 10/47/5
f 10/47/5 9/48/6 8/46/6
f 4/50/1 3/49/1 7/51/1
f 7/51/1 15/52/9 4/50/1
f 16/54/11 4/53/11 15/55/12
f 15/55/12 10/56/12 16/54/11
f 18/58/14 17/57/14 19/59/15
f 19/59/15 20/60/15 18/58/14
f 22/62/5 21/61/6 23/63/6
f 23/63/6 24/64/6 22/62/5
f 19/66/1 25/65/1 26/67/9
f 26/67/9 27/68/1 19/66/1
f 28/70/17 26/69/16 22/71/16
f 22/71/16 24/72/17 28/70/17
f 29/74/6 20/73/6 21/75/6
f 21/75/6 22/76/5 29/74/6
f 31/78/6 30/77/6 32/79/6
f 32/79/6 33/80/6 31/78/6
f 20/82/15 19/81/15 27/83/18
f 27/83/18 21/84/18 20/82/15
f 21/86/19 27/85/19 34/87/19
f 34/87/19 23/88/19 21/86/19
f 32/90/11 35/89/11 36/91/12
f 36/91/12 37/92/12 32/90/11
f 38/94/2 18/93/2 17/95/2
f 17/95/2 39/96/2 38/94/2
f 17/98/1 39/97/1 25/99/1
f 25/99/1 19/100/1 17/98/1
f 25/102/21 39/101/20 38/103/20
f 38/103/20 29/104/21 25/102/21
f 26/106/16 25/105/21 29/107/21
f 29/107/21 22/108/16 26/106/16
f 36/110/9 40/109/1 41/111/1
f 41/111/1 42/112/1 36/110/9
f 38/114/6 18/113/6 20/115/6
f 20/115/6 29/116/6 38/114/6
f 24/118/2 23/117/2 34/119/2
f 34/119/2 28/120/2 24/118/2
f 27/122/1 26/121/9 28/123/1
f 28/123/1 34/124/1 27/122/1
f 37/126/12 36/125/12 42/127/13
f 42/127/13 43/128/13 37/126/12
f 30/130/2 44/129/2 45/131/2
f 45/131/2 31/132/2 30/130/2
f 43/134/2 42/133/2 41/135/2
f 41/135/2 46/136/2 43/134/2
f 47/138/6 37/137/5 43/139/6
f 43/139/6 46/140/6 47/138/6
f 35/142/1 48/141/1 40/143/1
f 40/143/1 36/144/9 35/142/1
f 30/146/10 44/145/10 35/147/11
f 35/147/11 32/148/11 30/146/10
f 40/150/4 48/149/3 33/151/3
f 33/151/3 47/152/4 40/150/4
f 33/154/6 32/153/6 37/155/5
f 37/155/5 47/156/6 33/154/6
f 41/158/7 40/157/7 47/159/7
f 47/159/7 46/160/7 41/158/7
f 44/162/1 45/161/1 48/163/1
f 48/163/1 35/164/1 44/162/1
f 48/166/3 45/165/8 31/167/8
f 31/167/8 33/168/3 48/166/3
f 50/170/2 49/169/2 51/171/2
f 51/171/2 52/172/2 50/170/2
f 54/174/7 53/173/7 55/175/7
f 55/175/7 56/176/7 54/174/7
f 57/178/9 53/177/1 54/179/1
f 54/179/1 58/180/1 57/178/9
f 59/182/3 52/181/8 50/183/8
f 50/183/8 60/184/3 59/182/3
f 49/186/10 51/185/10 61/187/11
f 61/187/11 62/188/11 49/186/10
f 63/190/12 57/189/12 58/191/13
f 58/191/13 64/192/13 63/190/12
f 62/194/11 61/193/11 57/195/12
f 57/195/12 63/196/12 62/194/11
f 66/198/16 65/197/21 67/199/21
f 67/199/21 68/200/16 66/198/16
f 68/202/5 69/201/6 70/203/6
f 70/203/6 71/204/6 68/202/5
f 55/206/6 63/205/5 64/207/6
f 64/207/6 56/208/6 55/206/6
f 65/210/21 72/209/20 73/211/20
f 73/211/20 67/212/21 65/210/21
f 69/214/19 74/213/19 75/215/19
f 75/215/19 70/216/19 69/214/19
f 77/218/14 76/217/14 78/219/15
f 78/219/15 79/220/15 77/218/14
f 50/222/6 49/221/6 62/223/6
f 62/223/6 60/224/6 50/222/6
f 61/226/1 59/225/1 53/227/1
f 53/227/1 57/228/9 61/226/1
f 56/230/2 64/229/2 58/231/2
f 58/231/2 54/232/2 56/230/2
f 53/234/4 59/233/3 60/235/3
f 60/235/3 55/236/4 53/234/4
f 60/238/6 62/237/6 63/239/5
f 63/239/5 55/240/6 60/238/6
f 76/242/1 72/241/1 65/243/1
f 65/243/1 78/244/1 76/242/1
f 78/246/1 65/245/1 66/247/9
f 66/247/9 74/248/1 78/246/1
f 80/250/17 66/249/16 68/251/16
f 68/251/16 71/252/17 80/250/17
f 74/254/1 66/253/9 80/255/1
f 80/255/1 75/256/1 74/254/1
f 79/258/15 78/257/15 74/259/18
f 74/259/18 69/260/18 79/258/15
f 51/262/1 52/261/1 59/263/1
f 59/263/1 61/264/1 51/262/1
f 73/266/6 77/265/6 79/267/6
f 79/267/6 67/268/6 73/266/6
f 77/270/2 76/269/2 72/271/2
f 72/271/2 73/272/2 77/270/2
f 67/274/6 79/273/6 69/275/6
f 69/275/6 68/276/5 67/274/6
f 70/278/2 75/277/2 80/279/2
f 80/279/2 71/280/2 70/278/2
f 82/282/1 81/281/1 83/283/1
f 83/283/1 84/284/1 82/282/1
f 85/286/16 83/285/21 86/287/21
f 86/287/21 87/288/16 85/286/16
f 87/290/5 88/289/6 89/291/6
f 89/291/6 90/292/6 87/290/5
f 83/294/21 81/293/20 91/295/20
f 91/295/20 86/296/21 83/294/21
f 84/298/1 83/297/1 85/299/9
f 85/299/9 92/300/1 84/298/1
f 88/302/19 92/301/19 93/303/19
f 93/303/19 89/304/19 88/302/19
f 94/306/17 85/305/16 87/307/16
f 87/307/16 90/308/17 94/306/17
f 92/310/1 85/309/9 94/311/1
f 94/311/1 93/312/1 92/310/1
f 95/314/15 84/313/15 92/315/18
f 92/315/18 88/316/18 95/314/15
f 96/318/14 82/317/14 84/319/15
f 84/319/15 95/320/15 96/318/14
f 96/322/2 82/321/2 81/323/2
f 81/323/2 91/324/2 96/322/2
f 91/326/6 96/325/6 95/327/6
f 95/327/6 86/328/6 91/326/6
f 86/330/6 95/329/6 88/331/6
f 88/331/6 87/332/5 86/330/6
f 89/334/2 93/333/2 94/335/2
f 94/335/2 90/336/2 89/334/2
