# Made using Asset Forge (www.assetforge.io) version 1.0 

mtllib astronaut.mtl 

g astronaut_8angles

v 1.3 0 1.3 
v 1.3 0 -1.3 
v -1.3 0 1.3 
v -1.3 0 -1.3 
v -1.3 2.6 -1.3 
v -1.3 2.6 1.3 
v 1.3 2.6 1.3 
v 1.3 2.6 -1.3 

vn -0.003921539 -0.9999924 0
vn -0.9999924 0.003921539 0
vn -0.003921569 0.003921569 0.9999846
vn 0.9999924 0.003921539 0
vn -0.003921539 0.9999924 0
vn -0.003921569 0.003921569 -0.9999846

vt -1.000002 -0.4999962
vt -1.000002 -0.7500038
vt -1.25 -0.4999962
vt -1.25 -0.7500038
vt -0.4999962 -0.4999962
vt -0.4999962 -0.2499981
vt -0.2499981 -0.4999962
vt -0.2499981 -0.2499981
vt -1.000002 -0.2499981
vt -1.25 -0.2499981
vt -0.7500038 -0.2499981
vt -0.7500038 -0.4999962
vt -0.2499981 -0.7500038
vt 0 -0.7500038
vt 0 -0.4999962

usemtl astronaut
usemap astronaut

f 2/2/1 1/1/1 3/3/1
f 3/3/1 4/4/1 2/2/1
f 5/6/2 4/5/2 3/7/2
f 3/7/2 6/8/2 5/6/2
f 3/3/3 1/1/3 7/9/3
f 7/9/3 6/10/3 3/3/3
f 2/12/4 8/11/4 7/9/4
f 7/9/4 1/1/4 2/12/4
f 7/7/5 8/13/5 5/14/5
f 5/14/5 6/15/5 7/7/5
f 2/12/6 4/5/6 5/6/6
f 5/6/6 8/11/6 2/12/6
g head 1

v 1.3 5.2 -1.3 
v 1.3 5.2 1.3 
v -1.3 5.2 1.3 
v -1.3 5.2 -1.3 


vt 1.907363E-06 -0.7500019
vt -0.2499962 -0.7500019
vt 1.907363E-06 -0.5000038
vt -0.2499962 -0.5000038
vt -0.7500019 1.907363E-06
vt -0.7500019 -0.2499962
vt -1 1.907363E-06
vt -1 -0.2499962
vt -0.1249971 0.25
vt 0.125001 1.907363E-06
vt 0.125001 0.25
vt -0.1249971 1.907363E-06
vt 1.907363E-06 -0.2499962
vt -0.2499962 -0.2499962
vt 1.907363E-06 1.907363E-06
vt -0.2499962 1.907363E-06
vt -0.5000038 -0.2499962
vt -0.5000038 1.907363E-06
vt -0.5000038 -0.7500019
vt -0.5000038 -0.5000038

usemtl astronaut
usemap astronaut

f 8/17/1 7/16/1 6/18/1
f 6/18/1 5/19/1 8/17/1
f 8/17/5 6/18/5 7/16/5
f 6/18/5 8/17/5 5/19/5
f 8/21/4 9/20/4 10/22/4
f 10/22/4 7/23/4 8/21/4
f 8/25/2 10/24/2 9/26/2
f 10/24/2 8/25/2 7/27/2
f 6/29/3 7/28/3 10/30/3
f 10/30/3 11/31/3 6/29/3
f 6/27/6 10/26/6 7/25/6
f 10/26/6 6/27/6 11/24/6
f 8/21/6 5/32/6 12/33/6
f 12/33/6 9/20/6 8/21/6
f 8/21/3 12/33/3 5/32/3
f 12/33/3 8/21/3 9/20/3
f 10/35/5 9/34/5 12/17/5
f 12/17/5 11/19/5 10/35/5
f 10/35/1 12/17/1 9/34/1
f 12/17/1 10/35/1 11/19/1
f 12/33/2 5/32/2 6/29/2
f 6/29/2 11/31/2 12/33/2
f 12/24/4 6/25/4 5/27/4
f 6/25/4 12/24/4 11/26/4
g left 1

v -1.3 0.3681599 0.5579617 
v -2.41592 0.3681599 0.5579617 
v -1.3 2.6 0.5579617 
v -2.41592 2.6 0.5579617 
v -1.3 2.6 -0.5579584 
v -1.3 0.3681599 -0.5579584 
v -2.41592 2.6 -0.5579584 
v -2.41592 0.3681599 -0.5579584 


vt -0.625 -0.7499963
vt -0.7499963 -0.7499963
vt -0.625 -0.5000037
vt -0.7499963 -0.5000037
vt -0.8749926 -0.5000037
vt -0.8749926 -0.7499963
vt -1.000004 -0.5000037
vt -1.000004 -0.7499963
vt -0.8749926 -0.625
vt -1.000004 -0.625
vt -0.5000037 -0.7499963
vt -0.5000037 -0.5000037
vt -0.2499963 -15.5
vt -0.125 -15.5
vt -0.2499963 -15.625
vt -0.125 -15.625

usemtl astronaut
usemap astronaut

f 14/37/3 13/36/3 15/38/3
f 15/38/3 16/39/3 14/37/3
f 18/41/4 17/40/4 15/42/4
f 15/42/4 13/43/4 18/41/4
f 15/45/5 17/44/5 19/40/5
f 19/40/5 16/42/5 15/45/5
f 19/38/2 20/36/2 14/46/2
f 14/46/2 16/47/2 19/38/2
f 18/41/6 20/37/6 19/39/6
f 19/39/6 17/40/6 18/41/6
f 18/49/1 13/48/1 14/50/1
f 14/50/1 20/51/1 18/49/1
g right 1

v 2.41592 0.36816 0.55796 
v 2.41592 0.36816 -0.55796 
v 1.3 0.36816 0.55796 
v 1.3 0.36816 -0.55796 
v 2.41592 2.6 -0.55796 
v 2.41592 2.6 0.55796 
v 1.3 2.6 -0.55796 
v 1.3 2.6 0.55796 



usemtl astronaut
usemap astronaut

f 22/50/1 21/51/1 23/49/1
f 23/49/1 24/48/1 22/50/1
f 22/46/4 25/47/4 26/38/4
f 26/38/4 21/36/4 22/46/4
f 27/42/2 24/43/2 23/41/2
f 23/41/2 28/40/2 27/42/2
f 26/40/5 25/42/5 27/45/5
f 27/45/5 28/44/5 26/40/5
f 23/41/3 21/37/3 26/39/3
f 26/39/3 28/40/3 23/41/3
f 22/37/6 24/36/6 27/38/6
f 27/38/6 25/39/6 22/37/6
