# Made using Asset Forge (www.assetforge.io) version 1.0 

mtllib barrel.mtl 

g barrel

v 0 0 0.5196152 
v -0.3 0 0 
v -0.3 0 1.03923 
v -0.9 0 0 
v -0.9 0 1.03923 
v -1.2 0 0.5196152 
v -0.3 0.5 0 
v 0 0.5 0.5196152 
v -0.3 0.5 1.03923 
v -0.9 0.5 1.03923 
v -1.2 0.5 0.5196152 
v -0.9 0.5 0 
v 0 1.5 0.5196152 
v -0.3 1.5 1.03923 
v -0.3 1.5 0 
v -0.9 1.5 0 
v -0.9 1.5 1.03923 
v -1.2 1.5 0.5196152 
v -0.3 1 0 
v 0 1 0.5196152 
v -0.9 1 0 
v -1.2 1 0.5196152 
v -0.9 1 1.03923 
v -0.3 1 1.03923 

vn -0.003921539 -0.9999924 0
vn 0.8666667 0.003921569 -0.4988722
vn 0.8666667 0.003921569 0.4988722
vn -0.003921569 0.003921569 0.9999846
vn -0.8666667 0.003921569 0.4988722
vn -0.8666667 0.003921569 -0.4988722
vn -0.003921569 0.003921569 -0.9999846
vn -0.003921539 0.9999924 0

vt -3.644074E-06 2.045732
vt -1.181103 -3.644074E-06
vt -1.181103 4.091458
vt -3.543311 -3.644074E-06
vt -3.543311 4.091458
vt -4.72441 2.045732
vt 0.590556 1.968505
vt 0.590556 -3.644074E-06
vt -1.771652 1.968505
vt -1.771652 -3.644074E-06
vt -4.13386 1.968505
vt -4.13386 -3.644074E-06
vt -1.181103 1.968505
vt -3.543311 1.968505
vt -0.5905531 -3.644074E-06
vt -0.5905531 1.968505
vt 1.771655 -3.644074E-06
vt 1.771655 1.968505
vt 4.133863 -3.644074E-06
vt 4.133863 1.968505
vt 3.543303 -3.644074E-06
vt 1.181105 -3.644074E-06
vt 3.543303 1.968505
vt 1.181105 1.968505
vt 1.181105 4.091458
vt 3.543303 4.091458
vt 4.724412 2.045732
vt 0.590556 5.905511
vt 0.590556 3.937003
vt -1.771652 5.905511
vt -1.771652 3.937003
vt 3.543303 3.937003
vt 1.181105 3.937003
vt 3.543303 5.905511
vt 1.181105 5.905511
vt 1.771655 3.937003
vt 1.771655 5.905511
vt 4.133863 3.937003
vt 4.133863 5.905511
vt -0.5905531 3.937003
vt -0.5905531 5.905511
vt -1.181103 3.937003
vt -3.543311 3.937003
vt -1.181103 5.905511
vt -3.543311 5.905511
vt -4.13386 5.905511
vt -4.13386 3.937003

usemtl metal
usemap metal

f 2/2/1 1/1/1 3/3/1
f 3/3/1 4/4/1 2/2/1
f 3/3/1 5/5/1 4/4/1
f 5/5/1 6/6/1 4/4/1
f 2/8/2 7/7/2 8/9/2
f 8/9/2 1/10/2 2/8/2
f 1/10/3 8/9/3 9/11/3
f 9/11/3 3/12/3 1/10/3
f 5/4/4 3/2/4 9/13/4
f 9/13/4 10/14/4 5/4/4
f 11/16/5 6/15/5 5/17/5
f 5/17/5 10/18/5 11/16/5
f 12/18/6 4/17/6 6/19/6
f 6/19/6 11/20/6 12/18/6
f 2/22/7 4/21/7 12/23/7
f 12/23/7 7/24/7 2/22/7
f 14/25/8 13/1/8 15/22/8
f 15/22/8 16/21/8 14/25/8
f 16/21/8 17/26/8 14/25/8
f 16/21/8 18/27/8 17/26/8
f 19/29/2 15/28/2 13/30/2
f 13/30/2 20/31/2 19/29/2
f 19/33/7 21/32/7 16/34/7
f 16/34/7 15/35/7 19/33/7
f 16/37/6 21/36/6 22/38/6
f 22/38/6 18/39/6 16/37/6
f 18/41/5 22/40/5 23/36/5
f 23/36/5 17/37/5 18/41/5
f 23/43/4 24/42/4 14/44/4
f 14/44/4 17/45/4 23/43/4
f 20/31/3 13/30/3 14/46/3
f 14/46/3 24/47/3 20/31/3

usemtl _defaultMat
usemap _defaultMat

f 7/23/2 19/24/2 20/22/2
f 20/23/2 8/24/2 7/22/2
f 7/23/7 12/24/7 21/22/7
f 21/23/7 19/24/7 7/22/7
f 21/23/6 12/24/6 11/22/6
f 11/23/6 22/24/6 21/22/6
f 22/23/5 11/24/5 10/22/5
f 10/23/5 23/24/5 22/22/5
f 10/23/4 9/24/4 24/22/4
f 24/23/4 23/24/4 10/22/4
f 8/23/3 20/24/3 24/22/3
f 24/23/3 9/24/3 8/22/3
