# Made using Asset Forge (www.assetforge.io) version 1.0 

mtllib barrelLarge.mtl 

g barrelLarge

v -2.94057 4.700005 5 
v -2.94057 4.199996 5 
v -3.970284 4.700005 6.783518 
v -3.970284 4.199996 6.783518 
v -3.970284 4.700005 3.216481 
v -3.970284 4.199996 3.216481 
v -6.750004 3.300003 1.968913 
v -6.365004 4.199996 2.635753 
v -8.499999 3.300003 5 
v -7.73 4.199996 5 
v -6.750004 3.300003 8.031086 
v -6.365004 4.199996 7.364245 
v -1.5 3.300003 5 
v -1.5 2.699996 5 
v -3.250004 3.300003 8.031086 
v -1.5 0.9000016 5 
v -3.250004 0.9000016 8.031086 
v -3.250004 2.699996 8.031086 
v -8.499999 0.9000016 5 
v -8.499999 2.699996 5 
v -6.750004 0.9000016 8.031086 
v -6.750004 2.699996 8.031086 
v -3.250004 3.300003 1.968913 
v -3.635003 4.199996 2.635753 
v -2.269999 4.199996 5 
v -6.750004 0.9000016 1.968913 
v -3.250004 0.9000016 1.968913 
v -6.750004 2.699996 1.968913 
v -3.250004 2.699996 1.968913 
v -6.029715 4.199996 3.216481 
v -6.029715 4.700005 3.216481 
v -6.029715 4.199996 6.783518 
v -6.029715 4.700005 6.783518 
v -7.059429 4.199996 5 
v -7.059429 4.700005 5 
v -3.635003 4.199996 7.364245 
v -2.81699 0 1.718909 
v -1.066986 0 4.750004 
v -2.81699 2.099998 1.718909 
v -1.066986 2.099998 4.750004 
v -3.250004 0 1.968913 
v -7.183008 2.099998 1.718909 
v -8.933012 2.099998 4.750004 
v -7.183008 0 1.718909 
v -8.933012 0 4.750004 
v -6.750004 0 8.031086 
v -6.750004 0 8.531085 
v -6.750004 2.099998 8.531085 
v -3.250004 2.099998 8.531085 
v -3.250004 0 8.031086 
v -3.250004 0 8.531085 
v -6.750004 0 1.968913 
v -8.499999 0 5 
v -1.5 0 5 

vn 0.8666667 0.003921569 0.4988722
vn 0.8666667 0.003921569 -0.4988722
vn -0.6941177 0.5921569 -0.4093298
vn -0.6941177 0.5921569 0.4093298
vn -0.8666667 0.003921569 0.4988722
vn 0.6941177 0.5921569 -0.4093298
vn -0.003921569 0.003921569 -0.9999846
vn -0.003921569 0.003921569 0.9999846
vn -0.8666667 0.003921569 -0.4988722
vn -0.003921569 0.5921569 -0.8058131
vn 0.6941177 0.5921569 0.4093298
vn -0.003921569 0.5921569 0.8058131
vn -0.003921539 -0.9999924 0
vn -0.003921539 0.9999924 0
vn -0.4980392 0.003921569 -0.8671457
vn -0.9999924 0.003921539 0
vn 0.9999924 0.003921539 0
vn 0.4980392 0.003921569 -0.8671457
vn -0.4980392 0.003921569 0.8671457
vn 0.4980392 0.003921569 0.8671457
vn -0.6627451 0.6392157 -0.3900925
vn -0.003921569 0.6392157 0.7690175
vn 0.6627451 0.6392157 -0.3900925

vt -22.83628 18.50393
vt -22.83628 16.53544
vt -30.94425 18.50393
vt -30.94425 16.53544
vt -3.151234 18.50393
vt -3.151234 16.53544
vt -11.25922 18.50393
vt -11.25922 16.53544
vt 20.0005 -0.9547967
vt 21.51625 3.455135
vt 33.78003 -0.9547967
vt 32.26428 3.455135
vt 0.3154628 -12.67384
vt 1.83121 -8.263906
vt 14.09499 -12.67384
vt 12.57924 -8.263906
vt -20.0005 12.99213
vt -20.0005 10.62992
vt -33.78003 12.99213
vt -20.0005 3.543308
vt -33.78003 3.543308
vt -33.78003 10.62992
vt 0.3154628 3.543308
vt 0.3154628 10.62992
vt 14.09499 3.543308
vt 0.3154628 12.99213
vt 14.09499 12.99213
vt 14.09499 10.62992
vt -0.3154628 19.34317
vt -14.09499 19.34317
vt -1.83121 23.7531
vt -12.57924 23.7531
vt 26.5748 3.543308
vt 12.79528 3.543308
vt 26.5748 10.62992
vt 12.79528 10.62992
vt 26.5748 12.99213
vt 12.79528 12.99213
vt 23.73903 16.53544
vt 15.63105 16.53544
vt 23.73903 18.50393
vt 15.63105 18.50393
vt -15.63105 16.53544
vt -23.73903 16.53544
vt -15.63105 18.50393
vt -23.73903 18.50393
vt 22.83628 16.53544
vt 22.83628 18.50393
vt 30.94425 16.53544
vt 30.94425 18.50393
vt 20.0005 10.62992
vt 20.0005 12.99213
vt 33.78003 10.62992
vt 33.78003 12.99213
vt -0.3154628 12.99213
vt -0.3154628 10.62992
vt -14.09499 12.99213
vt -14.09499 10.62992
vt -12.79527 10.62992
vt -26.5748 10.62992
vt -12.79527 12.99213
vt -26.5748 12.99213
vt 3.151242 16.53544
vt 3.151242 18.50393
vt 11.25922 16.53544
vt 11.25922 18.50393
vt 26.5748 15.05371
vt 12.79528 15.05371
vt 25.05906 19.46364
vt 14.31103 19.46364
vt -20.0005 7.624138
vt -33.78003 7.624138
vt -21.51624 12.03407
vt -32.26428 12.03407
vt -12.79527 -8.384376
vt -26.5748 -8.384376
vt -14.31102 -3.974443
vt -25.05906 -3.974443
vt -5.905508 19.68504
vt -12.79527 7.751622
vt -12.79527 31.61847
vt -26.5748 31.61847
vt -26.5748 7.751622
vt -33.46456 19.68504
vt 11.57707 19.68504
vt 15.63105 26.70675
vt 15.63105 12.66333
vt 23.73903 12.66333
vt 23.73903 26.70675
vt 27.79301 19.68504

usemtl metal
usemap metal

f 2/2/1 1/1/1 3/3/1
f 3/3/1 4/4/1 2/2/1
f 6/6/2 5/5/2 1/7/2
f 1/7/2 2/8/2 6/6/2
f 8/10/3 7/9/3 9/11/3
f 9/11/3 10/12/3 8/10/3
f 10/14/4 9/13/4 11/15/4
f 11/15/4 12/16/4 10/14/4
f 14/18/1 13/17/1 15/19/1
f 15/19/1 16/20/1 14/18/1
f 15/19/1 17/21/1 16/20/1
f 15/19/1 18/22/1 17/21/1
f 20/24/5 19/23/5 21/25/5
f 21/25/5 9/26/5 20/24/5
f 21/25/5 11/27/5 9/26/5
f 21/25/5 22/28/5 11/27/5
f 13/30/6 23/29/6 24/31/6
f 24/31/6 25/32/6 13/30/6
f 27/34/7 26/33/7 28/35/7
f 28/35/7 29/36/7 27/34/7
f 28/35/7 7/37/7 29/36/7
f 7/37/7 23/38/7 29/36/7
f 6/40/7 30/39/7 31/41/7
f 31/41/7 5/42/7 6/40/7
f 32/44/8 4/43/8 3/45/8
f 3/45/8 33/46/8 32/44/8
f 31/48/9 30/47/9 34/49/9
f 34/49/9 35/50/9 31/48/9
f 7/52/9 28/51/9 20/53/9
f 20/53/9 9/54/9 7/52/9
f 29/56/2 23/55/2 13/57/2
f 13/57/2 14/58/2 29/56/2
f 22/60/8 18/59/8 15/61/8
f 15/61/8 11/62/8 22/60/8
f 35/64/5 34/63/5 32/65/5
f 32/65/5 33/66/5 35/64/5
f 23/68/10 7/67/10 8/69/10
f 8/69/10 24/70/10 23/68/10
f 15/72/11 13/71/11 25/73/11
f 25/73/11 36/74/11 15/72/11
f 11/76/12 15/75/12 36/77/12
f 36/77/12 12/78/12 11/76/12
f 27/80/13 16/79/13 17/81/13
f 17/81/13 21/82/13 27/80/13
f 21/82/13 26/83/13 27/80/13
f 21/82/13 19/84/13 26/83/13
f 3/86/14 1/85/14 5/87/14
f 5/87/14 31/88/14 3/86/14
f 31/88/14 33/89/14 3/86/14
f 31/88/14 35/90/14 33/89/14

usemtl _defaultMat
usemap _defaultMat

f 38/11/2 37/12/2 39/10/2
f 39/11/2 40/12/2 38/10/2
f 37/11/15 41/12/15 27/10/15
f 27/11/15 39/12/15 37/10/15
f 27/11/15 29/12/15 39/10/15
f 43/15/9 42/16/9 44/14/9
f 44/15/9 45/16/9 43/14/9
f 2/15/14 25/16/14 24/14/14
f 24/15/14 6/16/14 2/14/14
f 24/15/14 8/16/14 6/14/14
f 8/15/14 30/16/14 6/14/14
f 8/15/14 10/16/14 34/14/14
f 8/15/14 34/16/14 30/14/14
f 36/15/14 25/16/14 2/14/14
f 2/15/14 4/16/14 36/14/14
f 4/15/14 12/16/14 36/14/14
f 4/15/14 32/16/14 12/14/14
f 32/15/14 34/16/14 12/14/14
f 34/15/14 10/16/14 12/14/14
f 21/15/16 46/16/16 47/14/16
f 47/15/16 22/16/16 21/14/16
f 47/15/16 48/16/16 22/14/16
f 17/15/17 18/16/17 49/14/17
f 49/15/17 50/16/17 17/14/17
f 49/15/17 51/16/17 50/14/17
f 47/15/8 51/16/8 49/14/8
f 49/15/8 48/16/8 47/14/8
f 52/25/18 44/28/18 42/27/18
f 42/25/18 26/28/18 52/27/18
f 42/25/18 28/28/18 26/27/18
f 45/45/19 53/46/19 19/44/19
f 19/45/19 43/46/19 45/44/19
f 19/45/19 20/46/19 43/44/19
f 54/49/20 38/50/20 40/48/20
f 40/49/20 16/50/20 54/48/20
f 40/49/20 14/50/20 16/48/20
f 27/77/5 41/78/5 54/76/5
f 54/77/5 16/78/5 27/76/5
f 50/77/13 51/78/13 47/76/13
f 47/77/13 46/78/13 50/76/13
f 37/77/13 38/78/13 54/76/13
f 54/77/13 41/78/13 37/76/13
f 28/77/21 42/78/21 43/76/21
f 43/77/21 20/78/21 28/76/21
f 44/77/13 52/78/13 53/76/13
f 53/77/13 45/78/13 44/76/13
f 48/77/22 49/78/22 18/76/22
f 18/77/22 22/78/22 48/76/22
f 40/77/23 39/78/23 29/76/23
f 29/77/23 14/78/23 40/76/23
f 50/77/7 46/78/7 21/76/7
f 21/77/7 17/78/7 50/76/7
f 52/77/1 26/78/1 19/76/1
f 19/77/1 53/78/1 52/76/1
