# Made using Asset Forge (www.assetforge.io) version 1.0 

mtllib buildingCorner.mtl 

g buildingCorner

v -2.177575 9.125854 7.822425 
v -3.458184 9.617268 6.541816 
v -9.700002 9.125854 7.822425 
v -9.700002 9.617268 6.541816 
v -10 0 0 
v -10 0.7000012 0 
v -10 0 10 
v -10 0.7000012 10 
v -7.822425 9.125854 0.2999977 
v -9.518438 5.800002 0.2999977 
v -7.822425 9.125854 2.177575 
v -9.518438 5.800002 0.4815612 
v -9.700002 5.800002 0.4815612 
v -9.700002 9.125854 2.177575 
v -0.4815612 5.800002 0.2999977 
v -2.177575 9.125854 0.2999977 
v -6.541816 9.617268 0.2999977 
v -3.458184 9.617268 0.2999977 
v -6.541816 9.617268 3.458184 
v -9.700002 9.617268 3.458184 
v -1.636594 9.726937 0 
v -1.636594 9.726937 8.363406 
v -2.477444 10.04961 0 
v -2.477444 10.04961 7.522555 
v -9.700002 5.800002 0.2999977 
v -7.522555 10.04961 0 
v -7.522555 10.04961 2.477444 
v -8.363406 9.726937 0 
v -8.363406 9.726937 1.636594 
v 0 0.7000012 0 
v 0 0 0 
v 0 0.7000012 10 
v 0 0 10 
v -10 10.04961 2.477444 
v -10 9.726937 1.636594 
v -0.4815612 5.800002 9.518438 
v -9.700002 5.800002 9.518438 
v -10 9.726937 8.363406 
v -10 10.04961 7.522555 
v -0.2999977 5.800002 0.2999977 
v -0.2999977 5.800002 9.700002 
v -6.800001 5.800002 9.700002 
v -9.700002 5.800002 9.700002 
v -9.700002 2.699999 0.2999977 
v -9.700002 2.699999 9.700002 
v -0.2999977 2.699999 0.2999977 
v -0.2999977 2.699999 9.700002 
v -6.681705 10.37227 3.318295 
v -10 10.37227 3.318295 
v -10 9.617268 3.458184 
v -10 9.125854 2.177575 
v -10 9.125854 7.822425 
v -10 9.617268 6.541816 
v -7.822425 9.125854 0 
v -9.518438 5.800002 0 
v -10 5.800002 0.4815612 
v -10 5.800002 9.518438 
v -10 1.499998 0 
v -10 1.499998 10 
v 0 1.499998 10 
v 0 1.499998 0 
v -6.541816 9.617268 0 
v -2.177575 9.125854 0 
v -0.4815612 5.800002 0 
v -3.458184 9.617268 0 
v 0 6.517601 10 
v -10 6.517601 10 
v -3.318295 10.37227 0 
v -3.318295 10.37227 6.681705 
v -6.681705 10.37227 0 
v -10 10.37227 6.681705 
v -10 6.517601 0 
v -10 5.800002 0 
v -10 5.800002 10 
v 0 6.517601 0 
v 0 5.800002 0 
v 0 5.800002 10 
v -10 2.699999 0 
v 0 2.699999 0 
v 0 2.699999 10 
v -10 2.699999 10 

vn -0.003921569 -0.9372549 -0.3486228
vn -0.9999924 0.003921539 0
vn 0.8901961 -0.4509804 -0.06455719
vn -0.003921569 -0.4509804 0.8925253
vn -0.003921569 0.003921569 -0.9999846
vn -0.003921539 -0.9999924 0
vn 0.3558328 0.9345497 0
vn -0.003921539 0.9999924 0
vn -0.3558328 0.9345497 0
vn 0.9999924 0.003921539 0
vn -0.003921569 0.9372549 -0.3486228
vn -0.003921569 0.003921569 0.9999846
vn 0.3558328 -0.9345497 0
vn -0.003921569 -0.9372549 0.3486228
vn -0.3558328 -0.9345497 0
vn -0.003921569 -0.4509804 -0.8925253
vn -0.8901961 -0.4509804 -0.06455719
vn -0.003921569 0.9372549 0.3486228
vn -0.003921569 0.4509804 0.8925253
vn 0.8901961 0.4509804 -0.06455719
vn -0.003921569 0.4509804 -0.8925253
vn -0.8901961 0.4509804 -0.06455719

vt 1.378717E-06 1.378717E-06
vt 1.378717E-06 10.62992
vt 39.37008 10.62992
vt 1.378717E-06 5.905513
vt -39.37008 13.6149
vt -39.37008 25.75518
vt -38.18898 13.6149
vt -38.18898 35.90178
vt -38.18898 21.20364
vt -39.37008 35.90178
vt 38.18898 18.0164
vt 39.37008 18.0164
vt 38.18898 3.318261
vt 39.37008 5.905513
vt 1.378717E-06 2.755905
vt 1.378717E-06 26.27618
vt 1.181106 26.27618
vt 1.378717E-06 20.87593
vt -39.37008 22.85917
vt -32.92679 37.04241
vt 1.378717E-06 22.85917
vt 39.37008 1.378717E-06
vt 38.18898 1.181106
vt 39.37008 39.37008
vt 9.753726 -13.47559
vt 1.378717E-06 -13.47559
vt 13.06416 -9.929785
vt 39.37008 37.04241
vt 39.37008 22.85917
vt 32.9268 37.04241
vt -38.18898 10.62992
vt -38.18898 22.83465
vt -1.181103 10.62992
vt -39.37008 1.895916
vt -38.18898 1.895916
vt -39.37008 1.378717E-06
vt 1.181106 10.62992
vt 1.181106 22.83465
vt 38.18898 10.62992
vt 1.895916 22.83465
vt 37.47416 22.83465
vt 38.18898 22.83465
vt -1.181103 22.83465
vt -26.77166 22.83465
vt 26.30592 26.82692
vt 39.37008 26.82692
vt 29.61636 23.28111
vt 39.37008 23.28111
vt -38.18898 26.27618
vt -38.18898 20.87593
vt -39.37008 26.27618
vt -39.37008 20.87593
vt 38.18898 -15.88078
vt 38.18898 -10.48052
vt 39.37008 -15.88078
vt 39.37008 -10.48052
vt -38.18898 25.75518
vt 1.378717E-06 18.0164
vt 1.378717E-06 3.318261
vt -1.181103 18.0164
vt -1.181103 3.318261
vt -39.37008 21.20364
vt 39.37008 3.318261
vt 39.37008 2.755905
vt -39.37008 2.755905
vt -39.37008 5.905513
vt -1.181103 -10.48052
vt 1.378717E-06 -10.48052
vt -1.181103 -15.88078
vt 1.378717E-06 -15.88078
vt 1.378717E-06 35.90178
vt 1.181106 35.90178
vt 1.378717E-06 21.20364
vt 1.181106 21.20364
vt -13.6149 1.181106
vt -13.6149 1.378717E-06
vt -25.75518 1.181106
vt -25.75518 1.378717E-06
vt 1.181106 20.87593
vt 1.378717E-06 4.973796
vt -39.37008 4.973796
vt -6.443285 19.15703
vt -39.37008 19.15703
vt 13.06416 1.378717E-06
vt 13.06416 26.30592
vt 26.30592 1.378717E-06
vt 26.30592 13.06416
vt 39.37008 26.30592
vt 39.37008 13.06416
vt 1.378717E-06 25.65982
vt 6.443287 38.29503
vt 1.378717E-06 22.83465
vt 8.573119 35.92855
vt 9.753726 39.56536
vt 13.6149 37.86326
vt 13.06416 40.8357
vt 26.30592 40.8357
vt 25.75518 37.86326
vt 30.79696 35.92855
vt 29.61636 39.56536
vt 32.9268 38.29503
vt 39.37008 25.65982
vt 39.37008 22.83465
vt 1.378717E-06 37.04241
vt 1.378717E-06 -9.929785
vt -9.753723 -13.47559
vt -39.37008 -13.47559
vt -13.06416 -9.929785
vt -39.37008 -9.929785
vt 1.378717E-06 19.15703
vt 6.443287 19.15703
vt -39.37008 25.65982
vt -39.37008 22.83465
vt 1.378717E-06 23.28111
vt -29.61635 23.28111
vt 1.378717E-06 26.82692
vt -26.30592 26.82692
vt -37.47416 1.181106
vt -37.47416 1.378717E-06
vt -38.18898 1.181106
vt -1.181103 38.18898
vt 1.378717E-06 39.37008
vt -39.37008 39.37008
vt -26.77166 38.18898
vt -38.18898 38.18898
vt -38.18898 37.47416
vt -39.37008 37.47416
vt -1.181103 1.181106
vt -1.895913 1.378717E-06
vt -1.895913 1.181106
vt -39.37008 10.62992
vt 1.181106 1.181106
vt 1.181106 38.18898
vt 38.18898 38.18898

usemtl _defaultMat
usemap _defaultMat

f 2/1/1 1/1/1 3/1/1
f 3/1/1 4/1/1 2/1/1
f 6/3/2 5/2/2 7/4/2
f 7/3/2 8/2/2 6/4/2
f 10/6/3 9/5/3 11/7/3
f 11/6/3 12/5/3 10/7/3
f 13/6/4 12/5/4 11/7/4
f 11/6/4 14/5/4 13/7/4
f 15/6/5 10/5/5 9/7/5
f 9/6/5 16/5/5 15/7/5
f 9/6/5 17/5/5 16/7/5
f 17/6/5 18/5/5 16/7/5
f 18/6/6 19/5/6 17/7/6
f 19/6/6 18/5/6 2/7/6
f 2/6/6 4/5/6 19/7/6
f 4/6/6 20/5/6 19/7/6
f 22/6/7 21/5/7 23/7/7
f 23/6/7 24/5/7 22/7/7
f 12/9/8 10/8/8 25/10/8
f 25/9/8 13/8/8 12/10/8
f 27/12/9 26/11/9 28/13/9
f 28/12/9 29/11/9 27/13/9
f 31/12/10 30/11/10 32/13/10
f 32/12/10 33/11/10 31/13/10
f 34/12/11 27/11/11 29/13/11
f 29/12/11 35/11/11 34/13/11
f 31/14/5 5/4/5 6/15/5
f 6/14/5 30/4/5 31/15/5
f 7/14/12 33/4/12 32/15/12
f 32/14/12 8/4/12 7/15/12
f 17/17/13 19/16/13 11/18/13
f 11/17/13 9/16/13 17/18/13
f 11/17/14 19/16/14 20/18/14
f 20/17/14 14/16/14 11/18/14
f 16/20/15 1/19/15 2/21/15
f 2/20/15 18/19/15 16/21/15
f 1/20/16 36/19/16 37/21/16
f 37/20/16 3/19/16 1/21/16
f 14/23/2 13/22/2 37/24/2
f 37/23/2 20/22/2 14/24/2
f 37/23/2 4/22/2 20/24/2
f 37/23/2 3/22/2 4/24/2
f 33/26/8 31/25/8 5/27/8
f 5/26/8 7/25/8 33/27/8
f 1/29/17 16/28/17 15/30/17
f 15/29/17 36/28/17 1/30/17
f 38/32/18 22/31/18 24/33/18
f 24/32/18 39/31/18 38/33/18
f 41/35/8 40/34/8 15/36/8
f 15/35/8 36/34/8 41/36/8
f 36/35/8 42/34/8 41/36/8
f 36/35/8 37/34/8 42/36/8
f 37/35/8 43/34/8 42/36/8

usemtl glass
usemap glass

f 25/38/2 44/37/2 45/39/2
f 45/39/2 13/40/2 25/38/2
f 45/39/2 37/41/2 13/40/2
f 45/39/2 43/42/2 37/41/2
f 40/38/5 46/37/5 44/39/5
f 44/39/5 25/42/5 40/38/5
f 25/42/5 15/40/5 40/38/5
f 25/42/5 10/41/5 15/40/5
f 46/33/10 40/43/10 41/32/10
f 41/32/10 47/31/10 46/33/10
f 45/31/12 47/33/12 41/43/12
f 41/43/12 42/44/12 45/31/12
f 45/31/12 42/44/12 43/32/12

usemtl metal
usemap metal

f 49/46/11 48/45/11 27/47/11
f 27/47/11 34/48/11 49/46/11
f 14/50/14 20/49/14 50/51/14
f 50/51/14 51/52/14 14/50/14
f 4/54/1 3/53/1 52/55/1
f 52/55/1 53/56/1 4/54/1
f 20/7/6 4/57/6 53/6/6
f 53/6/6 50/5/6 20/7/6
f 55/59/3 54/58/3 9/60/3
f 9/60/3 10/61/3 55/59/3
f 51/10/4 56/62/4 13/9/4
f 13/9/4 14/8/4 51/10/4
f 37/13/16 57/63/16 52/12/16
f 52/12/16 3/11/16 37/13/16
f 58/4/2 6/15/2 8/64/2
f 8/64/2 59/14/2 58/4/2
f 8/65/12 32/15/12 60/4/12
f 60/4/12 59/66/12 8/65/12
f 30/15/10 61/4/10 60/66/10
f 60/66/10 32/65/10 30/15/10
f 30/15/5 6/64/5 58/14/5
f 58/14/5 61/4/5 30/15/5
f 62/68/13 17/67/13 9/69/13
f 9/69/13 54/70/13 62/68/13
f 16/72/17 63/71/17 64/73/17
f 64/73/17 15/74/17 16/72/17
f 65/76/6 18/75/6 17/77/6
f 17/77/6 62/78/6 65/76/6
f 63/18/15 16/79/15 18/17/15
f 18/17/15 65/16/15 63/18/15
f 67/81/19 66/80/19 22/82/19
f 22/82/19 38/83/19 67/81/19
f 69/85/8 68/84/8 70/86/8
f 70/86/8 48/87/8 69/85/8
f 48/87/8 71/88/8 69/85/8
f 48/87/8 49/89/8 71/88/8
f 35/91/2 72/90/2 73/92/2
f 73/92/2 56/40/2 35/91/2
f 56/40/2 51/93/2 35/91/2
f 51/93/2 34/94/2 35/91/2
f 51/93/2 50/95/2 34/94/2
f 50/95/2 49/96/2 34/94/2
f 50/95/2 71/97/2 49/96/2
f 50/95/2 53/98/2 71/97/2
f 53/98/2 52/99/2 71/97/2
f 52/99/2 39/100/2 71/97/2
f 52/99/2 38/101/2 39/100/2
f 52/99/2 57/41/2 38/101/2
f 57/41/2 67/102/2 38/101/2
f 57/41/2 74/103/2 67/102/2
f 75/21/20 21/104/20 22/20/20
f 22/20/20 66/19/20 75/21/20
f 48/27/9 70/105/9 26/26/9
f 26/26/9 27/25/9 48/27/9
f 39/107/18 24/106/18 69/108/18
f 69/108/18 71/109/18 39/107/18
f 72/29/21 35/28/21 29/30/21
f 28/110/22 72/80/22 29/111/22
f 55/41/5 73/103/5 72/102/5
f 72/102/5 54/99/5 55/41/5
f 72/102/5 28/101/5 54/99/5
f 28/101/5 62/98/5 54/99/5
f 62/98/5 28/101/5 21/91/5
f 65/95/5 62/98/5 21/91/5
f 63/93/5 65/95/5 21/91/5
f 63/93/5 21/91/5 75/90/5
f 63/93/5 75/90/5 76/92/5
f 76/92/5 64/40/5 63/93/5
f 28/101/5 26/100/5 21/91/5
f 26/100/5 23/94/5 21/91/5
f 26/100/5 70/97/5 23/94/5
f 70/97/5 68/96/5 23/94/5
f 76/92/10 75/90/10 66/112/10
f 66/112/10 77/113/10 76/92/10
f 74/113/12 77/92/12 66/90/12
f 66/90/12 67/112/12 74/113/12
f 24/115/7 23/114/7 68/116/7
f 68/116/7 69/117/7 24/115/7
f 55/119/6 10/118/6 25/120/6
f 25/120/6 73/36/6 55/119/6
f 25/120/6 13/35/6 73/36/6
f 13/35/6 56/34/6 73/36/6
f 41/121/6 76/1/6 77/122/6
f 77/122/6 74/123/6 41/121/6
f 74/123/6 42/124/6 41/121/6
f 74/123/6 43/125/6 42/124/6
f 74/123/6 37/126/6 43/125/6
f 74/123/6 57/127/6 37/126/6
f 76/1/6 41/121/6 40/128/6
f 40/128/6 64/129/6 76/1/6
f 40/128/6 15/130/6 64/129/6

usemtl pipe
usemap pipe

f 61/4/5 58/14/5 78/3/5
f 78/3/5 79/2/5 61/4/5
f 61/4/10 79/2/10 80/131/10
f 80/131/10 60/66/10 61/4/10
f 59/66/12 60/4/12 80/2/12
f 80/2/12 81/131/12 59/66/12
f 46/132/8 80/122/8 79/1/8
f 79/1/8 78/22/8 46/132/8
f 78/22/8 44/23/8 46/132/8
f 80/122/8 46/132/8 47/133/8
f 47/133/8 81/24/8 80/122/8
f 44/23/8 78/22/8 81/24/8
f 47/133/8 45/134/8 81/24/8
f 45/134/8 44/23/8 81/24/8
f 78/2/2 58/4/2 59/14/2
f 59/14/2 81/3/2 78/2/2
