# Made using Asset Forge (www.assetforge.io) version 1.0 

mtllib buildingCorridorOpenEnd.mtl 

g buildingCorridorOpenEnd

v -10 0 0 
v -10 0.7000012 0 
v -10 0 10 
v -10 0.7000012 10 
v -9.518438 0 0 
v -9.518438 0.7000012 0 
v 0 0.7000012 0 
v 0 0 0 
v 0 0.7000012 10 
v 0 0 10 
v -1.636594 9.726937 0 
v -1.636594 9.726937 10 
v -2.477444 10.04961 0 
v -2.477444 10.04961 10 
v -7.522555 10.04961 0 
v -7.522555 10.04961 10 
v -8.363406 9.726937 0 
v -8.363406 9.726937 10 
v -0.4815612 0 0 
v -0.4815612 0.7000012 0 
v -0.4815612 0.7000012 10 
v -9.518438 0.7000012 10 
v -9.518438 0 9.5 
v -0.4815612 0 9.5 
v -0.4815612 0.7000012 9.5 
v -9.518438 0.7000012 9.5 
v 0 2.699999 0 
v -0.2999977 2.699999 9.700002 
v 0 2.699999 10 
v -10 2.699999 10 
v -0.4815612 2.699999 9.700002 
v -9.518438 2.699999 9.700002 
v -9.700002 2.699999 9.700002 
v -9.700002 2.699999 0.2999977 
v -10 2.699999 0 
v -9.518438 2.699999 0 
v -9.518438 2.699999 0.2999977 
v -0.2999977 2.699999 0.2999977 
v -0.4815612 2.699999 0 
v -0.4815612 2.699999 0.2999977 
v -0.4815612 2.699999 9.5 
v -9.518438 2.699999 9.5 
v -0.4815612 1.499998 9.5 
v -0.4815612 1.499998 10 
v -9.518438 1.499998 9.5 
v -9.518438 1.499998 10 
v -0.4815612 5.800002 9.5 
v -0.4815612 5.800002 9.700002 
v -9.518438 5.800002 9.5 
v -9.518438 5.800002 9.700002 
v -2.177575 9.125854 9.700002 
v -7.822425 9.125854 9.700002 
v -6.541816 9.617268 9.700002 
v -3.458184 9.617268 9.700002 
v -2.177575 9.125854 9.5 
v -3.458184 9.617268 9.5 
v -6.541816 9.617268 9.5 
v -7.822425 9.125854 9.5 
v 0 1.499998 0 
v 0 1.499998 10 
v -10 1.499998 0 
v -9.518438 1.499998 0 
v -10 1.499998 10 
v -0.4815612 1.499998 0 
v -10 5.800002 0 
v -10 6.517601 0 
v -10 5.800002 10 
v -10 6.517601 10 
v -9.518438 5.800002 10 
v -9.700002 5.800002 9.700002 
v -9.700002 5.800002 0.2999977 
v -9.518438 5.800002 0 
v -9.518438 5.800002 0.2999977 
v 0 6.517601 0 
v 0 6.517601 10 
v -3.318295 10.37227 0 
v -3.318295 10.37227 10 
v -6.681705 10.37227 0 
v -6.681705 10.37227 10 
v 0 5.800002 0 
v 0 5.800002 10 
v -6.541816 9.617268 10 
v -7.822425 9.125854 10 
v -3.458184 9.617268 10 
v -0.2999977 5.800002 9.700002 
v -0.4815612 5.800002 10 
v -0.2999977 5.800002 0.2999977 
v -0.4815612 5.800002 0 
v -0.4815612 5.800002 0.2999977 
v -2.177575 9.125854 10 
v -7.822425 9.125854 0 
v -6.541816 9.617268 0 
v -3.458184 9.617268 0 
v -2.177575 9.125854 0 

vn -0.9999924 0.003921539 0
vn -0.003921569 0.003921569 -0.9999846
vn 0.9999924 0.003921539 0
vn 0.3558328 0.9345497 0
vn -0.3558328 0.9345497 0
vn -0.003921569 0.003921569 0.9999846
vn -0.003921539 0.9999924 0
vn -0.003921539 -0.9999924 0
vn -0.8901961 -0.4509804 -0.06455719
vn -0.3558328 -0.9345497 0
vn 0.3558328 -0.9345497 0
vn 0.8901961 -0.4509804 -0.06455719
vn 0.8901961 0.4509804 -0.06455719
vn -0.8901961 0.4509804 -0.06455719

vt 1.378717E-06 1.378717E-06
vt -39.37008 22.83465
vt -39.37008 25.65982
vt 1.378717E-06 22.83465
vt 1.378717E-06 5.905513
vt 1.895916 5.905513
vt 1.378717E-06 2.755905
vt 37.40158 22.83465
vt 37.40158 10.62992
vt 1.181106 22.83465
vt -39.37008 10.62992
vt 1.378717E-06 10.62992
vt -39.37008 5.905513
vt -37.40157 2.755905
vt -37.40157 5.905513
vt -1.181103 38.18898
vt 1.378717E-06 39.37008
vt -39.37008 39.37008
vt -1.895913 38.18898
vt -37.47416 38.18898
vt -38.18898 38.18898
vt -38.18898 1.181106
vt -39.37008 1.378717E-06
vt -37.47416 1.378717E-06
vt -37.47416 1.181106
vt -1.181103 1.181106
vt -1.895913 1.378717E-06
vt -1.895913 1.181106
vt -1.895913 37.40158
vt -37.47416 37.40158
vt 13.6149 37.86326
vt 25.75518 37.86326
vt 8.573119 35.92855
vt 39.37008 5.905513
vt 37.47416 5.905513
vt 39.37008 10.62992
vt 37.47416 10.62992
vt 1.895916 10.62992
vt -1.895913 5.905513
vt -37.47416 5.905513
vt 37.40158 5.905513
vt 1.181106 10.62992
vt -1.181103 10.62992
vt -37.40157 10.62992
vt 1.378717E-06 25.65982
vt 39.37008 22.83465
vt 39.37008 25.65982
vt -37.47416 39.37008
vt 1.378717E-06 37.04241
vt 1.378717E-06 22.85917
vt -39.37008 37.04241
vt -39.37008 22.85917
vt 1.378717E-06 23.28111
vt -39.37008 23.28111
vt 1.378717E-06 26.82692
vt -39.37008 26.82692
vt 1.378717E-06 -9.929785
vt 39.37008 -9.929785
vt 1.378717E-06 -13.47559
vt 39.37008 -13.47559
vt 1.378717E-06 4.973796
vt 1.378717E-06 19.15703
vt 39.37008 4.973796
vt 39.37008 19.15703
vt 13.06416 1.378717E-06
vt 13.06416 39.37008
vt 26.30592 1.378717E-06
vt 26.30592 39.37008
vt -39.37008 -10.48052
vt -38.18898 -10.48052
vt -39.37008 -15.88078
vt -38.18898 -15.88078
vt -13.6149 39.37008
vt -13.6149 38.18898
vt -25.75518 39.37008
vt -25.75518 38.18898
vt -1.895913 39.37008
vt 39.37008 20.87593
vt 38.18898 20.87593
vt 39.37008 26.27618
vt 38.18898 26.27618
vt 37.47416 22.83465
vt 30.79696 35.92855
vt 32.9268 38.29503
vt 6.443287 38.29503
vt 1.895916 22.83465
vt 29.61636 39.56536
vt 9.753726 39.56536
vt 26.30592 40.8357
vt 13.06416 40.8357
vt 38.18898 35.90178
vt 39.37008 35.90178
vt 38.18898 21.20364
vt 39.37008 21.20364
vt -38.18898 18.0164
vt -38.18898 3.318261
vt -39.37008 18.0164
vt -39.37008 3.318261
vt -1.895913 22.83465
vt -8.573116 35.92855
vt -6.443285 38.29503
vt -13.6149 37.86326
vt -25.75518 37.86326
vt -32.92679 38.29503
vt -30.79696 35.92855
vt -37.47416 22.83465
vt -9.753723 39.56536
vt -29.61635 39.56536
vt -13.06416 40.8357
vt -26.30592 40.8357
vt -39.37008 2.755905
vt 39.37008 2.755905
vt 37.47416 2.755905
vt 1.895916 2.755905
vt -1.895913 2.755905
vt -37.47416 2.755905
vt 37.40158 2.755905
vt 1.378717E-06 18.0164
vt 1.378717E-06 3.318261
vt -37.40157 18.0164
vt -1.181103 3.318261
vt -37.40157 3.318261
vt -37.40157 -10.48052
vt 1.378717E-06 -10.48052
vt -37.40157 -15.88078
vt 1.378717E-06 -15.88078
vt -13.6149 1.378717E-06
vt -25.75518 1.378717E-06
vt -13.6149 37.40158
vt -25.75518 37.40158
vt 1.378717E-06 20.87593
vt 1.378717E-06 26.27618
vt 37.40158 20.87593
vt 37.40158 26.27618
vt 1.378717E-06 21.20364
vt 1.378717E-06 35.90178
vt 1.181106 21.20364
vt 37.40158 35.90178
vt 37.40158 21.20364
vt 38.18898 10.62992
vt 38.18898 22.83465
vt -1.181103 22.83465
vt -38.18898 22.83465
vt -38.18898 10.62992
vt -1.895913 10.62992
vt -37.47416 10.62992
vt -37.40157 22.83465

usemtl _defaultMat
usemap _defaultMat

f 2/1/1 1/1/1 3/1/1
f 3/1/1 4/1/1 2/1/1
f 5/1/2 1/1/2 2/1/2
f 2/1/2 6/1/2 5/1/2
f 8/1/3 7/1/3 9/1/3
f 9/1/3 10/1/3 8/1/3
f 12/3/4 11/2/4 13/4/4
f 13/3/4 14/2/4 12/4/4
f 16/3/5 15/2/5 17/4/5
f 17/3/5 18/2/5 16/4/5
f 8/6/2 19/5/2 20/7/2
f 20/6/2 7/5/2 8/7/2
f 3/9/6 10/8/6 9/10/6
f 9/9/6 4/8/6 3/10/6
f 9/9/6 21/8/6 4/10/6
f 21/9/6 22/8/6 4/10/6
f 23/12/7 5/11/7 1/13/7
f 10/12/7 8/11/7 19/13/7
f 19/12/7 24/11/7 10/13/7
f 24/12/7 3/11/7 10/13/7
f 24/12/7 23/11/7 3/13/7
f 23/12/7 1/11/7 3/13/7
f 20/15/1 19/14/1 24/7/1
f 24/15/1 25/14/1 20/7/1
f 5/15/3 6/14/3 26/7/3
f 26/15/3 23/14/3 5/7/3
f 24/15/2 23/14/2 26/7/2
f 26/15/2 25/14/2 24/7/2
f 28/16/8 27/1/8 29/17/8
f 29/17/8 30/18/8 28/16/8
f 30/18/8 31/19/8 28/16/8
f 30/18/8 32/20/8 31/19/8
f 30/18/8 33/21/8 32/20/8
f 30/18/8 34/22/8 33/21/8
f 34/22/8 30/18/8 35/23/8
f 34/22/8 35/23/8 36/24/8
f 36/24/8 37/25/8 34/22/8
f 27/1/8 28/16/8 38/26/8
f 38/26/8 39/27/8 27/1/8
f 38/26/8 40/28/8 39/27/8
f 41/29/8 31/19/8 32/20/8
f 32/20/8 42/30/8 41/29/8
f 44/20/7 43/30/7 45/29/7
f 45/20/7 46/30/7 44/29/7
f 48/20/7 47/30/7 49/29/7
f 49/20/7 50/30/7 48/29/7
f 50/20/6 48/30/6 51/29/6
f 51/20/6 52/30/6 50/29/6
f 51/20/6 53/30/6 52/29/6
f 51/20/6 54/30/6 53/29/6
f 51/32/9 55/31/9 47/33/9
f 47/32/9 48/31/9 51/33/9
f 55/32/10 51/31/10 54/33/10
f 54/32/10 56/31/10 55/33/10
f 56/32/8 54/31/8 53/33/8
f 53/32/8 57/31/8 56/33/8
f 57/32/11 53/31/11 52/33/11
f 52/32/11 58/31/11 57/33/11
f 49/32/12 58/31/12 52/33/12
f 52/32/12 50/31/12 49/33/12

usemtl pipe
usemap pipe

f 59/5/3 27/12/3 29/11/3
f 29/11/3 60/13/3 59/5/3
f 62/35/2 61/34/2 35/36/2
f 35/36/2 36/37/2 62/35/2
f 35/12/1 61/5/1 63/34/1
f 63/34/1 30/36/1 35/12/1
f 59/5/2 64/6/2 39/38/2
f 39/38/2 27/12/2 59/5/2
f 44/39/6 60/5/6 29/12/6
f 29/12/6 46/40/6 44/39/6
f 29/12/6 63/13/6 46/40/6
f 29/12/6 30/11/6 63/13/6
f 39/12/1 64/5/1 43/41/1
f 43/41/1 40/42/1 39/12/1
f 43/41/1 41/9/1 40/42/1
f 62/5/3 36/12/3 37/43/3
f 37/43/3 45/15/3 62/5/3
f 37/43/3 42/44/3 45/15/3
f 43/6/2 45/35/2 42/37/2
f 42/37/2 41/38/2 43/6/2
f 28/16/7 29/17/7 27/1/7
f 29/17/7 28/16/7 30/18/7
f 30/18/7 28/16/7 31/19/7
f 30/18/7 31/19/7 32/20/7
f 30/18/7 32/20/7 33/21/7
f 30/18/7 33/21/7 34/22/7
f 34/22/7 35/23/7 30/18/7
f 34/22/7 36/24/7 35/23/7
f 36/24/7 34/22/7 37/25/7
f 27/1/7 38/26/7 28/16/7
f 38/26/7 27/1/7 39/27/7
f 38/26/7 39/27/7 40/28/7
f 41/29/7 32/20/7 31/19/7
f 32/20/7 41/29/7 42/30/7

usemtl metal
usemap metal

f 66/45/1 65/4/1 67/46/1
f 67/46/1 68/47/1 66/45/1
f 50/20/8 69/48/8 67/18/8
f 67/18/8 70/21/8 50/20/8
f 67/18/8 71/22/8 70/21/8
f 71/22/8 67/18/8 65/23/8
f 71/22/8 65/23/8 72/24/8
f 72/24/8 73/25/8 71/22/8
f 74/50/13 11/49/13 12/51/13
f 12/51/13 75/52/13 74/50/13
f 14/54/4 13/53/4 76/55/4
f 76/55/4 77/56/4 14/54/4
f 79/58/5 78/57/5 15/59/5
f 15/59/5 16/60/5 79/58/5
f 17/62/14 66/61/14 68/63/14
f 68/63/14 18/64/14 17/62/14
f 77/66/7 76/65/7 78/67/7
f 78/67/7 79/68/7 77/66/7
f 80/4/3 74/45/3 75/3/3
f 75/3/3 81/2/3 80/4/3
f 53/70/11 82/69/11 83/71/11
f 83/71/11 52/72/11 53/70/11
f 54/74/8 84/73/8 82/75/8
f 82/75/8 53/76/8 54/74/8
f 85/16/8 80/1/8 81/17/8
f 81/17/8 86/77/8 85/16/8
f 86/77/8 48/19/8 85/16/8
f 80/1/8 85/16/8 87/26/8
f 87/26/8 88/27/8 80/1/8
f 87/26/8 89/28/8 88/27/8
f 51/79/10 90/78/10 84/80/10
f 84/80/10 54/81/10 51/79/10
f 72/82/2 65/46/2 66/47/2
f 66/47/2 91/83/2 72/82/2
f 66/47/2 17/84/2 91/83/2
f 17/84/2 92/32/2 91/83/2
f 92/32/2 17/84/2 11/85/2
f 93/31/2 92/32/2 11/85/2
f 94/33/2 93/31/2 11/85/2
f 94/33/2 11/85/2 74/45/2
f 94/33/2 74/45/2 80/4/2
f 80/4/2 88/86/2 94/33/2
f 17/84/2 15/87/2 11/85/2
f 15/87/2 13/88/2 11/85/2
f 15/87/2 78/89/2 13/88/2
f 78/89/2 76/90/2 13/88/2
f 90/92/9 51/91/9 48/93/9
f 48/93/9 86/94/9 90/92/9
f 50/96/12 52/95/12 83/97/12
f 83/97/12 69/98/12 50/96/12
f 86/99/6 81/4/6 75/45/6
f 75/45/6 90/100/6 86/99/6
f 75/45/6 12/101/6 90/100/6
f 12/101/6 84/102/6 90/100/6
f 12/101/6 82/103/6 84/102/6
f 82/103/6 12/101/6 18/104/6
f 83/105/6 82/103/6 18/104/6
f 83/105/6 18/104/6 68/3/6
f 83/105/6 68/3/6 67/2/6
f 67/2/6 69/106/6 83/105/6
f 12/101/6 14/107/6 18/104/6
f 14/107/6 16/108/6 18/104/6
f 14/107/6 77/109/6 16/108/6
f 77/109/6 79/110/6 16/108/6
f 7/7/3 59/5/3 60/13/3
f 60/13/3 9/111/3 7/7/3
f 6/113/2 2/112/2 61/34/2
f 61/34/2 62/35/2 6/113/2
f 61/5/1 2/7/1 4/112/1
f 4/112/1 63/34/1 61/5/1
f 7/7/2 20/114/2 64/6/2
f 64/6/2 59/5/2 7/7/2
f 21/115/6 9/7/6 60/5/6
f 60/5/6 22/116/6 21/115/6
f 60/5/6 4/111/6 22/116/6
f 60/5/6 63/13/6 4/111/6
f 60/5/6 44/39/6 63/13/6
f 44/39/6 46/40/6 63/13/6
f 64/5/1 20/7/1 25/117/1
f 25/117/1 43/41/1 64/5/1
f 6/7/3 62/5/3 45/15/3
f 45/15/3 26/14/3 6/7/3
f 25/114/2 26/113/2 45/35/2
f 45/35/2 43/6/2 25/114/2
f 72/119/12 91/118/12 58/120/12
f 58/120/12 73/121/12 72/119/12
f 58/120/12 49/122/12 73/121/12
f 92/124/11 57/123/11 58/125/11
f 58/125/11 91/126/11 92/124/11
f 92/128/8 93/127/8 56/129/8
f 56/129/8 57/130/8 92/128/8
f 93/132/10 94/131/10 55/133/10
f 55/133/10 56/134/10 93/132/10
f 94/136/9 88/135/9 89/137/9
f 89/137/9 55/138/9 94/136/9
f 89/137/9 47/139/9 55/138/9

usemtl glass
usemap glass

f 71/10/1 34/42/1 33/140/1
f 33/140/1 70/141/1 71/10/1
f 37/37/2 34/140/2 71/141/2
f 71/141/2 73/82/2 37/37/2
f 38/43/3 87/142/3 85/143/3
f 85/143/3 28/144/3 38/43/3
f 31/145/6 28/43/6 85/142/6
f 85/142/6 32/146/6 31/145/6
f 85/142/6 33/144/6 32/146/6
f 85/142/6 70/143/6 33/144/6
f 85/142/6 48/99/6 70/143/6
f 48/99/6 50/106/6 70/143/6
f 38/42/2 40/38/2 89/86/2
f 89/86/2 87/10/2 38/42/2
f 37/43/3 73/142/3 49/147/3
f 49/147/3 42/44/3 37/43/3
f 89/10/1 40/42/1 41/9/1
f 41/9/1 47/8/1 89/10/1
f 41/38/2 42/37/2 49/82/2
f 49/82/2 47/86/2 41/38/2
f 47/86/2 49/82/2 58/83/2
f 58/83/2 55/33/2 47/86/2
f 58/83/2 57/32/2 55/33/2
f 57/32/2 56/31/2 55/33/2
f 41/38/6 49/82/6 42/37/6
f 49/82/6 41/38/6 47/86/6
