# Made using Asset Forge (www.assetforge.io) version 1.0 

mtllib console.mtl 

g console

v -4.559203 0.6156989 1.651361E-06 
v -1.651361E-06 0.6156989 1.651361E-06 
v -4.559203 1.203728 -0.1813376 
v -1.651361E-06 1.203728 -0.1813376 
v -1.651361E-06 3.600001 1.005702 
v -1.651361E-06 3.200002 1.005702 
v -1.651361E-06 3.600001 1.759306 
v -1.651361E-06 1.651361E-06 1.651361E-06 
v -1.651361E-06 1.651361E-06 2.062087 
v -1.651361E-06 1.608343 -0.1813376 
v -0.5699019 2.012958 -0.1813376 
v -4.559203 3.600001 1.005702 
v -4.559203 3.600001 1.759306 
v -4.559203 1.651361E-06 2.062087 
v -4.559203 1.651361E-06 1.651361E-06 
v -4.559203 3.200002 1.005702 
v -4.559203 1.608343 -0.1813376 
v -3.989303 2.012958 -0.1813376 

vn -0.003921569 -0.145098 -0.9894095
vn 0.9999924 0.003921539 0
vn 0.3882353 0.5529412 -0.7372445
vn -0.003921539 0.9999924 0
vn -0.003921539 -0.9999924 0
vn -0.003921569 0.003921569 -0.9999846
vn -0.9999924 0.003921539 0
vn -0.3882353 0.5529412 -0.7372445
vn -0.003921569 0.08235294 0.9965955
vn -0.003921569 0.7098039 -0.7043884

vt 0 0
vt 0 11.7082
vt 17.94962 11.7082
vt 2.243703 5.099028
vt 15.70592 5.099028

usemtl _defaultMat
usemap _defaultMat

f 2/1/1 1/1/1 3/1/1
f 3/1/1 4/1/1 2/1/1
f 6/1/2 5/1/2 7/1/2
f 6/1/2 2/1/2 4/1/2
f 6/1/2 8/1/2 2/1/2
f 6/1/2 9/1/2 8/1/2
f 6/1/2 7/1/2 9/1/2
f 4/1/2 10/1/2 6/1/2
f 10/1/3 11/1/3 6/1/3
f 7/3/4 5/2/4 12/4/4
f 12/3/4 13/2/4 7/4/4
f 8/3/5 9/2/5 14/4/5
f 14/3/5 15/2/5 8/4/5
f 6/3/6 16/2/6 12/4/6
f 12/3/6 5/2/6 6/4/6
f 1/3/7 15/2/7 14/4/7
f 14/3/7 16/2/7 1/4/7
f 14/3/7 12/2/7 16/4/7
f 14/3/7 13/2/7 12/4/7
f 17/3/7 3/2/7 1/4/7
f 1/3/7 16/2/7 17/4/7
f 8/3/6 15/2/6 1/4/1
f 1/3/1 2/2/1 8/4/6
f 18/3/8 17/2/8 16/4/8
f 14/3/9 9/2/9 7/4/9
f 7/3/9 13/2/9 14/4/9
f 4/3/1 3/2/1 17/4/6
f 17/3/6 10/2/6 4/4/1
f 17/3/6 18/2/6 10/4/6
f 18/3/6 11/2/6 10/4/6

usemtl glass
usemap glass

f 11/4/10 18/5/10 16/3/10
f 16/3/10 6/2/10 11/4/10
