# Made using Asset Forge (www.assetforge.io) version 1.0 

mtllib consoleCorner.mtl 

g consoleCorner

v -4.559209 -4.355188E-07 2.062089 
v -6.802629 -4.355188E-07 -0.1813424 
v -4.559209 3.6 1.759313 
v -6.499853 3.6 -0.1813424 
v -5.746249 3.199997 -0.1813424 
v -4.559209 1.608343 -0.1813424 
v -4.559209 3.199997 1.005708 
v -5.746249 3.6 -0.1813424 
v -4.559209 3.6 1.005708 
v -4.74054 -4.355188E-07 -0.1813424 
v -4.559209 -4.355188E-07 -4.355188E-07 
v -4.74054 0.6157014 -0.1813424 
v -4.559209 0.6157014 -4.355188E-07 
v -4.559209 1.203728 -0.1813424 
v -4.559209 1.608343 -4.740541 
v -4.559209 1.203728 -4.740541 
v -4.559209 2.012958 -4.170645 
v -4.559209 2.012958 -0.7512381 
v -6.802629 -4.355188E-07 -4.740541 
v -6.499853 3.6 -4.740541 
v 4.355188E-07 3.6 1.005708 
v 4.355188E-07 3.6 1.759313 
v -5.746249 3.6 -4.740541 
v -4.74054 -4.355188E-07 -4.740541 
v -4.74054 0.6157014 -4.740541 
v -5.746249 3.199997 -4.740541 
v 4.355188E-07 -4.355188E-07 2.062089 
v 4.355188E-07 -4.355188E-07 -4.355188E-07 
v 4.355188E-07 0.6157014 -4.355188E-07 
v 4.355188E-07 1.203728 -0.1813424 
v -0.5698953 2.012958 -0.1813424 
v 4.355188E-07 1.608343 -0.1813424 
v 4.355188E-07 3.199997 1.005708 
v -3.989303 2.012958 -0.1813424 

vn -0.7019608 0.05882353 0.7097822
vn 0.6235294 0.4666667 -0.6272426
vn 0.7098039 0.003921569 -0.7043884
vn 0.7019608 -0.09803922 -0.7054356
vn 0.6941177 -0.2156863 -0.6867897
vn 0.9999924 0.003921539 0
vn 0.9894747 -0.1447058 0
vn -0.9966261 0.0820751 0
vn -0.003921539 0.9999924 0
vn -0.003921569 0.003921569 -0.9999846
vn -0.003921539 -0.9999924 0
vn 0.7411765 0.5529412 0.380675
vn -0.003921569 -0.145098 -0.9894095
vn 0.3882353 0.5529412 -0.7372445
vn 0.7411765 0.5529412 -0.380675
vn -0.3882353 0.5529412 -0.7372445
vn -0.003921569 0.08235294 0.9965955
vn 0.7071068 0.7071068 0
vn -0.003921569 0.7098039 -0.7043884

vt 0 0
vt 2.957628 18.29614
vt 0.7139246 24.90531
vt 16.41985 18.29614
vt 0 11.70819
vt 17.94962 11.70819
vt 2.243704 5.099022
vt 18.66354 24.90531
vt 15.70592 5.099022

usemtl _defaultMat
usemap _defaultMat

f 2/1/1 1/1/1 3/1/1
f 3/1/1 4/1/1 2/1/1
f 6/1/2 5/1/2 7/1/2
f 7/1/3 5/1/3 8/1/3
f 8/1/3 9/1/3 7/1/3
f 11/1/3 10/1/3 12/1/4
f 12/1/4 13/1/4 11/1/3
f 13/1/4 12/1/4 14/1/5
f 16/1/7 15/1/6 17/1/6
f 17/1/6 14/1/7 16/1/7
f 17/1/6 18/1/6 14/1/7
f 18/1/6 6/1/6 14/1/7
f 20/3/8 19/2/8 2/4/8
f 2/3/8 4/2/8 20/4/8
f 22/3/9 21/2/9 9/4/9
f 9/3/9 3/2/9 22/4/9
f 9/3/9 4/2/9 3/4/9
f 9/3/9 8/2/9 4/4/9
f 8/3/9 23/2/9 4/4/9
f 23/3/9 20/2/9 4/4/9
f 24/3/10 19/2/10 20/4/10
f 20/3/10 25/2/10 24/4/10
f 20/3/10 15/2/10 16/4/10
f 20/3/10 23/2/10 26/4/10
f 20/3/10 16/2/10 25/4/10
f 20/3/10 26/2/10 15/4/10
f 25/3/7 16/2/7 14/4/7
f 14/3/7 12/2/7 25/4/7
f 28/3/11 27/2/11 1/4/11
f 1/3/11 11/2/11 28/4/11
f 1/3/11 2/2/11 11/4/11
f 2/3/11 10/2/11 11/4/11
f 2/3/11 24/2/11 10/4/11
f 2/3/11 19/2/11 24/4/11
f 6/3/12 18/2/12 5/4/12
f 26/3/6 23/2/6 8/4/6
f 8/3/6 5/2/6 26/4/6
f 29/3/13 13/2/13 14/4/13
f 14/3/13 30/2/13 29/4/13
f 28/3/10 11/2/10 13/4/13
f 13/3/13 29/2/13 28/4/10
f 32/3/14 31/2/14 33/4/14
f 15/3/15 26/2/15 17/4/15
f 24/3/6 25/2/7 12/4/7
f 12/3/7 10/2/6 24/4/6
f 30/3/13 14/2/13 6/4/10
f 6/3/10 32/2/10 30/4/13
f 6/3/10 34/2/10 32/4/10
f 34/3/10 31/2/10 32/4/10
f 34/3/16 6/2/16 7/4/16
f 1/6/17 27/5/17 22/7/17
f 22/6/17 3/5/17 1/7/17
f 33/6/6 21/5/6 22/7/6
f 30/6/6 32/5/6 33/7/6
f 33/6/6 29/5/6 30/7/6
f 33/6/6 28/5/6 29/7/6
f 33/6/6 27/5/6 28/7/6
f 33/6/6 22/5/6 27/7/6
f 33/6/10 7/5/10 9/7/10
f 9/6/10 21/5/10 33/7/10

usemtl glass
usemap glass

f 17/4/18 26/8/18 5/3/18
f 5/3/18 18/2/18 17/4/18
f 31/7/19 34/9/19 7/6/19
f 7/6/19 33/5/19 31/7/19
