# Made using Asset Forge (www.assetforge.io) version 1.0 

mtllib frameLowTile.mtl 

g frameLowTile

v -1.422087 1.100005 8.577911 
v -1.422087 1.500004 8.577911 
v -8.577911 1.100005 8.577911 
v -8.577911 1.500004 8.577911 
v -9.227091 1.100005 8.577911 
v -8.577911 0.5999961 8.577911 
v -9.227091 0.5999961 8.577911 
v -1.422087 0.5999961 8.577911 
v -0.7729073 0.5999961 8.577911 
v -0.7729073 1.100005 8.577911 
v -8.577911 1.500004 1.422087 
v -8.577911 1.100005 1.422087 
v -8.577911 1.100005 9.227091 
v -8.577911 0.5999961 9.227091 
v -8.577911 1.100005 0.7729073 
v -8.577911 0.5999961 0.7729073 
v -8.577911 0.5999961 1.422087 
v -9.227091 1.100005 1.422087 
v -1.422087 1.100005 1.422087 
v -1.422087 1.100005 0.7729073 
v -0.7729073 1.100005 1.422087 
v -1.422087 1.100005 9.227091 
v -0.7729073 0.5999961 0.7729073 
v -0.7729073 1.500004 0.7729073 
v -0.7729073 1.500004 9.227091 
v -0.7729073 0.5999961 9.227091 
v -0.7729073 0.5999961 1.422087 
v -1.422087 1.500004 1.422087 
v -1.422087 0.5999961 0.7729073 
v -1.422087 0.5999961 1.422087 
v -1.422087 0.5999961 9.227091 
v -9.227091 0.5999961 1.422087 
v -9.227091 1.500004 9.227091 
v -9.227091 0.5999961 9.227091 
v -9.227091 1.500004 0.7729073 
v -9.227091 0.5999961 0.7729073 
v -0.7729073 -0.8 1.422087 
v -0.7729073 -0.8 0.7729073 
v -1.422087 -0.8 1.422087 
v -1.422087 -0.8 0.7729073 
v -0.7729073 -0.3000014 0.7729073 
v -1.422087 -0.3000014 0.7729073 
v -0.7729073 -0.3000014 1.422087 
v -1.422087 -0.3000014 1.422087 
v -0.7729073 -0.8 9.227091 
v -0.7729073 -0.8 8.577911 
v -1.422087 -0.8 9.227091 
v -1.422087 -0.8 8.577911 
v -0.7729073 -0.3000014 8.577911 
v -0.7729073 -0.3000014 9.227091 
v -1.422087 -0.3000014 9.227091 
v -1.422087 -0.3000014 8.577911 
v -8.577911 -0.8 9.227091 
v -8.577911 -0.8 8.577911 
v -9.227091 -0.8 9.227091 
v -9.227091 -0.8 8.577911 
v -9.227091 -0.3000014 8.577911 
v -9.227091 -0.3000014 9.227091 
v -8.577911 -0.3000014 8.577911 
v -8.577911 -0.3000014 9.227091 
v -8.577911 -0.8 1.422087 
v -8.577911 -0.8 0.7729073 
v -9.227091 -0.8 1.422087 
v -9.227091 -0.8 0.7729073 
v -8.577911 -0.3000014 0.7729073 
v -8.577911 -0.3000014 1.422087 
v -9.227091 -0.3000014 1.422087 
v -9.227091 -0.3000014 0.7729073 
v -1.743427 1.500004 1.743427 
v -1.743427 1.900003 1.743427 
v -1.743427 1.500004 8.256571 
v -1.743427 1.900003 8.256571 
v -1.743427 2.300002 1.743427 
v -1.743427 2.300002 8.256571 
v 2.23915E-06 2.300002 0.9031367 
v 2.23915E-06 1.500004 0.9031367 
v 2.23915E-06 2.300002 9.096862 
v 2.23915E-06 1.500004 9.096862 
v -8.256571 1.500004 1.743427 
v -8.256571 1.900003 1.743427 
v -8.256571 2.300002 1.743427 
v -8.256571 1.900003 8.256571 
v -8.256571 1.500004 8.256571 
v -8.256571 2.300002 8.256571 
v -0.9031367 1.500004 10 
v -9.096862 1.500004 10 
v -0.9031367 2.300002 10 
v -9.096862 2.300002 10 
v -9.096862 1.500004 -2.23915E-06 
v -9.096862 2.300002 -2.23915E-06 
v -10 1.500004 0.9031367 
v -10 2.300002 0.9031367 
v -10 1.500004 9.096862 
v -10 2.300002 9.096862 
v -0.9031367 1.500004 -2.23915E-06 
v -0.9031367 2.300002 -2.23915E-06 
v -0.9031367 2.300002 0.9031367 
v -9.096862 2.300002 0.9031367 
v -9.096862 2.300002 9.096862 
v -0.9031367 2.300002 9.096862 

vn -0.003921569 0.003921569 -0.9999846
vn 0.9999924 0.003921539 0
vn -0.003921539 -0.9999924 0
vn -0.9999924 0.003921539 0
vn -0.003921569 0.003921569 0.9999846
vn -0.7098039 0.003921569 -0.7043884
vn 0.7098039 0.003921569 0.7043884
vn -0.7098039 0.003921569 0.7043884
vn 0.7098039 0.003921569 -0.7043884
vn -0.003921539 0.9999924 0

vt 4.69328E-06 4.69328E-06
vt 5.598768 2.362207
vt 5.598768 -1.181106
vt 3.042949 2.362207
vt 3.042949 -1.181106
vt -3.042949 2.362207
vt -3.042949 -1.181106
vt -5.598759 2.362207
vt -5.598759 -1.181106
vt -33.77132 -1.181106
vt -36.32713 -1.181106
vt -33.77132 2.362207
vt -36.32713 2.362207
vt 36.32713 -1.181106
vt 33.77132 -1.181106
vt 36.32713 2.362207
vt 33.77132 2.362207
vt 6.863889 5.905512
vt 6.863889 7.480323
vt 32.5062 5.905512
vt 32.5062 7.480323
vt 6.863889 9.055124
vt 32.5062 9.055124
vt -3.555652 9.055124
vt -3.555652 5.905512
vt -35.81442 9.055124
vt -35.81442 5.905512
vt -6.863879 5.905512
vt -32.5062 5.905512
vt -6.863879 7.480323
vt -32.5062 7.480323
vt -6.863879 9.055124
vt -32.5062 9.055124
vt 25.32462 5.905512
vt 25.32462 9.055124
vt 30.35308 5.905512
vt 30.35308 9.055124
vt -25.32462 9.055124
vt -25.32462 5.905512
vt -30.35308 9.055124
vt -30.35308 5.905512
vt -2.514232 5.905512
vt -2.514232 9.055124
vt 2.514232 5.905512
vt 2.514232 9.055124
vt 35.81442 5.905512
vt 3.555662 5.905512
vt 35.81442 9.055124
vt 3.555662 9.055124
vt 4.69328E-06 3.555662
vt -3.042949 36.32713
vt 4.69328E-06 35.81442
vt -3.555652 39.37008
vt -36.32713 36.32713
vt -35.81442 39.37008
vt -39.37008 35.81442
vt -36.32713 3.042949
vt -3.042949 3.042949
vt -3.555652 4.69328E-06
vt -35.81442 4.69328E-06
vt -39.37008 3.555662
vt 3.555662 4.69328E-06
vt 3.555662 3.555662
vt 35.81442 4.69328E-06
vt 35.81442 3.555662
vt 39.37008 3.555662
vt 35.81442 35.81442
vt 35.81442 39.37008
vt 39.37008 35.81442
vt 3.555662 39.37008
vt 3.555662 35.81442
vt 1.000002 1.999999
vt 1.000002 4.000002
vt 3.000005 1.999999
vt 3.000005 4.000002
vt 6.863889 6.863889
vt 32.5062 6.863889
vt 32.5062 32.5062
vt 6.863889 32.5062

usemtl _defaultMat
usemap _defaultMat

f 2/1/1 1/1/1 3/1/1
f 3/1/1 4/1/1 2/1/1
f 5/1/1 3/1/1 6/1/1
f 6/1/1 7/1/1 5/1/1
f 9/1/1 8/1/1 1/1/1
f 1/1/1 10/1/1 9/1/1
f 12/1/2 11/1/2 4/1/2
f 4/1/2 3/1/2 12/1/2
f 6/1/2 3/1/2 13/1/2
f 13/1/2 14/1/2 6/1/2
f 16/1/2 15/1/2 12/1/2
f 12/1/2 17/1/2 16/1/2
f 12/1/3 3/1/3 5/1/3
f 5/1/3 18/1/3 12/1/3
f 20/1/3 19/1/3 12/1/3
f 12/1/3 15/1/3 20/1/3
f 1/1/3 19/1/3 21/1/3
f 21/1/3 10/1/3 1/1/3
f 13/1/3 3/1/3 1/1/3
f 1/1/3 22/1/3 13/1/3
f 21/1/2 23/1/2 24/1/2
f 24/1/2 25/1/2 21/1/2
f 25/1/2 10/1/2 21/1/2
f 25/1/2 9/1/2 10/1/2
f 25/1/2 26/1/2 9/1/2
f 23/1/2 21/1/2 27/1/2
f 28/1/4 19/1/4 1/1/4
f 1/1/4 2/1/4 28/1/4
f 19/1/4 20/1/4 29/1/4
f 29/1/4 30/1/4 19/1/4
f 1/1/4 8/1/4 31/1/4
f 31/1/4 22/1/4 1/1/4
f 30/1/5 27/1/5 21/1/5
f 21/1/5 19/1/5 30/1/5
f 11/1/5 12/1/5 19/1/5
f 19/1/5 28/1/5 11/1/5
f 32/1/5 17/1/5 12/1/5
f 12/1/5 18/1/5 32/1/5
f 31/1/5 26/1/5 25/1/5
f 25/1/5 22/1/5 31/1/5
f 25/1/5 13/1/5 22/1/5
f 13/1/5 25/1/5 33/1/5
f 14/1/5 13/1/5 33/1/5
f 33/1/5 34/1/5 14/1/5
f 5/1/4 7/1/4 34/1/4
f 5/1/4 34/1/4 33/1/4
f 18/1/4 5/1/4 33/1/4
f 18/1/4 33/1/4 35/1/4
f 32/1/4 18/1/4 35/1/4
f 35/1/4 36/1/4 32/1/4
f 16/1/1 36/1/1 35/1/1
f 35/1/1 15/1/1 16/1/1
f 35/1/1 20/1/1 15/1/1
f 20/1/1 35/1/1 24/1/1
f 29/1/1 20/1/1 24/1/1
f 24/1/1 23/1/1 29/1/1
f 38/3/3 37/2/3 39/4/3
f 39/3/3 40/2/3 38/4/3
f 41/3/1 38/2/1 40/4/1
f 40/3/1 42/2/1 41/4/1
f 38/3/2 41/2/2 43/4/2
f 43/3/2 37/2/2 38/4/2
f 39/3/5 37/2/5 43/4/5
f 43/3/5 44/2/5 39/4/5
f 42/3/4 40/2/4 39/4/4
f 39/3/4 44/2/4 42/4/4
f 46/2/3 45/4/3 47/5/3
f 47/2/3 48/4/3 46/5/3
f 45/2/2 46/4/2 49/5/2
f 49/2/2 50/4/2 45/5/2
f 47/2/5 45/4/5 50/5/5
f 50/2/5 51/4/5 47/5/5
f 52/2/4 48/4/4 47/5/4
f 47/2/4 51/4/4 52/5/4
f 46/2/1 48/4/1 52/5/1
f 52/2/1 49/4/1 46/5/1
f 54/2/3 53/4/3 55/5/3
f 55/2/3 56/4/3 54/5/3
f 57/2/4 56/4/4 55/5/4
f 55/2/4 58/4/4 57/5/4
f 54/2/1 56/4/1 57/5/1
f 57/2/1 59/4/1 54/5/1
f 54/2/2 59/4/2 60/5/2
f 60/2/2 53/4/2 54/5/2
f 55/2/5 53/4/5 60/5/5
f 60/2/5 58/4/5 55/5/5
f 62/2/3 61/4/3 63/5/3
f 63/2/3 64/4/3 62/5/3
f 62/2/2 65/4/2 66/5/2
f 66/2/2 61/4/2 62/5/2
f 63/2/5 61/4/5 66/5/5
f 66/2/5 67/4/5 63/5/5
f 68/2/4 64/4/4 63/5/4
f 63/2/4 67/4/4 68/5/4
f 62/2/1 64/4/1 68/5/1
f 68/2/1 65/4/1 62/5/1

usemtl metal
usemap metal

f 23/4/1 41/5/1 42/3/1
f 42/3/1 29/2/1 23/4/1
f 41/7/2 23/6/2 27/8/2
f 27/8/2 43/9/2 41/7/2
f 44/9/5 43/7/5 27/6/5
f 27/6/5 30/8/5 44/9/5
f 29/4/4 42/5/4 44/3/4
f 44/3/4 30/2/4 29/4/4
f 65/7/2 16/6/2 17/8/2
f 17/8/2 66/9/2 65/7/2
f 67/11/5 66/10/5 17/12/5
f 17/12/5 32/13/5 67/11/5
f 36/4/4 68/5/4 67/3/4
f 67/3/4 32/2/4 36/4/4
f 65/15/1 68/14/1 36/16/1
f 36/16/1 16/17/1 65/15/1
f 7/17/4 57/15/4 58/14/4
f 58/14/4 34/16/4 7/17/4
f 59/15/1 57/14/1 7/16/1
f 7/16/1 6/17/1 59/15/1
f 60/11/2 59/10/2 6/12/2
f 6/12/2 14/13/2 60/11/2
f 58/11/5 60/10/5 14/12/5
f 14/12/5 34/13/5 58/11/5
f 49/10/2 9/12/2 26/13/2
f 26/13/2 50/11/2 49/10/2
f 51/9/5 50/7/5 26/6/5
f 26/6/5 31/8/5 51/9/5
f 8/17/4 52/15/4 51/14/4
f 51/14/4 31/16/4 8/17/4
f 49/5/1 52/3/1 8/2/1
f 8/2/1 9/4/1 49/5/1
f 70/19/4 69/18/4 71/20/4
f 71/20/4 72/21/4 70/19/4
f 73/22/4 70/19/4 72/21/4
f 72/21/4 74/23/4 73/22/4
f 76/25/2 75/24/2 77/26/2
f 77/26/2 78/27/2 76/25/2
f 79/29/5 69/28/5 70/30/5
f 70/30/5 80/31/5 79/29/5
f 80/31/5 70/30/5 73/32/5
f 73/32/5 81/33/5 80/31/5
f 79/28/2 80/30/2 82/31/2
f 82/31/2 83/29/2 79/28/2
f 84/33/2 82/31/2 80/30/2
f 80/30/2 81/32/2 84/33/2
f 86/27/5 85/25/5 87/24/5
f 87/24/5 88/26/5 86/27/5
f 90/35/6 89/34/6 91/36/6
f 91/36/6 92/37/6 90/35/6
f 78/39/7 77/38/7 87/40/7
f 87/40/7 85/41/7 78/39/7
f 94/43/8 93/42/8 86/44/8
f 86/44/8 88/45/8 94/43/8
f 95/47/1 89/46/1 90/48/1
f 90/48/1 96/49/1 95/47/1
f 25/51/3 76/50/3 78/52/3
f 78/52/3 85/53/3 25/51/3
f 85/53/3 33/54/3 25/51/3
f 85/53/3 86/55/3 33/54/3
f 86/55/3 93/56/3 33/54/3
f 93/56/3 35/57/3 33/54/3
f 76/50/3 25/51/3 24/58/3
f 24/58/3 95/59/3 76/50/3
f 24/58/3 35/57/3 95/59/3
f 35/57/3 89/60/3 95/59/3
f 35/57/3 91/61/3 89/60/3
f 35/57/3 93/56/3 91/61/3
f 95/44/9 96/45/9 75/43/9
f 75/43/9 76/42/9 95/44/9
f 92/49/4 91/47/4 93/46/4
f 93/46/4 94/48/4 92/49/4
f 97/63/10 96/62/10 90/64/10
f 90/64/10 98/65/10 97/63/10
f 90/64/10 92/66/10 98/65/10
f 92/66/10 99/67/10 98/65/10
f 92/66/10 88/68/10 99/67/10
f 92/66/10 94/69/10 88/68/10
f 96/62/10 97/63/10 87/70/10
f 99/67/10 88/68/10 87/70/10
f 96/62/10 87/70/10 77/52/10
f 77/52/10 75/50/10 96/62/10
f 97/63/10 100/71/10 87/70/10
f 100/71/10 99/67/10 87/70/10
f 72/19/1 82/21/1 84/23/1
f 84/23/1 74/22/1 72/19/1
f 82/21/1 72/19/1 71/18/1
f 71/18/1 83/20/1 82/21/1

usemtl net
usemap net

f 72/73/10 70/72/10 80/74/10
f 80/74/10 82/75/10 72/73/10
f 72/73/3 80/74/3 70/72/3
f 80/74/3 72/73/3 82/75/3

usemtl light
usemap light

f 73/76/10 100/71/10 97/63/10
f 97/63/10 98/65/10 73/76/10
f 98/65/10 81/77/10 73/76/10
f 98/65/10 84/78/10 81/77/10
f 100/71/10 73/76/10 74/79/10
f 74/79/10 99/67/10 100/71/10
f 74/79/10 84/78/10 99/67/10
f 84/78/10 98/65/10 99/67/10
