# Made using Asset Forge (www.assetforge.io) version 1.0 

mtllib metalTileConnectCorner.mtl 

g metalTileConnectCorner

v 0 0.8 9.09686 
v 0 0 9.09686 
v -0.90314 0.8 10 
v -0.90314 0 10 
v 0 0.8 0 
v 0 0 0 
v -1.743423 0 0 
v -1.743423 0.4 0 
v -1.743423 0 8.256577 
v -1.743423 0.4 8.256577 
v -1.743423 0.8 0 
v -1.743423 0.8 8.256577 
v -10 0 8.256577 
v -10 0.4 8.256577 
v -10 0.8 8.256577 
v -10 0 10 
v -10 0.8 10 
v -10 0.8 9.09686 
v -0.90314 0.8 0 
v -0.90314 0.8 9.09686 
v -10 0.4 0 

vn 0.7098039 0.003921569 0.7043884
vn 0.9999924 0.003921539 0
vn -0.9999924 0.003921539 0
vn -0.003921569 0.003921569 -0.9999846
vn -0.003921539 -0.9999924 0
vn -0.003921569 0.003921569 0.9999846
vn -0.003921539 0.9999924 0

vt -25.32462 3.149608
vt -25.32462 4.69328E-06
vt -30.35308 3.149608
vt -30.35308 4.69328E-06
vt 4.69328E-06 3.149608
vt 4.69328E-06 4.69328E-06
vt -35.81442 3.149608
vt -35.81442 4.69328E-06
vt 4.69328E-06 1.574807
vt 32.5062 4.69328E-06
vt 32.5062 1.574807
vt 32.5062 3.149608
vt 39.37008 4.69328E-06
vt 6.863889 4.69328E-06
vt 39.37008 1.574807
vt 6.863889 1.574807
vt 39.37008 3.149608
vt 6.863889 3.149608
vt -3.555652 39.37008
vt -6.863879 32.5062
vt -39.37008 39.37008
vt -39.37008 32.5062
vt -6.863879 4.69328E-06
vt 4.69328E-06 35.81442
vt -3.555652 4.69328E-06
vt -39.37008 4.69328E-06
vt -3.555652 3.149608
vt -39.37008 3.149608
vt 35.81442 3.149608
vt 3.555662 3.149608
vt 3.555662 4.69328E-06
vt 3.555662 39.37008
vt 3.555662 35.81442
vt 39.37008 35.81442
vt 39.37008 39.37008
vt 6.863889 32.5062
vt 39.37008 32.5062
vt 1.000002 1.464646
vt 1.000002 4.000002
vt 3.535358 1.464646
vt 3.535358 4.000002

usemtl metal
usemap metal

f 2/2/1 1/1/1 3/3/1
f 3/3/1 4/4/1 2/2/1
f 6/6/2 5/5/2 1/7/2
f 1/7/2 2/8/2 6/6/2
f 8/9/3 7/6/3 9/10/3
f 9/10/3 10/11/3 8/9/3
f 11/5/3 8/9/3 10/11/3
f 10/11/3 12/12/3 11/5/3
f 9/14/4 13/13/4 14/15/4
f 14/15/4 10/16/4 9/14/4
f 10/16/4 14/15/4 15/17/4
f 15/17/4 12/18/4 10/16/4
f 9/20/5 4/19/5 16/21/5
f 16/21/5 13/22/5 9/20/5
f 4/19/5 9/20/5 7/23/5
f 4/19/5 7/23/5 6/6/5
f 6/6/5 2/24/5 4/19/5
f 16/26/6 4/25/6 3/27/6
f 3/27/6 17/28/6 16/26/6
f 14/11/3 13/10/3 16/13/3
f 16/13/3 15/12/3 14/11/3
f 16/13/3 18/29/3 15/12/3
f 16/13/3 17/17/3 18/29/3
f 6/6/4 7/14/4 8/16/4
f 8/16/4 5/5/4 6/6/4
f 8/16/4 19/30/4 5/5/4
f 8/16/4 11/18/4 19/30/4
f 1/24/7 5/6/7 19/31/7
f 19/31/7 3/32/7 1/24/7
f 19/31/7 20/33/7 3/32/7
f 20/33/7 18/34/7 3/32/7
f 18/34/7 17/35/7 3/32/7

usemtl light
usemap light

f 20/33/7 19/31/7 11/14/7
f 11/14/7 12/36/7 20/33/7
f 12/36/7 18/34/7 20/33/7
f 12/36/7 15/37/7 18/34/7

usemtl net
usemap net

f 10/39/7 8/38/7 21/40/7
f 21/40/7 14/41/7 10/39/7
f 10/39/5 21/40/5 8/38/5
f 21/40/5 10/39/5 14/41/5
