# Made using Asset Forge (www.assetforge.io) version 1.0 

mtllib metalTileConnectStraight.mtl 

g metalTileConnectStraight

v 0 0.4 1.743423 
v 0 0.4 8.256577 
v -10 0.4 1.743423 
v -10 0.4 8.256577 
v 0 0 10 
v 0 0 8.256577 
v -10 0 10 
v -10 0 8.256577 
v -10 0 0 
v -10 0.8 0 
v -10 0 1.743423 
v -10 0.8 0.90314 
v -10 0.8 1.743423 
v -10 0.8 8.256577 
v -10 0.8 9.09686 
v -10 0.8 10 
v 0 0.8 8.256577 
v 0 0 1.743423 
v 0 0 0 
v 0 0.8 1.743423 
v 0 0.8 9.09686 
v 0 0.8 10 
v 0 0.8 0 
v 0 0.8 0.90314 

vn -0.003921539 0.9999924 0
vn -0.003921539 -0.9999924 0
vn -0.9999924 0.003921539 0
vn -0.003921569 0.003921569 -0.9999846
vn -0.003921569 0.003921569 0.9999846
vn 0.9999924 0.003921539 0

vt 0.4646488 1.999999
vt 0.4646488 4.000002
vt 3.535358 1.999999
vt 3.535358 4.000002
vt 4.69328E-06 39.37008
vt 4.69328E-06 32.5062
vt -39.37008 39.37008
vt -39.37008 32.5062
vt 4.69328E-06 4.69328E-06
vt 4.69328E-06 3.149608
vt 6.863889 4.69328E-06
vt 3.555662 3.149608
vt 6.863889 3.149608
vt 6.863889 1.574807
vt 32.5062 4.69328E-06
vt 32.5062 1.574807
vt 39.37008 4.69328E-06
vt 32.5062 3.149608
vt 35.81442 3.149608
vt 39.37008 3.149608
vt 39.37008 1.574807
vt 4.69328E-06 1.574807
vt 4.69328E-06 6.863889
vt -39.37008 6.863889
vt -39.37008 4.69328E-06
vt -39.37008 1.574807
vt -39.37008 3.149608
vt 4.69328E-06 35.81442
vt 39.37008 35.81442
vt 39.37008 39.37008
vt -32.5062 3.149608
vt -32.5062 1.574807
vt -35.81442 3.149608
vt -32.5062 4.69328E-06
vt 4.69328E-06 3.555662
vt 39.37008 3.555662
vt -3.555652 3.149608
vt -6.863879 4.69328E-06
vt -6.863879 3.149608
vt -6.863879 1.574807
vt 39.37008 32.5062
vt 39.37008 6.863889

usemtl net
usemap net

f 2/2/1 1/1/1 3/3/1
f 3/3/1 4/4/1 2/2/1
f 2/2/2 3/3/2 1/1/2
f 3/3/2 2/2/2 4/4/2

usemtl metal
usemap metal

f 6/6/2 5/5/2 7/7/2
f 7/7/2 8/8/2 6/6/2
f 10/10/3 9/9/3 11/11/3
f 11/11/3 12/12/3 10/10/3
f 11/11/3 13/13/3 12/12/3
f 11/11/3 3/14/3 13/13/3
f 4/16/3 8/15/3 7/17/3
f 7/17/3 14/18/3 4/16/3
f 7/17/3 15/19/3 14/18/3
f 7/17/3 16/20/3 15/19/3
f 6/9/4 8/17/4 4/21/4
f 4/21/4 2/22/4 6/9/4
f 17/10/4 2/22/4 4/21/4
f 4/21/4 14/20/4 17/10/4
f 19/9/2 18/23/2 11/24/2
f 11/24/2 9/25/2 19/9/2
f 11/25/5 18/9/5 1/22/5
f 1/22/5 3/26/5 11/25/5
f 3/26/5 1/22/5 20/10/5
f 20/10/5 13/27/5 3/26/5
f 22/5/1 21/28/1 15/29/1
f 15/29/1 16/30/1 22/5/1
f 2/32/6 17/31/6 21/33/6
f 21/33/6 6/34/6 2/32/6
f 21/33/6 5/25/6 6/34/6
f 21/33/6 22/27/6 5/25/6
f 7/25/5 5/9/5 22/10/5
f 22/10/5 16/27/5 7/25/5
f 24/35/1 23/9/1 10/17/1
f 10/17/1 12/36/1 24/35/1
f 19/9/6 23/10/6 24/37/6
f 24/37/6 18/38/6 19/9/6
f 24/37/6 20/39/6 18/38/6
f 20/39/6 1/40/6 18/38/6
f 19/9/4 9/17/4 10/20/4
f 10/20/4 23/10/4 19/9/4

usemtl light
usemap light

f 21/28/1 17/6/1 14/41/1
f 14/41/1 15/29/1 21/28/1
f 20/23/1 24/35/1 12/36/1
f 12/36/1 13/42/1 20/23/1
