# Made using Asset Forge (www.assetforge.io) version 1.0 

mtllib metalFenceCorner.mtl 

g metalFenceCorner

v -9.09686 2.208426 8.645295 
v -0.90314 2.208426 8.645295 
v -9.09686 2.600005 8.645295 
v -0.4515652 2.600005 8.645295 
v -0.4515652 -1.804779E-15 8.645295 
v -0.90314 -1.804779E-15 8.645295 
v -9.417476 1.120216 8.645295 
v -9.09686 -1.804779E-15 8.645295 
v -9.679383 1.120216 8.645295 
v -10 -1.804779E-15 8.645295 
v -10 2.208426 8.645295 
v -9.679383 1.558219 8.645295 
v -9.548434 1.558219 8.645295 
v -9.417476 1.558219 8.645295 
v -9.548434 1.120216 8.645295 
v -9.09686 -1.804779E-15 9.548434 
v -9.09686 -1.804779E-15 -1.804779E-15 
v -9.09686 2.208426 0.4515652 
v -9.09686 2.600005 -1.804779E-15 
v -9.09686 -1.804779E-15 0.4515652 
v -9.09686 1.558219 8.965911 
v -9.09686 2.208426 9.548434 
v -9.09686 1.558219 9.09686 
v -9.09686 1.558219 9.227818 
v -9.09686 1.120216 9.227818 
v -9.09686 1.120216 8.965911 
v -9.09686 1.120216 9.09686 
v -0.4515652 2.600005 9.09686 
v -0.90314 2.600005 9.548434 
v -9.09686 2.600005 9.548434 
v -10 2.600005 8.645295 
v -9.548434 2.600005 -1.804779E-15 
v -10 2.600005 0.4515652 
v -0.90314 1.558219 9.227818 
v -0.90314 1.558219 8.965911 
v -0.4515652 -1.804779E-15 9.09686 
v -0.90314 -1.804779E-15 9.548434 
v -0.90314 2.208426 9.548434 
v -10 2.208426 0.4515652 
v -9.679383 1.120216 0.4515652 
v -9.679383 1.558219 0.4515652 
v -0.90314 1.120216 9.227818 
v -0.90314 1.120216 8.965911 
v -9.417476 1.120216 0.4515652 
v -9.417476 1.558219 0.4515652 
v -9.548434 -1.804779E-15 -1.804779E-15 
v -10 -1.804779E-15 0.4515652 

vn -0.003921569 0.003921569 -0.9999846
vn -0.003921539 -0.9999924 0
vn 0.9999924 0.003921539 0
vn -0.003921539 0.9999924 0
vn 0.7098039 0.003921569 0.7043884
vn -0.9999924 0.003921539 0
vn -0.003921569 0.003921569 0.9999846
vn -0.7098039 0.003921569 -0.7043884
vn -0.7098039 0.003921569 0.7043884

vt 0 0

usemtl _defaultMat
usemap _defaultMat

f 2/1/1 1/1/1 3/1/1
f 2/1/1 3/1/1 4/1/1
f 2/1/1 4/1/1 5/1/1
f 5/1/1 6/1/1 2/1/1
f 7/1/1 1/1/1 8/1/1
f 8/1/1 9/1/1 7/1/1
f 9/1/1 8/1/1 10/1/1
f 10/1/1 11/1/1 9/1/1
f 11/1/1 12/1/1 9/1/1
f 11/1/1 13/1/1 12/1/1
f 11/1/1 14/1/1 13/1/1
f 7/1/1 14/1/1 1/1/1
f 14/1/1 11/1/1 1/1/1
f 13/1/1 14/1/1 7/1/1
f 9/1/1 15/1/1 7/1/1
f 7/1/1 15/1/1 13/1/1
f 8/1/2 16/1/2 10/1/2
f 18/1/3 17/1/3 19/1/3
f 19/1/3 3/1/3 18/1/3
f 3/1/3 1/1/3 18/1/3
f 17/1/3 18/1/3 20/1/3
f 21/1/3 8/1/3 1/1/3
f 1/1/3 22/1/3 21/1/3
f 22/1/3 23/1/3 21/1/3
f 22/1/3 24/1/3 23/1/3
f 22/1/3 25/1/3 24/1/3
f 8/1/3 21/1/3 26/1/3
f 26/1/3 21/1/3 23/1/3
f 26/1/3 16/1/3 8/1/3
f 25/1/3 22/1/3 16/1/3
f 26/1/3 27/1/3 16/1/3
f 27/1/3 25/1/3 16/1/3
f 23/1/3 27/1/3 26/1/3
f 28/1/4 4/1/4 3/1/4
f 3/1/4 29/1/4 28/1/4
f 3/1/4 30/1/4 29/1/4
f 3/1/4 19/1/4 30/1/4
f 19/1/4 31/1/4 30/1/4
f 19/1/4 32/1/4 31/1/4
f 32/1/4 33/1/4 31/1/4
f 34/1/4 23/1/4 24/1/4
f 21/1/4 23/1/4 34/1/4
f 34/1/4 35/1/4 21/1/4
f 36/1/5 28/1/5 29/1/5
f 29/1/5 37/1/5 36/1/5
f 29/1/5 38/1/5 37/1/5
f 33/1/6 39/1/6 11/1/6
f 11/1/6 31/1/6 33/1/6
f 18/1/2 1/1/2 11/1/2
f 11/1/2 39/1/2 18/1/2
f 22/1/2 1/1/2 2/1/2
f 2/1/2 38/1/2 22/1/2
f 41/1/6 40/1/6 9/1/6
f 9/1/6 12/1/6 41/1/6
f 25/1/7 42/1/7 34/1/7
f 34/1/7 24/1/7 25/1/7
f 43/1/1 26/1/1 21/1/1
f 21/1/1 35/1/1 43/1/1
f 5/1/3 4/1/3 28/1/3
f 28/1/3 36/1/3 5/1/3
f 43/1/6 2/1/6 6/1/6
f 6/1/6 37/1/6 43/1/6
f 37/1/6 42/1/6 43/1/6
f 37/1/6 34/1/6 42/1/6
f 2/1/6 43/1/6 35/1/6
f 35/1/6 38/1/6 2/1/6
f 35/1/6 34/1/6 38/1/6
f 34/1/6 37/1/6 38/1/6
f 44/1/2 7/1/2 15/1/2
f 15/1/2 40/1/2 44/1/2
f 15/1/2 9/1/2 40/1/2
f 22/1/7 38/1/7 29/1/7
f 29/1/7 30/1/7 22/1/7
f 44/1/3 45/1/3 14/1/3
f 14/1/3 7/1/3 44/1/3
f 13/1/4 14/1/4 45/1/4
f 45/1/4 41/1/4 13/1/4
f 41/1/4 12/1/4 13/1/4
f 17/1/1 46/1/1 32/1/1
f 32/1/1 19/1/1 17/1/1
f 44/1/7 47/1/7 20/1/7
f 20/1/7 18/1/7 44/1/7
f 18/1/7 45/1/7 44/1/7
f 18/1/7 41/1/7 45/1/7
f 47/1/7 44/1/7 40/1/7
f 40/1/7 39/1/7 47/1/7
f 40/1/7 41/1/7 39/1/7
f 41/1/7 18/1/7 39/1/7
f 32/1/8 46/1/8 47/1/8
f 47/1/8 33/1/8 32/1/8
f 47/1/8 39/1/8 33/1/8
f 11/1/9 10/1/9 16/1/9
f 11/1/9 16/1/9 30/1/9
f 30/1/9 31/1/9 11/1/9
f 16/1/9 22/1/9 30/1/9
f 43/1/2 27/1/2 26/1/2
f 25/1/2 27/1/2 43/1/2
f 43/1/2 42/1/2 25/1/2
