# Made using Asset Forge (www.assetforge.io) version 1.0 

mtllib metalStructure.mtl 

g metalStructure

v -9.09686 0.8 0.90314 
v -8.072651 0.8 0.90314 
v -9.09686 0 0.90314 
v -1.927349 0.8 0.90314 
v -0.90314 0.8 0.90314 
v -0.90314 0 0.90314 
v -9.09686 9.2 0 
v -8.072651 9.2 0 
v -9.09686 10 0 
v -1.927349 9.2 0 
v -0.90314 10 0 
v -0.90314 9.2 0 
v -9.09686 0.8 1.927349 
v -9.09686 0 9.09686 
v -9.09686 0.8 8.072651 
v -9.09686 0.8 9.09686 
v -0.90314 0.8 9.09686 
v -1.927349 0.8 9.09686 
v -0.90314 0 9.09686 
v -8.072651 0.8 9.09686 
v -0.90314 9.2 10 
v -1.927349 9.2 10 
v -0.90314 10 10 
v -9.09686 10 10 
v -9.09686 9.2 10 
v -8.072651 9.2 10 
v -0.90314 10 9.09686 
v -9.09686 10 9.09686 
v -10 10 9.09686 
v -9.09686 10 0.90314 
v -10 10 0.90314 
v 0 10 0.90314 
v 0 10 9.09686 
v -0.90314 10 0.90314 
v -10 9.2 0.90314 
v -10 9.2 1.927349 
v -10 9.2 8.072651 
v -10 9.2 9.09686 
v 0 9.2 0.90314 
v 0 0.8 1.927349 
v 0 0.8 8.072651 
v -0.90314 0.8 1.927349 
v -0.90314 0.8 8.072651 
v -1.927349 0.8 10 
v -8.072651 0.8 10 
v -0.90314 0 10 
v -9.09686 0 10 
v -0.90314 0.8 10 
v -9.09686 0.8 10 
v -9.09686 9.2 0.90314 
v -9.09686 9.2 1.927349 
v -9.09686 9.2 8.072651 
v -9.09686 9.2 9.09686 
v -10 0 0.90314 
v -10 0.8 0.90314 
v -10 0 9.09686 
v -10 0.8 1.927349 
v -10 0.8 8.072651 
v -10 0.8 9.09686 
v 0 9.2 8.072651 
v 0 9.2 1.927349 
v -0.90314 9.2 8.072651 
v -0.90314 9.2 1.927349 
v 0 9.2 9.09686 
v 0 0.8 0.90314 
v 0 0 0.90314 
v 0 0 9.09686 
v 0 0.8 9.09686 
v -8.072651 9.2 9.09686 
v -1.927349 9.2 9.09686 
v -0.90314 9.2 9.09686 
v -0.90314 9.2 0.90314 
v -1.927349 9.2 0.90314 
v -8.072651 9.2 0.90314 
v -9.09686 0 0 
v -0.90314 0 0 
v -9.09686 0.8 0 
v -0.90314 0.8 0 
v -8.072651 0.8 0 
v -1.927349 0.8 0 

vn -0.003921569 0.003921569 0.9999846
vn -0.003921569 0.003921569 -0.9999846
vn 0.9999924 0.003921539 0
vn -0.003921539 0.9999924 0
vn -0.9999924 0.003921539 0
vn 0.7098039 0.003921569 -0.7043884
vn -0.7098039 0.003921569 0.7043884
vn -0.003921539 -0.9999924 0
vn 0.7098039 0.003921569 0.7043884
vn -0.7098039 0.003921569 -0.7043884

vt -35.81442 3.149608
vt -31.78208 3.149608
vt -35.81442 4.69328E-06
vt -7.588006 3.149608
vt -3.555652 3.149608
vt -3.555652 4.69328E-06
vt 35.81442 36.22047
vt 31.78208 36.22047
vt 35.81442 39.37008
vt 7.588006 36.22047
vt 3.555662 39.37008
vt 3.555662 36.22047
vt 3.555662 3.149608
vt 7.588006 3.149608
vt 3.555662 4.69328E-06
vt 31.78208 3.149608
vt 35.81442 3.149608
vt 35.81442 4.69328E-06
vt -3.555652 36.22047
vt -7.588006 36.22047
vt -3.555652 39.37008
vt -35.81442 39.37008
vt -35.81442 36.22047
vt -31.78208 36.22047
vt -3.555652 35.81442
vt -35.81442 35.81442
vt -39.37008 35.81442
vt -35.81442 3.555662
vt -39.37008 3.555662
vt 4.69328E-06 3.555662
vt 4.69328E-06 35.81442
vt -3.555652 3.555662
vt 2.514232 39.37008
vt 2.514232 36.22047
vt -2.514232 39.37008
vt -2.514232 36.22047
vt 4.69328E-06 7.588006
vt 4.69328E-06 31.78208
vt 3.555662 7.588006
vt 3.555662 31.78208
vt 7.588006 35.81442
vt 7.588006 39.37008
vt 31.78208 35.81442
vt 31.78208 39.37008
vt -3.555652 31.78208
vt -3.555652 7.588006
vt 35.81442 7.588006
vt 35.81442 31.78208
vt 39.37008 7.588006
vt 39.37008 31.78208
vt 2.514232 4.69328E-06
vt -2.514232 4.69328E-06
vt 2.514232 3.149608
vt -2.514232 3.149608
vt -35.81442 31.78208
vt -35.81442 7.588006
vt -39.37008 31.78208
vt -39.37008 7.588006
vt -25.32462 39.37008
vt -25.32462 36.22047
vt -30.35308 39.37008
vt -30.35308 36.22047
vt -25.32462 3.149608
vt -25.32462 4.69328E-06
vt -30.35308 3.149608
vt -30.35308 4.69328E-06
vt -7.588006 3.555662
vt -7.588006 4.69328E-06
vt -31.78208 3.555662
vt -31.78208 4.69328E-06
vt 30.35308 4.69328E-06
vt 25.32462 4.69328E-06
vt 30.35308 3.149608
vt 25.32462 3.149608
vt -7.588006 39.37008
vt -7.588006 35.81442
vt -31.78208 39.37008
vt -31.78208 35.81442
vt 3.555662 3.555662
vt 35.81442 3.555662
vt 39.37008 3.555662
vt 35.81442 35.81442
vt 39.37008 35.81442
vt 3.555662 35.81442
vt 30.35308 36.22047
vt 25.32462 36.22047
vt 30.35308 39.37008
vt 25.32462 39.37008
vt 7.588006 4.69328E-06
vt 7.588006 3.555662
vt 31.78208 4.69328E-06
vt 31.78208 3.555662
vt 4.69328E-06 3.149608
vt 4.69328E-06 36.22047
vt 39.37008 3.149608
vt 39.37008 36.22047
vt -39.37008 36.22047
vt -39.37008 3.149608

usemtl metal
usemap metal

f 2/2/1 1/1/1 3/3/1
f 3/3/1 4/4/1 2/2/1
f 5/5/1 4/4/1 3/3/1
f 3/3/1 6/6/1 5/5/1
f 8/8/2 7/7/2 9/9/2
f 9/9/2 10/10/2 8/8/2
f 10/10/2 9/9/2 11/11/2
f 11/11/2 12/12/2 10/10/2
f 3/6/3 1/5/3 13/4/3
f 13/4/3 14/3/3 3/6/3
f 13/4/3 15/2/3 14/3/3
f 15/2/3 16/1/3 14/3/3
f 18/14/2 17/13/2 19/15/2
f 19/15/2 20/16/2 18/14/2
f 16/17/2 20/16/2 19/15/2
f 19/15/2 14/18/2 16/17/2
f 22/20/1 21/19/1 23/21/1
f 22/20/1 23/21/1 24/22/1
f 22/20/1 24/22/1 25/23/1
f 25/23/1 26/24/1 22/20/1
f 27/25/4 24/22/4 23/21/4
f 24/22/4 27/25/4 28/26/4
f 24/22/4 28/26/4 29/27/4
f 29/27/4 28/26/4 30/28/4
f 29/27/4 30/28/4 9/3/4
f 29/27/4 9/3/4 31/29/4
f 23/21/4 11/6/4 27/25/4
f 30/28/4 11/6/4 9/3/4
f 23/21/4 32/30/4 11/6/4
f 32/30/4 23/21/4 33/31/4
f 27/25/4 11/6/4 34/32/4
f 34/32/4 11/6/4 30/28/4
f 31/11/5 35/12/5 36/10/5
f 36/10/5 29/9/5 31/11/5
f 36/10/5 37/8/5 29/9/5
f 37/8/5 38/7/5 29/9/5
f 12/34/6 11/33/6 32/35/6
f 32/35/6 39/36/6 12/34/6
f 12/34/7 32/35/7 11/33/7
f 32/35/7 12/34/7 39/36/7
f 41/38/4 40/37/4 42/39/4
f 42/39/4 43/40/4 41/38/4
f 44/42/4 18/41/4 20/43/4
f 20/43/4 45/44/4 44/42/4
f 47/3/1 46/6/1 48/5/1
f 48/5/1 49/1/1 47/3/1
f 48/5/1 44/4/1 49/1/1
f 44/4/1 45/2/1 49/1/1
f 50/19/3 30/21/3 28/22/3
f 28/22/3 51/20/3 50/19/3
f 28/22/3 52/24/3 51/20/3
f 28/22/3 53/23/3 52/24/3
f 55/13/5 54/15/5 56/18/5
f 56/18/5 57/14/5 55/13/5
f 56/18/5 58/16/5 57/14/5
f 56/18/5 59/17/5 58/16/5
f 61/37/8 60/38/8 62/45/8
f 62/45/8 63/46/8 61/37/8
f 15/48/4 13/47/4 57/49/4
f 57/49/4 58/50/4 15/48/4
f 56/52/7 47/51/7 49/53/7
f 49/53/7 59/54/7 56/52/7
f 56/52/6 49/53/6 47/51/6
f 49/53/6 56/52/6 59/54/6
f 39/19/3 32/21/3 33/22/3
f 33/22/3 61/20/3 39/19/3
f 33/22/3 60/24/3 61/20/3
f 33/22/3 64/23/3 60/24/3
f 51/56/8 52/55/8 37/57/8
f 37/57/8 36/58/8 51/56/8
f 64/60/9 33/59/9 23/61/9
f 23/61/9 21/62/9 64/60/9
f 64/60/10 23/61/10 33/59/10
f 23/61/10 64/60/10 21/62/10
f 66/6/3 65/5/3 40/4/3
f 40/4/3 67/3/3 66/6/3
f 40/4/3 41/2/3 67/3/3
f 41/2/3 68/1/3 67/3/3
f 69/8/2 53/7/2 28/9/2
f 28/9/2 70/10/2 69/8/2
f 70/10/2 28/9/2 27/11/2
f 27/11/2 71/12/2 70/10/2
f 73/20/1 72/19/1 34/21/1
f 34/21/1 74/24/1 73/20/1
f 74/24/1 34/21/1 30/22/1
f 30/22/1 50/23/1 74/24/1
f 5/13/5 6/15/5 19/18/5
f 19/18/5 42/14/5 5/13/5
f 19/18/5 43/16/5 42/14/5
f 19/18/5 17/17/5 43/16/5
f 76/15/2 75/18/2 77/17/2
f 77/17/2 78/13/2 76/15/2
f 77/17/2 79/16/2 78/13/2
f 79/16/2 80/14/2 78/13/2
f 67/64/9 68/63/9 48/65/9
f 48/65/9 46/66/9 67/64/9
f 67/64/10 48/65/10 68/63/10
f 48/65/10 67/64/10 46/66/10
f 10/68/8 73/67/8 74/69/8
f 74/69/8 8/70/8 10/68/8
f 75/72/10 54/71/10 55/73/10
f 55/73/10 77/74/10 75/72/10
f 75/72/9 55/73/9 54/71/9
f 55/73/9 75/72/9 77/74/9
f 70/76/8 22/75/8 26/77/8
f 26/77/8 69/78/8 70/76/8
f 6/79/8 75/18/8 76/15/8
f 75/18/8 6/79/8 3/80/8
f 75/18/8 3/80/8 54/81/8
f 54/81/8 3/80/8 14/82/8
f 54/81/8 14/82/8 47/9/8
f 54/81/8 47/9/8 56/83/8
f 76/15/8 46/11/8 6/79/8
f 14/82/8 46/11/8 47/9/8
f 76/15/8 67/31/8 46/11/8
f 67/31/8 76/15/8 66/30/8
f 6/79/8 46/11/8 19/84/8
f 19/84/8 46/11/8 14/82/8
f 38/36/7 25/34/7 24/33/7
f 24/33/7 29/35/7 38/36/7
f 38/36/6 24/33/6 25/34/6
f 24/33/6 38/36/6 29/35/6
f 7/86/10 35/85/10 31/87/10
f 31/87/10 9/88/10 7/86/10
f 7/86/9 31/87/9 35/85/9
f 31/87/9 7/86/9 9/88/9
f 4/90/4 80/89/4 79/91/4
f 79/91/4 2/92/4 4/90/4
f 34/11/5 72/12/5 63/10/5
f 63/10/5 27/9/5 34/11/5
f 63/10/5 62/8/5 27/9/5
f 62/8/5 71/7/5 27/9/5
f 76/51/6 78/53/6 65/54/6
f 65/54/6 66/52/6 76/51/6
f 76/51/7 65/54/7 78/53/7
f 65/54/7 76/51/7 66/52/7

usemtl pipe
usemap pipe

f 59/54/7 49/53/7 25/34/7
f 25/34/7 38/36/7 59/54/7
f 78/13/2 80/14/2 10/10/2
f 10/10/2 12/12/2 78/13/2
f 77/74/10 55/73/10 35/85/10
f 35/85/10 7/86/10 77/74/10
f 37/8/5 58/16/5 59/17/5
f 59/17/5 38/7/5 37/8/5
f 62/8/5 43/16/5 17/17/5
f 17/17/5 71/7/5 62/8/5
f 17/13/2 18/14/2 70/10/2
f 70/10/2 71/12/2 17/13/2
f 73/20/1 4/4/1 5/5/1
f 5/5/1 72/19/1 73/20/1
f 72/12/5 5/13/5 42/14/5
f 42/14/5 63/10/5 72/12/5
f 68/63/9 64/60/9 21/62/9
f 21/62/9 48/65/9 68/63/9
f 69/8/2 20/16/2 16/17/2
f 16/17/2 53/7/2 69/8/2
f 1/5/3 50/19/3 51/20/3
f 51/20/3 13/4/3 1/5/3
f 10/94/5 80/93/5 4/13/5
f 4/13/5 73/12/5 10/94/5
f 79/93/3 8/94/3 74/19/3
f 74/19/3 2/5/3 79/93/3
f 49/1/1 45/2/1 26/24/1
f 26/24/1 25/23/1 49/1/1
f 70/7/5 18/17/5 44/95/5
f 44/95/5 22/96/5 70/7/5
f 41/2/3 60/24/3 64/23/3
f 64/23/3 68/1/3 41/2/3
f 79/16/2 77/17/2 7/7/2
f 7/7/2 8/8/2 79/16/2
f 1/1/1 2/2/1 74/24/1
f 74/24/1 50/23/1 1/1/1
f 15/2/3 52/24/3 53/23/3
f 53/23/3 16/1/3 15/2/3
f 41/93/2 43/13/2 62/12/2
f 62/12/2 60/94/2 41/93/2
f 20/1/3 69/23/3 26/97/3
f 26/97/3 45/98/3 20/1/3
f 35/12/5 55/13/5 57/14/5
f 57/14/5 36/10/5 35/12/5
f 15/17/2 58/95/2 37/96/2
f 37/96/2 52/7/2 15/17/2
f 78/53/6 12/34/6 39/36/6
f 39/36/6 65/54/6 78/53/6
f 42/5/1 40/93/1 61/94/1
f 61/94/1 63/19/1 42/5/1
f 57/98/1 13/1/1 51/23/1
f 51/23/1 36/97/1 57/98/1
f 65/5/3 39/19/3 61/20/3
f 61/20/3 40/4/3 65/5/3
f 44/4/1 48/5/1 21/19/1
f 21/19/1 22/20/1 44/4/1

usemtl _defaultMat
usemap _defaultMat

f 27/25/8 23/21/8 24/22/8
f 24/22/8 28/26/8 27/25/8
f 24/22/8 29/27/8 28/26/8
f 29/27/8 30/28/8 28/26/8
f 29/27/8 9/3/8 30/28/8
f 29/27/8 31/29/8 9/3/8
f 23/21/8 27/25/8 11/6/8
f 30/28/8 9/3/8 11/6/8
f 23/21/8 11/6/8 32/30/8
f 32/30/8 33/31/8 23/21/8
f 27/25/8 34/32/8 11/6/8
f 34/32/8 30/28/8 11/6/8
f 71/73/8 21/74/8 22/72/8
f 22/73/8 70/74/8 71/72/8
f 60/73/8 64/74/8 21/72/8
f 21/73/8 62/74/8 60/72/8
f 21/73/8 71/74/8 62/72/8
f 6/79/4 76/15/4 75/18/4
f 75/18/4 3/80/4 6/79/4
f 75/18/4 54/81/4 3/80/4
f 54/81/4 14/82/4 3/80/4
f 54/81/4 47/9/4 14/82/4
f 54/81/4 56/83/4 47/9/4
f 76/15/4 6/79/4 46/11/4
f 14/82/4 47/9/4 46/11/4
f 76/15/4 46/11/4 67/31/4
f 67/31/4 66/30/4 76/15/4
f 6/79/4 19/84/4 46/11/4
f 19/84/4 14/82/4 46/11/4
