# Made using Asset Forge (www.assetforge.io) version 1.0 

mtllib metalTile.mtl 

g metalTile

v -10 0 9.09686 
v -10 0.8 9.09686 
v -9.09686 0 10 
v -9.09686 0.8 10 
v -9.09686 0 0 
v -0.90314 0 0 
v -9.09686 0.8 0 
v -0.90314 0.8 0 
v -0.90314 0 10 
v -0.90314 0.8 10 
v 0 0 9.09686 
v 0 0 0.90314 
v -1.743423 0 8.256577 
v -8.256577 0 8.256577 
v -8.256577 0 1.743423 
v -1.743423 0 1.743423 
v -10 0 0.90314 
v 0 0.8 9.09686 
v -1.743423 0.4 1.743423 
v -1.743423 0.4 8.256577 
v -1.743423 0.8 1.743423 
v -1.743423 0.8 8.256577 
v -8.256577 0.4 1.743423 
v -8.256577 0.8 1.743423 
v -10 0.8 0.90314 
v 0 0.8 0.90314 
v -8.256577 0.4 8.256577 
v -8.256577 0.8 8.256577 
v -0.90314 0.8 0.90314 
v -9.09686 0.8 0.90314 
v -9.09686 0.8 9.09686 
v -0.90314 0.8 9.09686 

vn -0.7098039 0.003921569 0.7043884
vn -0.003921569 0.003921569 -0.9999846
vn -0.003921569 0.003921569 0.9999846
vn -0.003921539 -0.9999924 0
vn 0.7098039 0.003921569 0.7043884
vn -0.9999924 0.003921539 0
vn 0.9999924 0.003921539 0
vn -0.7098039 0.003921569 -0.7043884
vn 0.7098039 0.003921569 -0.7043884
vn -0.003921539 0.9999924 0

vt -2.514232 4.69328E-06
vt -2.514232 3.149608
vt 2.514232 4.69328E-06
vt 2.514232 3.149608
vt 35.81442 4.69328E-06
vt 3.555662 4.69328E-06
vt 35.81442 3.149608
vt 3.555662 3.149608
vt -3.555652 4.69328E-06
vt -35.81442 4.69328E-06
vt -3.555652 3.149608
vt -35.81442 3.149608
vt 4.69328E-06 35.81442
vt 4.69328E-06 3.555662
vt -3.555652 39.37008
vt -6.863879 32.5062
vt -35.81442 39.37008
vt -32.5062 32.5062
vt -32.5062 6.863889
vt -6.863879 6.863889
vt -39.37008 35.81442
vt -39.37008 3.555662
vt -25.32462 3.149608
vt -25.32462 4.69328E-06
vt -30.35308 3.149608
vt -30.35308 4.69328E-06
vt 6.863889 4.69328E-06
vt 6.863889 1.574807
vt 32.5062 4.69328E-06
vt 32.5062 1.574807
vt 6.863889 3.149608
vt 32.5062 3.149608
vt -6.863879 4.69328E-06
vt -32.5062 4.69328E-06
vt -6.863879 1.574807
vt -32.5062 1.574807
vt -6.863879 3.149608
vt -32.5062 3.149608
vt 25.32462 4.69328E-06
vt 25.32462 3.149608
vt 30.35308 4.69328E-06
vt 30.35308 3.149608
vt 3.555662 3.555662
vt 35.81442 3.555662
vt 39.37008 3.555662
vt 35.81442 35.81442
vt 35.81442 39.37008
vt 39.37008 35.81442
vt 3.555662 39.37008
vt 3.555662 35.81442
vt 6.863889 6.863889
vt 32.5062 6.863889
vt 32.5062 32.5062
vt 6.863889 32.5062
vt 1.000002 1.999999
vt 1.000002 4.000002
vt 3.000005 1.999999
vt 3.000005 4.000002

usemtl metal
usemap metal

f 2/2/1 1/1/1 3/3/1
f 3/3/1 4/4/1 2/2/1
f 6/6/2 5/5/2 7/7/2
f 7/7/2 8/8/2 6/6/2
f 3/10/3 9/9/3 10/11/3
f 10/11/3 4/12/3 3/10/3
f 12/14/4 11/13/4 9/15/4
f 9/15/4 6/9/4 12/14/4
f 9/15/4 13/16/4 6/9/4
f 9/15/4 3/17/4 13/16/4
f 3/17/4 14/18/4 13/16/4
f 3/17/4 15/19/4 14/18/4
f 6/9/4 13/16/4 16/20/4
f 16/20/4 5/10/4 6/9/4
f 16/20/4 15/19/4 5/10/4
f 15/19/4 3/17/4 5/10/4
f 3/17/4 1/21/4 5/10/4
f 1/21/4 17/22/4 5/10/4
f 11/24/5 18/23/5 10/25/5
f 10/25/5 9/26/5 11/24/5
f 19/28/6 16/27/6 13/29/6
f 13/29/6 20/30/6 19/28/6
f 21/31/6 19/28/6 20/30/6
f 20/30/6 22/32/6 21/31/6
f 15/34/3 16/33/3 19/35/3
f 19/35/3 23/36/3 15/34/3
f 23/36/3 19/35/3 21/37/3
f 21/37/3 24/38/3 23/36/3
f 25/8/6 17/6/6 1/5/6
f 1/5/6 2/7/6 25/8/6
f 12/9/7 26/11/7 18/12/7
f 18/12/7 11/10/7 12/9/7
f 15/33/7 23/35/7 27/36/7
f 27/36/7 14/34/7 15/33/7
f 28/38/7 27/36/7 23/35/7
f 23/35/7 24/37/7 28/38/7
f 7/40/8 5/39/8 17/41/8
f 17/41/8 25/42/8 7/40/8
f 6/3/9 8/4/9 26/2/9
f 26/2/9 12/1/9 6/3/9
f 29/43/10 8/6/10 7/5/10
f 7/5/10 30/44/10 29/43/10
f 7/5/10 25/45/10 30/44/10
f 25/45/10 31/46/10 30/44/10
f 25/45/10 4/47/10 31/46/10
f 25/45/10 2/48/10 4/47/10
f 8/6/10 29/43/10 10/49/10
f 31/46/10 4/47/10 10/49/10
f 8/6/10 10/49/10 18/13/10
f 18/13/10 26/14/10 8/6/10
f 29/43/10 32/50/10 10/49/10
f 32/50/10 31/46/10 10/49/10
f 20/28/2 27/30/2 28/32/2
f 28/32/2 22/31/2 20/28/2
f 27/30/2 20/28/2 13/27/2
f 13/27/2 14/29/2 27/30/2

usemtl light
usemap light

f 21/51/10 32/50/10 29/43/10
f 29/43/10 30/44/10 21/51/10
f 30/44/10 24/52/10 21/51/10
f 30/44/10 28/53/10 24/52/10
f 32/50/10 21/51/10 22/54/10
f 22/54/10 31/46/10 32/50/10
f 22/54/10 28/53/10 31/46/10
f 28/53/10 30/44/10 31/46/10

usemtl net
usemap net

f 20/56/10 19/55/10 23/57/10
f 23/57/10 27/58/10 20/56/10
f 20/56/4 23/57/4 19/55/4
f 23/57/4 20/56/4 27/58/4
