# Made using Asset Forge (www.assetforge.io) version 1.0 

mtllib metalTileSmall.mtl 

g metalTileSmall

v 0 0.4 4.480662 
v 0 0 4.480662 
v -0.5193381 0.4 5 
v -0.5193381 0 5 
v -0.5193381 0.4 0 
v -0.5193381 0.4 0.5193381 
v -4.480662 0.4 0 
v -4.480662 0.4 0.5193381 
v -5 0.4 0.5193381 
v -4.480662 0.4 4.480662 
v -4.480662 0.4 5 
v -5 0.4 4.480662 
v 0 0.4 0.5193381 
v -0.5193381 0.4 4.480662 
v -0.5193381 0 0 
v 0 0 0.5193381 
v -4.480662 0 0 
v -5 0 0.5193381 
v -5 0 4.480662 
v -4.480662 0 5 
v -0.5193381 0 4.480662 
v -4.480662 0 4.480662 
v -4.480662 0 0.5193381 
v -0.5193381 0 0.5193381 
v -0.9766016 0 4.023398 
v -4.023398 0 4.023398 
v -4.023398 0 0.9766016 
v -0.9766016 0 0.9766016 
v -4.023398 0.4 0.9766016 
v -4.023398 0.2 0.9766016 
v -4.023398 0.4 4.023398 
v -4.023398 0.2 4.023398 
v -0.9766016 0.4 0.9766016 
v -0.9766016 0.4 4.023398 
v -0.9766016 0.2 4.023398 
v -0.9766016 0.2 0.9766016 

vn 0.7098039 0.003921569 0.7043884
vn -0.003921539 0.9999924 0
vn 0.7098039 0.003921569 -0.7043884
vn -0.003921569 0.003921569 -0.9999846
vn -0.7098039 0.003921569 -0.7043884
vn -0.9999924 0.003921539 0
vn -0.7098039 0.003921569 0.7043884
vn -0.003921569 0.003921569 0.9999846
vn 0.9999924 0.003921539 0
vn -0.003921539 -0.9999924 0

vt -12.47365 1.574807
vt -12.47365 4.69328E-06
vt -15.3652 1.574807
vt -15.3652 4.69328E-06
vt 2.044642 4.69328E-06
vt 2.044642 2.044642
vt 17.64039 4.69328E-06
vt 17.64039 2.044642
vt 19.68504 2.044642
vt 17.64039 17.64039
vt 17.64039 19.68504
vt 19.68504 17.64039
vt 2.044642 19.68504
vt 4.69328E-06 17.64039
vt 4.69328E-06 2.044642
vt 2.044642 17.64039
vt 1.445779 1.574807
vt 1.445779 4.69328E-06
vt -1.445779 1.574807
vt -1.445779 4.69328E-06
vt 17.64039 1.574807
vt 2.044642 1.574807
vt 12.47365 4.69328E-06
vt 12.47365 1.574807
vt 15.3652 4.69328E-06
vt 15.3652 1.574807
vt -2.044642 4.69328E-06
vt -17.64039 4.69328E-06
vt -2.044642 1.574807
vt -17.64039 1.574807
vt -2.044642 19.68504
vt -2.044642 17.64039
vt -17.64039 19.68504
vt -17.64039 17.64039
vt -19.68504 17.64039
vt -17.64039 2.044642
vt -19.68504 2.044642
vt -2.044642 2.044642
vt -1.000002 5.999998
vt -1.000002 5
vt -1.999999 5.999998
vt -1.999999 5

usemtl metal
usemap metal

f 2/2/1 1/1/1 3/3/1
f 3/3/1 4/4/1 2/2/1
f 6/6/2 5/5/2 7/7/2
f 7/7/2 8/8/2 6/6/2
f 7/7/2 9/9/2 8/8/2
f 9/9/2 10/10/2 8/8/2
f 9/9/2 11/11/2 10/10/2
f 9/9/2 12/12/2 11/11/2
f 5/5/2 6/6/2 3/13/2
f 10/10/2 11/11/2 3/13/2
f 5/5/2 3/13/2 1/14/2
f 1/14/2 13/15/2 5/5/2
f 6/6/2 14/16/2 3/13/2
f 14/16/2 10/10/2 3/13/2
f 15/18/3 5/17/3 13/19/3
f 13/19/3 16/20/3 15/18/3
f 15/5/4 17/7/4 7/21/4
f 7/21/4 5/22/4 15/5/4
f 7/24/5 17/23/5 18/25/5
f 18/25/5 9/26/5 7/24/5
f 9/22/6 18/5/6 19/7/6
f 19/7/6 12/21/6 9/22/6
f 12/19/7 19/20/7 20/18/7
f 20/18/7 11/17/7 12/19/7
f 20/28/8 4/27/8 3/29/8
f 3/29/8 11/30/8 20/28/8
f 16/27/9 13/29/9 1/30/9
f 1/30/9 2/28/9 16/27/9
f 21/32/10 4/31/10 20/33/10
f 20/33/10 22/34/10 21/32/10
f 20/33/10 19/35/10 22/34/10
f 19/35/10 23/36/10 22/34/10
f 19/35/10 17/28/10 23/36/10
f 19/35/10 18/37/10 17/28/10
f 4/31/10 21/32/10 15/27/10
f 23/36/10 17/28/10 15/27/10
f 4/31/10 15/27/10 16/15/10
f 16/15/10 2/14/10 4/31/10
f 21/32/10 24/38/10 15/27/10
f 24/38/10 23/36/10 15/27/10

usemtl _defaultMat
usemap _defaultMat

f 25/30/10 24/28/10 21/27/10
f 21/30/10 22/28/10 25/27/10
f 22/30/10 26/28/10 25/27/10
f 22/30/10 27/28/10 26/27/10
f 28/30/10 23/28/10 24/27/10
f 24/30/10 25/28/10 28/27/10
f 28/30/10 27/28/10 23/27/10
f 27/30/10 22/28/10 23/27/10
f 30/30/9 29/28/9 31/27/9
f 31/30/9 32/28/9 30/27/9
f 33/30/2 14/28/2 6/27/2
f 6/30/2 8/28/2 33/27/2
f 8/30/2 29/28/2 33/27/2
f 8/30/2 31/28/2 29/27/2
f 34/30/2 10/28/2 14/27/2
f 14/30/2 33/28/2 34/27/2
f 34/30/2 31/28/2 10/27/2
f 31/30/2 8/28/2 10/27/2
f 35/30/4 32/28/4 31/27/4
f 31/30/4 34/28/4 35/27/4
f 30/30/8 36/28/8 33/27/8
f 33/30/8 29/28/8 30/27/8
f 33/30/6 36/28/6 35/27/6
f 35/30/6 34/28/6 33/27/6
f 27/30/9 30/28/9 32/27/9
f 32/30/9 26/28/9 27/27/9
f 36/30/6 28/28/6 25/27/6
f 25/30/6 35/28/6 36/27/6
f 27/40/8 28/39/8 36/41/8
f 36/40/8 30/39/8 27/41/8
f 25/40/4 26/39/4 32/41/4
f 32/40/4 35/39/4 25/41/4

usemtl net
usemap net

f 35/41/2 36/42/2 30/40/2
f 30/40/2 32/39/2 35/41/2
f 35/41/10 30/40/10 36/42/10
f 30/40/10 35/41/10 32/39/10
