# Made using Asset Forge (www.assetforge.io) version 1.0 

mtllib metalTileDouble.mtl 

g metalTileDouble

v -0.9031305 0.8 0 
v -0.9031305 0 0 
v 0 0.8 0.9031305 
v 0 0 0.9031305 
v -20 0 9.09686 
v -20 0.8 9.09686 
v -19.09687 0 10.00001 
v -19.09687 0.8 10.00001 
v -19.09687 0 0 
v -19.09687 0.8 0 
v -20 0 0.9031305 
v -20 0.8 0.9031305 
v -1.743433 0 1.743433 
v -18.25657 0 1.743433 
v -1.743433 0.4000095 1.743433 
v -18.25657 0.4000095 1.743433 
v -1.743433 0.8 1.743433 
v -18.25657 0.8 1.743433 
v -18.25657 0.4000095 8.256577 
v -18.25657 0 8.256577 
v -18.25657 0.8 8.256577 
v -1.743433 0 8.256577 
v -1.743433 0.4000095 8.256577 
v -1.743433 0.8 8.256577 
v -0.9031305 0 10.00001 
v -0.9031305 0.8 10.00001 
v 0 0 9.09686 
v 0 0.8 9.09686 
v -0.9031305 0.8 0.9031305 
v -19.09687 0.8 0.9031305 
v -19.09687 0.8 9.09686 
v -0.9031305 0.8 9.09686 

vn 0.7098039 0.003921569 -0.7043884
vn -0.7098039 0.003921569 0.7043884
vn -0.7098039 0.003921569 -0.7043884
vn -0.003921569 0.003921569 0.9999846
vn 0.9999924 0.003921539 0
vn -0.003921569 0.003921569 -0.9999846
vn -0.003921539 -0.9999924 0
vn 0.7098039 0.003921569 0.7043884
vn -0.9999924 0.003921539 0
vn -0.003921539 0.9999924 0

vt 2.514232 3.149608
vt 2.514232 4.69328E-06
vt -2.514223 3.149608
vt -2.514223 4.69328E-06
vt -30.35308 4.69328E-06
vt -30.35308 3.149608
vt -25.32462 4.69328E-06
vt -25.32462 3.149608
vt 53.16346 4.69328E-06
vt 53.16346 3.149608
vt 58.19192 4.69328E-06
vt 58.19192 3.149608
vt -6.863879 4.69328E-06
vt -71.87627 4.69328E-06
vt -6.863879 1.574806
vt -71.87627 1.574806
vt -6.863879 3.149608
vt -71.87627 3.149608
vt -32.50619 1.574806
vt -32.50619 4.69328E-06
vt -32.50619 3.149608
vt 71.87627 4.69328E-06
vt 6.863888 4.69328E-06
vt 71.87627 1.574806
vt 6.863888 1.574806
vt 71.87627 3.149608
vt 6.863888 3.149608
vt -3.555652 4.69328E-06
vt -75.1845 4.69328E-06
vt -3.555652 3.149608
vt -75.1845 3.149608
vt 4.69328E-06 35.81442
vt 4.69328E-06 3.555652
vt -3.555652 39.37009
vt -6.863879 32.5062
vt -75.1845 39.37009
vt -71.87627 32.5062
vt -71.87627 6.863888
vt -6.863879 6.863888
vt -78.74016 35.81442
vt -78.74016 3.555652
vt 32.5062 4.69328E-06
vt 32.5062 1.574806
vt 32.5062 3.149608
vt 3.555652 4.69328E-06
vt 3.555652 3.555652
vt 75.1845 4.69328E-06
vt 75.1845 3.555652
vt 75.1845 35.81442
vt 75.1845 39.37009
vt 3.555652 39.37009
vt 3.555652 35.81442
vt -35.81442 3.149608
vt -35.81442 4.69328E-06
vt 3.555652 3.149608
vt 35.81442 4.69328E-06
vt 35.81442 3.149608
vt 75.1845 3.149608
vt 6.863888 6.863888
vt 71.87627 6.863888
vt 71.87627 32.5062
vt 6.863888 32.5062
vt 0.9999924 1.999999
vt 0.9999924 3.999993
vt 6.070705 1.999999
vt 6.070705 3.999993

usemtl metal
usemap metal

f 2/2/1 1/1/1 3/3/1
f 3/3/1 4/4/1 2/2/1
f 6/6/2 5/5/2 7/7/2
f 7/7/2 8/8/2 6/6/2
f 10/10/3 9/9/3 11/11/3
f 11/11/3 12/12/3 10/10/3
f 14/14/4 13/13/4 15/15/4
f 15/15/4 16/16/4 14/14/4
f 16/16/4 15/15/4 17/17/4
f 17/17/4 18/18/4 16/16/4
f 14/13/5 16/15/5 19/19/5
f 19/19/5 20/20/5 14/13/5
f 21/21/5 19/19/5 16/15/5
f 16/15/5 18/17/5 21/21/5
f 22/23/6 20/22/6 19/24/6
f 19/24/6 23/25/6 22/23/6
f 23/25/6 19/24/6 21/26/6
f 21/26/6 24/27/6 23/25/6
f 7/29/4 25/28/4 26/30/4
f 26/30/4 8/31/4 7/29/4
f 4/33/7 27/32/7 25/34/7
f 25/34/7 2/28/7 4/33/7
f 25/34/7 22/35/7 2/28/7
f 25/34/7 7/36/7 22/35/7
f 7/36/7 20/37/7 22/35/7
f 7/36/7 14/38/7 20/37/7
f 2/28/7 22/35/7 13/39/7
f 13/39/7 9/29/7 2/28/7
f 13/39/7 14/38/7 9/29/7
f 14/38/7 7/36/7 9/29/7
f 7/36/7 5/40/7 9/29/7
f 5/40/7 11/41/7 9/29/7
f 27/7/8 28/8/8 26/6/8
f 26/6/8 25/5/8 27/7/8
f 15/25/9 13/23/9 22/42/9
f 22/42/9 23/43/9 15/25/9
f 17/27/9 15/25/9 23/43/9
f 23/43/9 24/44/9 17/27/9
f 29/46/10 1/45/10 10/47/10
f 10/47/10 30/48/10 29/46/10
f 10/47/10 12/41/10 30/48/10
f 12/41/10 31/49/10 30/48/10
f 12/41/10 8/50/10 31/49/10
f 12/41/10 6/40/10 8/50/10
f 1/45/10 29/46/10 26/51/10
f 31/49/10 8/50/10 26/51/10
f 1/45/10 26/51/10 28/32/10
f 28/32/10 3/33/10 1/45/10
f 29/46/10 32/52/10 26/51/10
f 32/52/10 31/49/10 26/51/10
f 4/28/5 3/30/5 28/53/5
f 28/53/5 27/54/5 4/28/5
f 12/55/9 11/45/9 5/56/9
f 5/56/9 6/57/9 12/55/9
f 2/45/6 9/47/6 10/58/6
f 10/58/6 1/55/6 2/45/6

usemtl light
usemap light

f 17/59/10 32/52/10 29/46/10
f 29/46/10 30/48/10 17/59/10
f 30/48/10 18/60/10 17/59/10
f 30/48/10 21/61/10 18/60/10
f 32/52/10 17/59/10 24/62/10
f 24/62/10 31/49/10 32/52/10
f 24/62/10 21/61/10 31/49/10
f 21/61/10 30/48/10 31/49/10

usemtl net
usemap net

f 23/64/10 15/63/10 16/65/10
f 16/65/10 19/66/10 23/64/10
f 23/64/7 16/65/7 15/63/7
f 16/65/7 23/64/7 19/66/7
