# Made using Asset Forge (www.assetforge.io) version 1.0 

mtllib metalTileLarge.mtl 

g metalTileLarge

v -0.9031305 0.8 0 
v -0.9031305 0 0 
v 0 0.8 0.9031305 
v 0 0 0.9031305 
v -20 0 19.09687 
v -20 0.8 19.09687 
v -19.09687 0 20 
v -19.09687 0.8 20 
v -19.09687 0 0 
v -19.09687 0.8 0 
v -20 0 0.9031305 
v -20 0.8 0.9031305 
v -1.743433 0 1.743433 
v -18.25657 0 1.743433 
v -1.743433 0.4000095 1.743433 
v -18.25657 0.4000095 1.743433 
v -1.743433 0.8 1.743433 
v -18.25657 0.8 1.743433 
v -18.25657 0.4000095 18.25657 
v -18.25657 0 18.25657 
v -18.25657 0.8 18.25657 
v -1.743433 0 18.25657 
v -1.743433 0.4000095 18.25657 
v -1.743433 0.8 18.25657 
v -0.9031305 0 20 
v -0.9031305 0.8 20 
v 0 0 19.09687 
v 0 0.8 19.09687 
v -0.9031305 0.8 0.9031305 
v -19.09687 0.8 0.9031305 
v -19.09687 0.8 19.09687 
v -0.9031305 0.8 19.09687 

vn 0.7098039 0.003921569 -0.7043884
vn -0.7098039 0.003921569 0.7043884
vn -0.7098039 0.003921569 -0.7043884
vn -0.003921569 0.003921569 0.9999846
vn 0.9999924 0.003921539 0
vn -0.003921569 0.003921569 -0.9999846
vn -0.003921539 -0.9999924 0
vn 0.7098039 0.003921569 0.7043884
vn -0.9999924 0.003921539 0
vn -0.003921539 0.9999924 0

vt 2.514232 3.149608
vt 2.514232 4.69328E-06
vt -2.514223 3.149608
vt -2.514223 4.69328E-06
vt 53.16346 4.69328E-06
vt 53.16346 3.149608
vt 58.19192 4.69328E-06
vt 58.19192 3.149608
vt -6.863879 4.69328E-06
vt -71.87627 4.69328E-06
vt -6.863879 1.574806
vt -71.87627 1.574806
vt -6.863879 3.149608
vt -71.87627 3.149608
vt 71.87627 4.69328E-06
vt 6.863888 4.69328E-06
vt 71.87627 1.574806
vt 6.863888 1.574806
vt 71.87627 3.149608
vt 6.863888 3.149608
vt -3.555652 4.69328E-06
vt -75.1845 4.69328E-06
vt -3.555652 3.149608
vt -75.1845 3.149608
vt 4.69328E-06 75.1845
vt 4.69328E-06 3.555652
vt -3.555652 -78.74016
vt -6.863879 71.87627
vt -75.1845 -78.74016
vt -71.87627 71.87627
vt -71.87627 6.863888
vt -6.863879 6.863888
vt -78.74016 75.1845
vt -78.74016 3.555652
vt -53.16348 3.149608
vt -53.16348 4.69328E-06
vt -58.19193 3.149608
vt -58.19193 4.69328E-06
vt 3.555652 4.69328E-06
vt 3.555652 3.555652
vt 75.1845 4.69328E-06
vt 75.1845 3.555652
vt 75.1845 75.1845
vt 75.1845 -78.74016
vt 3.555652 -78.74016
vt 3.555652 75.1845
vt 3.555652 3.149608
vt 75.1845 3.149608
vt 6.863888 6.863888
vt 71.87627 6.863888
vt 71.87627 71.87627
vt 6.863888 71.87627
vt 0.9999924 1.999999
vt 0.9999924 7.070712
vt 6.070705 1.999999
vt 6.070705 7.070712

usemtl metal
usemap metal

f 2/2/1 1/1/1 3/3/1
f 3/3/1 4/4/1 2/2/1
f 6/3/2 5/4/2 7/2/2
f 7/2/2 8/1/2 6/3/2
f 10/6/3 9/5/3 11/7/3
f 11/7/3 12/8/3 10/6/3
f 14/10/4 13/9/4 15/11/4
f 15/11/4 16/12/4 14/10/4
f 16/12/4 15/11/4 17/13/4
f 17/13/4 18/14/4 16/12/4
f 14/9/5 16/11/5 19/12/5
f 19/12/5 20/10/5 14/9/5
f 21/14/5 19/12/5 16/11/5
f 16/11/5 18/13/5 21/14/5
f 22/16/6 20/15/6 19/17/6
f 19/17/6 23/18/6 22/16/6
f 23/18/6 19/17/6 21/19/6
f 21/19/6 24/20/6 23/18/6
f 7/22/4 25/21/4 26/23/4
f 26/23/4 8/24/4 7/22/4
f 4/26/7 27/25/7 25/27/7
f 25/27/7 2/21/7 4/26/7
f 25/27/7 22/28/7 2/21/7
f 25/27/7 7/29/7 22/28/7
f 7/29/7 20/30/7 22/28/7
f 7/29/7 14/31/7 20/30/7
f 2/21/7 22/28/7 13/32/7
f 13/32/7 9/22/7 2/21/7
f 13/32/7 14/31/7 9/22/7
f 14/31/7 7/29/7 9/22/7
f 7/29/7 5/33/7 9/22/7
f 5/33/7 11/34/7 9/22/7
f 27/36/8 28/35/8 26/37/8
f 26/37/8 25/38/8 27/36/8
f 15/18/9 13/16/9 22/15/9
f 22/15/9 23/17/9 15/18/9
f 17/20/9 15/18/9 23/17/9
f 23/17/9 24/19/9 17/20/9
f 29/40/10 1/39/10 10/41/10
f 10/41/10 30/42/10 29/40/10
f 10/41/10 12/34/10 30/42/10
f 12/34/10 31/43/10 30/42/10
f 12/34/10 8/44/10 31/43/10
f 12/34/10 6/33/10 8/44/10
f 1/39/10 29/40/10 26/45/10
f 31/43/10 8/44/10 26/45/10
f 1/39/10 26/45/10 28/25/10
f 28/25/10 3/26/10 1/39/10
f 29/40/10 32/46/10 26/45/10
f 32/46/10 31/43/10 26/45/10
f 4/21/5 3/23/5 28/24/5
f 28/24/5 27/22/5 4/21/5
f 12/47/9 11/39/9 5/41/9
f 5/41/9 6/48/9 12/47/9
f 2/39/6 9/41/6 10/48/6
f 10/48/6 1/47/6 2/39/6

usemtl light
usemap light

f 17/49/10 32/46/10 29/40/10
f 29/40/10 30/42/10 17/49/10
f 30/42/10 18/50/10 17/49/10
f 30/42/10 21/51/10 18/50/10
f 32/46/10 17/49/10 24/52/10
f 24/52/10 31/43/10 32/46/10
f 24/52/10 21/51/10 31/43/10
f 21/51/10 30/42/10 31/43/10

usemtl net
usemap net

f 23/54/10 15/53/10 16/55/10
f 16/55/10 19/56/10 23/54/10
f 23/54/7 16/55/7 15/53/7
f 16/55/7 23/54/7 19/56/7
