# Made using Asset Forge (www.assetforge.io) version 1.0 

mtllib metalTileCorner.mtl 

g metalTileCorner

v 0 0 9.09686 
v 0 0 0.90314 
v -0.90314 0 10 
v -0.90314 0 0 
v -1.743423 0 8.256577 
v -2.106268 0 10 
v -8.256577 0 1.743423 
v -10 0 2.106268 
v -9.09686 0 0 
v -10 0 0.90314 
v -1.743423 0 1.743423 
v -0.90314 0.8 0 
v 0 0.8 0.90314 
v -9.09686 0.8 0 
v -10 0.8 0.90314 
v 0 0.8 9.09686 
v -0.90314 0.8 10 
v -1.743423 0.4 1.743423 
v -1.743423 0.4 8.256577 
v -1.743423 0.8 1.743423 
v -1.743423 0.8 8.256577 
v -8.256577 0.4 1.743423 
v -8.256577 0.8 1.743423 
v -10 0.8 2.106268 
v -2.106268 0.8 10 
v -0.90314 0.8 0.90314 
v -9.09686 0.8 0.90314 
v -9.09686 0.8 1.80627 
v -0.90314 0.8 9.09686 
v -1.80627 0.8 9.09686 

vn -0.003921539 -0.9999924 0
vn 0.7098039 0.003921569 -0.7043884
vn -0.7098039 0.003921569 -0.7043884
vn 0.7098039 0.003921569 0.7043884
vn -0.003921569 0.003921569 -0.9999846
vn 0.9999924 0.003921539 0
vn -0.9999924 0.003921539 0
vn -0.003921569 0.003921569 0.9999846
vn -0.7098039 0.003921569 0.7043884
vn -0.003921539 0.9999924 0

vt 4.69328E-06 35.81442
vt 4.69328E-06 3.555662
vt -3.555652 39.37008
vt -3.555652 4.69328E-06
vt -6.863879 32.5062
vt -8.292411 39.37008
vt -32.5062 6.863889
vt -39.37008 8.292411
vt -35.81442 4.69328E-06
vt -39.37008 3.555662
vt -6.863879 6.863889
vt 2.514232 3.149608
vt 2.514232 4.69328E-06
vt -2.514232 3.149608
vt -2.514232 4.69328E-06
vt 25.32462 4.69328E-06
vt 25.32462 3.149608
vt 30.35308 4.69328E-06
vt 30.35308 3.149608
vt -25.32462 3.149608
vt -25.32462 4.69328E-06
vt -30.35308 3.149608
vt -30.35308 4.69328E-06
vt 35.81442 4.69328E-06
vt 3.555662 4.69328E-06
vt 35.81442 3.149608
vt 3.555662 3.149608
vt -3.555652 3.149608
vt -35.81442 3.149608
vt 6.863889 4.69328E-06
vt 6.863889 1.574807
vt 32.5062 4.69328E-06
vt 32.5062 1.574807
vt 6.863889 3.149608
vt 32.5062 3.149608
vt -6.863879 4.69328E-06
vt -32.5062 4.69328E-06
vt -6.863879 1.574807
vt -32.5062 1.574807
vt -6.863879 3.149608
vt -32.5062 3.149608
vt -21.97523 4.69328E-06
vt -21.97523 3.149608
vt 21.97523 4.69328E-06
vt 21.97523 3.149608
vt -8.292411 4.69328E-06
vt -8.292411 3.149608
vt 8.292411 4.69328E-06
vt 8.292411 3.149608
vt 18.13186 1.574807
vt -18.13185 1.574807
vt 18.13186 3.149608
vt -18.13185 3.149608
vt -18.13185 4.69328E-06
vt 18.13186 4.69328E-06
vt 3.555662 3.555662
vt 35.81442 3.555662
vt 39.37008 3.555662
vt 35.81442 7.111309
vt 3.555662 39.37008
vt 3.555662 35.81442
vt 7.111309 35.81442
vt 8.292411 39.37008
vt 39.37008 8.292411
vt 1.000002 1.999999
vt 1.000002 4.000002
vt 3.000005 1.999999
vt 6.863889 6.863889
vt 32.5062 6.863889
vt 6.863889 32.5062

usemtl metal
usemap metal

f 2/2/1 1/1/1 3/3/1
f 3/3/1 4/4/1 2/2/1
f 3/3/1 5/5/1 4/4/1
f 3/3/1 6/6/1 5/5/1
f 6/6/1 7/7/1 5/5/1
f 6/6/1 8/8/1 7/7/1
f 8/8/1 9/9/1 7/7/1
f 8/8/1 10/10/1 9/9/1
f 11/11/1 9/9/1 4/4/1
f 4/4/1 5/5/1 11/11/1
f 11/11/1 7/7/1 9/9/1
f 4/13/2 12/12/2 13/14/2
f 13/14/2 2/15/2 4/13/2
f 14/17/3 9/16/3 10/18/3
f 10/18/3 15/19/3 14/17/3
f 1/21/4 16/20/4 17/22/4
f 17/22/4 3/23/4 1/21/4
f 4/25/5 9/24/5 14/26/5
f 14/26/5 12/27/5 4/25/5
f 2/4/6 13/28/6 16/29/6
f 16/29/6 1/9/6 2/4/6
f 18/31/7 11/30/7 5/32/7
f 5/32/7 19/33/7 18/31/7
f 20/34/7 18/31/7 19/33/7
f 19/33/7 21/35/7 20/34/7
f 7/37/8 11/36/8 18/38/8
f 18/38/8 22/39/8 7/37/8
f 22/39/8 18/38/8 20/40/8
f 20/40/8 23/41/8 22/39/8
f 24/43/9 8/42/9 6/44/9
f 6/44/9 25/45/9 24/43/9
f 6/46/8 3/4/8 17/28/8
f 17/28/8 25/47/8 6/46/8
f 15/27/7 10/25/7 8/48/7
f 8/48/7 24/49/7 15/27/7
f 19/51/2 22/50/2 23/52/2
f 23/52/2 21/53/2 19/51/2
f 22/50/2 19/51/2 5/54/2
f 5/54/2 7/55/2 22/50/2
f 26/56/10 12/25/10 14/24/10
f 14/24/10 27/57/10 26/56/10
f 14/24/10 15/58/10 27/57/10
f 15/58/10 28/59/10 27/57/10
f 12/25/10 26/56/10 17/60/10
f 12/25/10 17/60/10 16/1/10
f 16/1/10 13/2/10 12/25/10
f 26/56/10 29/61/10 17/60/10
f 29/61/10 30/62/10 17/60/10
f 30/62/10 25/63/10 17/60/10
f 30/62/10 28/59/10 25/63/10
f 28/59/10 24/64/10 25/63/10
f 28/59/10 15/58/10 24/64/10

usemtl net
usemap net

f 19/66/10 18/65/10 22/67/10
f 19/66/1 22/67/1 18/65/1

usemtl light
usemap light

f 20/68/10 29/61/10 26/56/10
f 26/56/10 27/57/10 20/68/10
f 27/57/10 23/69/10 20/68/10
f 29/61/10 20/68/10 21/70/10
f 21/70/10 30/62/10 29/61/10
f 21/70/10 23/69/10 30/62/10
f 23/69/10 28/59/10 30/62/10
f 23/69/10 27/57/10 28/59/10
