# Made using Asset Forge (www.assetforge.io) version 1.0 

mtllib pipeStraight.mtl 

g pipeStraight

v -2.551997 2.447999 -2.626517E-13 
v -2.551997 2.447999 10 
v -3.268998 4.178995 -2.626517E-13 
v -3.268998 4.178995 10 
v -6.731002 0.7170016 -2.626517E-13 
v -7.448003 2.447999 -2.626517E-13 
v -6.731002 0.7170016 10 
v -7.448003 2.447999 10 
v -5.000005 4.895997 -2.626517E-13 
v -5.000005 4.895997 10 
v -6.731002 4.178995 -2.626517E-13 
v -6.731002 4.178995 10 
v -5.000005 -2.626517E-13 -2.626517E-13 
v -5.000005 -2.626517E-13 10 
v -3.268998 0.7170016 -2.626517E-13 
v -3.268998 0.7170016 10 
v -5.000005 0.4544167 -2.626517E-13 
v -6.409679 1.038323 -2.626517E-13 
v -6.993587 2.447999 -2.626517E-13 
v -6.409679 3.857673 -2.626517E-13 
v -5.000005 4.44159 -2.626517E-13 
v -3.59032 1.038323 -2.626517E-13 
v -3.006413 2.447999 -2.626517E-13 
v -3.59032 3.857673 -2.626517E-13 
v -5.000005 0.4544167 10 
v -3.59032 1.038323 10 
v -3.006413 2.447999 10 
v -3.59032 3.857673 10 
v -5.000005 4.44159 10 
v -6.409679 1.038323 10 
v -6.993587 2.447999 10 
v -6.409679 3.857673 10 

vn 0.9238795 0.380421 -0.04155145
vn -0.9238795 -0.380421 -0.04155145
vn -0.380421 0.9238795 -0.04155127
vn 0.380421 -0.9238795 -0.04155127
vn -0.380421 -0.9238795 -0.04155127
vn 0.380421 0.9238795 -0.04155127
vn -0.9238795 0.380421 -0.04155145
vn 0.9238795 -0.380421 -0.04155145
vn -0.003623057 0.003623057 -0.9999869
vn -0.003623057 0.003623057 0.9999869

vt 4.69328E-06 12.74908
vt -39.37008 12.74908
vt 4.69328E-06 20.12553
vt -39.37008 20.12553
vt 39.37008 12.74908
vt 39.37008 20.12553
vt 4.69328E-06 -10.81016
vt 39.37008 -10.81016
vt 4.69328E-06 -18.1866
vt 39.37008 -18.1866
vt 4.69328E-06 18.18661
vt 4.69328E-06 25.56306
vt 39.37008 18.18661
vt 39.37008 25.56306
vt 4.69328E-06 -2.317199
vt 4.69328E-06 5.059257
vt 39.37008 -2.317199
vt 39.37008 5.059257
vt -39.37008 18.18661
vt -39.37008 25.56306
vt -39.37008 -2.317199
vt -39.37008 5.059257
vt -39.37008 -10.81016
vt -39.37008 -18.1866
vt 19.68504 4.69328E-06
vt 19.68504 1.789036
vt 26.49999 2.822844
vt 25.23494 4.087889
vt 29.32284 9.637795
vt 27.5338 9.637795
vt 26.49999 16.45275
vt 25.23494 15.18771
vt 19.68504 17.48656
vt 19.68504 19.27559
vt 12.87009 2.822844
vt 14.13513 4.087889
vt 10.04725 9.637795
vt 11.83629 9.637795
vt 12.87009 16.45275
vt 14.13513 15.18771
vt -19.68504 4.69328E-06
vt -19.68504 1.789036
vt -12.87009 2.822844
vt -14.13513 4.087889
vt -10.04725 9.637795
vt -11.83628 9.637795
vt -12.87009 16.45275
vt -14.13513 15.18771
vt -19.68504 17.48656
vt -19.68504 19.27559
vt -26.49999 2.822844
vt -25.23495 4.087889
vt -29.32284 9.637795
vt -27.5338 9.637795
vt -26.49999 16.45275
vt -25.23495 15.18771

usemtl pipe
usemap pipe

f 2/2/1 1/1/1 3/3/1
f 3/3/1 4/4/1 2/2/1
f 2/2/2 3/3/2 1/1/2
f 3/3/2 2/2/2 4/4/2
f 6/3/2 5/1/2 7/5/2
f 7/5/2 8/6/2 6/3/2
f 6/3/1 7/5/1 5/1/1
f 7/5/1 6/3/1 8/6/1
f 10/8/3 9/7/3 11/9/3
f 11/9/3 12/10/3 10/8/3
f 10/8/4 11/9/4 9/7/4
f 11/9/4 10/8/4 12/10/4
f 5/12/5 13/11/5 14/13/5
f 14/13/5 7/14/5 5/12/5
f 5/12/6 14/13/6 13/11/6
f 14/13/6 5/12/6 7/14/6
f 11/16/7 6/15/7 8/17/7
f 8/17/7 12/18/7 11/16/7
f 11/16/8 8/17/8 6/15/8
f 8/17/8 11/16/8 12/18/8
f 4/19/6 3/11/6 9/12/6
f 9/12/6 10/20/6 4/19/6
f 4/19/5 9/12/5 3/11/5
f 9/12/5 4/19/5 10/20/5
f 16/21/8 15/15/8 1/16/8
f 1/16/8 2/22/8 16/21/8
f 16/21/7 1/16/7 15/15/7
f 1/16/7 16/21/7 2/22/7
f 13/9/4 15/7/4 16/23/4
f 16/23/4 14/24/4 13/9/4
f 13/9/3 16/23/3 15/7/3
f 16/23/3 13/9/3 14/24/3
f 17/26/9 13/25/9 5/27/9
f 5/27/9 18/28/9 17/26/9
f 5/27/9 6/29/9 18/28/9
f 6/29/9 19/30/9 18/28/9
f 6/29/9 11/31/9 19/30/9
f 11/31/9 20/32/9 19/30/9
f 11/31/9 21/33/9 20/32/9
f 11/31/9 9/34/9 21/33/9
f 15/35/9 13/25/9 17/26/9
f 17/26/9 22/36/9 15/35/9
f 22/36/9 1/37/9 15/35/9
f 22/36/9 23/38/9 1/37/9
f 23/38/9 3/39/9 1/37/9
f 21/33/9 9/34/9 3/39/9
f 23/38/9 24/40/9 3/39/9
f 24/40/9 21/33/9 3/39/9
f 25/42/10 14/41/10 16/43/10
f 16/43/10 26/44/10 25/42/10
f 16/43/10 2/45/10 26/44/10
f 2/45/10 27/46/10 26/44/10
f 2/45/10 4/47/10 27/46/10
f 4/47/10 28/48/10 27/46/10
f 4/47/10 29/49/10 28/48/10
f 4/47/10 10/50/10 29/49/10
f 7/51/10 14/41/10 25/42/10
f 25/42/10 30/52/10 7/51/10
f 30/52/10 8/53/10 7/51/10
f 30/52/10 31/54/10 8/53/10
f 31/54/10 12/55/10 8/53/10
f 29/49/10 10/50/10 12/55/10
f 31/54/10 32/56/10 12/55/10
f 32/56/10 29/49/10 12/55/10
