# Made using Asset Forge (www.assetforge.io) version 1.0 

mtllib pipeCornerDiagonal.mtl 

g pipeCornerDiagonal

v -3.269002 0.7169991 0 
v -5.000001 0 0 
v -5.24047 0.7169991 4.759532 
v -6.464465 0 3.535537 
v -2.552003 2.447998 0 
v -4.733466 2.447998 5.266528 
v -3.269002 4.178997 0 
v -5.24047 4.178997 4.759532 
v -5.000001 4.896004 0 
v -6.464465 4.896004 3.535537 
v -6.731 4.178997 0 
v -7.688468 4.178997 2.311534 
v -6.731 0.7169991 0 
v -7.447999 2.447998 0 
v -7.688468 0.7169991 2.311534 
v -8.195464 2.447998 1.804538 
v -6.464465 0.7293559 3.535537 
v -5.605148 1.232741 4.394854 
v -5.249208 2.447998 4.750794 
v -5.605148 3.663263 4.394854 
v -6.464465 4.16664 3.535537 
v -7.32379 1.232741 2.676212 
v -7.67973 2.447998 2.320272 
v -7.32379 3.663263 2.676212 
v -5.000001 0.4544112 0 
v -6.409676 1.038323 0 
v -6.993587 2.447998 0 
v -6.409676 3.857681 0 
v -5.000001 4.441585 0 
v -3.590326 1.038323 0 
v -3.006414 2.447998 0 
v -3.590326 3.857681 0 

vn 0.3757299 -0.912487 0.1618468
vn -0.3757299 0.912487 -0.1618468
vn 0.8623897 0.3542597 0.3616409
vn -0.8623897 -0.3542597 -0.3616409
vn -0.704941 0.00357838 0.7092569
vn 0.704941 0.00357838 -0.7092569
vn -0.8623897 0.3542597 -0.3616409
vn 0.8623897 -0.3542597 0.3616409
vn 0.3757299 0.912487 0.1618468
vn -0.3757299 -0.912487 -0.1618468
vn -0.00357838 0.00357838 -0.9999872
vn -0.00357838 0.00357838 0.9999872

vt -4.925174 -9.695
vt -7.533136 -16.59504
vt -25.20738 -9.695
vt -22.59941 -16.59504
vt -3.844919 12.31882
vt -26.28764 12.31882
vt -4.925174 19.61574
vt -25.20738 19.61574
vt 7.533138 -8.709277
vt 22.59941 -8.709277
vt 10.1411 -15.60932
vt 19.99145 -15.60932
vt 10.1411 11.38672
vt 11.22137 18.68362
vt 19.99145 11.38672
vt 18.91119 18.68362
vt -8.15381 2.87149
vt -3.369308 4.853302
vt -1.338863 2.822844
vt 1.48398 9.637791
vt -1.387509 9.637791
vt -1.338863 16.45275
vt -3.369308 14.42229
vt -8.15381 16.40409
vt -14.96876 2.822844
vt -8.15381 1.014395E-06
vt -12.93831 4.853302
vt -17.7916 9.637791
vt -14.92011 9.637791
vt -12.93831 14.42229
vt -14.96876 16.45275
vt -8.15381 19.27559
vt 11.22137 -0.6812112
vt 10.1411 6.615711
vt 18.91119 -0.6812112
vt 19.99145 6.615711
vt -4.925174 17.58076
vt -25.20738 17.58076
vt -7.533136 24.48079
vt -22.59941 24.48079
vt 19.68505 1.014395E-06
vt 19.68505 1.789033
vt 26.49999 2.822844
vt 25.23495 4.087884
vt 29.32283 9.637791
vt 27.5338 9.637791
vt 26.49999 16.45275
vt 25.23495 15.18771
vt 19.68505 17.48656
vt 19.68505 19.27559
vt 12.87008 2.822844
vt 14.13513 4.087884
vt 10.04724 9.637791
vt 11.83629 9.637791
vt 14.13513 15.18771
vt 12.87008 16.45275
vt -4.925174 -1.613315
vt -25.20738 -1.613315
vt -3.844919 5.683607
vt -26.28764 5.683607
vt 7.533138 16.59504
vt 10.1411 23.49508
vt 22.59941 16.59504
vt 19.99145 23.49508

usemtl pipe
usemap pipe

f 2/2/1 1/1/1 3/3/1
f 3/3/1 4/4/1 2/2/1
f 2/2/2 3/3/2 1/1/2
f 3/3/2 2/2/2 4/4/2
f 6/6/3 5/5/3 7/7/3
f 7/7/3 8/8/3 6/6/3
f 6/6/4 7/7/4 5/5/4
f 7/7/4 6/6/4 8/8/4
f 10/10/2 9/9/2 11/11/2
f 11/11/2 12/12/2 10/10/2
f 10/10/1 11/11/1 9/9/1
f 11/11/1 10/10/1 12/12/1
f 14/14/4 13/13/4 15/15/4
f 15/15/4 16/16/4 14/14/4
f 14/14/3 15/15/3 13/13/3
f 15/15/3 14/14/3 16/16/3
f 18/18/5 17/17/5 3/19/5
f 3/19/5 6/20/5 18/18/5
f 6/20/5 19/21/5 18/18/5
f 6/20/5 8/22/5 19/21/5
f 8/22/5 20/23/5 19/21/5
f 8/22/5 21/24/5 20/23/5
f 3/19/5 17/17/5 15/25/5
f 15/25/5 4/26/5 3/19/5
f 17/17/5 22/27/5 15/25/5
f 22/27/5 16/28/5 15/25/5
f 22/27/5 23/29/5 16/28/5
f 23/29/5 24/30/5 16/28/5
f 24/30/5 12/31/5 16/28/5
f 24/30/5 21/24/5 12/31/5
f 21/24/5 8/22/5 12/31/5
f 8/22/5 10/32/5 12/31/5
f 18/18/6 3/19/6 17/17/6
f 3/19/6 18/18/6 6/20/6
f 6/20/6 18/18/6 19/21/6
f 6/20/6 19/21/6 8/22/6
f 8/22/6 19/21/6 20/23/6
f 8/22/6 20/23/6 21/24/6
f 3/19/6 15/25/6 17/17/6
f 15/25/6 3/19/6 4/26/6
f 17/17/6 15/25/6 22/27/6
f 22/27/6 15/25/6 16/28/6
f 22/27/6 16/28/6 23/29/6
f 23/29/6 16/28/6 24/30/6
f 24/30/6 16/28/6 12/31/6
f 24/30/6 12/31/6 21/24/6
f 21/24/6 12/31/6 8/22/6
f 8/22/6 12/31/6 10/32/6
f 11/34/7 14/33/7 16/35/7
f 16/35/7 12/36/7 11/34/7
f 11/34/8 16/35/8 14/33/8
f 16/35/8 11/34/8 12/36/8
f 8/38/9 7/37/9 9/39/9
f 9/39/9 10/40/9 8/38/9
f 8/38/10 9/39/10 7/37/10
f 9/39/10 8/38/10 10/40/10
f 25/42/11 2/41/11 13/43/11
f 13/43/11 26/44/11 25/42/11
f 13/43/11 14/45/11 26/44/11
f 14/45/11 27/46/11 26/44/11
f 14/45/11 11/47/11 27/46/11
f 11/47/11 28/48/11 27/46/11
f 11/47/11 29/49/11 28/48/11
f 11/47/11 9/50/11 29/49/11
f 1/51/11 2/41/11 25/42/11
f 25/42/11 30/52/11 1/51/11
f 30/52/11 5/53/11 1/51/11
f 30/52/11 31/54/11 5/53/11
f 31/54/11 32/55/11 5/53/11
f 32/55/11 7/56/11 5/53/11
f 32/55/11 29/49/11 7/56/11
f 29/49/11 9/50/11 7/56/11
f 25/42/12 13/43/12 2/41/12
f 13/43/12 25/42/12 26/44/12
f 13/43/12 26/44/12 14/45/12
f 14/45/12 26/44/12 27/46/12
f 14/45/12 27/46/12 11/47/12
f 11/47/12 27/46/12 28/48/12
f 11/47/12 28/48/12 29/49/12
f 11/47/12 29/49/12 9/50/12
f 1/51/12 25/42/12 2/41/12
f 25/42/12 1/51/12 30/52/12
f 30/52/12 1/51/12 5/53/12
f 30/52/12 5/53/12 31/54/12
f 31/54/12 5/53/12 32/55/12
f 32/55/12 5/53/12 7/56/12
f 32/55/12 7/56/12 29/49/12
f 29/49/12 7/56/12 9/50/12
f 3/58/8 1/57/8 5/59/8
f 5/59/8 6/60/8 3/58/8
f 3/58/7 5/59/7 1/57/7
f 5/59/7 3/58/7 6/60/7
f 13/62/10 2/61/10 4/63/10
f 4/63/10 15/64/10 13/62/10
f 13/62/9 4/63/9 2/61/9
f 4/63/9 13/62/9 15/64/9
