# Made using Asset Forge (www.assetforge.io) version 1.0 

mtllib pipeStand.mtl 

g pipeStand

v -5.768297 -1.218226E-14 4.499999 
v -4.231703 -1.218226E-14 4.499999 
v -5.768297 4.118244 4.499999 
v -4.231703 4.118244 4.499999 
v -6.956023 4.610209 4.499999 
v -5 4.515209 4.499999 
v -6.450298 5.115942 4.499999 
v -7.76624 6.566241 4.499999 
v -7.051032 6.566241 4.499999 
v -6.450298 8.016539 4.499999 
v -6.956023 8.522264 4.499999 
v -5 8.617272 4.499999 
v -5 9.332479 4.499999 
v -3.043969 4.610209 4.499999 
v -3.549702 5.115942 4.499999 
v -2.233761 6.566241 4.499999 
v -2.948968 6.566241 4.499999 
v -3.549702 8.016539 4.499999 
v -3.043969 8.522264 4.499999 
v -3.549702 8.016539 5.500002 
v -5 8.617272 5.500002 
v -5.768297 -1.218226E-14 5.500002 
v -5.768297 4.118244 5.500002 
v -4.231703 -1.218226E-14 5.500002 
v -4.231703 4.118244 5.500002 
v -3.043969 4.610209 5.500002 
v -5 4.515209 5.500002 
v -3.549702 5.115942 5.500002 
v -2.233761 6.566241 5.500002 
v -2.948968 6.566241 5.500002 
v -3.043969 8.522264 5.500002 
v -5 9.332479 5.500002 
v -6.956023 4.610209 5.500002 
v -6.450298 5.115942 5.500002 
v -7.76624 6.566241 5.500002 
v -7.051032 6.566241 5.500002 
v -6.450298 8.016539 5.500002 
v -6.956023 8.522264 5.500002 

vn -0.003921569 0.003921569 -0.9999846
vn -0.3803922 -0.9215686 -0.07754377
vn -0.003921569 0.003921569 0.9999846
vn -0.3803922 0.9215686 -0.07754377
vn -0.003921539 -0.9999924 0
vn 0.3803922 -0.9215686 -0.07754377
vn 0.9215686 0.3803922 -0.07754377
vn 0.9999924 0.003921539 0
vn -0.9999924 0.003921539 0
vn -0.9215686 -0.3803922 -0.07754377
vn 0.9215686 -0.3803922 -0.07754377
vn 0.3803922 0.9215686 -0.07754377
vn -0.9215686 0.3803922 -0.07754377

vt 22.70985 -4.232821E-07
vt 16.66025 -4.232821E-07
vt 22.70985 16.21355
vt 16.66025 16.21355
vt 27.38593 18.15045
vt 19.68504 17.77641
vt 25.39488 20.1415
vt 30.57575 25.85134
vt 27.75998 25.85134
vt 25.39488 31.56118
vt 27.38593 33.55223
vt 19.68504 33.92627
vt 19.68504 36.74205
vt 11.98415 18.15045
vt 13.97521 20.1415
vt 8.794335 25.85134
vt 11.61012 25.85134
vt 13.97521 31.56118
vt 11.98415 33.55223
vt 21.65354 24.98935
vt 17.71654 24.98935
vt 21.65354 31.16963
vt 17.71654 31.16963
vt -22.70984 -4.232821E-07
vt -22.70984 16.21355
vt -16.66024 -4.232821E-07
vt -16.66024 16.21355
vt -11.98415 18.15045
vt -19.68504 17.77641
vt -13.9752 20.1415
vt -8.794328 25.85134
vt -11.61011 25.85134
vt -11.98415 33.55223
vt -13.9752 31.56118
vt -19.68504 33.92627
vt -19.68504 36.74205
vt -27.38594 18.15045
vt -25.39488 20.1415
vt -30.57575 25.85134
vt -27.75997 25.85134
vt -25.39488 31.56118
vt -27.38594 33.55223
vt 21.65354 27.18581
vt 17.71654 27.18581
vt 21.65354 32.24718
vt 17.71654 32.24718
vt 17.71654 -4.12603
vt 21.65354 -4.12603
vt 17.71654 -12.46142
vt 21.65354 -12.46142
vt -16.66024 21.65354
vt -16.66024 17.71654
vt -22.70984 21.65354
vt -22.70984 17.71654
vt -21.65354 -4.12603
vt -17.71653 -4.12603
vt -21.65354 -9.187396
vt -17.71653 -9.187396
vt -17.71653 28.32652
vt -21.65354 28.32652
vt -17.71653 34.50681
vt -21.65354 34.50681
vt -17.71653 -4.232821E-07
vt -21.65354 -4.232821E-07
vt -17.71653 16.21355
vt -21.65354 16.21355
vt 17.71654 -4.232821E-07
vt 17.71654 16.21355
vt 21.65354 -4.232821E-07
vt 21.65354 16.21355
vt 17.71654 27.24897
vt 17.71654 35.58436
vt 21.65354 27.24897
vt 21.65354 35.58436
vt -17.71653 12.18269
vt -21.65354 12.18269
vt -17.71653 20.51808
vt -21.65354 20.51808
vt -17.71653 24.98935
vt -21.65354 24.98935
vt -17.71653 31.16963
vt -21.65354 31.16963
vt 17.71654 13.26024
vt 17.71654 19.44053
vt 21.65354 13.26024
vt 21.65354 19.44053
vt 17.71654 -5.203583
vt 21.65354 -5.203583
vt 17.71654 -11.38387
vt 21.65354 -11.38387
vt -17.71653 13.26024
vt -21.65354 13.26024
vt -17.71653 19.44053
vt -21.65354 19.44053
vt -21.65354 -5.203583
vt -17.71653 -5.203583
vt -21.65354 -11.38387
vt -17.71653 -11.38387
vt -17.71653 27.24897
vt -21.65354 27.24897
vt -17.71653 35.58436
vt -21.65354 35.58436
vt 17.71654 28.32652
vt 17.71654 34.50681
vt 21.65354 28.32652
vt 21.65354 34.50681
vt 17.71654 12.18269
vt 17.71654 20.51808
vt 21.65354 12.18269
vt 21.65354 20.51808
vt -17.71653 23.91179
vt -21.65354 23.91179
vt -17.71653 32.24718
vt -21.65354 32.24718

usemtl metal
usemap metal

f 2/2/1 1/1/1 3/3/1
f 3/3/1 4/4/1 2/2/1
f 3/3/1 5/5/1 4/4/1
f 5/5/1 6/6/1 4/4/1
f 5/5/1 7/7/1 6/6/1
f 5/5/1 8/8/1 7/7/1
f 8/8/1 9/9/1 7/7/1
f 8/8/1 10/10/1 9/9/1
f 8/8/1 11/11/1 10/10/1
f 11/11/1 12/12/1 10/10/1
f 11/11/1 13/13/1 12/12/1
f 14/14/1 4/4/1 6/6/1
f 6/6/1 15/15/1 14/14/1
f 15/15/1 16/16/1 14/14/1
f 15/15/1 17/17/1 16/16/1
f 17/17/1 18/18/1 16/16/1
f 18/18/1 19/19/1 16/16/1
f 18/18/1 12/12/1 19/19/1
f 12/12/1 13/13/1 19/19/1
f 18/21/2 20/20/2 21/22/2
f 21/22/2 12/23/2 18/21/2
f 23/25/3 22/24/3 24/26/3
f 24/26/3 25/27/3 23/25/3
f 25/27/3 26/28/3 23/25/3
f 26/28/3 27/29/3 23/25/3
f 26/28/3 28/30/3 27/29/3
f 26/28/3 29/31/3 28/30/3
f 29/31/3 30/32/3 28/30/3
f 29/31/3 31/33/3 30/32/3
f 31/33/3 20/34/3 30/32/3
f 31/33/3 21/35/3 20/34/3
f 31/33/3 32/36/3 21/35/3
f 33/37/3 23/25/3 27/29/3
f 27/29/3 34/38/3 33/37/3
f 34/38/3 35/39/3 33/37/3
f 34/38/3 36/40/3 35/39/3
f 36/40/3 37/41/3 35/39/3
f 37/41/3 38/42/3 35/39/3
f 37/41/3 21/35/3 38/42/3
f 21/35/3 32/36/3 38/42/3
f 3/44/2 23/43/2 33/45/2
f 33/45/2 5/46/2 3/44/2
f 32/48/4 13/47/4 11/49/4
f 11/49/4 38/50/4 32/48/4
f 2/52/5 24/51/5 22/53/5
f 22/53/5 1/54/5 2/52/5
f 14/56/6 26/55/6 25/57/6
f 25/57/6 4/58/6 14/56/6
f 34/60/7 7/59/7 9/61/7
f 9/61/7 36/62/7 34/60/7
f 24/64/8 2/63/8 4/65/8
f 4/65/8 25/66/8 24/64/8
f 3/68/9 1/67/9 22/69/9
f 22/69/9 23/70/9 3/68/9
f 8/72/10 5/71/10 33/73/10
f 33/73/10 35/74/10 8/72/10
f 26/76/11 14/75/11 16/77/11
f 16/77/11 29/78/11 26/76/11
f 27/80/12 6/79/12 7/81/12
f 7/81/12 34/82/12 27/80/12
f 17/84/13 15/83/13 28/85/13
f 28/85/13 30/86/13 17/84/13
f 28/88/4 15/87/4 6/89/4
f 6/89/4 27/90/4 28/88/4
f 36/92/11 9/91/11 10/93/11
f 10/93/11 37/94/11 36/92/11
f 12/96/6 21/95/6 37/97/6
f 37/97/6 10/98/6 12/96/6
f 29/100/7 16/99/7 19/101/7
f 19/101/7 31/102/7 29/100/7
f 18/104/10 17/103/10 30/105/10
f 30/105/10 20/106/10 18/104/10
f 11/108/13 8/107/13 35/109/13
f 35/109/13 38/110/13 11/108/13
f 31/112/12 19/111/12 13/113/12
f 13/113/12 32/114/12 31/112/12

usemtl pipe
usemap pipe

f 18/21/12 21/22/12 20/20/12
f 21/22/12 18/21/12 12/23/12
f 3/44/12 33/45/12 23/43/12
f 33/45/12 3/44/12 5/46/12
f 32/48/6 11/49/6 13/47/6
f 11/49/6 32/48/6 38/50/6
f 14/56/4 25/57/4 26/55/4
f 25/57/4 14/56/4 4/58/4
f 34/60/10 9/61/10 7/59/10
f 9/61/10 34/60/10 36/62/10
f 8/72/7 33/73/7 5/71/7
f 33/73/7 8/72/7 35/74/7
f 26/76/13 16/77/13 14/75/13
f 16/77/13 26/76/13 29/78/13
f 27/80/2 7/81/2 6/79/2
f 7/81/2 27/80/2 34/82/2
f 17/84/11 28/85/11 15/83/11
f 28/85/11 17/84/11 30/86/11
f 28/88/6 6/89/6 15/87/6
f 6/89/6 28/88/6 27/90/6
f 36/92/13 10/93/13 9/91/13
f 10/93/13 36/92/13 37/94/13
f 12/96/4 37/97/4 21/95/4
f 37/97/4 12/96/4 10/98/4
f 29/100/10 19/101/10 16/99/10
f 19/101/10 29/100/10 31/102/10
f 18/104/7 30/105/7 17/103/7
f 30/105/7 18/104/7 20/106/7
f 11/108/11 35/109/11 8/107/11
f 35/109/11 11/108/11 38/110/11
f 31/112/2 13/113/2 19/111/2
f 13/113/2 31/112/2 32/114/2
