# Made using Asset Forge (www.assetforge.io) version 1.0 

mtllib pipeStandStraightLiner.mtl 

g pipeStandStraightLiner

v -5.768304 -1.218226E-14 4.500002 
v -4.231705 -1.218226E-14 4.500002 
v -5.768304 4.118237 4.500002 
v -5.000005 4.118237 4.500002 
v -6.731002 4.835238 4.500002 
v -6.956031 4.610209 4.500002 
v -7.766244 6.566245 4.500002 
v -7.448003 6.566245 4.500002 
v -6.956031 8.522271 4.500002 
v -6.731002 8.297241 4.500002 
v -5.000005 9.014243 4.500002 
v -5.000005 9.332484 4.500002 
v -4.231705 4.118237 4.500002 
v -3.268998 4.835238 4.500002 
v -3.043969 4.610209 4.500002 
v -2.233755 6.566245 4.500002 
v -2.551997 6.566245 4.500002 
v -3.043969 8.522271 4.500002 
v -3.268998 8.297241 4.500002 
v -5.000005 4.515204 4.500002 
v -6.450296 5.115943 4.500002 
v -7.051036 6.566245 4.500002 
v -6.450296 8.016537 4.500002 
v -5.000005 8.617276 4.500002 
v -3.549703 5.115943 4.500002 
v -2.948964 6.566245 4.500002 
v -3.549703 8.016537 4.500002 
v -3.549703 8.016537 5.499998 
v -5.000005 8.617276 5.499998 
v -4.231705 -1.218226E-14 5.499998 
v -5.000005 4.118237 5.499998 
v -4.231705 4.118237 5.499998 
v -3.268998 4.835238 5.499998 
v -3.043969 4.610209 5.499998 
v -2.233755 6.566245 5.499998 
v -2.551997 6.566245 5.499998 
v -3.043969 8.522271 5.499998 
v -3.268998 8.297241 5.499998 
v -5.000005 9.014243 5.499998 
v -5.000005 9.332484 5.499998 
v -5.768304 4.118237 5.499998 
v -5.768304 -1.218226E-14 5.499998 
v -6.731002 4.835238 5.499998 
v -6.956031 4.610209 5.499998 
v -7.766244 6.566245 5.499998 
v -7.448003 6.566245 5.499998 
v -6.956031 8.522271 5.499998 
v -6.731002 8.297241 5.499998 
v -3.549703 5.115943 5.499998 
v -2.948964 6.566245 5.499998 
v -6.450296 5.115943 5.499998 
v -5.000005 4.515204 5.499998 
v -7.051036 6.566245 5.499998 
v -6.450296 8.016537 5.499998 
v -5.000005 4.118237 10 
v -5.000005 4.572653 10 
v -3.268998 4.835238 10 
v -3.59032 5.15656 10 
v -2.551997 6.566245 10 
v -3.006413 6.566245 10 
v -3.268998 8.297241 10 
v -3.59032 7.97592 10 
v -5.000005 8.559827 10 
v -5.000005 9.014243 10 
v -6.731002 4.835238 10 
v -6.409679 5.15656 10 
v -7.448003 6.566245 10 
v -6.993587 6.566245 10 
v -6.731002 8.297241 10 
v -6.409679 7.97592 10 
v -3.268998 4.835238 -1.218226E-14 
v -5.000005 4.118237 -1.218226E-14 
v -2.551997 6.566245 -1.218226E-14 
v -5.000005 4.572653 -1.218226E-14 
v -6.731002 4.835238 -1.218226E-14 
v -6.409679 5.15656 -1.218226E-14 
v -7.448003 6.566245 -1.218226E-14 
v -6.993587 6.566245 -1.218226E-14 
v -6.731002 8.297241 -1.218226E-14 
v -6.409679 7.97592 -1.218226E-14 
v -5.000005 8.559827 -1.218226E-14 
v -5.000005 9.014243 -1.218226E-14 
v -3.59032 5.15656 -1.218226E-14 
v -3.006413 6.566245 -1.218226E-14 
v -3.59032 7.97592 -1.218226E-14 
v -3.268998 8.297241 -1.218226E-14 

vn -0.003921569 0.003921569 -0.9999846
vn -0.3803922 -0.9215686 -0.07754377
vn -0.003921569 0.003921569 0.9999846
vn -0.3803922 0.9215686 -0.07754377
vn -0.003921539 -0.9999924 0
vn 0.3803922 -0.9215686 -0.07754377
vn 0.9215686 0.3803922 -0.07754377
vn 0.9999924 0.003921539 0
vn -0.9999924 0.003921539 0
vn -0.9215686 -0.3803922 -0.07754377
vn 0.9215686 -0.3803922 -0.07754377
vn 0.3803922 0.9215686 -0.07754377
vn -0.9215686 0.3803922 -0.07754377

vt 22.70984 4.69328E-06
vt 16.66025 4.69328E-06
vt 22.70984 16.21355
vt 19.68504 16.21355
vt 26.49999 19.03639
vt 27.38593 18.15045
vt 30.57576 25.85134
vt 29.32284 25.85134
vt 27.38593 33.55223
vt 26.49999 32.66629
vt 19.68504 35.48914
vt 19.68504 36.74205
vt 16.66025 16.21355
vt 12.87009 19.03639
vt 11.98415 18.15045
vt 8.794338 25.85134
vt 10.04725 25.85134
vt 11.98415 33.55223
vt 12.87009 32.66629
vt 19.68504 17.77641
vt 25.39487 20.1415
vt 27.75998 25.85134
vt 25.39487 31.56118
vt 19.68504 33.92627
vt 13.9752 20.1415
vt 11.61011 25.85134
vt 13.9752 31.56118
vt 21.65354 24.98934
vt 17.71655 24.98934
vt 21.65354 31.16962
vt 17.71655 31.16962
vt -16.66024 4.69328E-06
vt -19.68504 16.21355
vt -16.66024 16.21355
vt -12.87009 19.03639
vt -11.98414 18.15045
vt -8.794329 25.85134
vt -10.04725 25.85134
vt -11.98414 33.55223
vt -12.87009 32.66629
vt -19.68504 35.48914
vt -19.68504 36.74205
vt -22.70984 16.21355
vt -22.70984 4.69328E-06
vt -26.49999 19.03639
vt -27.38593 18.15045
vt -30.57575 25.85134
vt -29.32284 25.85134
vt -27.38593 33.55223
vt -26.49999 32.66629
vt -13.9752 20.1415
vt -11.61011 25.85134
vt -13.9752 31.56118
vt -19.68504 33.92627
vt -25.39488 20.1415
vt -19.68504 17.77641
vt -27.75998 25.85134
vt -25.39488 31.56118
vt 21.65354 27.18582
vt 17.71655 27.18582
vt 21.65354 32.24718
vt 17.71655 32.24718
vt 17.71655 -4.126036
vt 21.65354 -4.126036
vt 17.71655 -12.46142
vt 21.65354 -12.46142
vt -16.66024 21.65354
vt -16.66024 17.71655
vt -22.70984 21.65354
vt -22.70984 17.71655
vt -21.65354 -4.126036
vt -17.71654 -4.126036
vt -21.65354 -9.1874
vt -17.71654 -9.1874
vt -17.71654 28.32652
vt -21.65354 28.32652
vt -17.71654 34.50681
vt -21.65354 34.50681
vt -17.71654 4.69328E-06
vt -21.65354 4.69328E-06
vt -17.71654 16.21355
vt -21.65354 16.21355
vt 17.71655 4.69328E-06
vt 17.71655 16.21355
vt 21.65354 4.69328E-06
vt 21.65354 16.21355
vt 17.71655 27.24897
vt 17.71655 35.58436
vt 21.65354 27.24897
vt 21.65354 35.58436
vt -17.71654 12.18269
vt -21.65354 12.18269
vt -17.71654 20.51808
vt -21.65354 20.51808
vt -17.71654 24.98934
vt -21.65354 24.98934
vt -17.71654 31.16962
vt -21.65354 31.16962
vt 17.71655 13.26025
vt 17.71655 19.44054
vt 21.65354 13.26025
vt 21.65354 19.44054
vt 17.71655 -5.203585
vt 21.65354 -5.203585
vt 17.71655 -11.38386
vt 21.65354 -11.38386
vt -17.71654 13.26025
vt -21.65354 13.26025
vt -17.71654 19.44054
vt -21.65354 19.44054
vt -21.65354 -5.203585
vt -17.71654 -5.203585
vt -21.65354 -11.38386
vt -17.71654 -11.38386
vt -17.71654 27.24897
vt -21.65354 27.24897
vt -17.71654 35.58436
vt -21.65354 35.58436
vt 17.71655 28.32652
vt 17.71655 34.50681
vt 21.65354 28.32652
vt 21.65354 34.50681
vt 17.71655 12.18269
vt 17.71655 20.51808
vt 21.65354 12.18269
vt 21.65354 20.51808
vt -17.71654 23.91179
vt -21.65354 23.91179
vt -17.71654 32.24718
vt -21.65354 32.24718
vt -19.68504 18.00258
vt -14.13513 20.30143
vt -11.83628 25.85134
vt -14.13513 31.40126
vt -19.68504 33.7001
vt -25.23495 20.30143
vt -27.5338 25.85134
vt -25.23495 31.40126
vt 21.65354 -4.605501
vt 39.37008 -4.605501
vt 21.65354 -11.98195
vt 39.37008 -11.98195
vt 21.65354 27.72844
vt 21.65354 35.10488
vt 39.37008 27.72844
vt 39.37008 35.10488
vt -39.37008 -4.605501
vt -21.65354 -4.605501
vt -39.37008 -11.98195
vt -21.65354 -11.98195
vt -17.71654 -4.605501
vt 4.69328E-06 -4.605501
vt -17.71654 -11.98195
vt 4.69328E-06 -11.98195
vt 39.37008 24.39126
vt 21.65354 24.39126
vt 39.37008 31.76771
vt 21.65354 31.76771
vt -21.65354 12.66216
vt -39.37008 12.66216
vt -21.65354 20.03861
vt -39.37008 20.03861
vt -21.65354 24.39126
vt -39.37008 24.39126
vt -21.65354 31.76771
vt -39.37008 31.76771
vt -21.65354 27.72844
vt -39.37008 27.72844
vt -21.65354 35.10488
vt -39.37008 35.10488
vt 21.65354 12.66216
vt 21.65354 20.03861
vt 39.37008 12.66216
vt 39.37008 20.03861
vt 4.69328E-06 12.66216
vt -17.71654 12.66216
vt 4.69328E-06 20.03861
vt -17.71654 20.03861
vt 19.68504 18.00258
vt 25.23494 20.30143
vt 27.5338 25.85134
vt 25.23494 31.40126
vt 19.68504 33.7001
vt 14.13513 20.30143
vt 11.83629 25.85134
vt 14.13513 31.40126
vt 17.71655 24.39126
vt 4.69328E-06 24.39126
vt 17.71655 31.76771
vt 4.69328E-06 31.76771
vt 4.69328E-06 27.72844
vt 4.69328E-06 35.10488
vt 17.71655 27.72844
vt 17.71655 35.10488
vt -17.71654 27.72844
vt -17.71654 35.10488
vt 17.71655 -4.605501
vt 17.71655 -11.98195
vt 17.71655 12.66216
vt 17.71655 20.03861
vt -17.71654 24.39126
vt -17.71654 31.76771

usemtl metal
usemap metal

f 2/2/1 1/1/1 3/3/1
f 3/3/1 4/4/1 2/2/1
f 3/3/1 5/5/1 4/4/1
f 3/3/1 6/6/1 5/5/1
f 6/6/1 7/7/1 5/5/1
f 7/7/1 8/8/1 5/5/1
f 7/7/1 9/9/1 8/8/1
f 9/9/1 10/10/1 8/8/1
f 9/9/1 11/11/1 10/10/1
f 9/9/1 12/12/1 11/11/1
f 13/13/1 2/2/1 4/4/1
f 4/4/1 14/14/1 13/13/1
f 14/14/1 15/15/1 13/13/1
f 14/14/1 16/16/1 15/15/1
f 14/14/1 17/17/1 16/16/1
f 17/17/1 18/18/1 16/16/1
f 11/11/1 12/12/1 18/18/1
f 17/17/1 19/19/1 18/18/1
f 19/19/1 11/11/1 18/18/1
f 20/20/1 4/4/1 5/5/1
f 5/5/1 21/21/1 20/20/1
f 5/5/1 8/8/1 21/21/1
f 8/8/1 22/22/1 21/21/1
f 8/8/1 23/23/1 22/22/1
f 8/8/1 10/10/1 23/23/1
f 10/10/1 24/24/1 23/23/1
f 10/10/1 11/11/1 24/24/1
f 24/24/1 11/11/1 19/19/1
f 14/14/1 4/4/1 20/20/1
f 20/20/1 25/25/1 14/14/1
f 25/25/1 17/17/1 14/14/1
f 25/25/1 26/26/1 17/17/1
f 26/26/1 27/27/1 17/17/1
f 27/27/1 19/19/1 17/17/1
f 27/27/1 24/24/1 19/19/1
f 27/29/2 28/28/2 29/30/2
f 29/30/2 24/31/2 27/29/2
f 31/33/3 30/32/3 32/34/3
f 32/34/3 33/35/3 31/33/3
f 32/34/3 34/36/3 33/35/3
f 34/36/3 35/37/3 33/35/3
f 35/37/3 36/38/3 33/35/3
f 35/37/3 37/39/3 36/38/3
f 37/39/3 38/40/3 36/38/3
f 37/39/3 39/41/3 38/40/3
f 37/39/3 40/42/3 39/41/3
f 30/32/3 31/33/3 41/43/3
f 41/43/3 42/44/3 30/32/3
f 31/33/3 43/45/3 41/43/3
f 43/45/3 44/46/3 41/43/3
f 43/45/3 45/47/3 44/46/3
f 43/45/3 46/48/3 45/47/3
f 46/48/3 47/49/3 45/47/3
f 39/41/3 40/42/3 47/49/3
f 46/48/3 48/50/3 47/49/3
f 48/50/3 39/41/3 47/49/3
f 33/35/3 36/38/3 49/51/3
f 36/38/3 50/52/3 49/51/3
f 36/38/3 28/53/3 50/52/3
f 36/38/3 38/40/3 28/53/3
f 38/40/3 29/54/3 28/53/3
f 38/40/3 39/41/3 29/54/3
f 29/54/3 39/41/3 48/50/3
f 51/55/3 46/48/3 43/45/3
f 52/56/3 51/55/3 43/45/3
f 33/35/3 49/51/3 52/56/3
f 52/56/3 31/33/3 33/35/3
f 43/45/3 31/33/3 52/56/3
f 51/55/3 53/57/3 46/48/3
f 53/57/3 54/58/3 46/48/3
f 54/58/3 48/50/3 46/48/3
f 54/58/3 29/54/3 48/50/3
f 3/60/2 41/59/2 44/61/2
f 44/61/2 6/62/2 3/60/2
f 40/64/4 12/63/4 9/65/4
f 9/65/4 47/66/4 40/64/4
f 2/68/5 30/67/5 42/69/5
f 42/69/5 1/70/5 2/68/5
f 15/72/6 34/71/6 32/73/6
f 32/73/6 13/74/6 15/72/6
f 51/76/7 21/75/7 22/77/7
f 22/77/7 53/78/7 51/76/7
f 30/80/8 2/79/8 13/81/8
f 13/81/8 32/82/8 30/80/8
f 3/84/9 1/83/9 42/85/9
f 42/85/9 41/86/9 3/84/9
f 7/88/10 6/87/10 44/89/10
f 44/89/10 45/90/10 7/88/10
f 34/92/11 15/91/11 16/93/11
f 16/93/11 35/94/11 34/92/11
f 52/96/12 20/95/12 21/97/12
f 21/97/12 51/98/12 52/96/12
f 26/100/13 25/99/13 49/101/13
f 49/101/13 50/102/13 26/100/13
f 49/104/4 25/103/4 20/105/4
f 20/105/4 52/106/4 49/104/4
f 53/108/11 22/107/11 23/109/11
f 23/109/11 54/110/11 53/108/11
f 24/112/6 29/111/6 54/113/6
f 54/113/6 23/114/6 24/112/6
f 35/116/7 16/115/7 18/117/7
f 18/117/7 37/118/7 35/116/7
f 27/120/10 26/119/10 50/121/10
f 50/121/10 28/122/10 27/120/10
f 9/124/13 7/123/13 45/125/13
f 45/125/13 47/126/13 9/124/13
f 37/128/12 18/127/12 12/129/12
f 12/129/12 40/130/12 37/128/12

usemtl pipe
usemap pipe

f 27/29/12 29/30/12 28/28/12
f 29/30/12 27/29/12 24/31/12
f 3/60/12 44/61/12 41/59/12
f 44/61/12 3/60/12 6/62/12
f 40/64/6 9/65/6 12/63/6
f 9/65/6 40/64/6 47/66/6
f 56/131/3 55/33/3 57/35/3
f 57/35/3 58/132/3 56/131/3
f 57/35/3 59/38/3 58/132/3
f 59/38/3 60/133/3 58/132/3
f 59/38/3 61/40/3 60/133/3
f 61/40/3 62/134/3 60/133/3
f 61/40/3 63/135/3 62/134/3
f 61/40/3 64/41/3 63/135/3
f 65/45/3 55/33/3 56/131/3
f 56/131/3 66/136/3 65/45/3
f 66/136/3 67/48/3 65/45/3
f 66/136/3 68/137/3 67/48/3
f 68/137/3 69/50/3 67/48/3
f 63/135/3 64/41/3 69/50/3
f 68/137/3 70/138/3 69/50/3
f 70/138/3 63/135/3 69/50/3
f 15/72/4 32/73/4 34/71/4
f 32/73/4 15/72/4 13/74/4
f 51/76/10 22/77/10 21/75/10
f 22/77/10 51/76/10 53/78/10
f 7/88/7 44/89/7 6/87/7
f 44/89/7 7/88/7 45/90/7
f 64/140/4 39/139/4 48/141/4
f 48/141/4 69/142/4 64/140/4
f 64/140/6 48/141/6 39/139/6
f 48/141/6 64/140/6 69/142/6
f 34/92/13 16/93/13 15/91/13
f 16/93/13 34/92/13 35/94/13
f 52/96/2 21/97/2 20/95/2
f 21/97/2 52/96/2 51/98/2
f 46/144/10 43/143/10 65/145/10
f 65/145/10 67/146/10 46/144/10
f 46/144/7 65/145/7 43/143/7
f 65/145/7 46/144/7 67/146/7
f 33/148/6 57/147/6 55/149/6
f 55/149/6 31/150/6 33/148/6
f 33/148/4 55/149/4 57/147/4
f 55/149/4 33/148/4 31/150/4
f 26/100/11 49/101/11 25/99/11
f 49/101/11 26/100/11 50/102/11
f 49/104/6 20/105/6 25/103/6
f 20/105/6 49/104/6 52/106/6
f 71/152/6 14/151/6 4/153/6
f 4/153/6 72/154/6 71/152/6
f 71/152/4 4/153/4 14/151/4
f 4/153/4 71/152/4 72/154/4
f 53/108/13 23/109/13 22/107/13
f 23/109/13 53/108/13 54/110/13
f 31/156/2 55/155/2 65/157/2
f 65/157/2 43/158/2 31/156/2
f 31/156/12 65/157/12 55/155/12
f 65/157/12 31/156/12 43/158/12
f 57/160/11 33/159/11 36/161/11
f 36/161/11 59/162/11 57/160/11
f 57/160/13 36/161/13 33/159/13
f 36/161/13 57/160/13 59/162/13
f 24/112/4 54/113/4 29/111/4
f 54/113/4 24/112/4 23/114/4
f 61/164/12 38/163/12 39/165/12
f 39/165/12 64/166/12 61/164/12
f 61/164/2 39/165/2 38/163/2
f 39/165/2 61/164/2 64/166/2
f 35/116/10 18/117/10 16/115/10
f 18/117/10 35/116/10 37/118/10
f 59/168/7 36/167/7 38/169/7
f 38/169/7 61/170/7 59/168/7
f 59/168/10 38/169/10 36/167/10
f 38/169/10 59/168/10 61/170/10
f 27/120/7 50/121/7 26/119/7
f 50/121/7 27/120/7 28/122/7
f 48/172/13 46/171/13 67/173/13
f 67/173/13 69/174/13 48/172/13
f 48/172/11 67/173/11 46/171/11
f 67/173/11 48/172/11 69/174/11
f 14/176/11 71/175/11 73/177/11
f 73/177/11 17/178/11 14/176/11
f 14/176/13 73/177/13 71/175/13
f 73/177/13 14/176/13 17/178/13
f 74/179/1 72/4/1 75/5/1
f 75/5/1 76/180/1 74/179/1
f 75/5/1 77/8/1 76/180/1
f 77/8/1 78/181/1 76/180/1
f 77/8/1 79/10/1 78/181/1
f 79/10/1 80/182/1 78/181/1
f 79/10/1 81/183/1 80/182/1
f 79/10/1 82/11/1 81/183/1
f 71/14/1 72/4/1 74/179/1
f 74/179/1 83/184/1 71/14/1
f 83/184/1 73/17/1 71/14/1
f 83/184/1 84/185/1 73/17/1
f 84/185/1 85/186/1 73/17/1
f 85/186/1 86/19/1 73/17/1
f 85/186/1 81/183/1 86/19/1
f 81/183/1 82/11/1 86/19/1
f 72/188/2 4/187/2 5/189/2
f 5/189/2 75/190/2 72/188/2
f 72/188/12 5/189/12 4/187/12
f 5/189/12 72/188/12 75/190/12
f 77/192/10 75/191/10 5/193/10
f 5/193/10 8/194/10 77/192/10
f 77/192/7 5/193/7 75/191/7
f 5/193/7 77/192/7 8/194/7
f 9/124/11 45/125/11 7/123/11
f 45/125/11 9/124/11 47/126/11
f 17/195/7 73/191/7 86/192/7
f 86/192/7 19/196/7 17/195/7
f 17/195/10 86/192/10 73/191/10
f 86/192/10 17/195/10 19/196/10
f 11/197/4 82/152/4 79/154/4
f 79/154/4 10/198/4 11/197/4
f 11/197/6 79/154/6 82/152/6
f 79/154/6 11/197/6 10/198/6
f 79/177/13 77/175/13 8/199/13
f 8/199/13 10/200/13 79/177/13
f 79/177/11 8/199/11 77/175/11
f 8/199/11 79/177/11 10/200/11
f 19/201/12 86/188/12 82/190/12
f 82/190/12 11/202/12 19/201/12
f 19/201/2 82/190/2 86/188/2
f 82/190/2 19/201/2 11/202/2
f 52/56/1 33/35/1 31/33/1
f 33/35/1 52/56/1 49/51/1
f 33/35/1 49/51/1 36/38/1
f 36/38/1 49/51/1 50/52/1
f 36/38/1 50/52/1 28/53/1
f 36/38/1 28/53/1 38/40/1
f 38/40/1 28/53/1 29/54/1
f 38/40/1 29/54/1 39/41/1
f 43/45/1 52/56/1 31/33/1
f 52/56/1 43/45/1 51/55/1
f 51/55/1 43/45/1 46/48/1
f 51/55/1 46/48/1 53/57/1
f 53/57/1 46/48/1 54/58/1
f 54/58/1 46/48/1 48/50/1
f 54/58/1 48/50/1 29/54/1
f 29/54/1 48/50/1 39/41/1
f 20/20/3 5/5/3 4/4/3
f 5/5/3 20/20/3 21/21/3
f 5/5/3 21/21/3 8/8/3
f 8/8/3 21/21/3 22/22/3
f 8/8/3 22/22/3 23/23/3
f 8/8/3 23/23/3 10/10/3
f 10/10/3 23/23/3 24/24/3
f 10/10/3 24/24/3 11/11/3
f 14/14/3 20/20/3 4/4/3
f 20/20/3 14/14/3 25/25/3
f 25/25/3 14/14/3 17/17/3
f 25/25/3 17/17/3 26/26/3
f 26/26/3 17/17/3 27/27/3
f 27/27/3 17/17/3 19/19/3
f 27/27/3 19/19/3 24/24/3
f 24/24/3 19/19/3 11/11/3
f 37/128/2 12/129/2 18/127/2
f 12/129/2 37/128/2 40/130/2
