# Made using Asset Forge (www.assetforge.io) version 1.0 

mtllib rocksSmallOre.mtl 

g rocksSmallOre

v -5.214077 1.644191 3.289725 
v -5.214077 1.644191 4.26467 
v -5.49947 2.791487 3.575118 
v -5.49947 2.791487 4.478315 
v -1.941298 1.050096 1.767329 
v -1.941298 1.050096 2.817416 
v -2.991385 1.050096 1.767329 
v -2.56623 1.050096 2.436031 
v -2.56623 1.050096 2.817416 
v -2.991385 1.050096 2.436031 
v -6.955604 2.791487 4.478315 
v -6.680233 4.270225 4.753686 
v -4.294631 4.270225 4.753686 
v -3.805615 1.644191 4.26467 
v -3.341422 0 1.4173 
v -1.591269 0 1.4173 
v -4.630411 0 8.733083 
v -3.499559 0.2923686 8.635627 
v -2.880258 0 8.733083 
v -3.230287 1.050096 8.383054 
v -3.499559 0.6718404 8.509136 
v -3.899558 0.2923686 8.635627 
v -4.280382 1.050096 8.383054 
v -3.899558 0.6718404 8.509136 
v -6.133811 0 1.913599 
v -5.315812 1.644191 2.731598 
v -6.133811 0 2.880717 
v -5.315812 1.644191 3.289725 
v -1.591269 0 3.167445 
v -7.582672 2.791487 3.575118 
v -6.955604 2.791487 5.658321 
v -7.582672 2.791487 5.658321 
v -3.230287 1.050096 7.332958 
v -3.694982 1.050096 7.332958 
v -3.694982 1.050096 7.738937 
v -4.280382 1.050096 7.738937 
v -3.499431 0 6.982928 
v -2.880258 0 6.982928 
v -4.294631 4.270225 7.139287 
v -5.243621 4.270225 6.129609 
v -5.84362 4.270225 6.129609 
v -5.84362 4.270225 6.729607 
v -5.243621 4.270225 6.729607 
v -6.680233 4.270225 7.139287 
v -4.630411 0 7.934487 
v -2.043798 0 3.167445 
v -6.986434 2.625924 6.104096 
v -7.475433 0 6.352721 
v -6.986434 2.625924 6.704103 
v -7.475433 0 7.934487 
v -6.876592 3.215791 6.704103 
v -6.876592 3.215791 6.104096 
v -7.229487 1.48676 3.250559 
v -8.277073 0 2.880717 
v -7.229487 2.069013 3.395399 
v -6.62948 1.48676 3.250559 
v -6.62948 2.069013 3.395399 
v -3.341422 0 1.913599 
v -2.861798 1.644191 2.731598 
v -8.163683 0.4558136 4.468149 
v -8.277073 0 6.352721 
v -8.163683 0.4558136 5.068148 
v -8.018843 1.038067 5.068148 
v -7.931705 1.388368 5.072043 
v -7.931705 1.388368 5.472043 
v -7.835152 1.776534 5.472043 
v -8.018843 1.038067 4.468149 
v -7.835152 1.776534 5.072043 
v -2.861798 1.644191 5.185613 
v -4.037524 1.644191 3.014209 
v -3.805615 1.644191 5.185613 
v -4.737532 1.644191 3.014209 
v -4.737532 1.644191 3.714216 
v -4.037524 1.644191 3.714216 
v -2.043798 0 6.003611 
v -3.499431 0 6.003611 
v -2.615162 1.148454 3.874233 
v -2.615162 1.148454 4.47424 
v -2.347907 0.611262 4.47424 
v -2.347907 0.611262 3.874233 
v -5.748631 0.6712959 7.809477 
v -5.748631 1.359461 7.681328 
v -4.730624 1.598321 7.636845 
v -4.730624 2.089872 7.54531 
v -5.378713 2.35341 7.496233 
v -5.378713 2.746655 7.423005 
v -5.778712 2.746655 7.423005 
v -6.448629 0.6712959 7.809477 
v -6.448629 1.359461 7.681328 
v -5.778712 2.35341 7.496233 
v -5.230623 1.598321 7.636845 
v -5.230623 2.089872 7.54531 
v -4.192258 3.720469 4.995285 
v -4.192258 3.720469 5.595284 
v -4.082416 3.13061 5.595284 
v -4.05721 2.995255 5.903807 
v -4.05721 2.995255 6.603814 
v -3.92906 2.30709 6.603814 
v -4.082416 3.13061 4.995285 
v -3.92906 2.30709 5.903807 
v -7.281363 2.680845 6.104096 
v -7.171521 3.270712 6.104096 
v -7.281363 2.680845 6.704103 
v -7.171521 3.270712 6.704103 
v -8.222833 1.460788 5.072043 
v -8.126278 1.848954 5.072043 
v -8.222833 1.460788 5.472043 
v -8.126278 1.848954 5.472043 
v -8.45481 0.5282337 4.468149 
v -8.30997 1.110487 4.468149 
v -8.45481 0.5282337 5.068148 
v -8.30997 1.110487 5.068148 
v -7.229487 1.55918 2.959432 
v -6.62948 1.55918 2.959432 
v -7.229487 2.141433 3.104272 
v -6.62948 2.141433 3.104272 
v -4.037524 1.94419 3.014209 
v -4.037524 1.94419 3.714216 
v -4.737532 1.94419 3.014209 
v -4.737532 1.94419 3.714216 
v -5.243621 4.570224 6.129609 
v -5.243621 4.570224 6.729607 
v -5.84362 4.570224 6.129609 
v -5.84362 4.570224 6.729607 
v -5.378713 2.408332 7.791162 
v -5.778712 2.408332 7.791162 
v -5.378713 2.801576 7.717934 
v -5.778712 2.801576 7.717934 
v -4.730624 1.653242 7.931774 
v -5.230623 1.653242 7.931774 
v -4.730624 2.144794 7.840239 
v -5.230623 2.144794 7.840239 
v -5.748631 0.7262171 8.104406 
v -6.448629 0.7262171 8.104406 
v -5.748631 1.414382 7.976257 
v -6.448629 1.414382 7.976257 
v -3.499559 0.3872387 8.920228 
v -3.899558 0.3872387 8.920228 
v -3.499559 0.7667104 8.793737 
v -3.899558 0.7667104 8.793737 
v -3.76228 3.050177 5.903807 
v -3.634131 2.362011 5.903807 
v -3.76228 3.050177 6.603814 
v -3.634131 2.362011 6.603814 
v -3.897329 3.77539 4.995285 
v -3.787487 3.185532 4.995285 
v -3.897329 3.77539 5.595284 
v -3.787487 3.185532 5.595284 
v -2.346571 1.282081 3.874233 
v -2.079315 0.74489 3.874233 
v -2.346571 1.282081 4.47424 
v -2.079315 0.74489 4.47424 

vn 0.9686275 0.2392157 -0.06735503
vn -0.003921539 0.9999924 0
vn -0.003921569 0.1843137 -0.9828596
vn -0.003921569 0.3176471 -0.9482009
vn -0.003921569 0.3176471 0.9482009
vn -0.8967644 0.4425082 0
vn 0.945098 0.3176471 -0.07674666
vn -0.945098 0.3176471 -0.07674666
vn -0.9829164 0.1840521 0
vn -0.003921569 0.2392157 -0.9709585
vn -0.003921569 0.4431373 -0.8964452
vn -0.9686275 0.2392157 -0.06735503
vn -0.003921569 0.2392157 0.9709585
vn -0.003921569 0.4431373 0.8964452
vn 0.8967644 0.4425082 0
vn -0.003921569 0.1843137 0.9828596
vn 0.9829164 0.1840521 0
vn 0.1840521 0.9829164 0
vn -0.003921569 0.003921569 -0.9999846
vn -0.1840521 -0.9829164 0
vn -0.003921569 0.003921569 0.9999846
vn 0.2392157 0.9686275 -0.06735494
vn -0.2392157 -0.9686275 -0.06735494
vn -0.9999924 0.003921539 0
vn -0.003921569 0.9686275 0.2484863
vn 0.9999924 0.003921539 0
vn -0.003921569 -0.9686275 -0.2484863
vn -0.003921569 -0.9843137 0.1763835
vn -0.003921569 0.9843137 -0.1763835
vn -0.003921569 0.945098 -0.3267634
vn -0.003921569 -0.945098 0.3267634
vn -0.1840521 0.9829164 0
vn 0.1840521 -0.9829164 0
vn 0.4425082 -0.8967644 0
vn -0.4425082 0.8967644 0

vt -12.95166 11.23715
vt -16.79002 11.23715
vt -14.07528 15.89175
vt -17.63117 15.89175
vt 7.642901 6.957979
vt 7.642901 11.0922
vt 11.77712 6.957979
vt 10.10327 9.590685
vt 10.10327 11.0922
vt 11.77712 9.590685
vt 27.38426 14.03216
vt 21.65147 14.03216
vt 26.30013 19.95403
vt 16.908 19.95403
vt 20.52785 9.437567
vt 14.98273 9.437567
vt 13.1552 1.764527
vt 6.264827 1.764527
vt 11.77712 6.122376
vt 7.642901 6.122376
vt -18.22996 -10.8726
vt -13.77778 -9.659285
vt -11.3396 -10.8726
vt -12.71767 -6.514762
vt -13.77778 -8.084477
vt -15.35259 -9.659285
vt -16.85189 -6.514762
vt -15.35259 -8.084477
vt 7.533859 -10.75665
vt 10.75434 -3.526613
vt 11.34142 -10.75665
vt 12.95166 -3.526613
vt -5.579914 1.981112
vt -12.47027 1.981112
vt -6.957979 6.338962
vt -11.0922 6.338962
vt 21.65147 17.63117
vt 27.38426 17.63117
vt 21.65147 14.07528
vt 29.85304 14.07528
vt 27.38426 22.27685
vt 29.85304 22.27685
vt 12.71767 28.86992
vt 12.71767 33.00413
vt 14.54716 28.86992
vt 14.54716 30.46826
vt 16.8519 33.00413
vt 16.8519 30.46826
vt 13.7773 8.693683
vt 11.33961 8.693683
vt 14.54716 13.05153
vt 12.71767 13.05153
vt 16.908 28.10743
vt 20.64419 24.13232
vt 16.908 18.7153
vt 26.30013 18.7153
vt 23.00639 24.13232
vt 23.00639 26.49452
vt 20.64419 26.49452
vt 26.30013 28.10743
vt -27.49184 3.585894
vt -34.38221 3.585894
vt -28.86991 7.943744
vt -33.00413 7.943744
vt 30.46826 -1.406974
vt 33.00413 -1.406974
vt 31.23813 -5.764823
vt 34.3822 -5.764823
vt -6.264827 -3.943448
vt -8.046439 -3.943448
vt -7.642901 0.4144019
vt -10.10326 0.4144019
vt 22.27685 5.791064
vt 24.03188 5.128047
vt 25.01071 -5.387979
vt 26.39409 5.128047
vt 31.23813 -5.387979
vt 26.39409 7.490252
vt 28.10743 11.71294
vt 18.7153 11.71294
vt 17.63117 5.791064
vt 24.03188 7.490252
vt 24.14887 2.737816
vt 28.46253 8.769584
vt 32.58689 2.737816
vt 29.85304 14.06285
vt 28.46253 11.13178
vt 26.10033 8.769584
vt 20.92838 9.408261
vt 26.10033 11.13178
vt 20.52785 9.408261
vt 21.65147 14.06285
vt 24.14887 3.355812
vt 13.1552 3.355812
vt 20.92838 10.58585
vt 11.77712 7.973418
vt 10.10327 7.973418
vt 11.26693 10.58585
vt 5.579914 -4.160041
vt 6.957979 0.1978085
vt 7.533859 -4.160041
vt 9.590685 0.1978085
vt 14.07528 3.458583
vt 17.59113 -6.01722
vt 11.34142 -7.866461
vt 25.01071 -7.866461
vt 19.95333 -6.01722
vt 19.95333 -3.655022
vt 19.96868 -2.233877
vt 21.54348 -2.233877
vt 21.54348 -0.6590785
vt 22.27685 3.458583
vt 17.59113 -3.655022
vt 19.96868 -0.6590785
vt -29.43083 -6.037575
vt -32.58689 -6.037575
vt -27.38426 5.287469
vt -29.85304 5.287469
vt 11.26693 20.41579
vt 15.89578 11.86698
vt 11.26693 10.75434
vt 20.92838 10.75434
vt 14.98273 16.79003
vt 14.98273 20.41579
vt 18.65168 11.86698
vt 18.65168 14.62289
vt 20.52785 12.95166
vt 20.92838 12.95166
vt 15.89578 14.62289
vt 20.52785 16.79003
vt -8.046439 -10.52833
vt -13.7773 -10.52833
vt -11.26692 -3.298289
vt -14.98273 -3.298289
vt -9.590676 8.201742
vt -11.0922 8.201742
vt -10.75433 10.81418
vt -20.41579 10.81418
vt -15.2529 8.634259
vt -12.47027 3.584136
vt -17.61511 8.634259
vt -17.61511 6.272053
vt -15.2529 6.272053
vt -23.63627 3.584136
vt -18.22996 -5.718847
vt -29.43083 -5.718847
vt -16.85189 -1.513554
vt -22.63239 -3.03052
vt -22.63239 -0.2746143
vt -14.54716 -1.513554
vt -18.6245 0.6819368
vt -16.908 11.38208
vt -18.6245 2.650443
vt -21.17602 3.705838
vt -21.17602 5.280645
vt -22.75083 5.280645
vt -25.3883 -3.03052
vt -26.30013 11.38208
vt -25.3883 -0.2746143
vt -22.75083 3.705838
vt -20.59301 0.6819368
vt -20.59301 2.650443
vt -18.7153 19.62317
vt -19.66648 17.42156
vt -28.10743 19.62317
vt -22.02869 17.42156
vt -22.02869 15.05936
vt -23.24335 14.51731
vt -25.99926 14.51731
vt -25.99926 11.76142
vt -27.49184 2.522244
vt -28.86991 6.727537
vt -30.46826 6.727537
vt -19.66648 15.05936
vt -20.41579 9.106707
vt -16.79002 9.106707
vt -23.63627 2.522244
vt -23.24335 11.76142
vt -24.03188 28.93344
vt -26.39409 28.93344
vt -24.03188 30.11454
vt -26.39409 30.11454
vt 27.50564 10.33829
vt 27.07318 12.66058
vt 28.66678 10.55453
vt 28.23433 12.8768
vt 26.39409 28.93344
vt 24.03188 28.93344
vt 26.39409 30.11454
vt 24.03188 30.11454
vt -27.50564 10.33829
vt -28.66678 10.55453
vt -27.07318 12.66058
vt -28.23433 12.8768
vt -31.22719 5.466007
vt -32.37337 5.751117
vt -30.84704 6.994235
vt -31.99321 7.279353
vt -19.96868 31.62317
vt -21.54349 31.62317
vt -19.96868 32.80428
vt -21.54349 32.80428
vt 31.22719 5.466007
vt 30.84704 6.994235
vt 32.37337 5.751117
vt 31.99321 7.279353
vt 21.54348 31.62317
vt 19.96868 31.62317
vt 21.54348 32.80428
vt 19.96868 32.80428
vt 19.95333 31.62317
vt 17.59113 31.62317
vt 19.95333 32.80428
vt 17.59113 32.80428
vt -32.14049 1.794553
vt -33.28666 2.079671
vt -31.57026 4.086895
vt -32.71643 4.372013
vt -17.59113 31.62317
vt -19.95333 31.62317
vt -17.59113 32.80428
vt -19.95333 32.80428
vt 32.14049 1.794553
vt 31.57025 4.086895
vt 33.28666 2.079671
vt 32.71643 4.372013
vt 11.65131 6.138503
vt 12.22155 8.430844
vt 12.79749 5.853385
vt 13.36772 8.145726
vt -26.10033 -9.824903
vt -26.10033 -11.006
vt -28.46253 -9.824903
vt -28.46253 -11.006
vt -11.65131 6.138503
vt -12.79748 5.853385
vt -12.22155 8.430844
vt -13.36771 8.145726
vt 26.10033 -11.006
vt 26.10033 -9.824903
vt 28.46253 -11.006
vt 28.46253 -9.824903
vt -15.89577 6.473173
vt -18.65168 6.473173
vt -15.89577 7.65428
vt -18.65168 7.65428
vt -11.86697 7.65428
vt -11.86697 6.473173
vt -14.62288 7.65428
vt -14.62288 6.473173
vt 18.65168 6.473173
vt 15.89578 6.473173
vt 18.65168 7.65428
vt 15.89578 7.65428
vt 11.86698 6.473173
vt 11.86698 7.65428
vt 14.62289 6.473173
vt 14.62289 7.65428
vt 24.13232 16.81191
vt 24.13232 17.99301
vt 26.49452 16.81191
vt 26.49452 17.99301
vt -20.64419 16.81191
vt -23.00639 16.81191
vt -20.64419 17.99301
vt -23.00639 17.99301
vt -24.13233 17.99301
vt -24.13233 16.81191
vt -26.49452 17.99301
vt -26.49452 16.81191
vt 23.00639 16.81191
vt 20.64419 16.81191
vt 23.00639 17.99301
vt 20.64419 17.99301
vt -21.17602 31.89129
vt -21.17602 30.71018
vt -22.75083 31.89129
vt -22.75083 30.71018
vt -29.22443 10.81359
vt -29.51273 9.265401
vt -30.38557 11.02981
vt -30.67388 9.481626
vt 21.17602 30.71018
vt 21.17602 31.89129
vt 22.75083 30.71018
vt 22.75083 31.89129
vt 29.22443 10.81359
vt 30.38557 11.02981
vt 29.51274 9.265401
vt 30.67387 9.481626
vt -18.6245 31.89129
vt -18.6245 30.71018
vt -20.59301 31.89129
vt -20.59301 30.71018
vt -29.70595 8.22784
vt -30.06632 6.2926
vt -30.86708 8.444066
vt -31.22747 6.508825
vt 18.6245 30.71018
vt 18.6245 31.89129
vt 20.59301 30.71018
vt 20.59301 31.89129
vt 29.70595 8.22784
vt 30.86709 8.444066
vt 30.06632 6.2926
vt 31.22747 6.508825
vt -22.63239 31.89129
vt -22.63239 30.71018
vt -25.3883 31.89129
vt -25.3883 30.71018
vt -30.24144 5.352218
vt -30.74598 2.642891
vt -31.40259 5.568442
vt -31.90711 2.859116
vt 22.6324 30.71018
vt 22.6324 31.89129
vt 25.38831 30.71018
vt 25.38831 31.89129
vt 30.24144 5.352218
vt 31.40258 5.568442
vt 30.74598 2.642891
vt 31.90711 2.859116
vt 13.77778 32.61782
vt 13.77778 33.79892
vt 15.35259 32.61782
vt 15.35259 33.79892
vt 33.50052 2.645051
vt 34.62101 3.018547
vt 33.99852 1.151061
vt 35.11901 1.524565
vt -13.77778 33.79892
vt -13.77778 32.61782
vt -15.35259 33.79892
vt -15.35259 32.61782
vt -33.50052 2.645051
vt -33.99851 1.151061
vt -34.62101 3.018547
vt -35.11901 1.524565
vt 23.24335 -12.36334
vt 25.99926 -12.36334
vt 23.24335 -13.54445
vt 25.99926 -13.54445
vt -15.46873 9.083019
vt -15.97326 11.79235
vt -14.30759 9.299245
vt -14.81212 12.00857
vt -25.99926 -12.36334
vt -23.24335 -12.36334
vt -25.99926 -13.54445
vt -23.24335 -13.54445
vt 15.46873 9.083019
vt 14.30759 9.299245
vt 15.97327 11.79235
vt 14.81212 12.00857
vt -16.07249 12.32523
vt -16.50495 14.64751
vt -14.91136 12.54146
vt -15.34381 14.86374
vt -22.02869 -12.36334
vt -19.66648 -12.36334
vt -22.02869 -13.54445
vt -19.66648 -13.54445
vt 16.07249 12.32523
vt 14.91136 12.54146
vt 16.50495 14.64751
vt 15.34381 14.86374
vt 19.66648 -12.36334
vt 22.02869 -12.36334
vt 19.66648 -13.54445
vt 22.02869 -13.54445
vt -9.243723 2.406537
vt -10.29592 4.521454
vt -8.186269 2.932631
vt -9.238464 5.047556
vt -17.61511 -6.023005
vt -15.2529 -6.023005
vt -17.61511 -7.204113
vt -15.2529 -7.204113
vt 9.243723 2.406537
vt 8.186269 2.932631
vt 10.29593 4.521454
vt 9.238464 5.047556
vt 15.2529 -6.023005
vt 17.61511 -6.023005
vt 15.2529 -7.204113
vt 17.61511 -7.204113

usemtl rock
usemap rock

f 2/2/1 1/1/1 3/3/1
f 3/3/1 4/4/1 2/2/1
f 6/6/2 5/5/2 7/7/2
f 7/7/2 8/8/2 6/6/2
f 8/8/2 9/9/2 6/6/2
f 7/7/2 10/10/2 8/8/2
f 4/12/3 11/11/3 12/13/3
f 4/12/3 12/13/3 13/14/3
f 2/15/3 4/12/3 13/14/3
f 13/14/3 14/16/3 2/15/3
f 16/18/4 15/17/4 7/19/4
f 7/19/4 5/20/4 16/18/4
f 18/22/5 17/21/5 19/23/5
f 19/23/5 20/24/5 18/22/5
f 20/24/5 21/25/5 18/22/5
f 17/21/5 18/22/5 22/26/5
f 22/26/5 23/27/5 17/21/5
f 21/25/5 20/24/5 23/27/5
f 22/26/5 24/28/5 23/27/5
f 24/28/5 21/25/5 23/27/5
f 26/30/6 25/29/6 27/31/6
f 27/31/6 28/32/6 26/30/6
f 29/34/7 16/33/7 5/35/7
f 5/35/7 6/36/7 29/34/7
f 11/38/2 4/37/2 3/39/2
f 3/39/2 30/40/2 11/38/2
f 30/40/2 31/41/2 11/38/2
f 30/40/2 32/42/2 31/41/2
f 20/44/2 33/43/2 34/45/2
f 34/45/2 35/46/2 20/44/2
f 35/46/2 23/47/2 20/44/2
f 35/46/2 36/48/2 23/47/2
f 38/50/4 37/49/4 34/51/4
f 34/51/4 33/52/4 38/50/4
f 40/54/2 39/53/2 13/55/2
f 13/55/2 12/56/2 40/54/2
f 12/56/2 41/57/2 40/54/2
f 12/56/2 42/58/2 41/57/2
f 39/53/2 40/54/2 43/59/2
f 43/59/2 44/60/2 39/53/2
f 43/59/2 42/58/2 44/60/2
f 42/58/2 12/56/2 44/60/2
f 19/62/7 38/61/7 33/63/7
f 33/63/7 20/64/7 19/62/7
f 23/66/8 36/65/8 45/67/8
f 45/67/8 17/68/8 23/66/8
f 46/70/5 29/69/5 6/71/5
f 6/71/5 9/72/5 46/70/5
f 47/74/9 31/73/9 48/75/9
f 48/75/9 49/76/9 47/74/9
f 48/75/9 50/77/9 49/76/9
f 50/77/9 51/78/9 49/76/9
f 50/77/9 44/79/9 51/78/9
f 31/73/9 44/79/9 12/80/9
f 12/80/9 11/81/9 31/73/9
f 31/73/9 52/82/9 44/79/9
f 31/73/9 47/74/9 52/82/9
f 52/82/9 51/78/9 44/79/9
f 53/84/10 27/83/10 54/85/10
f 54/85/10 30/86/10 53/84/10
f 30/86/10 55/87/10 53/84/10
f 27/83/10 53/84/10 56/88/10
f 56/88/10 28/89/10 27/83/10
f 56/88/10 57/90/10 28/89/10
f 57/90/10 1/91/10 28/89/10
f 57/90/10 3/92/10 1/91/10
f 57/90/10 55/87/10 3/92/10
f 55/87/10 30/86/10 3/92/10
f 58/94/11 25/93/11 26/95/11
f 26/95/11 10/96/11 58/94/11
f 26/95/11 8/97/11 10/96/11
f 26/95/11 59/98/11 8/97/11
f 7/100/8 15/99/8 58/101/8
f 58/101/8 10/102/8 7/100/8
f 60/104/12 30/103/12 54/105/12
f 54/105/12 61/106/12 60/104/12
f 61/106/12 62/107/12 60/104/12
f 61/106/12 63/108/12 62/107/12
f 61/106/12 64/109/12 63/108/12
f 61/106/12 65/110/12 64/109/12
f 61/106/12 66/111/12 65/110/12
f 61/106/12 32/112/12 66/111/12
f 67/113/12 32/112/12 30/103/12
f 30/103/12 60/104/12 67/113/12
f 67/113/12 68/114/12 32/112/12
f 67/113/12 63/108/12 68/114/12
f 63/108/12 64/109/12 68/114/12
f 68/114/12 66/111/12 32/112/12
f 61/116/13 48/115/13 31/117/13
f 31/117/13 32/118/13 61/116/13
f 70/120/2 69/119/2 59/121/2
f 59/121/2 26/122/2 70/120/2
f 70/120/2 14/123/2 69/119/2
f 14/123/2 71/124/2 69/119/2
f 26/122/2 72/125/2 70/120/2
f 26/122/2 73/126/2 72/125/2
f 26/122/2 1/127/2 73/126/2
f 26/122/2 28/128/2 1/127/2
f 14/123/2 70/120/2 74/129/2
f 74/129/2 2/130/2 14/123/2
f 74/129/2 73/126/2 2/130/2
f 73/126/2 1/127/2 2/130/2
f 76/132/14 75/131/14 69/133/14
f 69/133/14 71/134/14 76/132/14
f 9/136/15 8/135/15 59/137/15
f 59/137/15 69/138/15 9/136/15
f 69/138/15 77/139/15 9/136/15
f 77/139/15 46/140/15 9/136/15
f 69/138/15 78/141/15 77/139/15
f 69/138/15 79/142/15 78/141/15
f 46/140/15 77/139/15 80/143/15
f 80/143/15 75/144/15 46/140/15
f 80/143/15 79/142/15 75/144/15
f 79/142/15 69/138/15 75/144/15
f 50/146/16 45/145/16 36/147/16
f 36/147/16 81/148/16 50/146/16
f 36/147/16 82/149/16 81/148/16
f 36/147/16 35/150/16 82/149/16
f 35/150/16 83/151/16 82/149/16
f 35/150/16 39/152/16 83/151/16
f 39/152/16 84/153/16 83/151/16
f 39/152/16 85/154/16 84/153/16
f 39/152/16 86/155/16 85/154/16
f 39/152/16 87/156/16 86/155/16
f 50/146/16 81/148/16 88/157/16
f 88/157/16 44/158/16 50/146/16
f 87/156/16 39/152/16 44/158/16
f 88/157/16 89/159/16 44/158/16
f 89/159/16 82/149/16 44/158/16
f 82/149/16 90/160/16 44/158/16
f 84/153/16 85/154/16 90/160/16
f 90/160/16 87/156/16 44/158/16
f 82/149/16 91/161/16 90/160/16
f 82/149/16 83/151/16 91/161/16
f 91/161/16 92/162/16 90/160/16
f 92/162/16 84/153/16 90/160/16
f 93/164/17 13/163/17 39/165/17
f 39/165/17 94/166/17 93/164/17
f 39/165/17 95/167/17 94/166/17
f 39/165/17 96/168/17 95/167/17
f 39/165/17 97/169/17 96/168/17
f 39/165/17 98/170/17 97/169/17
f 39/165/17 37/171/17 98/170/17
f 39/165/17 34/172/17 37/171/17
f 39/165/17 35/173/17 34/172/17
f 13/163/17 93/164/17 99/174/17
f 13/163/17 99/174/17 71/175/17
f 99/174/17 95/167/17 71/175/17
f 71/175/17 14/176/17 13/163/17
f 95/167/17 76/177/17 71/175/17
f 98/170/17 37/171/17 76/177/17
f 95/167/17 100/178/17 76/177/17
f 95/167/17 96/168/17 100/178/17
f 100/178/17 98/170/17 76/177/17

usemtl _defaultMat
usemap _defaultMat

f 48/133/2 27/134/2 54/132/2
f 54/133/2 61/134/2 48/132/2
f 29/133/2 16/134/2 15/132/2
f 15/133/2 46/134/2 29/132/2
f 15/133/2 75/134/2 46/132/2
f 15/133/2 58/134/2 75/132/2
f 58/133/2 76/134/2 75/132/2
f 58/133/2 25/134/2 76/132/2
f 25/133/2 37/134/2 76/132/2
f 25/133/2 45/134/2 37/132/2
f 25/133/2 27/134/2 45/132/2
f 27/133/2 50/134/2 45/132/2
f 27/133/2 48/134/2 50/132/2
f 19/133/2 38/134/2 37/132/2
f 37/133/2 17/134/2 19/132/2
f 37/133/2 45/134/2 17/132/2

usemtl alienPlant
usemap alienPlant

f 102/82/9 101/74/9 103/76/9
f 103/76/9 104/78/9 102/82/9
f 51/180/18 52/179/18 102/181/18
f 102/181/18 104/182/18 51/180/18
f 52/184/19 47/183/19 101/185/19
f 101/185/19 102/186/19 52/184/19
f 47/188/20 49/187/20 103/189/20
f 103/189/20 101/190/20 47/188/20
f 103/192/21 49/191/21 51/193/21
f 51/193/21 104/194/21 103/192/21
f 106/114/12 105/109/12 107/110/12
f 107/110/12 108/111/12 106/114/12
f 107/196/21 65/195/21 66/197/21
f 66/197/21 108/198/21 107/196/21
f 66/200/22 68/199/22 106/201/22
f 106/201/22 108/202/22 66/200/22
f 68/204/19 64/203/19 105/205/19
f 105/205/19 106/206/19 68/204/19
f 64/208/23 65/207/23 107/209/23
f 107/209/23 105/210/23 64/208/23
f 110/113/12 109/104/12 111/107/12
f 111/107/12 112/108/12 110/113/12
f 60/212/23 62/211/23 111/213/23
f 111/213/23 109/214/23 60/212/23
f 111/216/21 62/215/21 63/217/21
f 63/217/21 112/218/21 111/216/21
f 63/220/22 67/219/22 110/221/22
f 110/221/22 112/222/22 63/220/22
f 67/224/19 60/223/19 109/225/19
f 109/225/19 110/226/19 67/224/19
f 114/88/10 113/84/10 115/87/10
f 115/87/10 116/90/10 114/88/10
f 115/228/24 113/227/24 53/229/24
f 53/229/24 55/230/24 115/228/24
f 57/232/25 116/231/25 115/233/25
f 115/233/25 55/234/25 57/232/25
f 56/236/26 114/235/26 116/237/26
f 116/237/26 57/238/26 56/236/26
f 114/240/27 56/239/27 53/241/27
f 53/241/27 113/242/27 114/240/27
f 118/129/2 117/120/2 119/125/2
f 119/125/2 120/126/2 118/129/2
f 73/244/21 74/243/21 118/245/21
f 118/245/21 120/246/21 73/244/21
f 70/248/26 117/247/26 118/249/26
f 118/249/26 74/250/26 70/248/26
f 70/252/19 72/251/19 119/253/19
f 119/253/19 117/254/19 70/252/19
f 119/256/24 72/255/24 73/257/24
f 73/257/24 120/258/24 119/256/24
f 122/59/2 121/54/2 123/57/2
f 123/57/2 124/58/2 122/59/2
f 123/260/24 41/259/24 42/261/24
f 42/261/24 124/262/24 123/260/24
f 42/264/21 43/263/21 122/265/21
f 122/265/21 124/266/21 42/264/21
f 40/268/26 121/267/26 122/269/26
f 122/269/26 43/270/26 40/268/26
f 40/272/19 41/271/19 123/273/19
f 123/273/19 121/274/19 40/272/19
f 126/160/16 125/154/16 127/155/16
f 127/155/16 128/156/16 126/160/16
f 85/276/28 125/275/28 126/277/28
f 126/277/28 90/278/28 85/276/28
f 85/280/26 86/279/26 127/281/26
f 127/281/26 125/282/26 85/280/26
f 127/284/29 86/283/29 87/285/29
f 87/285/29 128/286/29 127/284/29
f 128/288/24 87/287/24 90/289/24
f 90/289/24 126/290/24 128/288/24
f 130/161/16 129/151/16 131/153/16
f 131/153/16 132/162/16 130/161/16
f 83/292/28 129/291/28 130/293/28
f 130/293/28 91/294/28 83/292/28
f 83/296/26 84/295/26 131/297/26
f 131/297/26 129/298/26 83/296/26
f 131/300/29 84/299/29 92/301/29
f 92/301/29 132/302/29 131/300/29
f 132/304/24 92/303/24 91/305/24
f 91/305/24 130/306/24 132/304/24
f 134/157/16 133/148/16 135/149/16
f 135/149/16 136/159/16 134/157/16
f 81/308/28 133/307/28 134/309/28
f 134/309/28 88/310/28 81/308/28
f 81/312/26 82/311/26 135/313/26
f 135/313/26 133/314/26 81/312/26
f 135/316/29 82/315/29 89/317/29
f 89/317/29 136/318/29 135/316/29
f 136/320/24 89/319/24 88/321/24
f 88/321/24 134/322/24 136/320/24
f 138/26/5 137/22/5 139/25/5
f 139/25/5 140/28/5 138/26/5
f 139/324/30 21/323/30 24/325/30
f 24/325/30 140/326/30 139/324/30
f 140/328/24 24/327/24 22/329/24
f 22/329/24 138/330/24 140/328/24
f 18/332/31 137/331/31 138/333/31
f 138/333/31 22/334/31 18/332/31
f 18/336/26 21/335/26 139/337/26
f 139/337/26 137/338/26 18/336/26
f 142/178/17 141/168/17 143/169/17
f 143/169/17 144/170/17 142/178/17
f 143/340/32 141/339/32 96/341/32
f 96/341/32 97/342/32 143/340/32
f 97/344/21 98/343/21 144/345/21
f 144/345/21 143/346/21 97/344/21
f 142/348/33 144/347/33 98/349/33
f 98/349/33 100/350/33 142/348/33
f 142/352/19 100/351/19 96/353/19
f 96/353/19 141/354/19 142/352/19
f 146/174/17 145/164/17 147/166/17
f 147/166/17 148/167/17 146/174/17
f 94/356/21 95/355/21 148/357/21
f 148/357/21 147/358/21 94/356/21
f 146/360/33 148/359/33 95/361/33
f 95/361/33 99/362/33 146/360/33
f 146/364/19 99/363/19 93/365/19
f 93/365/19 145/366/19 146/364/19
f 147/368/32 145/367/32 93/369/32
f 93/369/32 94/370/32 147/368/32
f 150/143/15 149/139/15 151/141/15
f 151/141/15 152/142/15 150/143/15
f 78/372/21 79/371/21 152/373/21
f 152/373/21 151/374/21 78/372/21
f 150/376/34 152/375/34 79/377/34
f 79/377/34 80/378/34 150/376/34
f 150/380/19 80/379/19 77/381/19
f 77/381/19 149/382/19 150/380/19
f 151/384/35 149/383/35 77/385/35
f 77/385/35 78/386/35 151/384/35
