# Made using Asset Forge (www.assetforge.io) version 1.0 

mtllib satelliteDishLarge.mtl 

g satelliteDishLarge

v 2.100006 4.300023 -1.343501 
v 1.049998 5.586014 -0.05752432 
v 5.46 4.724294 -1.767771 
v 2.730002 8.067838 1.575787 
v -1.050004 5.586014 -0.05752432 
v -2.729994 8.067838 1.575787 
v -5.460006 4.724294 -1.767771 
v -2.099998 4.300023 -1.343501 
v -2.729994 1.380736 -5.111315 
v -1.050004 3.014047 -2.629491 
v 2.730002 1.380736 -5.111315 
v 1.049998 3.014047 -2.629491 
v 0.7883379 0.9000027 -1.043471 
v 0.7883379 0.9000027 -0.5434762 
v -0.78833 0.9000027 -1.043471 
v -0.78833 0.9000027 -0.5434762 
v -0.78833 0.9000027 0.5434822 
v -0.78833 0.9000027 1.143473 
v 0.7883379 0.9000027 1.143473 
v 0.7883379 0.9000027 0.5434822 
v -2.398608 0.9000027 -2.15374 
v 2.398602 0.9000027 -2.15374 
v 2.398602 0.9000027 2.153747 
v -2.398608 0.9000027 2.153747 
v 1.049998 1.670536 -1.28598 
v 2.100006 2.956527 -3.945162E-06 
v 1.575002 2.313531 -0.6429852 
v -1.050004 1.670536 -1.28598 
v -2.099998 2.956527 -3.945162E-06 
v -1.574994 2.313531 -0.6429852 
v 5.46 5.431392 -2.474869 
v 4.606547 5.431392 -2.474869 
v 2.730002 2.087848 -5.818427 
v 3.989382 4.675527 -3.230734 
v 3.717521 4.342569 -3.563706 
v 3.585654 4.181058 -3.725217 
v 3.454915 4.020939 -3.885336 
v 3.324175 3.86082 -4.045455 
v 3.192308 3.699309 -4.206966 
v 2.920433 3.366337 -4.539938 
v 2.303268 2.610472 -5.295803 
v -2.729994 2.087848 -5.818427 
v 1.068953 2.610472 -5.295803 
v 0.5437406 2.610472 -5.295803 
v 0.2706127 2.610472 -5.295803 
v 3.945162E-06 2.610472 -5.295803 
v -0.2614751 2.610472 -5.295803 
v -0.5252087 2.610472 -5.295803 
v -1.068959 2.610472 -5.295803 
v -2.303274 2.610472 -5.295803 
v -2.920439 3.366337 -4.539938 
v -5.460006 5.431392 -2.474869 
v -3.183045 3.687966 -4.218308 
v -3.319602 3.855211 -4.05105 
v -3.454907 4.020939 -3.885336 
v -3.585646 4.181058 -3.725217 
v -3.717513 4.342569 -3.563706 
v -3.989388 4.675527 -3.230734 
v -4.606553 5.431392 -2.474869 
v -3.989388 6.187257 -1.719005 
v -3.717513 6.520229 -1.386032 
v -3.585646 6.68174 -1.224535 
v -3.454907 6.841859 -1.064416 
v -3.319602 7.007573 -0.8986885 
v -3.183045 7.174831 -0.7314438 
v -2.920439 7.496461 -0.409814 
v -2.729994 8.77495 0.8686748 
v -2.303274 8.252326 0.3460508 
v -1.068959 8.252326 0.3460508 
v -0.5252087 8.252326 0.3460508 
v -0.2614751 8.252326 0.3460508 
v 3.945162E-06 8.252326 0.3460508 
v 0.2706127 8.252326 0.3460508 
v 0.5437406 8.252326 0.3460508 
v 1.068953 8.252326 0.3460508 
v 2.303268 8.252326 0.3460508 
v 2.730002 8.77495 0.8686748 
v 2.920433 7.496461 -0.409814 
v 3.192308 7.163489 -0.7427865 
v 3.324175 7.001978 -0.9042832 
v 3.454915 6.841859 -1.064416 
v 3.585654 6.68174 -1.224535 
v 3.717521 6.520229 -1.386032 
v 3.989382 6.187257 -1.719005 
v -2.398608 0.3999944 -2.15374 
v -2.398608 0.3999944 2.153747 
v 1.575002 3.599508 0.6429912 
v 1.049998 4.242503 1.285986 
v 0.7883379 1.200005 -1.043471 
v 0.7883379 1.656522 -0.5434762 
v -0.78833 1.200005 -1.043471 
v -0.78833 1.656522 -0.5434762 
v -1.574994 3.599508 0.6429912 
v -1.050004 4.242503 1.285986 
v 1.716778 4.724294 -1.767771 
v 0.8583838 5.775596 -0.7164687 
v 0.8583838 3.672991 -2.819073 
v -0.8583899 3.672991 -2.819073 
v -0.8583899 5.775596 -0.7164687 
v -1.71677 4.724294 -1.767771 
v 2.398602 0.3999944 -2.15374 
v 2.398602 0.3999944 2.153747 
v 0.7883379 1.399997 1.143473 
v -0.78833 1.399997 1.143473 
v 0.7883379 2.199994 0.5434822 
v -0.78833 2.199994 0.5434822 
v -0.78833 3.499999 0.5434822 
v -0.78833 2.413041 -0.5434762 
v 0.7883379 3.499999 0.5434822 
v 0.7883379 2.413041 -0.5434762 
v -0.2614751 7.392123 -3.733582 
v -0.2614751 6.985528 -3.327 
v -0.2614751 7.722924 0.1702051 
v 0.2706127 7.392123 -3.733582 
v 0.2706127 6.985528 -3.327 
v 0.2706127 7.722924 0.1702051 
v 0.5606363 7.056492 -4.069212 
v 0.2991572 7.376744 -3.74896 
v 3.153785 4.180585 -3.372134 
v 0.5606363 6.619153 -3.693388 
v 0.9548172 6.655046 -4.051133 
v 0.5606363 7.025735 -4.099969 
v 0.2706127 6.690104 -4.4356 
v -0.2614751 6.690104 -4.4356 
v 0.5731897 6.562774 -3.606238 
v 0.2865899 6.211765 -3.957247 
v 0.2865899 6.91377 -3.255242 
v -0.2865959 6.211765 -3.957247 
v -0.2865959 6.91377 -3.255242 
v -0.5731957 6.562774 -3.606238 
v -2.887733 3.854752 -3.697967 
v -1.151642 3.313827 -3.178224 
v -1.727458 4.01906 -2.473004 
v -2.303274 4.724294 -1.767771 
v -3.153791 4.180585 -3.372134 
v 0.2706127 2.786317 -4.766401 
v 0.2706127 6.283523 -4.029005 
v -0.2614751 2.786317 -4.766401 
v -0.2614751 6.283523 -4.029005 
v 2.892306 6.648895 -0.903824 
v 0.2991572 6.970149 -3.342379 
v 3.153785 6.328657 -1.224062 
v 0.5606363 6.649911 -3.662617 
v -0.2945845 7.382339 -3.743365 
v -0.5606284 7.056492 -4.069212 
v -3.153791 6.328657 -1.224062 
v -1.727458 5.429527 -1.062537 
v -1.151642 6.134747 -0.3573039 
v -2.887733 6.65449 -0.8982292 
v 2.892306 3.860347 -3.692372 
v 2.303268 4.724294 -1.767771 
v 1.151636 3.313827 -3.178224 
v 1.727452 4.01906 -2.473004 
v -0.2945845 6.975758 -3.336784 
v 0.2991572 6.298902 -4.013626 
v 0.2991572 6.705482 -4.420221 
v 3.945162E-06 3.313827 -3.178224 
v -0.5606284 6.649911 -3.662617 
v -0.2945845 6.699888 -4.425816 
v -0.5606284 7.025735 -4.099969 
v 1.151636 6.134747 -0.3573039 
v 3.945162E-06 6.134747 -0.3573039 
v -0.2945845 6.293307 -4.019221 
v -0.5606284 6.619153 -3.693388 
v 1.727452 5.429527 -1.062537 
v 3.248451 -3.945162E-06 -3.003603 
v 3.248451 -3.945162E-06 3.003595 
v -3.248457 -3.945162E-06 -3.003603 
v -3.248457 -3.945162E-06 3.003595 
v 3.248451 0.3999944 3.003595 
v 3.248451 0.3999944 -3.003603 
v -3.248457 0.3999944 -3.003603 
v -3.248457 0.3999944 3.003595 
v -0.2865959 6.777449 -4.522931 
v -0.5731957 7.128458 -4.171936 
v 0.2706127 6.777449 -4.522931 
v 0.2865899 6.777449 -4.522931 
v 0.5731897 7.128458 -4.171936 
v 0.2865899 7.479454 -3.820927 
v -0.2865959 7.479454 -3.820927 

vn 0.1764706 -0.6941177 0.6978959
vn 0.09019608 -0.5921569 0.800759
vn -0.09019608 -0.5921569 0.800759
vn -0.1764706 -0.6941177 0.6978959
vn -0.09019608 -0.8039216 0.5878561
vn 0.09019608 -0.8039216 0.5878561
vn -0.003921539 0.9999924 0
vn 0.8666667 -0.3568628 -0.3486227
vn -0.8666667 -0.3568628 -0.3486227
vn -0.003921569 0.7098039 -0.7043884
vn -0.9999924 0.003921539 0
vn 0.8666667 0.3568628 0.3486227
vn -0.003921569 0.7411765 -0.6712988
vn -0.8666667 0.3568628 0.3486227
vn -0.003921569 0.003921569 -0.9999846
vn -0.003921569 0.7098039 0.7043884
vn -0.003921569 -0.7098039 -0.7043884
vn 0.9999924 0.003921539 0
vn -0.003921569 0.003921569 0.9999846
vn -0.003921569 0.6 0.7999904
vn -0.003921569 -0.7098039 0.7043884
vn -0.003921569 0.9764706 -0.215615
vn -0.003921569 -0.9764706 0.215615
vn 0.4745098 0.7882353 -0.3918234
vn 0.4980392 0.6156863 0.610645
vn -0.003921569 0.2078431 -0.9781543
vn 0.3882353 0.7882353 -0.4774499
vn -0.003921569 -0.2078431 0.9781543
vn -0.4980392 0.6156863 0.610645
vn -0.4745098 -0.7882353 0.3918234
vn -0.4745098 0.7882353 -0.3918234
vn 0.3882353 0.4745098 -0.7900087
vn -0.3882353 0.7882353 -0.4774499
vn 0.4980392 -0.6156863 -0.610645
vn -0.4980392 -0.6156863 -0.610645
vn -0.003921569 0.945098 -0.3267634
vn -0.4745098 -0.3960784 0.7861058
vn 0.4745098 0.3960784 -0.7861058
vn -0.4745098 0.3960784 -0.7861058
vn -0.003921569 0.3176471 -0.9482009
vn 0.4745098 -0.3960784 0.7861058
vn -0.3882353 0.4745098 -0.7900087
vn 0.4745098 -0.7882353 0.3918234

vt -1.572633E-06 -1.572633E-06
vt 6.801009 12.15719
vt 6.758943 8.230617
vt 4.534009 16.08375
vt -12.628 27.04214
vt -14.10999 28.7534
vt -12.29169 26.80485
vt -12.6008 27.0657
vt -14.08278 28.77695
vt 1.065426 30.97269
vt -1.029436 30.97269
vt -1.12833 31.45897
vt -6.801001 4.304059
vt -6.758946 8.230617
vt -4.534001 0.37749
vt -3.379468 2.377198
vt -1.572633E-06 0.37749
vt 3.379477 2.377198
vt 4.534009 0.37749
vt 6.801009 4.304059
vt 9.068008 8.230617
vt -6.801001 12.15719
vt -9.068011 8.230617
vt -4.534001 16.08375
vt -3.379468 14.08403
vt -1.572633E-06 16.08375
vt 3.379477 14.08403
vt -16.05946 27.70841
vt -15.69357 27.38198
vt -13.99755 25.32753
vt -14.21157 25.67072
vt -14.35358 29.18573
vt 1.128326 28.30936
vt 1.029445 28.7089
vt 1.128326 31.45897
vt 1.029445 30.97269
vt -1.065429 30.97269
vt -1.065429 31.45897
vt -1.065429 28.7089
vt -1.12833 28.30936
vt -2.256646 8.230617
vt -1.12833 10.18494
vt -1.12833 6.276305
vt -1.065429 6.276305
vt 1.128326 10.18494
vt 1.128326 6.276305
vt 2.256655 8.230617
vt 16.05945 27.70841
vt 15.66636 27.40554
vt 14.35359 29.18573
vt 14.10999 28.7534
vt 12.29169 26.80485
vt 12.628 27.04214
vt 13.99756 25.32753
vt 14.18437 25.69428
vt -15.66636 27.40554
vt -14.18437 25.69428
vt -1.029436 28.7089
vt 1.065426 28.7089

usemtl _defaultMat
usemap _defaultMat

f 2/1/2 1/1/1 3/1/1
f 3/1/1 4/1/2 2/1/2
f 5/1/3 2/1/2 4/1/2
f 4/1/2 6/1/3 5/1/3
f 5/1/3 6/1/3 7/1/4
f 7/1/4 8/1/4 5/1/3
f 8/1/4 7/1/4 9/1/5
f 9/1/5 10/1/5 8/1/4
f 11/1/6 3/1/1 1/1/1
f 1/1/1 12/1/6 11/1/6
f 9/1/5 11/1/6 12/1/6
f 12/1/6 10/1/5 9/1/5
f 14/1/7 13/1/7 15/1/7
f 15/1/7 16/1/7 14/1/7
f 17/1/7 16/1/7 15/1/7
f 15/1/7 18/1/7 17/1/7
f 17/1/7 18/1/7 19/1/7
f 13/1/7 14/1/7 19/1/7
f 19/1/7 20/1/7 17/1/7
f 14/1/7 20/1/7 19/1/7
f 21/1/7 15/1/7 13/1/7
f 22/1/7 21/1/7 13/1/7
f 13/1/7 23/1/7 22/1/7
f 23/1/7 13/1/7 19/1/7
f 19/1/7 24/1/7 23/1/7
f 19/1/7 18/1/7 24/1/7
f 18/1/7 15/1/7 24/1/7
f 15/1/7 21/1/7 24/1/7
f 25/1/8 12/1/8 1/1/8
f 1/1/8 26/1/8 25/1/8
f 26/1/8 27/1/8 25/1/8
f 8/1/9 10/1/9 28/1/9
f 28/1/9 29/1/9 8/1/9
f 28/1/9 30/1/9 29/1/9
f 32/1/10 31/1/10 33/1/10
f 33/1/10 34/1/10 32/1/10
f 33/1/10 35/1/10 34/1/10
f 33/1/10 36/1/10 35/1/10
f 33/1/10 37/1/10 36/1/10
f 33/1/10 38/1/10 37/1/10
f 33/1/10 39/1/10 38/1/10
f 33/1/10 40/1/10 39/1/10
f 33/1/10 41/1/10 40/1/10
f 33/1/10 42/1/10 41/1/10
f 42/1/10 43/1/10 41/1/10
f 42/1/10 44/1/10 43/1/10
f 42/1/10 45/1/10 44/1/10
f 42/1/10 46/1/10 45/1/10
f 42/1/10 47/1/10 46/1/10
f 42/1/10 48/1/10 47/1/10
f 42/1/10 49/1/10 48/1/10
f 42/1/10 50/1/10 49/1/10
f 42/1/10 51/1/10 50/1/10
f 42/1/10 52/1/10 51/1/10
f 52/1/10 53/1/10 51/1/10
f 52/1/10 54/1/10 53/1/10
f 52/1/10 55/1/10 54/1/10
f 52/1/10 56/1/10 55/1/10
f 52/1/10 57/1/10 56/1/10
f 52/1/10 58/1/10 57/1/10
f 52/1/10 59/1/10 58/1/10
f 60/1/10 59/1/10 52/1/10
f 61/1/10 60/1/10 52/1/10
f 62/1/10 61/1/10 52/1/10
f 63/1/10 62/1/10 52/1/10
f 64/1/10 63/1/10 52/1/10
f 65/1/10 64/1/10 52/1/10
f 66/1/10 65/1/10 52/1/10
f 66/1/10 52/1/10 67/1/10
f 68/1/10 66/1/10 67/1/10
f 69/1/10 68/1/10 67/1/10
f 70/1/10 69/1/10 67/1/10
f 71/1/10 70/1/10 67/1/10
f 72/1/10 71/1/10 67/1/10
f 73/1/10 72/1/10 67/1/10
f 74/1/10 73/1/10 67/1/10
f 75/1/10 74/1/10 67/1/10
f 76/1/10 75/1/10 67/1/10
f 76/1/10 67/1/10 77/1/10
f 78/1/10 76/1/10 77/1/10
f 79/1/10 78/1/10 77/1/10
f 80/1/10 79/1/10 77/1/10
f 81/1/10 80/1/10 77/1/10
f 82/1/10 81/1/10 77/1/10
f 83/1/10 82/1/10 77/1/10
f 84/1/10 83/1/10 77/1/10
f 32/1/10 84/1/10 77/1/10
f 77/1/10 31/1/10 32/1/10
f 21/1/11 85/1/11 86/1/11
f 86/1/11 24/1/11 21/1/11
f 26/1/12 1/1/12 2/1/12
f 2/1/12 87/1/12 26/1/12
f 2/1/12 88/1/12 87/1/12
f 90/1/13 89/1/13 91/1/13
f 91/1/13 92/1/13 90/1/13
f 5/1/14 8/1/14 29/1/14
f 29/1/14 93/1/14 5/1/14
f 93/1/14 94/1/14 5/1/14
f 13/1/15 15/1/15 91/1/15
f 91/1/15 89/1/15 13/1/15
f 52/1/9 42/1/9 9/1/9
f 9/1/9 7/1/9 52/1/9
f 96/1/10 95/1/10 97/1/10
f 97/1/10 98/1/10 96/1/10
f 98/1/10 99/1/10 96/1/10
f 98/1/10 100/1/10 99/1/10
f 6/1/16 4/1/16 77/1/16
f 77/1/16 67/1/16 6/1/16
f 25/1/17 28/1/17 10/1/17
f 10/1/17 12/1/17 25/1/17
f 101/1/18 22/1/18 23/1/18
f 23/1/18 102/1/18 101/1/18
f 24/1/19 86/1/19 102/1/19
f 102/1/19 23/1/19 24/1/19
f 104/1/20 103/1/20 105/1/20
f 105/1/20 106/1/20 104/1/20
f 11/1/17 9/1/17 42/1/17
f 42/1/17 33/1/17 11/1/17
f 106/1/11 17/1/11 18/1/11
f 18/1/11 104/1/11 106/1/11
f 17/1/11 106/1/11 107/1/11
f 17/1/11 107/1/11 108/1/11
f 17/1/11 108/1/11 92/1/11
f 16/1/11 17/1/11 92/1/11
f 16/1/11 92/1/11 91/1/11
f 91/1/11 15/1/11 16/1/11
f 22/1/15 101/1/15 85/1/15
f 85/1/15 21/1/15 22/1/15
f 2/1/10 1/1/10 12/1/10
f 12/1/10 10/1/10 2/1/10
f 10/1/10 5/1/10 2/1/10
f 10/1/10 8/1/10 5/1/10
f 11/1/8 33/1/8 31/1/8
f 31/1/8 3/1/8 11/1/8
f 3/1/12 31/1/12 77/1/12
f 77/1/12 4/1/12 3/1/12
f 27/1/21 26/1/21 87/1/21
f 87/1/21 88/1/21 27/1/21
f 88/1/21 25/1/21 27/1/21
f 88/1/21 109/1/21 25/1/21
f 88/1/21 94/1/21 109/1/21
f 94/1/21 107/1/21 109/1/21
f 94/1/21 108/1/21 107/1/21
f 25/1/21 109/1/21 110/1/21
f 110/1/21 109/1/21 107/1/21
f 107/1/21 108/1/21 110/1/21
f 110/1/21 28/1/21 25/1/21
f 110/1/21 108/1/21 28/1/21
f 108/1/21 94/1/21 28/1/21
f 94/1/21 93/1/21 28/1/21
f 93/1/21 30/1/21 28/1/21
f 93/1/21 29/1/21 30/1/21
f 67/1/14 52/1/14 7/1/14
f 7/1/14 6/1/14 67/1/14
f 90/1/15 92/1/15 108/1/15
f 108/1/15 110/1/15 90/1/15
f 90/1/18 110/1/18 109/1/18
f 109/1/18 14/1/18 90/1/18
f 109/1/18 20/1/18 14/1/18
f 109/1/18 105/1/18 20/1/18
f 105/1/18 103/1/18 20/1/18
f 103/1/18 19/1/18 20/1/18
f 90/1/18 14/1/18 13/1/18
f 13/1/18 89/1/18 90/1/18
f 94/1/16 88/1/16 2/1/16
f 2/1/16 5/1/16 94/1/16
f 18/3/19 19/2/19 103/4/19
f 103/3/19 104/2/19 18/4/19
f 106/3/19 105/2/19 109/4/19
f 109/3/19 107/2/19 106/4/19
f 71/3/11 111/2/11 112/4/11
f 112/3/11 113/2/11 71/4/11
f 73/3/22 114/2/22 111/4/22
f 111/3/22 72/2/22 73/4/22
f 111/3/22 71/2/22 72/4/22
f 112/3/23 115/2/23 116/4/23
f 116/3/23 113/2/23 112/4/23
f 81/3/24 82/2/24 117/4/24
f 117/3/24 80/2/24 81/4/24
f 117/3/24 118/2/24 80/4/24
f 120/3/25 119/2/25 36/4/25
f 36/3/25 121/2/25 120/4/25
f 121/3/25 122/2/25 120/4/25
f 123/3/26 45/2/26 46/4/26
f 46/3/26 47/2/26 123/4/26
f 47/3/26 124/2/26 123/4/26
f 126/6/21 125/5/21 127/7/21
f 127/6/21 128/5/21 126/7/21
f 127/6/21 129/5/21 128/7/21
f 129/6/21 130/5/21 128/7/21
f 115/6/18 114/5/18 73/7/18
f 73/6/18 116/5/18 115/7/18
f 131/6/27 50/5/27 51/7/27
f 51/6/27 54/5/27 131/7/27
f 51/6/27 53/5/27 54/7/27
f 133/6/27 132/5/27 50/7/27
f 50/6/27 134/5/27 133/7/27
f 50/6/27 131/5/27 134/7/27
f 131/6/27 135/5/27 134/7/27
f 135/6/27 59/5/27 134/7/27
f 135/6/27 57/5/27 59/7/27
f 135/6/27 56/5/27 57/7/27
f 57/6/27 58/5/27 59/7/27
f 136/9/18 45/8/18 123/7/18
f 123/9/18 137/8/18 136/7/18
f 138/11/28 136/10/28 137/12/28
f 137/11/28 139/10/28 138/12/28
f 141/11/29 140/10/29 80/12/29
f 80/11/29 118/10/29 141/12/29
f 143/11/30 142/10/30 140/12/30
f 140/11/30 141/10/30 143/12/30
f 64/11/31 144/10/31 145/12/31
f 145/11/31 62/10/31 64/12/31
f 62/11/31 63/10/31 64/12/31
f 146/11/32 60/10/32 61/12/32
f 61/11/32 62/10/32 146/12/32
f 147/11/32 134/10/32 59/12/32
f 59/11/32 148/10/32 147/12/32
f 59/11/32 60/10/32 148/12/32
f 146/11/32 149/10/32 148/12/32
f 60/11/32 146/10/32 148/12/32
f 149/11/32 68/10/32 148/12/32
f 149/11/32 66/10/32 68/12/32
f 149/11/32 64/10/32 66/12/32
f 64/11/32 65/10/32 66/12/32
f 150/11/33 38/10/33 39/12/33
f 39/11/33 40/10/33 150/12/33
f 40/11/33 41/10/33 150/12/33
f 151/11/33 32/10/33 34/12/33
f 34/11/33 35/10/33 151/12/33
f 35/11/33 36/10/33 151/12/33
f 119/11/33 150/10/33 151/12/33
f 36/11/33 119/10/33 151/12/33
f 150/11/33 41/10/33 151/12/33
f 41/11/33 152/10/33 151/12/33
f 152/11/33 153/10/33 151/12/33
f 82/11/34 142/10/34 143/12/34
f 143/11/34 117/10/34 82/12/34
f 64/11/25 149/10/25 154/12/25
f 154/11/25 144/10/25 64/12/25
f 38/11/35 150/10/35 155/12/35
f 155/11/35 156/10/35 38/12/35
f 152/11/36 41/10/36 43/12/36
f 43/11/36 157/10/36 152/12/36
f 43/11/36 44/10/36 157/12/36
f 136/11/36 138/10/36 157/12/36
f 44/11/36 136/10/36 157/12/36
f 138/11/36 132/10/36 157/12/36
f 44/11/36 45/10/36 136/12/36
f 138/11/36 47/10/36 132/12/36
f 47/11/36 48/10/36 132/12/36
f 48/11/36 49/10/36 132/12/36
f 49/11/36 50/10/36 132/12/36
f 124/11/11 47/10/11 138/12/11
f 138/11/11 139/10/11 124/12/11
f 158/11/35 146/10/35 62/12/35
f 62/11/35 145/10/35 158/12/35
f 155/11/37 150/10/37 119/12/37
f 119/11/37 120/10/37 155/12/37
f 37/11/38 38/10/38 156/12/38
f 156/11/38 36/10/38 37/12/38
f 156/11/38 121/10/38 36/12/38
f 156/11/38 122/10/38 121/12/38
f 159/11/39 54/10/39 55/12/39
f 55/11/39 56/10/39 159/12/39
f 56/11/39 160/10/39 159/12/39
f 76/11/40 161/10/40 162/12/40
f 162/11/40 116/10/40 76/12/40
f 162/11/40 113/10/40 116/12/40
f 116/11/40 74/10/40 76/12/40
f 116/11/40 73/10/40 74/12/40
f 74/11/40 75/10/40 76/12/40
f 162/11/40 148/10/40 68/12/40
f 68/11/40 113/10/40 162/12/40
f 68/11/40 70/10/40 113/12/40
f 68/11/40 69/10/40 70/12/40
f 113/11/40 70/10/40 71/12/40
f 163/11/34 131/10/34 54/12/34
f 54/11/34 159/10/34 163/12/34
f 135/11/41 131/10/41 163/12/41
f 163/11/41 164/10/41 135/12/41
f 56/11/29 135/10/29 164/12/29
f 164/11/29 160/10/29 56/12/29
f 32/11/42 151/10/42 165/12/42
f 165/11/42 161/10/42 32/12/42
f 161/11/42 84/10/42 32/12/42
f 161/11/42 142/10/42 84/12/42
f 161/11/42 140/10/42 142/12/42
f 161/11/42 76/10/42 140/12/42
f 76/11/42 78/10/42 140/12/42
f 78/11/42 80/10/42 140/12/42
f 78/11/42 79/10/42 80/12/42
f 83/11/42 84/10/42 142/12/42
f 142/11/42 82/10/42 83/12/42
f 158/11/43 154/10/43 149/12/43
f 149/11/43 146/10/43 158/12/43
f 167/11/7 166/10/7 168/12/7
f 168/11/7 169/10/7 167/12/7
f 101/11/7 170/10/7 171/12/7
f 171/11/7 172/10/7 101/12/7
f 172/11/7 85/10/7 101/12/7
f 172/11/7 86/10/7 85/12/7
f 102/11/7 173/10/7 170/12/7
f 170/11/7 101/10/7 102/12/7
f 102/11/7 86/10/7 173/12/7
f 86/11/7 172/10/7 173/12/7
f 166/11/18 171/10/18 170/12/18
f 170/11/18 167/10/18 166/12/18
f 173/11/19 169/10/19 167/12/19
f 167/11/19 170/10/19 173/12/19
f 172/11/11 168/10/11 169/12/11
f 169/11/11 173/10/11 172/12/11
f 171/11/15 166/10/15 168/12/15
f 168/11/15 172/10/15 171/12/15

usemtl metal
usemap metal

f 95/14/10 153/13/10 152/15/10
f 152/15/10 97/16/10 95/14/10
f 152/15/10 157/17/10 97/16/10
f 157/17/10 98/18/10 97/16/10
f 157/17/10 132/19/10 98/18/10
f 132/19/10 100/3/10 98/18/10
f 132/19/10 133/20/10 100/3/10
f 133/20/10 147/2/10 100/3/10
f 133/20/10 134/21/10 147/2/10
f 153/13/10 95/14/10 165/22/10
f 165/22/10 151/23/10 153/13/10
f 95/14/10 161/24/10 165/22/10
f 95/14/10 96/25/10 161/24/10
f 96/25/10 162/26/10 161/24/10
f 96/25/10 99/27/10 162/26/10
f 99/27/10 148/4/10 162/26/10
f 99/27/10 100/3/10 148/4/10
f 100/3/10 147/2/10 148/4/10

usemtl glass
usemap glass

f 159/29/9 174/28/9 128/30/9
f 128/30/9 163/31/9 159/29/9
f 128/30/9 164/5/9 163/31/9
f 128/30/9 130/7/9 164/5/9
f 175/32/9 174/28/9 159/29/9
f 159/29/9 160/6/9 175/32/9
f 160/6/9 130/7/9 175/32/9
f 160/6/9 164/5/9 130/7/9
f 139/34/17 128/33/17 174/35/17
f 174/35/17 124/36/17 139/34/17
f 174/35/17 123/37/17 124/36/17
f 174/35/17 176/38/17 123/37/17
f 128/33/17 139/34/17 137/39/17
f 126/40/17 128/33/17 137/39/17
f 137/39/17 177/12/17 126/40/17
f 137/39/17 123/37/17 177/12/17
f 123/37/17 176/38/17 177/12/17
f 179/42/10 178/41/10 177/43/10
f 177/43/10 176/44/10 179/42/10
f 176/44/10 180/45/10 179/42/10
f 176/44/10 174/46/10 180/45/10
f 174/46/10 175/47/10 180/45/10
f 117/49/12 178/48/12 179/50/12
f 179/50/12 118/51/12 117/49/12
f 179/50/12 127/52/12 118/51/12
f 127/52/12 141/53/12 118/51/12
f 125/54/12 178/48/12 117/49/12
f 141/53/12 127/52/12 125/54/12
f 117/49/12 143/55/12 125/54/12
f 143/55/12 141/53/12 125/54/12
f 156/49/8 177/48/8 178/50/8
f 178/50/8 122/51/8 156/49/8
f 178/50/8 125/52/8 122/51/8
f 125/52/8 120/53/8 122/51/8
f 126/54/8 177/48/8 156/49/8
f 120/53/8 125/52/8 126/54/8
f 156/49/8 155/55/8 126/54/8
f 155/55/8 120/53/8 126/54/8
f 145/56/14 175/28/14 130/30/14
f 130/30/14 158/57/14 145/56/14
f 130/30/14 154/8/14 158/57/14
f 130/30/14 129/7/14 154/8/14
f 180/32/14 175/28/14 145/56/14
f 145/56/14 144/9/14 180/32/14
f 144/9/14 129/7/14 180/32/14
f 144/9/14 154/8/14 129/7/14
f 115/59/16 112/58/16 127/33/16
f 127/33/16 179/35/16 115/59/16
f 179/35/16 114/10/16 115/59/16
f 179/35/16 180/12/16 114/10/16
f 112/58/16 180/12/16 129/40/16
f 129/40/16 127/33/16 112/58/16
f 112/58/16 111/11/16 180/12/16
f 111/11/16 114/10/16 180/12/16
