# Made using Asset Forge (www.assetforge.io) version 1.0 

mtllib satelliteDish.mtl 

g satelliteDish

v 0.6193969 0.7071323 0.4270141 
v 0.6193969 0.7071323 0.8984267 
v -0.619391 0.7071323 0.4270141 
v -0.619391 0.7071323 0.8984267 
v 4.289922 4.267445 -1.944505 
v 3.619364 4.267445 -1.944505 
v 2.144963 1.640422 -4.571538 
v 1.809678 2.051048 -4.160913 
v -2.144957 1.640422 -4.571538 
v -1.809683 2.051048 -4.160913 
v -3.619369 4.267445 -1.944505 
v -4.289927 4.267445 -1.944505 
v 2.144963 6.894479 0.6825179 
v 1.809678 6.483853 0.2718922 
v -2.144957 6.894479 0.6825179 
v -1.809683 6.483853 0.2718922 
v 0.6193969 1.099978 0.8984267 
v -0.619391 1.099978 0.8984267 
v 0.6193969 0.9428441 -0.8198547 
v 0.6193969 1.301529 -0.4270091 
v -0.619391 0.9428441 -0.8198547 
v -0.619391 1.301529 -0.4270091 
v -0.619391 0.7071323 -0.8198547 
v 0.6193969 0.7071323 -0.8198547 
v 0.6193969 1.728535 0.4270141 
v -0.619391 1.728535 0.4270141 
v 0.6193969 0.7071323 -0.4270091 
v -0.619391 0.7071323 -0.4270091 
v -0.619391 2.749949 0.4270141 
v -0.619391 1.895926 -0.4270091 
v -1.884587 -2.966097E-06 -1.692194 
v -1.884587 0.7071323 -1.692194 
v -1.884587 -2.966097E-06 1.692199 
v -1.884587 0.7071323 1.692199 
v 0.8249832 2.368137 -2.065991 
v 0.8249832 1.312541 -1.010395 
v 1.649974 3.378529 -1.055588 
v 1.649974 2.322943 -2.966097E-06 
v 1.237479 1.817742 -0.5051934 
v -0.8249882 2.368137 -2.065991 
v -2.144957 1.084844 -4.01596 
v -1.649969 3.378529 -1.055588 
v -4.289927 3.711878 -1.388937 
v 1.884582 -2.966097E-06 -1.692194 
v 1.884582 -2.966097E-06 1.692199 
v 1.237479 2.828133 0.5051983 
v 0.8249832 3.333335 1.0104 
v 0.6193969 2.749949 0.4270141 
v -0.8249882 3.333335 1.0104 
v 0.6193969 1.895926 -0.4270091 
v -0.8249882 1.312541 -1.010395 
v -1.237473 2.828133 0.5051983 
v -1.237473 1.817742 -0.5051934 
v -1.649969 2.322943 -2.966097E-06 
v 1.884582 0.7071323 -1.692194 
v 2.144963 6.338901 1.238096 
v -2.144957 6.338901 1.238096 
v 0.8249832 4.388931 -0.04519673 
v -0.8249882 4.388931 -0.04519673 
v 1.884582 0.7071323 1.692199 
v -0.9048455 4.820071 -0.2807335 
v 0.9048405 4.820071 -0.2807335 
v 4.289922 3.711878 -1.388937 
v 2.144963 1.084844 -4.01596 
v 0.9048405 2.603674 -2.49713 
v -0.9048455 2.603674 -2.49713 
v 1.809678 3.711878 -1.388937 
v -1.809683 3.711878 -1.388937 
v 1.348872 3.711878 -1.388937 
v 0.674432 4.537886 -0.5629294 
v 0.674432 2.88587 -2.214946 
v -0.674437 2.88587 -2.214946 
v -0.674437 4.537886 -0.5629294 
v -1.348866 3.711878 -1.388937 

vn -0.003921539 0.9999924 0
vn -0.003921569 0.7098039 -0.7043884
vn -0.003921569 0.003921569 0.9999846
vn -0.003921569 0.7411765 -0.6712988
vn -0.003921569 0.003921569 -0.9999846
vn -0.003921569 0.6 0.7999904
vn -0.9999924 0.003921539 0
vn 0.8666667 -0.3568628 -0.3486227
vn -0.09019608 -0.8039216 0.5878561
vn -0.1764706 -0.6941177 0.6978959
vn -0.003921569 -0.7098039 0.7043884
vn -0.003921569 0.7098039 0.7043884
vn 0.09019608 -0.5921569 0.800759
vn -0.09019608 -0.5921569 0.800759
vn 0.9999924 0.003921539 0
vn 0.8666667 0.3568628 0.3486227
vn -0.003921569 0.3176471 -0.9482009
vn 0.1764706 -0.6941177 0.6978959
vn 0.09019608 -0.8039216 0.5878561
vn -0.003921569 0.945098 -0.3267634
vn -0.3882353 0.7882353 -0.4774499
vn -0.003921569 -0.7098039 -0.7043884
vn 0.3882353 0.4745098 -0.7900087
vn -0.8666667 -0.3568628 -0.3486227
vn 0.3882353 0.7882353 -0.4774499
vn -0.3882353 0.4745098 -0.7900087
vn -0.8666667 0.3568628 0.3486227

vt 2.455384E-06 2.455384E-06
vt 7.124739 6.466797
vt 5.310503 6.466797
vt 3.562371 12.637
vt -7.124734 6.466797
vt -5.310508 6.466797
vt -3.562366 0.2965955
vt -2.655248 1.867762
vt 3.562371 0.2965955
vt 2.655253 1.867762
vt -3.562366 12.637
vt -2.655248 11.06583
vt 2.655253 11.06583

usemtl _defaultMat
usemap _defaultMat

f 2/1/1 1/1/1 3/1/1
f 3/1/1 4/1/1 2/1/1
f 6/1/2 5/1/2 7/1/2
f 7/1/2 8/1/2 6/1/2
f 7/1/2 9/1/2 8/1/2
f 9/1/2 10/1/2 8/1/2
f 9/1/2 11/1/2 10/1/2
f 9/1/2 12/1/2 11/1/2
f 13/1/2 5/1/2 6/1/2
f 6/1/2 14/1/2 13/1/2
f 14/1/2 15/1/2 13/1/2
f 11/1/2 12/1/2 15/1/2
f 14/1/2 16/1/2 15/1/2
f 16/1/2 11/1/2 15/1/2
f 4/1/3 2/1/3 17/1/3
f 17/1/3 18/1/3 4/1/3
f 20/1/4 19/1/4 21/1/4
f 21/1/4 22/1/4 20/1/4
f 24/1/5 23/1/5 21/1/5
f 21/1/5 19/1/5 24/1/5
f 18/1/6 17/1/6 25/1/6
f 25/1/6 26/1/6 18/1/6
f 27/1/1 24/1/1 23/1/1
f 23/1/1 28/1/1 27/1/1
f 26/1/7 3/1/7 4/1/7
f 4/1/7 18/1/7 26/1/7
f 3/1/7 26/1/7 29/1/7
f 3/1/7 29/1/7 30/1/7
f 3/1/7 30/1/7 22/1/7
f 28/1/7 3/1/7 22/1/7
f 28/1/7 22/1/7 21/1/7
f 21/1/7 23/1/7 28/1/7
f 32/1/7 31/1/7 33/1/7
f 33/1/7 34/1/7 32/1/7
f 36/1/8 35/1/8 37/1/8
f 37/1/8 38/1/8 36/1/8
f 38/1/8 39/1/8 36/1/8
f 41/1/9 40/1/9 42/1/10
f 42/1/10 43/1/10 41/1/9
f 45/1/1 44/1/1 31/1/1
f 31/1/1 33/1/1 45/1/1
f 39/1/11 38/1/11 46/1/11
f 46/1/11 47/1/11 39/1/11
f 47/1/11 36/1/11 39/1/11
f 47/1/11 48/1/11 36/1/11
f 47/1/11 49/1/11 48/1/11
f 49/1/11 29/1/11 48/1/11
f 49/1/11 30/1/11 29/1/11
f 36/1/11 48/1/11 50/1/11
f 50/1/11 51/1/11 36/1/11
f 50/1/11 30/1/11 51/1/11
f 30/1/11 49/1/11 51/1/11
f 49/1/11 52/1/11 51/1/11
f 52/1/11 53/1/11 51/1/11
f 52/1/11 54/1/11 53/1/11
f 55/1/5 44/1/5 31/1/5
f 31/1/5 32/1/5 55/1/5
f 57/1/12 56/1/12 13/1/12
f 13/1/12 15/1/12 57/1/12
f 59/1/14 58/1/13 56/1/13
f 56/1/13 57/1/14 59/1/14
f 44/1/15 55/1/15 60/1/15
f 60/1/15 45/1/15 44/1/15
f 34/1/3 33/1/3 45/1/3
f 45/1/3 60/1/3 34/1/3
f 38/1/16 37/1/16 58/1/16
f 58/1/16 47/1/16 38/1/16
f 47/1/16 46/1/16 38/1/16
f 62/1/17 61/1/17 16/1/17
f 16/1/17 14/1/17 62/1/17
f 64/1/19 63/1/18 37/1/18
f 37/1/18 35/1/19 64/1/19
f 65/1/20 8/1/20 10/1/20
f 10/1/20 66/1/20 65/1/20
f 67/1/21 6/1/21 8/1/21
f 8/1/21 65/1/21 67/1/21
f 64/1/8 7/1/8 5/1/8
f 5/1/8 63/1/8 64/1/8
f 63/1/16 5/1/16 13/1/16
f 13/1/16 56/1/16 63/1/16
f 64/1/22 41/1/22 9/1/22
f 9/1/22 7/1/22 64/1/22
f 61/1/23 68/1/23 11/1/23
f 11/1/23 16/1/23 61/1/23
f 42/1/24 40/1/24 51/1/24
f 51/1/24 54/1/24 42/1/24
f 51/1/24 53/1/24 54/1/24
f 68/1/25 66/1/25 10/1/25
f 10/1/25 11/1/25 68/1/25
f 70/3/2 69/2/2 71/4/2
f 71/3/2 72/2/2 70/4/2
f 72/3/2 73/2/2 70/4/2
f 72/3/2 74/2/2 73/4/2
f 58/3/2 37/2/2 35/4/2
f 35/3/2 40/2/2 58/4/2
f 40/3/2 59/2/2 58/4/2
f 40/3/2 42/2/2 59/4/2
f 36/3/22 51/2/22 40/4/22
f 40/3/22 35/2/22 36/4/22
f 43/3/10 42/2/10 59/4/14
f 59/3/14 57/2/14 43/4/10
f 41/3/9 64/2/19 35/4/19
f 35/3/19 40/2/9 41/4/9
f 58/3/13 37/2/18 63/4/18
f 63/3/18 56/2/13 58/4/13
f 6/3/26 67/2/26 62/4/26
f 62/3/26 14/2/26 6/4/26
f 20/3/5 22/2/5 30/4/5
f 30/3/5 50/2/5 20/4/5
f 20/3/15 50/2/15 48/4/15
f 48/3/15 27/2/15 20/4/15
f 48/3/15 1/2/15 27/4/15
f 48/3/15 25/2/15 1/4/15
f 25/3/15 17/2/15 1/4/15
f 17/3/15 2/2/15 1/4/15
f 24/3/15 19/2/15 20/4/15
f 20/3/15 27/2/15 24/4/15
f 49/3/12 47/2/12 58/4/12
f 58/3/12 59/2/12 49/4/12
f 3/3/1 28/2/1 23/4/1
f 23/3/1 4/2/1 3/4/1
f 24/3/1 60/2/1 55/4/1
f 55/3/1 32/2/1 24/4/1
f 32/3/1 23/2/1 24/4/1
f 2/3/1 34/2/1 60/4/1
f 60/3/1 24/2/1 2/4/1
f 24/3/1 27/2/1 2/4/1
f 27/3/1 1/2/1 2/4/1
f 2/3/1 4/2/1 34/4/1
f 4/3/1 23/2/1 34/4/1
f 23/3/1 32/2/1 34/4/1
f 12/3/24 9/2/24 41/4/24
f 41/3/24 43/2/24 12/4/24
f 15/3/27 12/2/27 43/4/27
f 43/3/27 57/2/27 15/4/27
f 59/3/27 42/2/27 54/4/27
f 54/3/27 49/2/27 59/4/27
f 54/3/27 52/2/27 49/4/27
f 50/3/11 48/2/11 29/4/11
f 29/3/11 30/2/11 50/4/11
f 26/3/3 25/2/3 48/4/3
f 48/3/3 29/2/3 26/4/3

usemtl metal
usemap metal

f 69/6/2 67/5/2 65/7/2
f 65/7/2 71/8/2 69/6/2
f 65/7/2 66/9/2 71/8/2
f 66/9/2 72/10/2 71/8/2
f 66/9/2 74/3/2 72/10/2
f 66/9/2 68/2/2 74/3/2
f 62/11/2 67/5/2 69/6/2
f 69/6/2 70/12/2 62/11/2
f 70/12/2 61/4/2 62/11/2
f 74/3/2 68/2/2 61/4/2
f 70/12/2 73/13/2 61/4/2
f 73/13/2 74/3/2 61/4/2
