# Made using Asset Forge (www.assetforge.io) version 1.0 

mtllib spaceCraft5.mtl 

g spaceCraft5_8angles

v 7.183996 0.9874976 -10.57629 
v 7.183996 0.9874976 -3.0971 
v 6.654492 0.9874976 -10.57629 
v 6.654492 0.9874976 -3.0971 
v 6.654492 0.5667005 -10.99709 
v 7.183996 0.5667005 -10.99709 
v 6.654492 0.3999993 -10.99709 
v 7.183996 0.3999993 -10.99709 
v 7.183996 0.3999993 4.802907 
v 6.654492 0.3999993 4.802907 
v 7.183996 0.6937485 4.802907 
v 6.654492 0.6937485 4.802907 
v 7.183996 0.6937485 3.361116 
v 6.654492 0.6937485 3.361116 
v 7.183996 0.9874976 0.8529029 
v 7.183996 0.9874976 3.361116 
v 6.654492 0.9874976 0.8529029 
v 6.654492 0.9874976 3.361116 
v 7.183996 0.3999993 -3.0971 
v 7.183996 0.3999993 -7.047088 
v 6.654492 0.3999993 -3.0971 
v 6.654492 0.3999993 -7.047088 
v 7.183996 0.3999993 0.8529029 
v 6.654492 0.3999993 0.8529029 
v -4.749997 2.347997 -3.0971 
v -4.022999 3.074995 -3.0971 
v -4.749997 2.347997 0.8529029 
v -4.022999 3.074995 0.8529029 
v -4.749997 0.3999993 -3.0971 
v -2.774995 0.3999993 -3.0971 
v -2.774995 1.975007 -3.0971 
v -2.774995 3.074995 -3.0971 
v -4.749997 0.3999993 0.8529029 
v -2.774995 0.3999993 0.8529029 
v -2.774995 1.975007 0.8529029 
v -2.774995 3.074995 0.8529029 
v 2.103505 0.6319963 -12.4 
v 2.103505 4.938809E-06 -12.4 
v 2.103505 0.9319962 -9.897087 
v 2.103505 4.938809E-06 -9.897087 
v 5.124995 4.938809E-06 -10.99709 
v 8.184006 4.938809E-06 -10.99709 
v 5.124995 0.3999993 -10.99709 
v 8.184006 0.3999993 -10.99709 
v -4.749997 4.938809E-06 0.8529029 
v -2.774995 4.938809E-06 0.8529029 
v -2.774995 4.938809E-06 -3.0971 
v -4.749997 4.938809E-06 -3.0971 
v -2.774995 4.938809E-06 2.827905 
v -2.103498 4.938809E-06 -9.897087 
v 2.775002 4.938809E-06 -3.0971 
v 2.775002 4.938809E-06 0.8529029 
v 2.775002 4.938809E-06 2.827905 
v -2.103498 4.938809E-06 -12.4 
v 8.597076 4.938809E-06 -3.0971 
v 8.597076 4.938809E-06 0.8529029 
v 5.124995 4.938809E-06 -7.047088 
v 5.124995 0.3999993 -7.047088 
v 1.309422 4.350003 -0.7556219 
v 1.309422 4.350003 0.7563865 
v -4.938809E-06 4.350003 -1.51161 
v -4.938809E-06 4.350003 1.512391 
v -1.309432 4.350003 -0.7556219 
v -1.309432 4.350003 0.7563865 
v 5.124995 0.3999993 -3.0971 
v 2.775002 1.975007 -3.0971 
v 5.124995 0.9874976 -3.0971 
v 5.124995 1.38403 -3.0971 
v 9.074999 0.4779277 -3.0971 
v 9.074999 1.38403 -3.0971 
v 8.184006 0.3999993 -7.047088 
v 8.184006 4.938809E-06 -7.047088 
v -2.103498 0.6319963 -12.4 
v -2.103498 0.6319963 -9.897087 
v 1.558843 3.949992 0.9003819 
v -4.938809E-06 3.949992 1.800381 
v -1.558852 3.949992 0.9003819 
v 2.775002 1.975007 0.8529029 
v 2.775002 1.975007 2.827905 
v 9.074999 1.38403 0.8529029 
v 5.124995 1.38403 0.8529029 
v -2.774995 1.975007 2.827905 
v 9.074999 0.4779277 0.8529029 
v -1.558852 3.949992 -0.8996173 
v -4.938809E-06 3.949992 -1.799617 
v 1.558843 3.949992 -0.8996173 
v 5.124995 0.9874976 0.8529029 
v 5.124995 0.3999993 0.8529029 
v 2.775002 3.512494 -3.0971 
v 2.775002 3.949992 -0.1345898 
v 1.387498 3.949992 -3.0971 
v -2.774995 3.512494 -3.0971 
v -1.387492 3.949992 -3.0971 
v -2.774995 3.949992 -0.1345898 
v -2.103498 1.864004 -9.897087 
v 2.317964 0.4570429 3.902907 
v -2.317957 0.4570429 3.902907 
v 2.317964 3.492954 3.902907 
v -2.317957 3.492954 3.902907 
v 2.103505 1.864004 -9.897087 
v 2.103505 1.264004 -12.4 
v -2.103498 1.264004 -12.4 
v 2.775002 3.949992 2.827905 
v -2.774995 3.949992 2.827905 
v 5.124995 0.5667005 -10.99709 
v 5.124995 0.9874976 -10.57629 
v 5.124995 0.6937485 3.361116 
v 5.124995 0.6937485 4.802907 
v -3.051502 -0.2765015 4.091904 
v -3.051502 4.226499 4.091904 
v 3.051508 -0.2765015 4.802907 
v 3.051508 -0.2765015 4.091904 
v -3.051502 -0.2765015 4.802907 
v 5.124995 0.3999993 4.802907 
v 5.124995 0.9874976 3.361116 
v -2.317957 3.492954 4.802907 
v -2.317957 0.4570429 4.802907 
v 3.051508 4.226499 4.091904 
v 3.051508 4.226499 4.802907 
v 2.317964 3.492954 4.802907 
v 2.317964 0.4570429 4.802907 
v -3.051502 4.226499 4.802907 

vn -0.003921539 0.9999924 0
vn -0.003921569 0.7098039 -0.7043884
vn -0.003921569 0.003921569 -0.9999846
vn -0.003921569 0.003921569 0.9999846
vn -0.003921539 -0.9999924 0
vn -0.7071068 0.7071068 0
vn 0.9999924 0.003921539 0
vn -0.9999924 0.003921539 0
vn -0.003921569 -0.9921569 -0.1249375
vn -0.9921569 0.003921569 -0.1249375
vn 0.427451 0.5294118 0.7328088
vn -0.427451 0.5294118 0.7328088
vn 0.9921569 0.003921569 -0.1249375
vn 0.1215686 0.9921569 -0.02908349
vn 0.7071068 -0.7071068 0
vn -0.8490956 0.5282392 0
vn 0.427451 0.5294118 -0.7328088
vn 0.8490956 0.5282392 0
vn -0.427451 0.5294118 -0.7328088
vn 0.2470588 0.9686275 -0.02688431
vn 0.2941177 0.9372549 -0.1872113
vn 0.04309718 0.9990709 0
vn 0.1215686 0.9764706 -0.1781188
vn -0.2941177 0.9372549 -0.1872113
vn -0.1215686 0.9764706 -0.1781188
vn -0.04309718 0.9990709 0
vn -0.01960784 0.9686275 -0.2477426
vn 0.01960784 0.9686275 -0.2477426
vn -0.003921569 0.9686275 -0.2484863
vn -0.003921569 0.9921569 -0.1249375

vt -28.28346 -41.63898
vt -28.28346 -12.19328
vt -26.19882 -41.63898
vt -26.19882 -12.19328
vt -26.19882 -29.037
vt -28.28346 -29.037
vt -26.19882 -26.69412
vt -28.28346 -26.69412
vt -26.19882 1.574808
vt -28.28346 1.574808
vt -26.19882 2.231126
vt -28.28346 2.231126
vt 28.28347 1.574808
vt 26.19882 1.574808
vt 28.28347 2.731303
vt 26.19882 2.731303
vt -28.28346 13.23274
vt -28.28346 18.90908
vt -26.19882 13.23274
vt -26.19882 18.90908
vt -28.28346 3.357907
vt -26.19882 3.357907
vt 28.28347 3.887799
vt 26.19882 3.887799
vt 28.28347 -12.19328
vt 28.28347 -27.74446
vt 26.19882 -12.19328
vt 26.19882 -27.74446
vt 28.28347 18.90908
vt 28.28347 3.357907
vt 26.19882 18.90908
vt 26.19882 3.357907
vt -12.19328 -6.686884
vt -12.19328 -2.63912
vt 3.357907 -6.686884
vt 3.357907 -2.63912
vt 18.70079 1.574808
vt 10.92521 1.574808
vt 18.70079 9.244104
vt 10.92521 7.775593
vt 10.92521 12.10631
vt 15.8386 12.10631
vt -3.357895 3.887799
vt -3.357895 1.574808
vt -13.23273 3.887799
vt -13.23273 2.731303
vt -18.90908 1.574808
vt -18.90908 2.731303
vt -12.19328 1.574808
vt -12.19328 9.244104
vt 3.357907 1.574808
vt 3.357907 9.244104
vt -18.70078 1.574808
vt -18.70078 9.244104
vt -10.9252 1.574808
vt -10.9252 7.775593
vt -10.9252 12.10631
vt -15.83859 12.10631
vt 10.92521 -12.19328
vt 10.92521 3.357907
vt 15.8386 -12.19328
vt 15.8386 3.357907
vt 43.29566 2.231126
vt 43.29566 1.574808
vt 41.63898 3.887799
vt 27.74446 1.574808
vt 12.19329 3.887799
vt 12.19329 1.574808
vt 48.8189 2.488193
vt 48.8189 5.819667E-06
vt 38.96493 3.669294
vt 38.96493 5.819667E-06
vt -20.17716 5.819667E-06
vt -32.22047 5.819667E-06
vt -20.17716 1.574808
vt -32.22047 1.574808
vt -18.70078 5.819667E-06
vt -10.9252 5.819667E-06
vt -10.9252 -12.19328
vt -18.70078 -12.19328
vt -10.9252 3.357907
vt -18.70078 3.357907
vt -10.9252 11.13349
vt -8.281496 -38.96493
vt 8.281508 -48.8189
vt 8.281508 -38.96493
vt 10.92521 11.13349
vt -8.281496 -48.8189
vt 33.84674 -12.19328
vt 33.84674 3.357907
vt -43.29565 5.819667E-06
vt -43.29565 1.574808
vt -27.74446 5.819667E-06
vt -27.74446 1.574808
vt -5.155241 -2.974857
vt -5.155241 2.977906
vt 5.819667E-06 -5.951232
vt 5.819667E-06 5.954281
vt 5.155241 -2.974857
vt 5.155241 2.977906
vt -12.19328 5.819667E-06
vt 3.357907 5.819667E-06
vt -33.84673 5.819667E-06
vt -20.17716 3.887799
vt -26.19882 3.887799
vt -20.17716 5.448913
vt -28.28346 3.887799
vt -35.72835 1.881621
vt -35.72835 5.448913
vt 10.92521 5.819667E-06
vt 18.70079 5.819667E-06
vt 32.22047 1.574808
vt 20.17717 1.574808
vt 20.17717 5.819667E-06
vt 32.22047 5.819667E-06
vt -48.8189 5.819667E-06
vt -48.8189 2.488193
vt -38.96493 5.819667E-06
vt -38.96493 2.488193
vt -37.96249 5.819667E-06
vt -37.96249 2.488193
vt -11.06062 5.819667E-06
vt -11.06062 7.775593
vt -11.06062 1.574808
vt 3.542553 9.948121
vt -3.544066 9.948121
vt 2.975625 11.80399
vt -2.977138 11.80399
vt 3.544078 9.948121
vt -3.542542 9.948121
vt 2.977149 11.80399
vt -2.975613 11.80399
vt -3.357895 7.775593
vt -3.357895 5.819667E-06
vt -11.13348 7.775593
vt -11.13348 5.819667E-06
vt -35.72835 -12.19328
vt -35.72835 3.357907
vt -20.17716 -12.19328
vt -20.17716 3.357907
vt 11.13349 5.819667E-06
vt 3.357907 7.775593
vt 11.13349 7.775593
vt 37.96249 3.669294
vt 37.96249 5.819667E-06
vt 11.06063 7.775593
vt 11.06063 5.819667E-06
vt -3.357895 26.59426
vt 12.19329 26.59426
vt -3.357895 23.93326
vt 12.19329 23.93326
vt -3.541785 9.948819
vt -2.974857 11.80468
vt 3.544835 9.948819
vt 2.977906 11.80468
vt 3.542553 9.949506
vt -3.544066 9.949506
vt 2.975625 11.80537
vt -2.977138 11.80537
vt 43.29566 5.819667E-06
vt 27.74446 5.819667E-06
vt 12.19329 5.448913
vt 12.19329 1.881621
vt -3.357895 5.448913
vt -3.357895 1.881621
vt 3.541797 9.948819
vt -3.544823 9.948819
vt 2.974868 11.80468
vt -2.977894 11.80468
vt 8.281508 5.819667E-06
vt -8.281496 5.819667E-06
vt 8.281508 2.488193
vt -8.281496 2.488193
vt 33.84674 5.819667E-06
vt 35.72835 1.881621
vt 35.72835 5.448913
vt 20.17717 3.887799
vt 20.17717 5.448913
vt 3.544078 9.949506
vt -3.542542 9.949506
vt 2.977149 11.80537
vt -2.975613 11.80537
vt 32.22047 -27.74446
vt 32.22047 -43.29565
vt 20.17717 -27.74446
vt 20.17717 -43.29565
vt 12.19329 -18.23897
vt -3.357895 -18.23897
vt 12.19329 -8.69893
vt -3.357895 -8.69893
vt -32.22047 -43.29565
vt -32.22047 -27.74446
vt -28.28346 -43.29565
vt -28.28346 -27.74446
vt 6.40839 -9.680498
vt -4.153944 -4.442297
vt 8.725292 -4.442297
vt -6.408379 -9.680498
vt -8.725281 -4.442297
vt 4.153944 -4.442297
vt -24.00485 -26.50965
vt -5.630335 -5.190835
vt -2.050542 -9.662061
vt 9.125837 1.799377
vt -9.125825 1.799377
vt 9.125837 13.75182
vt -9.125825 13.75182
vt 24.00486 -26.50965
vt 2.050542 -9.662061
vt 5.630347 -5.190835
vt -8.281496 -35.09933
vt -5.462589 -7.096333
vt 8.281508 -35.09933
vt 5.462601 -7.096333

usemtl pipe
usemap pipe

f 2/2/1 1/1/1 3/3/1
f 3/3/1 4/4/1 2/2/1
f 6/6/2 5/5/2 3/7/2
f 3/7/2 1/8/2 6/6/2
f 8/10/3 7/9/3 5/11/3
f 5/11/3 6/12/3 8/10/3
f 10/14/4 9/13/4 11/15/4
f 11/15/4 12/16/4 10/14/4
f 11/18/1 13/17/1 14/19/1
f 14/19/1 12/20/1 11/18/1
f 16/17/1 15/21/1 17/22/1
f 17/22/1 18/19/1 16/17/1
f 14/16/4 13/15/4 16/23/4
f 16/23/4 18/24/4 14/16/4
f 20/26/5 19/25/5 21/27/5
f 21/27/5 22/28/5 20/26/5
f 23/30/5 9/29/5 10/31/5
f 10/31/5 24/32/5 23/30/5
f 26/34/6 25/33/6 27/35/6
f 27/35/6 28/36/6 26/34/6
f 30/38/3 29/37/3 25/39/3
f 25/39/3 31/40/3 30/38/3
f 25/39/3 32/41/3 31/40/3
f 25/39/3 26/42/3 32/41/3
f 23/44/7 15/43/7 16/45/7
f 16/45/7 13/46/7 23/44/7
f 13/46/7 9/47/7 23/44/7
f 13/46/7 11/48/7 9/47/7
f 25/50/8 29/49/8 33/51/8
f 33/51/8 27/52/8 25/50/8
f 27/54/4 33/53/4 34/55/4
f 34/55/4 35/56/4 27/54/4
f 35/56/4 36/57/4 27/54/4
f 36/57/4 28/58/4 27/54/4
f 36/60/1 32/59/1 26/61/1
f 26/61/1 28/62/1 36/60/1
f 8/64/7 6/63/7 1/65/7
f 1/65/7 20/66/7 8/64/7
f 1/65/7 2/67/7 20/66/7
f 2/67/7 19/68/7 20/66/7

usemtl metal
usemap metal

f 38/70/7 37/69/7 39/71/7
f 39/71/7 40/72/7 38/70/7
f 42/74/3 41/73/3 43/75/3
f 43/75/3 44/76/3 42/74/3
f 43/75/3 7/9/3 44/76/3
f 7/9/3 8/10/3 44/76/3
f 33/53/4 45/77/4 46/78/4
f 46/78/4 34/55/4 33/53/4
f 48/80/5 47/79/5 46/81/5
f 46/81/5 45/82/5 48/80/5
f 49/83/9 47/79/5 50/84/5
f 49/83/9 50/84/5 38/85/5
f 49/83/9 38/85/5 40/86/5
f 49/83/9 40/86/5 51/59/5
f 49/83/9 51/59/5 52/60/5
f 52/60/5 53/87/9 49/83/9
f 49/83/9 46/81/5 47/79/5
f 38/85/5 50/84/5 54/88/5
f 52/60/5 51/59/5 55/89/5
f 55/89/5 56/90/5 52/60/5
f 43/92/8 41/91/8 57/93/8
f 57/93/8 58/94/8 43/92/8
f 60/96/1 59/95/1 61/97/1
f 61/97/1 62/98/1 60/96/1
f 61/97/1 63/99/1 62/98/1
f 63/99/1 64/100/1 62/98/1
f 29/49/8 48/101/8 45/102/8
f 45/102/8 33/51/8 29/49/8
f 65/75/3 55/103/3 51/78/3
f 51/78/3 66/56/3 65/75/3
f 66/56/3 67/104/3 65/75/3
f 66/56/3 4/105/3 67/104/3
f 66/56/3 68/106/3 4/105/3
f 68/106/3 2/107/3 4/105/3
f 55/103/3 65/75/3 21/9/3
f 55/103/3 21/9/3 19/10/3
f 19/10/3 69/108/3 55/103/3
f 19/10/3 2/107/3 69/108/3
f 2/107/3 70/109/3 69/108/3
f 2/107/3 68/106/3 70/109/3
f 30/38/3 47/110/3 48/111/3
f 48/111/3 29/37/3 30/38/3
f 22/14/4 71/112/4 20/13/4
f 71/112/4 22/14/4 58/113/4
f 71/112/4 58/113/4 57/114/4
f 57/114/4 72/115/4 71/112/4
f 73/117/8 54/116/8 50/118/8
f 50/118/8 74/119/8 73/117/8
f 74/121/8 50/120/8 47/122/10
f 47/122/10 31/123/10 74/121/8
f 47/122/10 30/124/10 31/123/10
f 76/126/11 75/125/11 60/127/11
f 60/127/11 62/128/11 76/126/11
f 77/130/12 76/129/12 62/131/12
f 62/131/12 64/132/12 77/130/12
f 52/134/7 78/133/7 79/135/13
f 79/135/13 53/136/13 52/134/7
f 80/138/1 70/137/1 68/139/14
f 68/139/14 81/140/14 80/138/1
f 34/51/8 46/102/8 49/141/10
f 49/141/10 35/142/8 34/51/8
f 49/141/10 82/143/10 35/142/8
f 40/145/7 39/144/7 66/146/13
f 66/146/13 51/147/13 40/145/7
f 69/149/15 83/148/15 56/150/15
f 56/150/15 55/151/15 69/149/15
f 63/153/16 84/152/16 77/154/16
f 77/154/16 64/155/16 63/153/16
f 86/157/17 85/156/17 61/158/17
f 61/158/17 59/159/17 86/157/17
f 42/160/7 44/64/7 71/66/7
f 71/66/7 72/161/7 42/160/7
f 69/163/7 70/162/7 80/164/7
f 80/164/7 83/165/7 69/163/7
f 75/167/18 86/166/18 59/168/18
f 59/168/18 60/169/18 75/167/18
f 38/171/3 54/170/3 73/172/3
f 73/172/3 37/173/3 38/171/3
f 52/110/4 56/174/4 83/175/4
f 83/175/4 23/13/4 52/110/4
f 83/175/4 15/23/4 23/13/4
f 83/175/4 80/176/4 15/23/4
f 80/176/4 17/24/4 15/23/4
f 80/176/4 87/177/4 17/24/4
f 52/110/4 23/13/4 88/113/4
f 88/113/4 78/40/4 52/110/4
f 88/113/4 87/177/4 78/40/4
f 23/13/4 24/14/4 88/113/4
f 87/177/4 81/178/4 78/40/4
f 87/177/4 80/176/4 81/178/4
f 85/180/19 84/179/19 63/181/19
f 63/181/19 61/182/19 85/180/19
f 42/184/5 72/183/5 57/185/5
f 57/185/5 41/186/5 42/184/5
f 81/188/14 68/187/14 66/189/20
f 66/189/20 78/190/20 81/188/14
f 71/192/1 44/191/1 8/193/1
f 8/193/1 20/194/1 71/192/1

usemtl glass
usemap glass

f 90/196/22 89/195/21 91/197/23
f 93/199/25 92/198/24 94/200/26
f 93/202/25 95/201/27 92/203/24
f 97/205/4 96/204/4 98/206/4
f 98/206/4 99/207/4 97/205/4
f 89/209/21 100/208/28 91/210/23
f 91/212/23 100/211/28 95/213/27
f 95/213/27 93/214/25 91/212/23

usemtl _defaultMat
usemap _defaultMat

f 100/102/28 101/51/29 102/49/29
f 102/102/29 95/51/27 100/49/28
f 95/102/8 74/51/8 31/49/10
f 31/102/10 92/51/8 95/49/8
f 31/102/10 32/51/8 92/49/8
f 78/111/7 66/37/7 89/38/7
f 89/111/7 90/37/7 78/38/7
f 90/111/7 103/37/13 78/38/7
f 103/111/13 79/37/13 78/38/7
f 103/111/30 90/37/22 91/38/23
f 91/111/23 86/37/1 103/38/30
f 91/111/23 85/37/1 86/38/1
f 91/111/23 93/37/25 85/38/1
f 93/111/25 84/37/1 85/38/1
f 93/111/25 94/37/26 84/38/1
f 94/111/26 77/37/1 84/38/1
f 76/111/1 104/37/30 103/38/30
f 103/111/30 75/37/1 76/38/1
f 103/111/30 86/37/1 75/38/1
f 76/111/1 77/37/1 104/38/30
f 77/111/1 94/37/26 104/38/30
f 5/122/2 105/124/2 106/123/2
f 106/122/2 3/124/2 5/123/2
f 12/127/1 14/128/1 107/126/1
f 107/127/1 108/128/1 12/126/1
f 36/131/8 35/132/8 82/130/10
f 92/131/8 32/132/8 36/130/8
f 36/131/8 94/132/8 92/130/8
f 36/131/8 104/132/10 94/130/8
f 36/131/8 82/132/10 104/130/10
f 82/135/10 49/136/10 109/134/10
f 109/135/10 104/136/10 82/134/10
f 109/135/10 110/136/10 104/134/10
f 112/135/9 111/136/5 113/134/5
f 113/135/5 109/136/9 112/134/9
f 53/135/9 112/136/9 109/134/9
f 109/135/9 49/136/9 53/134/9
f 114/135/4 10/136/4 12/134/4
f 12/135/4 108/136/4 114/134/4
f 18/139/1 17/140/1 87/138/1
f 87/139/1 115/140/1 18/138/1
f 97/139/7 99/140/7 116/138/7
f 116/139/7 117/140/7 97/138/7
f 79/139/13 103/140/13 118/138/13
f 118/139/13 53/140/13 79/138/13
f 118/139/13 112/140/13 53/138/13
f 4/39/1 3/42/1 106/41/1
f 106/39/1 67/42/1 4/41/1
f 105/39/8 43/42/8 58/41/8
f 58/39/8 106/42/8 105/41/8
f 58/39/8 67/42/8 106/41/8
f 58/39/8 65/42/8 67/41/8
f 37/39/3 73/42/3 102/41/3
f 102/39/3 101/42/3 37/41/3
f 112/209/13 118/208/13 119/210/7
f 119/209/7 111/208/7 112/210/13
f 107/150/4 14/151/4 18/149/4
f 18/150/4 115/151/4 107/149/4
f 98/213/5 120/214/5 116/212/5
f 116/213/5 99/214/5 98/212/5
f 22/213/5 21/214/5 65/212/5
f 65/213/5 58/214/5 22/212/5
f 98/213/8 96/214/8 121/212/8
f 121/213/8 120/214/8 98/212/8
f 39/213/7 100/214/7 89/212/7
f 89/213/7 66/214/7 39/212/7
f 102/213/8 73/214/8 74/212/8
f 74/213/8 95/214/8 102/212/8
f 121/158/1 96/159/1 97/157/1
f 97/158/1 117/159/1 121/157/1
f 37/158/7 101/159/7 100/157/7
f 100/158/7 39/159/7 37/157/7
f 110/158/30 118/159/30 103/157/30
f 103/158/30 104/159/30 110/157/30
f 119/158/1 118/159/30 110/157/30
f 110/158/30 122/159/1 119/157/1
f 110/66/10 109/161/10 113/160/8
f 113/66/8 122/161/8 110/160/10
f 87/66/8 88/161/8 114/160/8
f 114/66/8 107/161/8 87/160/8
f 114/66/8 108/161/8 107/160/8
f 87/66/8 107/161/8 115/160/8
f 7/51/3 43/52/3 105/50/3
f 105/51/3 5/52/3 7/50/3
f 121/172/4 113/173/4 111/171/4
f 111/172/4 119/173/4 121/171/4
f 119/172/4 120/173/4 121/171/4
f 119/172/4 116/173/4 120/171/4
f 117/172/4 122/173/4 113/171/4
f 113/172/4 121/173/4 117/171/4
f 117/172/4 116/173/4 122/171/4
f 116/172/4 119/173/4 122/171/4
f 24/181/5 10/182/5 114/180/5
f 114/181/5 88/182/5 24/180/5
