# Made using Asset Forge (www.assetforge.io) version 1.0 

mtllib spaceCraft3.mtl 

g spaceCraft3_8angles

v 3.949995 1.822929 3.850003 
v 3.949995 1.822929 2.862495 
v 3.634002 1.822929 3.850003 
v 2.962501 1.822929 1.875 
v 1.975006 1.822929 3.850003 
v 1.975006 1.822929 1.875 
v -3.633996 1.822929 3.850003 
v -3.950002 1.822929 3.850003 
v -3.633996 3.797932 3.850003 
v -3.950002 3.797932 3.850003 
v 5.924998 1.231964 -0.1000025 
v 5.924998 0.835435 -0.1000025 
v 5.924998 1.231964 4.749997 
v 5.924998 0.835435 4.749997 
v -1.975 1.822929 3.850003 
v -1.975 1.822929 1.875 
v -2.962494 1.822929 1.875 
v -3.950002 1.822929 2.862495 
v 1.975006 3.797932 1.875 
v 2.962501 3.797932 1.875 
v -2.962494 3.797932 1.875 
v -1.975 3.797932 1.875 
v -1.975 1.822929 -0.1000025 
v -1.975 3.797932 -0.1000025 
v -3.950002 3.797932 2.862495 
v -5.925006 0.835435 -0.1000025 
v -5.925006 1.231964 -0.1000025 
v -5.925006 0.835435 4.749997 
v -5.925006 1.231964 4.749997 
v 1.975006 -0.7520691 3.850003 
v 0.9874977 -0.7520691 3.850003 
v 1.975006 -0.1520594 3.850003 
v 0.9874977 3.797932 3.850003 
v 1.975006 3.797932 3.850003 
v -1.975 -0.7520691 3.850003 
v -1.975 -0.1520594 3.850003 
v -0.9875053 -0.7520691 3.850003 
v -0.9875053 3.797932 3.850003 
v -1.975 3.797932 3.850003 
v 3.949995 3.797932 3.850003 
v 3.634002 3.797932 3.850003 
v -4.265995 1.480171 -0.1000025 
v -4.265995 1.480171 4.749997 
v 3.949995 3.797932 2.862495 
v 1.975006 3.797932 -0.1000025 
v 1.975006 1.822929 -0.1000025 
v -1.303498 0.4799398 -8 
v -1.303498 1.111939 -8 
v 1.303504 1.111939 -8 
v 1.303504 0.4799398 -8 
v 4.266002 1.480171 -0.1000025 
v 4.266002 1.480171 4.749997 
v 1.282117 3.59212 -0.7053343 
v 0.8299367 1.783441 -6.024997 
v -0.8299443 1.783441 -6.024997 
v -1.28211 3.59212 -0.7053343 
v 1.975006 -0.1520594 4.749997 
v 1.975006 1.822929 4.749997 
v 0.9874977 -0.7520691 4.449999 
v -0.9875053 -0.7520691 4.449999 
v 0.9874977 4.397942 4.449999 
v -0.9875053 4.397942 4.449999 
v 1.975006 -0.1520594 -0.1000025 
v 1.975006 -0.7520691 -0.1000025 
v 0.9874977 3.797932 0.68637 
v 0.9874977 4.397942 1.111869 
v 1.303504 -3.256946E-06 -8 
v -1.975 -0.1520594 -0.1000025 
v -4.265995 0.835435 -0.1000025 
v -4.265995 -0.1520594 -0.1000025 
v 4.266002 -0.1520594 -0.1000025 
v 4.266002 0.835435 -0.1000025 
v 3.916025 4.133683 5.825006 
v 3.916025 1.487179 5.825006 
v -1.975 -0.7520691 -0.1000025 
v -0.9875053 4.397942 1.111869 
v -1.303498 -3.256946E-06 -8 
v -0.9875053 3.797932 0.68637 
v 1.692969 4.133683 5.825006 
v 3.916025 1.487179 6.724999 
v 1.692969 1.487179 6.724999 
v 1.692969 1.487179 5.825006 
v -1.975 1.822929 4.749997 
v -2.13162 1.925836 6.325002 
v -2.13162 1.925836 6.724999 
v -3.47739 1.925836 6.325002 
v -3.47739 1.925836 6.724999 
v -2.13162 3.69504 6.325002 
v -2.13162 3.69504 6.724999 
v -3.47739 3.69504 6.325002 
v -3.47739 3.69504 6.724999 
v -1.692963 4.133683 5.825006 
v -1.692963 1.487179 5.825006 
v -1.692963 4.133683 6.724999 
v -1.692963 1.487179 6.724999 
v 3.477382 1.925836 6.724999 
v 3.916025 4.133683 6.724999 
v 3.477382 3.69504 6.724999 
v 2.131612 3.69504 6.724999 
v 1.692969 4.133683 6.724999 
v 2.131612 1.925836 6.724999 
v -3.916033 1.487179 6.724999 
v -3.916033 1.487179 5.825006 
v -3.916033 4.133683 5.825006 
v -1.975 -0.1520594 4.749997 
v -0.7314055 4.006834 0.8345082 
v -0.7314055 4.18904 0.9637307 
v 0.7313979 4.18904 0.9637307 
v 0.7313979 4.006834 0.8345082 
v -4.265995 -0.1520594 4.749997 
v -4.265995 0.835435 4.749997 
v -3.916033 4.133683 6.724999 
v 4.266002 0.835435 4.749997 
v 4.266002 -0.1520594 4.749997 
v 3.477382 1.925836 6.325002 
v 3.477382 3.69504 6.325002 
v 2.131612 3.69504 6.325002 
v 2.131612 1.925836 6.325002 
v -1.28211 3.876151 -0.8019072 
v 1.282117 3.876151 -0.8019072 
v 1.002889 3.043269 -4.1835 
v -1.002882 3.043269 -4.1835 
v 1.258048 4.063918 -1.181598 
v -1.258055 4.063918 -1.181598 
v 5.924998 -0.1520594 4.749997 
v 4.266002 -0.1520594 -4.049994 
v 5.924998 -0.1520594 -4.049994 
v 4.266002 0.3416878 -4.049994 
v 5.924998 0.3416878 -4.049994 
v -5.925006 -0.1520594 4.749997 
v -4.265995 -0.1520594 -4.049994 
v -5.925006 -0.1520594 -4.049994 
v 4.266002 0.835435 -3.556247 
v 5.924998 0.835435 -3.556247 
v -4.265995 0.3416878 -4.049994 
v -4.265995 0.835435 -3.556247 
v -5.925006 0.3416878 -4.049994 
v -5.925006 0.835435 -3.556247 

vn -0.003921539 -0.9999924 0
vn -0.003921569 0.003921569 0.9999846
vn 0.9999924 0.003921539 0
vn -0.003921569 0.003921569 -0.9999846
vn -0.9999924 0.003921539 0
vn -0.1447058 0.9894747 0
vn -0.003921539 0.9999924 0
vn 0.7098039 0.003921569 -0.7043884
vn -0.7098039 0.003921569 -0.7043884
vn 0.1447058 0.9894747 0
vn -0.003921569 0.945098 -0.3267634
vn -0.003921569 0.9215686 -0.3881956
vn 0.9921569 0.003921569 -0.1249375
vn -0.003921569 -0.9921569 -0.1249375
vn -0.003921569 0.9843137 -0.1763835
vn -0.9921569 0.003921569 -0.1249375
vn -0.003921569 -0.9843137 -0.1763835
vn -0.003921569 0.5764706 -0.8171085
vn -0.003921569 0.3254902 0.9455373
vn -0.003921569 0.8980392 -0.4398979
vn 0.9996234 -0.02744064 0
vn -0.9996234 -0.02744064 0
vn -0.003921569 0.8980392 0.4398979
vn -0.003921569 0.7098039 -0.7043884

vt 15.55119 15.15749
vt 15.55119 11.26969
vt 14.30709 15.15749
vt 11.66339 7.381895
vt 7.775589 15.15749
vt 7.775589 7.381895
vt -14.30709 7.176916
vt -15.55119 7.176916
vt -14.30709 14.9525
vt -15.55119 14.9525
vt 0.3937021 4.850224
vt 0.3937021 3.28911
vt -18.70079 4.850224
vt -18.70079 3.28911
vt -7.775589 15.15749
vt -7.775589 7.381895
vt -14.30709 15.15749
vt -11.66338 7.381895
vt -15.55119 11.26969
vt -15.55119 15.15749
vt -7.775589 7.176916
vt -11.66338 7.176916
vt -7.775589 14.9525
vt -11.66338 14.9525
vt 11.66339 7.176916
vt 7.775589 7.176916
vt 11.66339 14.9525
vt 7.775589 14.9525
vt -0.3937021 7.176916
vt -0.3937021 14.9525
vt 7.381895 7.176916
vt 7.381895 14.9525
vt 11.26969 7.176916
vt 11.26969 14.9525
vt 15.15749 7.176916
vt 15.15749 14.9525
vt -0.3937021 3.28911
vt -0.3937021 4.850224
vt 18.70079 3.28911
vt 18.70079 4.850224
vt 7.775589 -2.960879
vt 3.887798 -2.960879
vt 7.775589 -0.5986807
vt 3.887798 14.9525
vt -7.775589 -2.960879
vt -7.775589 -0.5986807
vt -3.887798 -2.960879
vt -3.887798 14.9525
vt 15.55119 7.176916
vt 14.30709 7.176916
vt 15.55119 14.9525
vt 14.30709 14.9525
vt -0.3937021 -15.74812
vt 18.70079 -15.74812
vt -0.3937021 -22.35231
vt 18.70079 -22.35231
vt -11.26969 14.9525
vt -11.26969 7.176916
vt -15.15748 14.9525
vt -15.15748 7.176916
vt 0.3937021 14.9525
vt 0.3937021 7.176916
vt -7.381895 14.9525
vt -7.381895 7.176916
vt -30.94825 1.889515
vt -30.94825 4.377696
vt 0.266273 7.176916
vt 0.266273 14.9525
vt 30.94825 4.377696
vt 30.94825 1.889515
vt -0.2662582 14.9525
vt -0.2662582 7.176916
vt -13.46704 14.9525
vt -13.46704 7.176916
vt -18.96521 14.9525
vt -18.96521 7.176916
vt 5.131896 1.889515
vt -5.131881 1.889515
vt 5.131896 4.377696
vt -5.131881 4.377696
vt 18.96522 7.176916
vt 13.46704 7.176916
vt 18.96522 14.9525
vt 13.46704 14.9525
vt 0.3937021 -22.35231
vt -18.70079 -22.35231
vt 0.3937021 -15.74812
vt -18.70079 -15.74812
vt -5.047691 1.923324
vt -3.267491 -20.19769
vt -5.131881 -28.41041
vt 5.131896 -28.41041
vt 3.267491 -20.19769
vt 5.047706 1.923324
vt -7.775589 4.440517
vt 7.775589 4.440517
vt 16.79528 3.28911
vt 23.32677 3.28911
vt 16.79528 -0.5986807
vt -23.32677 1.345222
vt -16.79527 1.345222
vt -23.32677 -0.5986807
vt -23.32677 -15.94488
vt -23.32677 18.70079
vt -16.79527 -15.94488
vt 3.267491 -15.61274
vt -3.267491 -15.61274
vt 3.948377 -6.828437
vt 2.764489 15.39153
vt 4.262205 16.13103
vt 2.385389 14.27291
vt -16.79527 -7.574433
vt -16.79527 -10.32352
vt -23.32677 -7.574433
vt 23.32677 -7.574433
vt 23.32677 -10.32352
vt 16.79528 -7.574433
vt 23.32677 -14.00098
vt 16.79528 -14.00098
vt 23.32677 -0.3937021
vt 16.79528 1.345222
vt 23.32677 1.345222
vt -18.70079 -0.5986807
vt -23.32677 3.28911
vt -16.79527 3.28911
vt 16.79528 -0.3937021
vt 16.79528 18.70079
vt 16.79528 -15.94488
vt -3.887798 2.702228
vt -3.887798 15.15749
vt 8.392178 14.54741
vt 13.6905 14.54741
vt 8.392178 7.582003
vt 18.70079 -0.5986807
vt 3.948377 -11.73696
vt -3.948377 -11.73696
vt 4.952964 0.7460322
vt 2.879551 14.76816
vt -2.879537 14.76816
vt 2.879551 15.64758
vt -2.879537 15.64758
vt -5.047691 14.28336
vt -5.047691 15.46446
vt 5.047706 14.28336
vt 5.047706 15.46446
vt -3.948377 -6.828437
vt 23.40368 7.149718
vt 16.12293 12.11138
vt -8.392178 7.582003
vt -13.6905 7.582003
vt -8.392178 14.54741
vt -13.6905 14.54741
vt -23.40368 7.149718
vt -16.12293 12.11138
vt -2.385389 14.27291
vt -4.262205 16.13103
vt -2.764489 15.39153
vt 5.047706 9.594851
vt -5.047691 9.594851
vt 4.952964 11.2625
vt -4.952949 11.2625
vt 13.6905 7.582003
vt -4.952949 0.7460322
vt 23.32677 -0.5986807
vt -16.79527 -0.5986807
vt -16.79527 18.70079
vt -16.79527 -0.3937021
vt -15.94488 -0.5986807
vt -15.94488 1.345222
vt -0.3937021 -0.5986807
vt -14.00098 3.28911
vt -23.32677 -14.00098
vt -23.32677 -0.3937021
vt -16.79527 -14.00098
vt -23.32677 -10.32352
vt 16.79528 -10.32352
vt 15.94488 1.345222
vt 15.94488 -0.5986807
vt 14.00099 3.28911
vt 0.3937021 -0.5986807
vt 23.32677 18.70079
vt 23.32677 -15.94488
vt -7.775589 -0.3937021
vt 7.775589 -0.3937021
vt 3.887798 2.702228
vt 3.887798 15.15749

usemtl metal
usemap metal

f 2/2/1 1/1/1 3/3/1
f 3/3/1 4/4/1 2/2/1
f 3/3/1 5/5/1 4/4/1
f 5/5/1 6/6/1 4/4/1
f 8/8/2 7/7/2 9/9/2
f 9/9/2 10/10/2 8/8/2
f 12/12/3 11/11/3 13/13/3
f 13/13/3 14/14/3 12/12/3
f 16/16/1 15/15/1 7/17/1
f 7/17/1 17/18/1 16/16/1
f 7/17/1 18/19/1 17/18/1
f 7/17/1 8/20/1 18/19/1
f 4/22/4 6/21/4 19/23/4
f 19/23/4 20/24/4 4/22/4
f 16/26/4 17/25/4 21/27/4
f 21/27/4 22/28/4 16/26/4
f 24/30/5 23/29/5 16/31/5
f 16/31/5 22/32/5 24/30/5
f 25/34/5 18/33/5 8/35/5
f 8/35/5 10/36/5 25/34/5
f 27/38/5 26/37/5 28/39/5
f 28/39/5 29/40/5 27/38/5
f 31/42/2 30/41/2 32/43/2
f 32/43/2 33/44/2 31/42/2
f 32/43/2 5/26/2 33/44/2
f 5/26/2 34/28/2 33/44/2
f 36/46/2 35/45/2 37/47/2
f 37/47/2 38/48/2 36/46/2
f 38/48/2 15/21/2 36/46/2
f 38/48/2 39/23/2 15/21/2
f 3/50/2 1/49/2 40/51/2
f 40/51/2 41/52/2 3/50/2
f 43/54/6 42/53/6 27/55/6
f 27/55/6 29/56/6 43/54/6
f 2/58/3 44/57/3 40/59/3
f 40/59/3 1/60/3 2/58/3
f 46/62/3 45/61/3 19/63/3
f 19/63/3 6/64/3 46/62/3
f 40/20/7 44/19/7 20/18/7
f 20/18/7 41/17/7 40/20/7
f 20/18/7 34/15/7 41/17/7
f 20/18/7 19/16/7 34/15/7
f 48/66/5 47/65/5 23/67/5
f 23/67/5 24/68/5 48/66/5
f 50/70/3 49/69/3 45/71/3
f 45/71/3 46/72/3 50/70/3
f 4/74/8 20/73/8 44/75/8
f 44/75/8 2/76/8 4/74/8
f 50/78/4 47/77/4 48/79/4
f 48/79/4 49/80/4 50/78/4
f 17/82/9 18/81/9 25/83/9
f 25/83/9 21/84/9 17/82/9
f 39/5/7 22/6/7 21/4/7
f 21/4/7 9/3/7 39/5/7
f 21/4/7 25/2/7 9/3/7
f 25/2/7 10/1/7 9/3/7
f 13/86/10 11/85/10 51/87/10
f 51/87/10 52/88/10 13/86/10
f 54/90/12 53/89/11 49/91/11
f 49/91/11 48/92/11 54/90/12
f 48/92/11 55/93/12 54/90/12
f 48/92/11 56/94/11 55/93/12
f 45/95/11 49/91/11 53/89/11
f 53/89/11 24/96/11 45/95/11
f 53/89/11 56/94/11 24/96/11
f 56/94/11 48/92/11 24/96/11

usemtl _defaultMat
usemap _defaultMat

f 5/5/5 32/6/5 57/4/5
f 57/5/5 58/6/5 5/4/5
f 60/13/2 59/14/2 61/12/2
f 61/13/2 62/14/2 60/12/2
f 64/17/3 63/20/3 32/19/3
f 32/17/3 30/20/3 64/19/3
f 33/98/3 65/97/3 66/99/3
f 66/98/3 61/97/3 33/99/3
f 61/98/3 31/97/3 33/99/3
f 61/98/3 59/97/3 31/99/3
f 67/101/3 50/100/3 46/102/3
f 46/101/3 64/100/3 67/102/3
f 46/101/3 63/100/3 64/102/3
f 23/101/5 68/100/5 36/102/5
f 36/101/5 16/100/5 23/102/5
f 36/101/5 15/100/5 16/102/5
f 69/23/4 26/24/4 27/22/4
f 68/23/4 70/24/4 69/22/4
f 69/23/4 23/24/4 68/22/4
f 69/23/4 27/24/4 23/22/4
f 27/23/4 42/24/4 23/22/4
f 71/104/4 63/103/4 46/105/4
f 46/104/4 72/103/4 71/105/4
f 46/104/4 11/103/4 12/105/4
f 46/104/4 12/103/4 72/105/4
f 46/104/4 51/103/4 11/105/4
f 3/104/13 41/103/13 73/105/3
f 73/104/3 74/103/3 3/105/13
f 68/107/5 75/106/5 35/108/5
f 35/107/5 36/106/5 68/108/5
f 61/26/7 66/28/7 76/44/7
f 76/26/7 62/28/7 61/44/7
f 67/26/14 64/28/14 75/44/14
f 75/26/14 77/28/14 67/44/14
f 38/51/5 37/52/5 60/50/5
f 76/51/5 78/52/5 38/50/5
f 38/51/5 62/52/5 76/50/5
f 38/51/5 60/52/5 62/50/5
f 64/63/4 75/64/4 68/62/4
f 68/63/4 63/64/4 64/62/4
f 68/63/4 23/64/4 63/62/4
f 23/63/4 46/64/4 63/62/4
f 23/63/4 24/64/4 46/62/4
f 24/63/4 45/64/4 46/62/4
f 79/110/7 73/109/7 41/111/15
f 41/110/15 34/109/15 79/111/7
f 74/110/1 80/109/1 81/111/1
f 81/110/1 82/109/1 74/111/1
f 16/110/6 23/109/6 42/111/6
f 42/110/6 15/109/6 16/111/6
f 42/110/6 83/109/6 15/111/6
f 42/110/6 43/109/6 83/111/6
f 85/113/7 84/112/7 86/114/7
f 86/113/7 87/112/7 85/114/7
f 88/113/5 84/112/5 85/114/5
f 85/113/5 89/112/5 88/114/5
f 34/113/16 5/112/16 82/114/5
f 82/113/5 79/112/5 34/114/16
f 86/113/3 90/112/3 91/114/3
f 91/113/3 87/112/3 86/114/3
f 93/116/3 92/115/3 94/117/3
f 94/116/3 95/115/3 93/117/3
f 96/119/2 81/118/2 80/120/2
f 80/119/2 97/118/2 96/120/2
f 97/119/2 98/118/2 96/120/2
f 97/119/2 99/118/2 98/120/2
f 101/119/2 100/118/2 81/120/2
f 81/119/2 96/118/2 101/120/2
f 101/119/2 99/118/2 100/120/2
f 99/119/2 97/118/2 100/120/2
f 67/75/4 77/76/4 47/74/4
f 47/75/4 50/76/4 67/74/4
f 93/75/1 95/76/1 102/74/1
f 102/75/1 103/76/1 93/74/1
f 104/75/7 92/76/7 39/74/15
f 39/75/15 9/76/15 104/74/7
f 7/75/2 15/76/2 39/74/2
f 39/75/2 9/76/2 7/74/2
f 79/75/5 82/76/5 81/74/5
f 81/75/5 100/76/5 79/74/5
f 5/75/2 3/76/2 41/74/2
f 41/75/2 34/76/2 5/74/2
f 52/75/10 51/76/10 46/74/10
f 46/75/10 58/76/10 52/74/10
f 46/75/10 6/76/10 58/74/10
f 6/75/10 5/76/10 58/74/10
f 36/75/3 15/76/3 83/74/3
f 83/75/3 105/76/3 36/74/3
f 3/79/17 74/80/1 82/78/1
f 82/79/1 5/80/17 3/78/17
f 88/79/1 89/80/1 91/78/1
f 91/79/1 90/80/1 88/78/1
f 106/79/18 65/80/18 78/78/18
f 78/79/18 76/80/18 106/78/18
f 76/79/18 107/80/18 106/78/18
f 76/79/18 108/80/18 107/78/18
f 109/79/18 66/80/18 65/78/18
f 65/79/18 106/80/18 109/78/18
f 109/79/18 108/80/18 66/78/18
f 108/79/18 76/80/18 66/78/18
f 110/122/2 105/121/2 83/99/2
f 83/122/2 111/121/2 110/99/2
f 83/122/2 28/121/2 111/99/2
f 83/122/2 29/121/2 28/99/2
f 83/122/2 43/121/2 29/99/2
f 74/122/3 73/121/3 97/99/3
f 97/122/3 80/121/3 74/99/3
f 97/122/7 73/121/7 79/99/7
f 79/122/7 100/121/7 97/99/7
f 94/12/7 92/14/7 104/123/7
f 104/12/7 112/14/7 94/123/7
f 36/125/1 105/124/1 110/102/1
f 110/125/1 68/124/1 36/102/1
f 110/125/1 70/124/1 68/102/1
f 85/125/2 102/124/2 95/102/2
f 95/125/2 94/124/2 85/102/2
f 94/125/2 89/124/2 85/102/2
f 94/125/2 91/124/2 89/102/2
f 87/125/2 112/124/2 102/102/2
f 102/125/2 85/124/2 87/102/2
f 87/125/2 91/124/2 112/102/2
f 91/125/2 94/124/2 112/102/2
f 104/125/5 103/124/5 102/102/5
f 102/125/5 112/124/5 104/102/5
f 15/125/13 39/124/13 92/102/3
f 92/125/3 93/124/3 15/102/13
f 113/127/2 14/126/2 13/128/2
f 113/127/2 58/126/2 57/128/2
f 113/127/2 52/126/2 58/128/2
f 113/127/2 13/126/2 52/128/2
f 57/127/2 114/126/2 113/128/2
f 9/15/16 7/129/16 103/130/5
f 103/15/5 104/129/5 9/130/16
f 15/15/17 93/129/1 103/130/1
f 103/15/1 7/129/17 15/130/17
f 116/132/5 115/131/5 96/133/5
f 96/132/5 98/131/5 116/133/5
f 118/132/3 117/131/3 99/133/3
f 99/132/3 101/131/3 118/133/3
f 96/132/7 115/131/7 118/133/7
f 118/132/7 101/131/7 96/133/7
f 116/134/1 98/39/1 99/37/1
f 99/134/1 117/39/1 116/37/1
f 71/136/1 114/135/1 57/137/1
f 57/136/1 63/135/1 71/137/1
f 57/136/1 32/135/1 63/137/1
f 63/136/3 46/135/3 6/137/3
f 6/136/3 32/135/3 63/137/3
f 6/136/3 5/135/3 32/137/3
f 31/136/1 59/135/1 60/137/1
f 64/136/1 30/135/1 31/137/1
f 31/136/1 75/135/1 64/137/1
f 31/136/1 37/135/1 75/137/1
f 37/136/1 35/135/1 75/137/1
f 31/136/1 60/135/1 37/137/1
f 6/136/3 19/135/3 34/137/3
f 34/136/3 5/135/3 6/137/3
f 22/87/5 16/88/5 15/86/5
f 15/87/5 39/88/5 22/86/5
f 47/94/5 77/92/5 75/96/5
f 75/94/5 23/92/5 47/96/5
f 75/94/5 68/92/5 23/96/5

usemtl glass
usemap glass

f 109/139/18 106/138/18 107/140/18
f 107/140/18 108/141/18 109/139/18
f 119/143/19 56/142/19 53/144/19
f 53/144/19 120/145/19 119/143/19
f 122/108/20 121/146/20 54/107/12
f 54/107/12 55/106/12 122/108/20
f 53/111/21 54/147/21 121/148/21
f 121/148/21 123/110/21 53/111/21
f 123/110/21 120/109/21 53/111/21
f 86/150/2 84/149/2 88/151/2
f 88/151/2 90/152/2 86/150/2
f 122/154/22 55/153/22 56/155/22
f 56/155/22 124/156/22 122/154/22
f 56/155/22 119/157/22 124/156/22
f 119/159/23 120/158/23 123/160/23
f 123/160/23 124/161/23 119/159/23
f 118/133/2 115/162/2 116/132/2
f 116/132/2 117/131/2 118/133/2
f 124/137/11 123/163/11 121/136/20
f 121/136/20 122/135/20 124/137/11

usemtl pipe
usemap pipe

f 114/99/2 125/164/2 14/98/2
f 14/98/2 113/97/2 114/99/2
f 127/102/4 126/165/4 128/101/4
f 128/101/4 129/100/4 127/102/4
f 70/167/1 110/166/1 130/104/1
f 130/104/1 131/105/1 70/167/1
f 130/104/1 132/103/1 131/105/1
f 128/169/5 126/168/5 71/170/5
f 71/170/5 133/171/5 128/169/5
f 71/170/5 72/37/5 133/171/5
f 12/173/7 134/172/7 133/174/7
f 133/174/7 72/167/7 12/173/7
f 134/114/24 129/175/24 128/113/24
f 128/113/24 133/112/24 134/114/24
f 136/117/24 135/176/24 137/116/24
f 137/116/24 138/115/24 136/117/24
f 26/120/7 69/126/7 136/119/7
f 136/119/7 138/118/7 26/120/7
f 131/178/3 135/177/3 136/179/3
f 136/179/3 70/180/3 131/178/3
f 136/179/3 69/12/3 70/180/3
f 131/99/4 132/164/4 137/122/4
f 137/122/4 135/121/4 131/99/4
f 127/178/3 129/177/3 134/179/3
f 134/179/3 125/123/3 127/178/3
f 134/179/3 12/12/3 125/123/3
f 12/12/3 14/14/3 125/123/3
f 130/102/2 110/165/2 111/125/2
f 111/125/2 28/124/2 130/102/2
f 127/182/1 125/181/1 114/127/1
f 114/127/1 126/128/1 127/182/1
f 114/127/1 71/126/1 126/128/1
f 65/129/7 19/16/7 45/183/7
f 45/183/7 24/184/7 65/129/7
f 65/129/7 34/15/7 19/16/7
f 24/184/7 78/185/7 65/129/7
f 24/184/7 38/186/7 78/185/7
f 24/184/7 39/5/7 38/186/7
f 24/184/7 22/6/7 39/5/7
f 34/15/7 65/129/7 33/130/7
f 137/169/5 132/168/5 130/134/5
f 130/134/5 138/171/5 137/169/5
f 130/134/5 26/37/5 138/171/5
f 130/134/5 28/39/5 26/37/5
