# Made using Asset Forge (www.assetforge.io) version 1.0 

mtllib stairs.mtl 

g stairs

v 0 2.779998 5.135 
v -1.692005 2.779998 4.408002 
v -1.692005 2.779998 5.135 
v -4.834302 2.779998 4.108 
v 0 2.779998 4.108 
v -3.142292 2.779998 4.408002 
v -3.142292 2.779998 5.135 
v -4.834302 2.779998 5.135 
v 0 0.2999977 1.027 
v -1.692005 0.2999977 0.2999977 
v -1.692005 0.2999977 1.027 
v -4.834297 0.2999977 0 
v 0 0.2999977 0 
v -3.142292 0.2999977 0.2999977 
v -4.834302 0.2999977 1.027 
v -3.142292 0.2999977 1.027 
v 0 1.539998 3.081 
v -1.692005 1.539998 2.354002 
v -1.692005 1.539998 3.081 
v -4.834302 1.539998 2.054 
v 0 1.539998 2.054 
v -3.142292 1.539998 2.354002 
v -4.834302 1.539998 3.081 
v -3.142292 1.539998 3.081 
v 0 0.9199978 2.054 
v -1.692005 0.9199978 1.326998 
v -1.692005 0.9199978 2.054 
v -4.834302 0.9199978 1.027 
v 0 0.9199978 1.027 
v -3.142292 0.9199978 1.326998 
v -4.834302 0.9199978 2.054 
v -3.142292 0.9199978 2.054 
v 0 2.159998 4.108 
v -1.692005 2.159998 3.381002 
v -1.692005 2.159998 4.108 
v -4.834302 2.159998 3.081 
v 0 2.159998 3.081 
v -3.142292 2.159998 3.380997 
v -4.834302 2.159998 4.108 
v -3.142292 2.159998 4.108 
v -4.834302 3.100001 4.108 
v -4.834302 3.100001 5.135 
v 0 3.100001 5.135 
v 0 3.100001 4.108 
v 0 1.86 2.054 
v 0 1.86 3.081 
v -4.834302 2.48 3.081 
v 0 2.48 3.081 
v 0 2.48 4.108 
v -1.692005 2.48 4.108 
v -1.692005 2.48 4.408002 
v -3.142292 2.48 4.108 
v -4.834302 2.48 4.108 
v -3.142292 2.48 4.408002 
v -1.692005 1.86 3.081 
v -4.834302 1.86 2.054 
v -4.834302 1.86 3.081 
v -1.692005 1.86 3.380997 
v -3.142292 1.86 3.081 
v -3.142292 1.86 3.380997 
v 0 1.24 2.054 
v -1.692005 1.24 2.054 
v -4.834302 1.24 1.027 
v 0 1.24 1.027 
v -4.834302 1.24 2.054 
v -1.692005 0.6200001 1.027 
v 0 0.6200001 1.027 
v 0 0.6200001 0 
v -4.834297 0.6200001 0 
v -1.692005 0.6200001 1.326998 
v -3.142292 0.6200001 1.027 
v -4.834302 0.6200001 1.027 
v -3.142292 0.6200001 1.326998 
v -1.692005 1.24 2.354002 
v -3.142292 1.24 2.054 
v -3.142292 1.24 2.353997 
v -3.142292 0 0.2999977 
v -1.692005 0 0.2999977 
v -1.692005 0 1.027 
v -3.142292 0 1.027 
v -1.692005 2.48 5.135 
v -3.142292 2.48 5.135 

vn -0.003921539 -0.9999924 0
vn -0.003921539 0.9999924 0
vn -0.9999924 0.003921539 0
vn -0.003921569 0.003921569 0.9999846
vn 0.9999924 0.003921539 0
vn -0.003921569 0.003921569 -0.9999846
vn -0.003921569 -0.8588235 0.5122566

vt -3.490577E-06 -3.490577E-06
vt -20.21654 -3.490577E-06
vt 6.661431 1.181099
vt 12.37124 1.181099
vt 6.661431 -3.490577E-06
vt 6.661431 6.062998
vt 12.37124 6.062998
vt 6.661431 4.881896
vt -12.37124 22.35336
vt -6.661438 22.35336
vt -12.37124 3.461449
vt 6.661431 3.622044
vt 12.37124 3.622044
vt 6.661431 2.440941
vt 6.661431 8.503942
vt 12.37124 8.503942
vt 6.661431 7.32284
vt -12.37124 10.94488
vt -6.661438 10.94488
vt -12.37124 9.763784
vt -12.37124 4.043307
vt -6.661438 4.043307
vt -12.37124 1.181099
vt 12.12993 6.062998
vt 12.12993 7.32283
vt 13.31102 7.32283
vt -20.21654 10.94488
vt -17.35433 10.94488
vt -20.21654 9.763784
vt 12.37124 -3.490577E-06
vt 12.37124 4.881896
vt -6.661438 3.461449
vt 12.37124 2.440941
vt 12.37124 9.763784
vt 6.661431 9.763784
vt 12.37124 10.94489
vt 6.661431 10.94489
vt 12.37124 7.32284
vt -6.661438 9.763784
vt -6.661438 1.181099
vt 1.181099 -3.490577E-06
vt 1.181099 1.181099
vt 4.043307 -3.490577E-06
vt 4.043307 1.181099
vt 20.21654 9.763784
vt 8.086617 3.622044
vt 5.22441 2.440941
vt 4.043307 2.440941
vt 5.22441 3.622044
vt 9.26772 4.881896
vt 8.086617 4.881896
vt 9.26772 6.062998
vt 16.17323 8.503933
vt 13.31103 8.503933
vt 17.35433 9.763784
vt 17.35433 10.94488
vt 20.21654 10.94488
vt 16.17323 9.763784
vt -8.086615 4.881896
vt -8.086615 3.622044
vt -9.267716 4.881896
vt -12.12992 6.062998
vt -4.043304 -3.490577E-06
vt -5.224406 2.440941
vt -4.043304 2.440941
vt -4.043304 1.181099
vt -1.181106 -3.490577E-06
vt -1.181106 1.181099
vt -5.224406 3.622044
vt -9.267716 6.062998
vt -13.31103 7.32283
vt -12.12992 7.32283
vt -16.17323 8.503933
vt -13.31103 8.503933
vt -17.35433 9.763784
vt -16.17323 9.763784

usemtl _defaultMat
usemap _defaultMat

f 2/1/1 1/1/1 3/2/1
f 2/1/1 4/1/1 5/2/1
f 5/1/1 1/1/1 2/2/1
f 2/1/1 6/1/1 4/2/1
f 6/1/1 7/1/1 4/2/1
f 7/1/1 8/1/1 4/2/1
f 10/4/1 9/3/1 11/5/1
f 10/4/1 12/3/1 13/5/1
f 13/4/1 9/3/1 10/5/1
f 10/4/1 14/3/1 12/5/1
f 16/4/1 15/3/1 12/5/1
f 14/4/1 16/3/1 12/5/1
f 18/7/1 17/6/1 19/8/1
f 18/7/1 20/6/1 21/8/1
f 21/7/1 17/6/1 18/8/1
f 18/7/1 22/6/1 20/8/1
f 24/7/1 23/6/1 20/8/1
f 22/7/1 24/6/1 20/8/1
f 26/10/1 25/9/1 27/11/1
f 26/10/1 28/9/1 29/11/1
f 29/10/1 25/9/1 26/11/1
f 26/10/1 30/9/1 28/11/1
f 32/10/1 31/9/1 28/11/1
f 30/10/1 32/9/1 28/11/1
f 34/13/1 33/12/1 35/14/1
f 34/13/1 36/12/1 37/14/1
f 37/13/1 33/12/1 34/14/1
f 34/13/1 38/12/1 36/14/1
f 40/13/1 39/12/1 36/14/1
f 38/13/1 40/12/1 36/14/1
f 19/16/2 18/15/2 22/17/2
f 22/16/2 24/15/2 19/17/2
f 41/16/3 4/15/3 8/17/3
f 8/16/3 42/15/3 41/17/3
f 3/16/4 1/15/4 43/17/4
f 43/16/4 7/15/4 3/17/4
f 42/16/4 8/15/4 7/17/4
f 7/16/4 43/15/4 42/17/4
f 43/16/2 44/15/2 41/17/2
f 41/16/2 42/15/2 43/17/2
f 3/16/2 2/15/2 6/17/2
f 6/16/2 7/15/2 3/17/2
f 5/16/5 44/15/5 43/17/5
f 43/16/5 1/15/5 5/17/5
f 35/19/2 34/18/2 38/20/2
f 38/19/2 40/18/2 35/20/2
f 5/19/6 4/18/6 41/20/6
f 41/19/6 44/18/6 5/20/6
f 11/19/2 10/18/2 14/20/2
f 14/19/2 16/18/2 11/20/2
f 21/19/5 45/18/5 46/20/5
f 46/19/5 17/18/5 21/20/5
f 37/19/6 36/18/6 47/20/6
f 47/19/6 48/18/6 37/20/6
f 49/19/2 48/18/2 47/20/2
f 47/19/2 50/18/2 49/20/2
f 47/19/2 51/18/2 50/20/2
f 47/19/2 52/18/2 51/20/2
f 47/19/2 53/18/2 52/20/2
f 51/19/2 52/18/2 54/20/2
f 37/19/5 48/18/5 49/20/5
f 49/19/5 33/18/5 37/20/5
f 35/19/4 33/18/4 49/20/4
f 49/19/4 50/18/4 35/20/4
f 53/22/4 39/21/4 40/23/4
f 40/22/4 52/21/4 53/23/4
f 19/22/4 17/21/4 46/23/4
f 46/22/4 55/21/4 19/23/4
f 56/22/3 20/21/3 23/23/3
f 23/22/3 57/21/3 56/23/3
f 47/22/3 36/21/3 39/23/3
f 39/22/3 53/21/3 47/23/3
f 21/22/6 20/21/6 56/23/6
f 56/22/6 45/21/6 21/23/6
f 46/22/2 45/21/2 56/23/2
f 56/22/2 55/21/2 46/23/2
f 56/22/2 58/21/2 55/23/2
f 56/22/2 59/21/2 58/23/2
f 56/22/2 57/21/2 59/23/2
f 58/22/2 59/21/2 60/23/2
f 57/22/4 23/21/4 24/23/4
f 24/22/4 59/21/4 57/23/4
f 27/22/4 25/21/4 61/23/4
f 61/22/4 62/21/4 27/23/4
f 29/22/6 28/21/6 63/23/6
f 63/22/6 64/21/6 29/23/6
f 63/22/3 28/21/3 31/23/3
f 31/22/3 65/21/3 63/23/3
f 66/22/4 11/21/4 9/23/4
f 9/22/4 67/21/4 66/23/4
f 27/22/2 26/21/2 30/23/2
f 30/22/2 32/21/2 27/23/2
f 67/22/2 68/21/2 69/23/2
f 69/22/2 66/21/2 67/23/2
f 69/22/2 70/21/2 66/23/2
f 69/22/2 71/21/2 70/23/2
f 69/22/2 72/21/2 71/23/2
f 70/22/2 71/21/2 73/23/2
f 69/22/3 12/21/3 15/23/3
f 15/22/3 72/21/3 69/23/3
f 29/22/5 64/21/5 61/23/5
f 61/22/5 25/21/5 29/23/5
f 13/22/5 68/21/5 67/23/5
f 67/22/5 9/21/5 13/23/5
f 61/22/2 64/21/2 63/23/2
f 63/22/2 62/21/2 61/23/2
f 63/22/2 74/21/2 62/23/2
f 63/22/2 75/21/2 74/23/2
f 63/22/2 65/21/2 75/23/2
f 74/22/2 75/21/2 76/23/2
f 15/25/4 16/24/4 71/26/4
f 71/25/4 72/24/4 15/26/4
f 13/25/6 12/24/6 69/26/6
f 69/25/6 68/24/6 13/26/6
f 31/28/4 32/27/4 75/29/4
f 75/28/4 65/27/4 31/29/4

usemtl metal
usemap metal

f 78/5/6 77/30/6 14/4/6
f 14/4/6 10/3/6 78/5/6
f 74/8/6 76/31/6 22/7/6
f 22/7/6 18/6/6 74/8/6
f 80/11/7 79/32/7 81/10/7
f 81/10/7 82/9/7 80/11/7
f 70/14/6 73/33/6 30/13/6
f 30/13/6 26/12/6 70/14/6
f 51/35/6 54/34/6 6/36/6
f 6/36/6 2/37/6 51/35/6
f 58/17/6 60/38/6 38/16/6
f 38/16/6 34/15/6 58/17/6
f 82/20/4 81/39/4 3/19/4
f 3/19/4 7/18/4 82/20/4
f 77/23/1 78/40/1 79/22/1
f 79/22/1 80/21/1 77/23/1
f 14/42/3 77/41/3 80/43/3
f 80/43/3 16/44/3 14/42/3
f 80/43/3 82/45/3 16/44/3
f 82/45/3 32/46/3 16/44/3
f 32/46/3 73/47/3 16/44/3
f 73/47/3 71/48/3 16/44/3
f 32/46/3 30/49/3 73/47/3
f 82/45/3 24/24/3 32/46/3
f 24/24/3 76/50/3 32/46/3
f 76/50/3 75/51/3 32/46/3
f 24/24/3 22/52/3 76/50/3
f 82/45/3 60/26/3 24/24/3
f 82/45/3 40/53/3 60/26/3
f 40/53/3 38/54/3 60/26/3
f 82/45/3 54/55/3 40/53/3
f 82/45/3 6/56/3 54/55/3
f 82/45/3 7/57/3 6/56/3
f 52/58/3 40/53/3 54/55/3
f 59/25/3 24/24/3 60/26/3
f 27/60/5 62/59/5 74/61/5
f 27/60/5 74/61/5 19/62/5
f 27/60/5 19/62/5 81/29/5
f 27/60/5 81/29/5 79/63/5
f 70/64/5 27/60/5 79/63/5
f 66/65/5 70/64/5 79/63/5
f 11/66/5 66/65/5 79/63/5
f 11/66/5 79/63/5 78/67/5
f 78/67/5 10/68/5 11/66/5
f 70/64/5 26/69/5 27/60/5
f 74/61/5 18/70/5 19/62/5
f 19/62/5 58/71/5 81/29/5
f 19/62/5 55/72/5 58/71/5
f 58/71/5 35/73/5 81/29/5
f 58/71/5 34/74/5 35/73/5
f 35/73/5 51/75/5 81/29/5
f 35/73/5 50/76/5 51/75/5
f 51/75/5 2/28/5 81/29/5
f 2/28/5 3/27/5 81/29/5
