# Made using Asset Forge (www.assetforge.io) version 1.0 

mtllib stairsLong.mtl 

g stairsLong

v -3.142298 0 0.3000036 
v -1.692005 0 0.3000036 
v -3.142298 0.3000036 0.3000036 
v -1.692005 0.3000036 0.3000036 
v -3.142298 1.239998 2.353997 
v -1.692005 1.239998 2.353997 
v -3.142298 1.540002 2.353997 
v -1.692005 1.540002 2.353997 
v -3.142298 0.6199992 1.327001 
v -1.692005 0.6199992 1.327001 
v -3.142298 0.9200028 1.327001 
v -1.692005 0.9200028 1.327001 
v -3.142298 1.859998 3.381003 
v -1.692005 1.859998 3.381003 
v -3.142298 2.160001 3.381003 
v -1.692005 2.160001 3.381003 
v -1.692005 0 1.026997 
v -3.142298 0 1.026997 
v -1.692005 1.239998 2.054003 
v -1.692005 0.9200028 2.054003 
v -1.692005 1.540002 3.081 
v -1.692005 4.960002 9.243 
v -1.692005 0.6199992 1.026997 
v -1.692005 0.3000036 1.026997 
v -1.692005 2.160001 4.107997 
v -1.692005 1.859998 3.081 
v -1.692005 2.78 5.135003 
v -1.692005 2.479997 4.408 
v -1.692005 2.479997 4.107997 
v -1.692005 2.78 4.408 
v -1.692005 3.099996 5.135003 
v -1.692005 3.099996 5.434998 
v -1.692005 3.399999 6.162 
v -1.692005 3.399999 5.434998 
v -1.692005 4.019999 7.188997 
v -1.692005 3.720004 6.462003 
v -1.692005 3.720004 6.162 
v -1.692005 4.019999 6.462003 
v -1.692005 4.340003 7.489 
v -1.692005 4.340003 7.188997 
v -1.692005 4.639998 8.216002 
v -1.692005 4.639998 7.489 
v -1.692005 4.960002 8.515998 
v -1.692005 4.960002 8.216002 
v -1.692005 5.259996 8.515998 
v -1.692005 5.259996 9.243 
v -3.142298 0.3000036 1.026997 
v -3.142298 4.960002 9.243 
v -3.142298 0.9200028 2.054003 
v -3.142298 0.6199992 1.026997 
v -3.142298 1.540002 3.081 
v -3.142298 1.239998 2.054003 
v -3.142298 2.160001 4.107997 
v -3.142298 2.78 5.135003 
v -3.142298 2.479997 4.408 
v -3.142298 2.78 4.408 
v -3.142298 3.399999 6.162 
v -3.142298 3.099996 5.434998 
v -3.142298 3.399999 5.434998 
v -3.142298 3.099996 5.135003 
v -3.142298 2.479997 4.107997 
v -3.142298 1.859998 3.081 
v -3.142298 4.019999 7.188997 
v -3.142298 3.720004 6.462003 
v -3.142298 3.720004 6.162 
v -3.142298 4.019999 6.462003 
v -3.142298 4.340003 7.489 
v -3.142298 4.639998 8.216002 
v -3.142298 4.639998 7.489 
v -3.142298 4.960002 8.515998 
v -3.142298 5.259996 8.515998 
v -3.142298 5.259996 9.243 
v -3.142298 4.960002 8.216002 
v -3.142298 4.340003 7.188997 
v 0 0.3000036 1.026997 
v -4.834303 0.3000036 0 
v 0 0.3000036 0 
v -4.834303 0.3000036 1.026997 
v 0 1.540002 3.081 
v -4.834303 1.540002 2.054003 
v 0 1.540002 2.054003 
v -4.834303 1.540002 3.081 
v 0 0.9200028 2.054003 
v -4.834303 0.9200028 1.026997 
v 0 0.9200028 1.026997 
v -4.834303 0.9200028 2.054003 
v 0 2.160001 4.107997 
v -4.834303 2.160001 3.081 
v 0 2.160001 3.081 
v -4.834303 2.160001 4.107997 
v 0 3.099996 4.107997 
v 0 3.099996 5.135003 
v -4.834303 3.099996 4.107997 
v -4.834303 3.099996 5.135003 
v 0 1.859998 2.054003 
v 0 1.859998 3.081 
v -4.834303 2.479997 3.081 
v 0 2.479997 3.081 
v 0 2.479997 4.107997 
v -4.834303 2.479997 4.107997 
v -4.834303 1.859998 2.054003 
v -4.834303 1.859998 3.081 
v 0 1.239998 2.054003 
v -4.834303 1.239998 1.026997 
v 0 1.239998 1.026997 
v -4.834303 1.239998 2.054003 
v 0 0.6199992 1.026997 
v 0 0.6199992 0 
v -4.834303 0.6199992 0 
v -4.834303 0.6199992 1.026997 
v 0 2.78 4.107997 
v 0 2.78 5.135003 
v 0 3.720004 5.135003 
v 0 3.720004 6.162 
v -4.834303 3.720004 5.135003 
v -4.834303 3.720004 6.162 
v -4.834303 4.019999 6.162 
v 0 4.019999 6.162 
v -4.834303 4.340003 6.162 
v 0 4.340003 6.162 
v 0 4.340003 7.188997 
v -4.834303 4.340003 7.188997 
v -4.834303 4.019999 7.188997 
v -4.834303 3.399999 5.135003 
v 0 3.399999 5.135003 
v 0 3.399999 6.162 
v -4.834303 2.78 4.107997 
v -4.834303 2.78 5.135003 
v -4.834303 4.639998 8.216002 
v -4.834303 4.960002 8.216002 
v -4.834303 3.399999 6.162 
v 0 5.259996 9.243 
v 0 5.580001 9.243 
v -4.834303 5.259996 9.243 
v -4.834303 5.580001 9.243 
v -4.834303 5.259996 8.216002 
v -4.834303 5.580001 8.216002 
v 0 4.960002 7.188997 
v 0 4.960002 8.216002 
v -4.834303 4.960002 7.188997 
v 0 4.019999 7.188997 
v -4.834303 4.639998 7.188997 
v 0 4.639998 8.216002 
v 0 4.639998 7.188997 
v 0 5.580001 8.216002 
v 0 5.259996 8.216002 

vn -0.003921569 0.003921569 -0.9999846
vn -0.003921539 -0.9999924 0
vn 0.9999924 0.003921539 0
vn -0.9999924 0.003921539 0
vn -0.003921569 0.003921569 0.9999846
vn -0.003921569 -0.8588235 0.5122566
vn -0.003921539 0.9999924 0

vt 12.37124 -1.377498E-06
vt 6.661434 -1.377498E-06
vt 12.37124 1.181099
vt 6.661434 1.181099
vt 12.37124 4.881889
vt 6.661434 4.881889
vt 12.37124 6.062998
vt 6.661434 6.062998
vt 12.37124 2.440948
vt 6.661434 2.440948
vt 12.37124 3.622049
vt 6.661434 3.622049
vt 12.37124 7.322839
vt 6.661434 7.322839
vt 12.37124 8.503939
vt 6.661434 8.503939
vt -6.661437 1.181099
vt -12.37123 1.181099
vt -6.661437 4.04331
vt -12.37123 4.04331
vt -8.086614 4.881889
vt -8.086614 3.622049
vt -9.267715 4.881889
vt -12.12992 6.062998
vt -36.38976 19.52756
vt -4.043313 -1.377498E-06
vt -5.224412 2.440948
vt -4.043313 2.440948
vt -4.043313 1.181099
vt -1.181102 -1.377498E-06
vt -1.181102 1.181099
vt -5.224412 3.622049
vt -9.267715 6.062998
vt -16.17323 8.503939
vt -13.31103 7.322839
vt -12.12992 7.322839
vt -13.31103 8.503939
vt -20.21654 10.94488
vt -17.35434 9.763779
vt -16.17323 9.763779
vt -17.35434 10.94488
vt -20.21654 12.20473
vt -21.39764 12.20473
vt -24.25984 13.38583
vt -21.39764 13.38583
vt -28.30315 15.82677
vt -25.44094 14.64567
vt -24.25984 14.64567
vt -25.44094 15.82677
vt -29.48425 17.08662
vt -28.30315 17.08662
vt -32.34646 18.26772
vt -29.48425 18.26772
vt -33.52756 19.52756
vt -32.34646 19.52756
vt -33.52756 20.70867
vt -36.38976 20.70867
vt 1.181099 -1.377498E-06
vt 1.181099 1.181099
vt 4.04331 -1.377498E-06
vt 4.04331 1.181099
vt 36.38976 19.52756
vt 8.08662 3.622049
vt 5.22441 2.440948
vt 4.04331 2.440948
vt 5.22441 3.622049
vt 12.12992 6.062998
vt 9.267721 4.881889
vt 8.08662 4.881889
vt 9.267721 6.062998
vt 16.17323 8.503939
vt 13.31102 7.322839
vt 13.31102 8.503939
vt 20.21654 10.94488
vt 17.35433 9.763779
vt 17.35433 10.94488
vt 24.25985 13.38583
vt 21.39764 12.20473
vt 21.39764 13.38583
vt 20.21654 12.20473
vt 16.17323 9.763779
vt 12.12992 7.322839
vt 28.30316 15.82677
vt 25.44095 14.64567
vt 24.25985 14.64567
vt 25.44095 15.82677
vt 29.48426 17.08662
vt 32.34646 18.26772
vt 29.48426 18.26772
vt 33.52757 19.52756
vt 33.52757 20.70867
vt 36.38976 20.70867
vt 32.34646 19.52756
vt 28.30316 17.08662
vt -6.661437 19.52756
vt -12.37123 19.52756
vt -6.661437 20.70867
vt -12.37123 20.70867
vt 12.37124 12.20473
vt 6.661434 12.20473
vt 12.37124 13.38583
vt 6.661434 13.38583
vt 12.37124 9.763788
vt 6.661434 9.763788
vt 12.37124 10.94489
vt 6.661434 10.94489
vt 12.37124 14.64568
vt 6.661434 14.64568
vt 12.37124 15.82678
vt 6.661434 15.82678
vt 12.37124 19.52757
vt 6.661434 19.52757
vt 12.37124 20.70867
vt 6.661434 20.70867
vt 12.37124 17.08662
vt 6.661434 17.08662
vt 12.37124 18.26773
vt 6.661434 18.26773
vt -6.661437 3.46145
vt -12.37123 3.46145
vt -6.661437 41.24529
vt -12.37123 41.24529

usemtl metal
usemap metal

f 2/2/1 1/1/1 3/3/1
f 3/3/1 4/4/1 2/2/1
f 6/6/1 5/5/1 7/7/1
f 7/7/1 8/8/1 6/6/1
f 10/10/1 9/9/1 11/11/1
f 11/11/1 12/12/1 10/10/1
f 14/14/1 13/13/1 15/15/1
f 15/15/1 16/16/1 14/14/1
f 1/18/2 2/17/2 17/19/2
f 17/19/2 18/20/2 1/18/2
f 20/22/3 19/21/3 6/23/3
f 20/22/3 6/23/3 21/24/3
f 20/22/3 21/24/3 22/25/3
f 20/22/3 22/25/3 17/26/3
f 10/27/3 20/22/3 17/26/3
f 23/28/3 10/27/3 17/26/3
f 24/29/3 23/28/3 17/26/3
f 24/29/3 17/26/3 2/30/3
f 2/30/3 4/31/3 24/29/3
f 10/27/3 12/32/3 20/22/3
f 6/23/3 8/33/3 21/24/3
f 21/24/3 25/34/3 22/25/3
f 21/24/3 14/35/3 25/34/3
f 21/24/3 26/36/3 14/35/3
f 14/35/3 16/37/3 25/34/3
f 25/34/3 27/38/3 22/25/3
f 25/34/3 28/39/3 27/38/3
f 25/34/3 29/40/3 28/39/3
f 28/39/3 30/41/3 27/38/3
f 27/38/3 31/42/3 32/43/3
f 27/38/3 32/43/3 33/44/3
f 27/38/3 33/44/3 22/25/3
f 32/43/3 34/45/3 33/44/3
f 33/44/3 35/46/3 22/25/3
f 33/44/3 36/47/3 35/46/3
f 33/44/3 37/48/3 36/47/3
f 36/47/3 38/49/3 35/46/3
f 35/46/3 39/50/3 22/25/3
f 35/46/3 40/51/3 39/50/3
f 39/50/3 41/52/3 22/25/3
f 39/50/3 42/53/3 41/52/3
f 41/52/3 43/54/3 22/25/3
f 41/52/3 44/55/3 43/54/3
f 43/54/3 45/56/3 22/25/3
f 45/56/3 46/57/3 22/25/3
f 3/59/4 1/58/4 18/60/4
f 18/60/4 47/61/4 3/59/4
f 18/60/4 48/62/4 47/61/4
f 48/62/4 49/63/4 47/61/4
f 49/63/4 9/64/4 47/61/4
f 9/64/4 50/65/4 47/61/4
f 49/63/4 11/66/4 9/64/4
f 48/62/4 51/67/4 49/63/4
f 51/67/4 5/68/4 49/63/4
f 5/68/4 52/69/4 49/63/4
f 51/67/4 7/70/4 5/68/4
f 48/62/4 53/71/4 51/67/4
f 53/71/4 13/72/4 51/67/4
f 53/71/4 15/73/4 13/72/4
f 48/62/4 54/74/4 53/71/4
f 54/74/4 55/75/4 53/71/4
f 54/74/4 56/76/4 55/75/4
f 48/62/4 57/77/4 54/74/4
f 57/77/4 58/78/4 54/74/4
f 57/77/4 59/79/4 58/78/4
f 60/80/4 54/74/4 58/78/4
f 61/81/4 53/71/4 55/75/4
f 62/82/4 51/67/4 13/72/4
f 48/62/4 63/83/4 57/77/4
f 63/83/4 64/84/4 57/77/4
f 64/84/4 65/85/4 57/77/4
f 63/83/4 66/86/4 64/84/4
f 48/62/4 67/87/4 63/83/4
f 48/62/4 68/88/4 67/87/4
f 68/88/4 69/89/4 67/87/4
f 48/62/4 70/90/4 68/88/4
f 48/62/4 71/91/4 70/90/4
f 48/62/4 72/92/4 71/91/4
f 73/93/4 68/88/4 70/90/4
f 74/94/4 63/83/4 67/87/4
f 48/96/5 22/95/5 46/97/5
f 46/97/5 72/98/5 48/96/5
f 32/100/1 58/99/1 59/101/1
f 59/101/1 34/102/1 32/100/1
f 28/104/1 55/103/1 56/105/1
f 56/105/1 30/106/1 28/104/1
f 36/108/1 64/107/1 66/109/1
f 66/109/1 38/110/1 36/108/1
f 43/112/1 70/111/1 71/113/1
f 71/113/1 45/114/1 43/112/1
f 39/116/1 67/115/1 69/117/1
f 69/117/1 42/118/1 39/116/1
f 18/120/6 17/119/6 22/121/6
f 22/121/6 48/122/6 18/120/6

usemtl _defaultMat
usemap _defaultMat

f 4/3/2 75/4/2 24/2/2
f 4/3/2 76/4/2 77/2/2
f 77/3/2 75/4/2 4/2/2
f 4/3/2 3/4/2 76/2/2
f 47/3/2 78/4/2 76/2/2
f 3/3/2 47/4/2 76/2/2
f 8/7/2 79/8/2 21/6/2
f 8/7/2 80/8/2 81/6/2
f 81/7/2 79/8/2 8/6/2
f 8/7/2 7/8/2 80/6/2
f 51/7/2 82/8/2 80/6/2
f 7/7/2 51/8/2 80/6/2
f 12/7/2 83/8/2 20/6/2
f 12/7/2 84/8/2 85/6/2
f 85/7/2 83/8/2 12/6/2
f 12/7/2 11/8/2 84/6/2
f 49/7/2 86/8/2 84/6/2
f 11/7/2 49/8/2 84/6/2
f 16/11/2 87/12/2 25/10/2
f 16/11/2 88/12/2 89/10/2
f 89/11/2 87/12/2 16/10/2
f 16/11/2 15/12/2 88/10/2
f 53/11/2 90/12/2 88/10/2
f 15/11/2 53/12/2 88/10/2
f 21/15/7 8/16/7 7/14/7
f 7/15/7 51/16/7 21/14/7
f 92/15/7 91/16/7 93/14/7
f 93/15/7 31/16/7 92/14/7
f 93/15/7 32/16/7 31/14/7
f 93/15/7 60/16/7 32/14/7
f 93/15/7 94/16/7 60/14/7
f 32/15/7 60/16/7 58/14/7
f 25/15/7 16/16/7 15/14/7
f 15/15/7 53/16/7 25/14/7
f 24/15/7 4/16/7 3/14/7
f 3/15/7 47/16/7 24/14/7
f 81/15/3 95/16/3 96/14/3
f 96/15/3 79/16/3 81/14/3
f 89/15/1 88/16/1 97/14/1
f 97/15/1 98/16/1 89/14/1
f 99/15/7 98/16/7 97/14/7
f 97/15/7 29/16/7 99/14/7
f 97/15/7 28/16/7 29/14/7
f 97/15/7 61/16/7 28/14/7
f 97/15/7 100/16/7 61/14/7
f 28/15/7 61/16/7 55/14/7
f 89/15/3 98/16/3 99/14/3
f 99/15/3 87/16/3 89/14/3
f 25/15/5 87/16/5 99/14/5
f 99/15/5 29/16/5 25/14/5
f 100/19/5 90/20/5 53/18/5
f 53/19/5 61/20/5 100/18/5
f 21/19/5 79/20/5 96/18/5
f 96/19/5 26/20/5 21/18/5
f 101/19/4 80/20/4 82/18/4
f 82/19/4 102/20/4 101/18/4
f 97/19/4 88/20/4 90/18/4
f 90/19/4 100/20/4 97/18/4
f 81/19/1 80/20/1 101/18/1
f 101/19/1 95/20/1 81/18/1
f 96/19/7 95/20/7 101/18/7
f 101/19/7 26/20/7 96/18/7
f 101/19/7 14/20/7 26/18/7
f 101/19/7 62/20/7 14/18/7
f 101/19/7 102/20/7 62/18/7
f 14/19/7 62/20/7 13/18/7
f 102/19/5 82/20/5 51/18/5
f 51/19/5 62/20/5 102/18/5
f 20/19/5 83/20/5 103/18/5
f 103/19/5 19/20/5 20/18/5
f 85/19/1 84/20/1 104/18/1
f 104/19/1 105/20/1 85/18/1
f 104/19/4 84/20/4 86/18/4
f 86/19/4 106/20/4 104/18/4
f 23/19/5 24/20/5 75/18/5
f 75/19/5 107/20/5 23/18/5
f 20/19/7 12/20/7 11/18/7
f 11/19/7 49/20/7 20/18/7
f 107/19/7 108/20/7 109/18/7
f 109/19/7 23/20/7 107/18/7
f 109/19/7 10/20/7 23/18/7
f 109/19/7 50/20/7 10/18/7
f 109/19/7 110/20/7 50/18/7
f 10/19/7 50/20/7 9/18/7
f 109/19/4 76/20/4 78/18/4
f 78/19/4 110/20/4 109/18/4
f 85/19/3 105/20/3 103/18/3
f 103/19/3 83/20/3 85/18/3
f 77/19/3 108/20/3 107/18/3
f 107/19/3 75/20/3 77/18/3
f 103/19/7 105/20/7 104/18/7
f 104/19/7 19/20/7 103/18/7
f 104/19/7 6/20/7 19/18/7
f 104/19/7 52/20/7 6/18/7
f 104/19/7 106/20/7 52/18/7
f 6/19/7 52/20/7 5/18/7
f 78/19/5 47/20/5 50/18/5
f 50/19/5 110/20/5 78/18/5
f 77/19/1 76/20/1 109/18/1
f 109/19/1 108/20/1 77/18/1
f 86/19/5 49/20/5 52/18/5
f 52/19/5 106/20/5 86/18/5
f 111/19/3 91/20/3 92/18/3
f 92/19/3 112/20/3 111/18/3
f 114/19/7 113/20/7 115/18/7
f 115/19/7 37/20/7 114/18/7
f 115/19/7 36/20/7 37/18/7
f 115/19/7 65/20/7 36/18/7
f 115/19/7 116/20/7 65/18/7
f 36/19/7 65/20/7 64/18/7
f 118/56/1 117/57/1 119/25/1
f 119/56/1 120/57/1 118/25/1
f 121/56/7 120/57/7 119/25/7
f 119/56/7 40/57/7 121/25/7
f 119/56/7 39/57/7 40/25/7
f 119/56/7 74/57/7 39/25/7
f 119/56/7 122/57/7 74/25/7
f 39/56/7 74/57/7 67/25/7
f 122/56/5 123/57/5 63/25/5
f 63/56/5 74/57/5 122/25/5
f 125/56/1 124/57/1 115/25/1
f 115/56/1 113/57/1 125/25/1
f 33/56/7 34/57/7 59/25/7
f 59/56/7 57/57/7 33/25/7
f 125/56/3 113/57/3 114/25/3
f 114/56/3 126/57/3 125/25/3
f 93/56/4 127/57/4 128/25/4
f 128/56/4 94/57/4 93/25/4
f 130/56/5 129/57/5 68/25/5
f 68/56/5 73/57/5 130/25/5
f 33/56/5 126/57/5 114/25/5
f 114/56/5 37/57/5 33/25/5
f 131/56/5 57/57/5 65/25/5
f 65/56/5 116/57/5 131/25/5
f 111/56/1 127/57/1 93/25/1
f 93/56/1 91/57/1 111/25/1
f 46/56/5 132/57/5 133/25/5
f 133/56/5 72/57/5 46/25/5
f 135/56/5 134/57/5 72/25/5
f 72/56/5 133/57/5 135/25/5
f 137/56/4 136/57/4 134/25/4
f 134/56/4 135/57/4 137/25/4
f 139/56/7 138/57/7 140/25/7
f 140/56/7 44/57/7 139/25/7
f 140/56/7 43/57/7 44/25/7
f 140/56/7 73/57/7 43/25/7
f 140/56/7 130/57/7 73/25/7
f 43/56/7 73/57/7 70/25/7
f 27/56/5 112/57/5 92/25/5
f 92/56/5 31/57/5 27/25/5
f 35/56/5 141/57/5 121/25/5
f 121/56/5 40/57/5 35/25/5
f 140/56/4 142/57/4 129/25/4
f 129/56/4 130/57/4 140/25/4
f 119/56/4 117/57/4 123/25/4
f 123/56/4 122/57/4 119/25/4
f 115/82/4 124/67/4 131/72/4
f 131/82/4 116/67/4 115/72/4
f 41/82/5 143/67/5 139/72/5
f 139/82/5 44/67/5 41/72/5
f 35/82/7 38/67/7 66/72/7
f 66/82/7 63/67/7 35/72/7
f 144/82/1 142/67/1 140/72/1
f 140/82/1 138/67/1 144/72/1
f 94/82/5 128/67/5 54/72/5
f 54/82/5 60/67/5 94/72/5
f 27/82/7 30/67/7 56/72/7
f 56/82/7 54/67/7 27/72/7
f 42/82/2 143/67/2 41/72/2
f 42/82/2 142/67/2 144/72/2
f 144/82/2 143/67/2 42/72/2
f 42/82/2 69/67/2 142/72/2
f 69/82/2 68/67/2 142/72/2
f 68/82/2 129/67/2 142/72/2
f 30/97/2 112/98/2 27/96/2
f 30/97/2 127/98/2 111/96/2
f 111/97/2 112/98/2 30/96/2
f 30/97/2 56/98/2 127/96/2
f 54/97/2 128/98/2 127/96/2
f 56/97/2 54/98/2 127/96/2
f 133/105/7 145/106/7 137/104/7
f 137/105/7 135/106/7 133/104/7
f 46/105/7 45/106/7 71/104/7
f 71/105/7 72/106/7 46/104/7
f 45/105/2 132/106/2 46/104/2
f 45/105/2 136/106/2 146/104/2
f 146/105/2 132/106/2 45/104/2
f 45/105/2 71/106/2 136/104/2
f 72/105/2 134/106/2 136/104/2
f 71/105/2 72/106/2 136/104/2
f 144/117/3 138/118/3 139/116/3
f 139/117/3 143/118/3 144/116/3
f 118/117/3 120/118/3 121/116/3
f 121/117/3 141/118/3 118/116/3
f 146/117/3 145/118/3 133/116/3
f 133/117/3 132/118/3 146/116/3
f 41/117/7 42/118/7 69/116/7
f 69/117/7 68/118/7 41/116/7
f 38/117/2 141/118/2 35/116/2
f 38/117/2 117/118/2 118/116/2
f 118/117/2 141/118/2 38/116/2
f 38/117/2 66/118/2 117/116/2
f 63/117/2 123/118/2 117/116/2
f 66/117/2 63/118/2 117/116/2
f 34/117/2 126/118/2 33/116/2
f 34/117/2 124/118/2 125/116/2
f 125/117/2 126/118/2 34/116/2
f 34/117/2 59/118/2 124/116/2
f 57/117/2 131/118/2 124/116/2
f 59/117/2 57/118/2 124/116/2
f 146/121/1 136/122/1 137/120/1
f 137/121/1 145/122/1 146/120/1
