# Made using Asset Forge (www.assetforge.io) version 1.0 

mtllib stationLarge.mtl 

g stationLarge

v 0 0 5.655159 
v 0 0 0 
v -0.9448426 0 6.600001 
v -5.499997 0 0 
v -5.499997 0 6.600001 
v 0 0.4000015 5.655159 
v -0.8484409 0.4000015 0.8484409 
v 0 0.4000015 0 
v -5.499997 0.4000015 0 
v -3.231693 0.4000015 0.6484402 
v -4.149596 0.4000015 0.6484402 
v -4.149596 0.4000015 0.8484409 
v -4.651556 0.4000015 0.8484409 
v -4.651556 0.4000015 3.526354 
v -4.651556 0.4000015 5.75156 
v -0.8484409 0.4000015 5.75156 
v -0.9448426 0.4000015 6.600001 
v -0.8484409 0.4000015 2.302247 
v -0.8484409 0.4000015 2.526708 
v -0.8484409 0.4000015 2.902242 
v -0.8484409 0.4000015 3.12671 
v -0.8484409 0.4000015 3.526354 
v -5.499997 0.4000015 6.600001 
v -3.231693 0.4000015 0.8484409 
v -0.8484409 1.399997 5.75156 
v -4.651556 1.399997 5.75156 
v -4.651556 1.399997 3.526354 
v -0.8484409 1.399997 3.526354 
v -1.848445 1.399997 3.526354 
v -1.848445 1.399997 5.026352 
v -3.65156 1.399997 3.526354 
v -3.65156 1.399997 5.026352 
v -1.348443 1.399997 5.026352 
v -1.348443 1.399997 3.526354 
v -4.151555 1.399997 5.026352 
v -4.151555 1.399997 3.526354 
v -1.348443 2.200001 3.526354 
v -1.348443 2.200001 4.62635 
v -1.848445 2.200001 3.526354 
v -1.848445 2.200001 4.62635 
v -1.848445 1.799999 5.026352 
v -1.348443 1.799999 5.026352 
v -3.65156 2.200001 3.526354 
v -3.65156 2.200001 4.62635 
v -4.151555 2.200001 3.526354 
v -4.151555 2.200001 4.62635 
v -4.151555 1.799999 5.026352 
v -3.65156 1.799999 5.026352 
v -1.349609 3.899999 2.063749 
v -1.349609 3.899999 2.763752 
v -1.955829 3.899999 1.713748 
v -1.955829 3.899999 3.113753 
v -2.562049 3.899999 2.063749 
v -2.562049 3.899999 2.763752 
v -1.349609 2.700002 2.063749 
v -1.349609 2.700002 2.763752 
v -1.955829 2.700002 1.713748 
v -2.562049 2.700002 2.063749 
v -2.562049 2.700002 2.763752 
v -1.955829 2.700002 3.113753 
v -1.519351 4.2 2.161752 
v -1.519351 4.2 2.665749 
v -1.955829 4.2 1.909746 
v -1.955829 4.2 2.917747 
v -2.392307 4.2 2.161752 
v -2.392307 4.2 2.665749 
v -3.231693 2.247296 0.8484409 
v -3.231693 2.700002 1.301147 
v -4.149596 2.247296 0.8484409 
v -4.149596 2.700002 1.301147 
v -4.149596 2.247296 0.6484402 
v -3.231693 2.247296 0.6484402 
v -3.231693 2.900003 1.301147 
v -3.231693 2.900003 2.944252 
v -3.231693 2.700002 2.944252 
v -4.149596 2.900003 1.301147 
v -4.149596 2.900003 2.944252 
v -4.149596 2.700002 2.944252 
v -0.8484409 2.700002 3.116054 
v -0.8484409 2.700002 3.526354 
v -4.651556 2.247296 0.8484409 
v -4.651556 2.700002 1.301147 
v -4.651556 2.700002 3.526354 
v -0.8484409 2.700002 2.302247 
v -0.8484409 2.700002 1.301147 
v -0.8484409 2.700002 2.526708 
v -0.8484409 2.700002 2.912905 
v -0.8484409 2.247296 0.8484409 
v -0.6668764 0.4000015 2.526708 
v -0.6668764 5.765216 2.526708 
v -0.8484409 5.855999 2.526708 
v -0.7576587 5.855999 2.526708 
v -0.6668764 5.765216 2.302247 
v -0.6668764 0.4000015 2.302247 
v -0.8484409 5.855999 2.302247 
v -0.7576587 5.855999 2.302247 
v -0.741321 8.15 2.938158 
v -0.741321 8.15 3.090794 
v -0.8484409 8.15 2.938158 
v -0.8484409 8.15 3.090794 
v -0.6668764 0.4000015 3.12671 
v -0.6668764 0.4000015 2.902242 

vn -0.003921539 -0.9999924 0
vn -0.003921539 0.9999924 0
vn 0.9999924 0.003921539 0
vn -0.003921569 0.003921569 0.9999846
vn -0.9999924 0.003921539 0
vn -0.003921569 0.003921569 -0.9999846
vn 0.7098039 0.003921569 0.7043884
vn -0.003921569 0.7098039 0.7043884
vn 0.4980392 0.003921569 -0.8671457
vn -0.4980392 0.003921569 -0.8671457
vn -0.4980392 0.003921569 0.8671457
vn 0.4980392 0.003921569 0.8671457
vn 0.8666667 0.4901961 -0.09271817
vn 0.4352941 0.4901961 0.7551337
vn 0.4352941 0.4901961 -0.7551337
vn -0.8666667 0.4901961 -0.09271817
vn -0.4352941 0.4901961 -0.7551337
vn -0.4352941 0.4901961 0.7551337
vn -0.003921569 0.7098039 -0.7043884
vn 0.7071068 0.7071068 0
vn 0.9999309 0.01176389 0

vt -2.655937E-06 22.26441
vt -2.655937E-06 -2.655937E-06
vt -3.71985 25.98424
vt -21.65355 -2.655937E-06
vt -21.65355 25.98424
vt 3.340326 3.340326
vt 21.65355 -2.655937E-06
vt 12.72319 2.552922
vt 16.33699 2.552922
vt 16.33699 3.340326
vt 18.31322 3.340326
vt 18.31322 13.88328
vt 18.31322 22.64393
vt 3.340326 22.64393
vt 3.719857 25.98424
vt 3.340326 9.063958
vt 3.340326 9.947672
vt 3.340326 11.42616
vt 3.340326 12.30989
vt 3.340326 13.88328
vt 21.65355 25.98424
vt 12.72319 3.340326
vt -2.655937E-06 1.574806
vt -22.2644 1.574806
vt -22.2644 -2.655937E-06
vt -21.65355 1.574806
vt -3.71985 -2.655937E-06
vt -3.71985 1.574806
vt 25.98424 -2.655937E-06
vt 25.98424 1.574806
vt 21.65355 1.574806
vt -15.74331 1.574806
vt -15.74331 -2.655937E-06
vt -21.00397 1.574806
vt -21.00397 -2.655937E-06
vt -3.340319 10.62992
vt -7.277326 8.661417
vt -18.31322 10.62992
vt 13.88328 5.511813
vt 13.88328 1.574806
vt 13.88328 10.62992
vt 12.72319 11.13873
vt 12.72319 8.618172
vt 3.340326 11.13873
vt 16.33699 8.847615
vt 18.31322 8.847615
vt 16.33699 1.574806
vt -12.26792 10.62992
vt -12.30988 1.574806
vt -13.88327 10.62992
vt -13.88327 1.574806
vt -13.88327 5.511813
vt 18.31322 8.618172
vt 16.33699 8.618172
vt 18.31322 11.13873
vt 16.33699 11.13873
vt -7.277326 5.511813
vt -14.37621 5.511813
vt -14.37621 8.661417
vt -16.34471 8.661417
vt -18.31322 5.511813
vt -16.34471 5.511813
vt -5.308823 8.661417
vt -5.308823 5.511813
vt -3.340319 5.511813
vt 3.340326 1.574806
vt 3.340326 8.847615
vt 5.122632 10.62992
vt 7.700123 6.747041
vt 3.340326 5.122632
vt 12.72319 5.122632
vt 5.313435 8.125001
vt 3.340326 11.46812
vt 3.340326 12.26791
vt 10.0868 8.125001
vt 5.313435 10.88091
vt 7.700123 12.25886
vt 10.0868 10.88091
vt 12.72319 11.59153
vt 16.33699 11.59153
vt 18.31322 5.122632
vt 16.33699 5.122632
vt 3.340326 8.618172
vt 12.72319 1.574806
vt 12.72319 8.847615
vt 18.31322 1.574806
vt -3.340319 8.847615
vt -3.340319 1.574806
vt -5.122624 10.62992
vt -9.063951 1.574806
vt -9.063951 10.62992
vt -9.947678 10.62992
vt -9.947678 1.574806
vt -11.46812 10.62992
vt -11.42615 1.574806
vt -2.6255 1.574806
vt -2.6255 22.6977
vt -3.340319 23.05512
vt -2.982916 23.05512
vt -9.063951 22.6977
vt -9.947678 22.6977
vt 2.625495 1.574806
vt 3.340326 10.62992
vt 2.625495 22.6977
vt 3.340326 23.05512
vt 2.982911 23.05512
vt 9.063958 1.574806
vt 9.063958 10.62992
vt 9.947672 1.574806
vt 9.947672 10.62992
vt 9.063958 23.05512
vt 9.947672 23.05512
vt 2.982911 9.063958
vt 2.982911 9.947672
vt -9.063951 18.41166
vt -9.063951 17.90621
vt -9.947678 18.41166
vt -9.947678 17.90621
vt 2.918575 11.56755
vt 2.918575 12.16849
vt 3.340326 11.56755
vt 3.340326 12.16849
vt -2.6255 1.517746
vt -3.340319 1.517746
vt -2.91858 32.02988
vt -3.340319 10.57295
vt -3.340319 32.02988
vt 3.340326 1.62774
vt 2.625495 1.62774
vt 3.340326 10.68295
vt 2.918575 32.13987
vt 3.340326 32.13987
vt -11.42615 1.599943
vt -12.30988 1.599943
vt -11.56755 32.11317
vt -12.16848 32.11317
vt 11.42616 1.574806
vt 11.46812 10.62992
vt 12.30989 1.574806
vt 12.26791 10.62992
vt 11.56755 32.08661
vt 12.16849 32.08661

usemtl pipe
usemap pipe

f 2/2/1 1/1/1 3/3/1
f 3/3/1 4/4/1 2/2/1
f 3/3/1 5/5/1 4/4/1
f 7/6/2 6/1/2 8/2/2
f 8/2/2 9/7/2 7/6/2
f 9/7/2 10/8/2 7/6/2
f 9/7/2 11/9/2 10/8/2
f 9/7/2 12/10/2 11/9/2
f 9/7/2 13/11/2 12/10/2
f 9/7/2 14/12/2 13/11/2
f 9/7/2 15/13/2 14/12/2
f 6/1/2 7/6/2 16/14/2
f 16/14/2 17/15/2 6/1/2
f 16/14/2 15/13/2 17/15/2
f 7/6/2 18/16/2 16/14/2
f 18/16/2 19/17/2 16/14/2
f 19/17/2 20/18/2 16/14/2
f 20/18/2 21/19/2 16/14/2
f 21/19/2 22/20/2 16/14/2
f 15/13/2 23/21/2 17/15/2
f 15/13/2 9/7/2 23/21/2
f 7/6/2 10/8/2 24/22/2
f 2/2/3 8/23/3 6/24/3
f 6/24/3 1/25/3 2/2/3
f 23/26/4 5/4/4 3/27/4
f 3/27/4 17/28/4 23/26/4
f 9/23/5 4/2/5 5/29/5
f 5/29/5 23/30/5 9/23/5
f 2/2/6 4/7/6 9/31/6
f 9/31/6 8/23/6 2/2/6
f 1/33/7 6/32/7 17/34/7
f 17/34/7 3/35/7 1/33/7

usemtl _defaultMat
usemap _defaultMat

f 15/31/4 16/23/4 25/2/4
f 25/31/4 26/23/4 15/2/4
f 27/31/5 14/23/5 15/2/5
f 15/31/5 26/23/5 27/2/5
f 22/37/3 28/36/3 25/38/3
f 25/37/3 16/36/3 22/38/3
f 30/40/2 29/39/2 31/41/2
f 30/40/2 32/39/2 26/41/2
f 33/40/2 30/39/2 26/41/2
f 33/40/2 26/39/2 25/41/2
f 34/40/2 33/39/2 25/41/2
f 30/40/2 31/39/2 32/41/2
f 32/40/2 35/39/2 26/41/2
f 35/40/2 27/39/2 26/41/2
f 35/40/2 36/39/2 27/41/2
f 25/40/2 28/39/2 34/41/2
f 38/40/2 37/39/2 39/41/2
f 39/40/2 40/39/2 38/41/2
f 39/40/5 29/39/5 30/41/5
f 30/40/5 40/39/5 39/41/5
f 30/40/5 41/39/5 40/41/5
f 30/40/4 33/39/4 42/41/4
f 42/40/4 41/39/4 30/41/4
f 44/40/2 43/39/2 45/41/2
f 45/40/2 46/39/2 44/41/2
f 45/40/5 36/39/5 35/41/5
f 35/40/5 46/39/5 45/41/5
f 35/40/5 47/39/5 46/41/5
f 35/40/4 32/39/4 48/41/4
f 48/40/4 47/39/4 35/41/4
f 34/40/3 37/39/3 38/41/3
f 38/40/3 33/39/3 34/41/3
f 38/40/3 42/39/3 33/41/3
f 31/40/3 43/39/3 44/41/3
f 44/40/3 32/39/3 31/41/3
f 44/40/3 48/39/3 32/41/3
f 47/40/8 48/39/8 44/41/8
f 44/40/8 46/39/8 47/41/8
f 41/40/8 42/39/8 38/41/8
f 38/40/8 40/39/8 41/41/8
f 50/40/2 49/39/2 51/41/2
f 51/40/2 52/39/2 50/41/2
f 51/40/2 53/39/2 52/41/2
f 53/40/2 54/39/2 52/41/2
f 55/40/3 49/39/3 50/41/3
f 50/40/3 56/39/3 55/41/3
f 55/40/9 57/39/9 51/41/9
f 51/40/9 49/39/9 55/41/9
f 57/40/10 58/39/10 53/41/10
f 53/40/10 51/39/10 57/41/10
f 53/40/5 58/39/5 59/41/5
f 59/40/5 54/39/5 53/41/5
f 59/40/11 60/39/11 52/41/11
f 52/40/11 54/39/11 59/41/11
f 60/40/12 56/39/12 50/41/12
f 50/40/12 52/39/12 60/41/12
f 62/40/2 61/39/2 63/41/2
f 63/40/2 64/39/2 62/41/2
f 63/40/2 65/39/2 64/41/2
f 65/40/2 66/39/2 64/41/2
f 50/40/13 49/39/13 61/41/13
f 61/40/13 62/39/13 50/41/13
f 52/40/14 50/39/14 62/41/14
f 62/40/14 64/39/14 52/41/14
f 49/40/15 51/39/15 63/41/15
f 63/40/15 61/39/15 49/41/15
f 65/40/16 53/39/16 54/41/16
f 54/40/16 66/39/16 65/41/16
f 51/40/17 53/39/17 65/41/17
f 65/40/17 63/39/17 51/41/17
f 54/40/18 52/39/18 64/41/18
f 64/40/18 66/39/18 54/41/18
f 68/43/19 67/42/19 69/44/19
f 69/43/19 70/42/19 68/44/19
f 10/46/6 11/45/6 71/47/6
f 71/46/6 72/45/6 10/47/6
f 67/46/3 10/45/3 72/47/3
f 72/46/3 73/45/3 67/47/3
f 73/46/3 68/45/3 67/47/3
f 73/46/3 74/45/3 68/47/3
f 74/46/3 75/45/3 68/47/3
f 10/46/3 67/45/3 24/47/3
f 74/46/2 73/45/2 76/47/2
f 76/46/2 77/45/2 74/47/2
f 71/46/5 11/45/5 12/47/5
f 12/46/5 69/45/5 71/47/5
f 69/46/5 76/45/5 71/47/5
f 69/46/5 70/45/5 76/47/5
f 70/46/5 78/45/5 76/47/5
f 78/46/5 77/45/5 76/47/5
f 78/46/4 75/45/4 74/47/4
f 74/46/4 77/45/4 78/47/4
f 73/46/19 72/45/19 71/47/19
f 71/46/19 76/45/19 73/47/19

usemtl metal
usemap metal

f 21/49/3 79/48/3 80/50/3
f 80/50/3 22/51/3 21/49/3
f 80/50/3 28/52/3 22/51/3
f 69/54/19 81/53/19 82/55/19
f 82/55/19 70/56/19 69/54/19
f 31/58/4 29/57/4 39/37/4
f 39/37/4 43/59/4 31/58/4
f 39/37/4 45/60/4 43/59/4
f 45/60/4 39/37/4 83/38/4
f 45/60/4 83/38/4 27/61/4
f 27/61/4 36/62/4 45/60/4
f 39/37/4 80/36/4 83/38/4
f 80/36/4 39/37/4 37/63/4
f 80/36/4 37/63/4 34/64/4
f 34/64/4 28/65/4 80/36/4
f 81/67/5 13/66/5 14/40/5
f 14/40/5 82/68/5 81/67/5
f 14/40/5 83/41/5 82/68/5
f 14/40/5 27/39/5 83/41/5
f 57/69/2 84/16/2 85/70/2
f 85/70/2 68/71/2 57/69/2
f 57/69/2 55/72/2 84/16/2
f 55/72/2 86/17/2 84/16/2
f 55/72/2 87/73/2 86/17/2
f 55/72/2 79/74/2 87/73/2
f 55/72/2 80/20/2 79/74/2
f 68/71/2 58/75/2 57/69/2
f 80/20/2 55/72/2 56/76/2
f 80/20/2 56/76/2 60/77/2
f 60/77/2 83/12/2 80/20/2
f 60/77/2 59/78/2 83/12/2
f 59/78/2 75/79/2 83/12/2
f 59/78/2 58/75/2 75/79/2
f 58/75/2 68/71/2 75/79/2
f 75/79/2 78/80/2 83/12/2
f 78/80/2 82/81/2 83/12/2
f 78/80/2 70/82/2 82/81/2
f 85/44/19 88/83/19 67/43/19
f 67/43/19 68/42/19 85/44/19
f 7/66/6 24/84/6 67/85/6
f 67/85/6 88/67/6 7/66/6
f 12/47/6 13/86/6 81/46/6
f 81/46/6 69/45/6 12/47/6
f 7/88/3 88/87/3 85/89/3
f 85/89/3 18/90/3 7/88/3
f 85/89/3 84/91/3 18/90/3
f 19/93/3 86/92/3 87/94/3
f 87/94/3 20/95/3 19/93/3

usemtl glass
usemap glass

f 19/88/4 89/96/4 90/97/4
f 90/97/4 86/36/4 19/88/4
f 90/97/4 91/98/4 86/36/4
f 90/97/4 92/99/4 91/98/4
f 94/90/3 93/100/3 90/101/3
f 90/101/3 89/93/3 94/90/3
f 94/102/6 18/66/6 84/103/6
f 84/103/6 93/104/6 94/102/6
f 84/103/6 95/105/6 93/104/6
f 95/105/6 96/106/6 93/104/6
f 84/108/5 18/107/5 19/109/5
f 19/109/5 86/110/5 84/108/5
f 95/111/5 84/108/5 86/110/5
f 86/110/5 91/112/5 95/111/5
f 92/114/2 96/113/2 95/16/2
f 95/16/2 91/17/2 92/114/2
f 93/116/20 96/115/20 92/117/20
f 92/117/20 90/118/20 93/116/20
f 98/120/2 97/119/2 99/121/2
f 99/121/2 100/122/2 98/120/2
f 21/124/4 101/123/4 98/125/4
f 98/125/4 79/126/4 21/124/4
f 98/125/4 100/127/4 79/126/4
f 102/129/6 20/128/6 87/130/6
f 87/130/6 97/131/6 102/129/6
f 87/130/6 99/132/6 97/131/6
f 101/134/21 102/133/21 97/135/21
f 97/135/21 98/136/21 101/134/21
f 87/138/5 20/137/5 21/139/5
f 21/139/5 79/140/5 87/138/5
f 99/141/5 87/138/5 79/140/5
f 79/140/5 100/142/5 99/141/5
